<?xml version="1.0" encoding="utf-8"?>
<!-- Generator: Adobe Illustrator 19.0.0, SVG Export Plug-In . SVG Version: 6.00 Build 0)  -->
<svg version="1.1" id="Layer_1" xmlns="http://www.w3.org/2000/svg" xmlns:xlink="http://www.w3.org/1999/xlink" x="0px" y="0px"
	 viewBox="0 0 280 280" style="enable-background:new 0 0 280 280;" xml:space="preserve">
<style type="text/css">
	.st0{fill:#A3C4F3;}
	.st1{fill:#F26052;}
</style>
<g id="XMLID_229_">
	<path id="XMLID_179_" class="st0" d="M200.724,262H79.276c-8.488,0-15.369-6.881-15.369-15.369V33.369
		C63.907,24.881,70.788,18,79.276,18h121.448c8.488,0,15.369,6.881,15.369,15.369v213.262C216.093,255.119,209.212,262,200.724,262z
		"/>
	<path id="XMLID_168_" class="st1" d="M164.081,188.569H115.92c-5.177,0-9.374-4.197-9.374-9.374v-44.382
		c0-5.177,4.197-9.374,9.374-9.374h48.161c5.177,0,9.374,4.197,9.374,9.374v44.382C173.454,184.372,169.257,188.569,164.081,188.569
		z"/>
	<g id="XMLID_27_">
		<path id="XMLID_192_" d="M200.724,15H79.276c-10.129,0-18.369,8.24-18.369,18.369v213.262c0,10.129,8.24,18.369,18.369,18.369
			h121.448c10.129,0,18.369-8.24,18.369-18.369V33.369C219.093,23.24,210.853,15,200.724,15z M213.093,246.631
			c0,6.82-5.549,12.369-12.369,12.369H79.276c-6.82,0-12.369-5.549-12.369-12.369V33.369c0-6.82,5.549-12.369,12.369-12.369h121.448
			c6.82,0,12.369,5.549,12.369,12.369V246.631z"/>
		<path id="XMLID_193_" d="M124.02,39.162h31.961c1.657,0,3-1.343,3-3s-1.343-3-3-3H124.02c-1.657,0-3,1.343-3,3
			S122.363,39.162,124.02,39.162z"/>
		<circle id="XMLID_194_" cx="140" cy="239.018" r="8.248"/>
		<path id="XMLID_197_" d="M164.081,122.439h-3.271l-0.037-13.302c-0.048-11.417-9.376-20.705-20.793-20.705
			c-11.465,0-20.793,9.328-20.793,20.793v13.214h-3.267c-6.823,0-12.374,5.551-12.374,12.374v44.382
			c0,6.823,5.551,12.374,12.374,12.374h48.161c6.823,0,12.374-5.551,12.374-12.374v-44.382
			C176.454,127.989,170.903,122.439,164.081,122.439z M125.187,109.224c0-8.157,6.636-14.793,14.793-14.793
			c8.123,0,14.759,6.608,14.793,14.726l0.037,13.281h-29.623V109.224z M170.454,179.195c0,3.514-2.859,6.374-6.374,6.374h-48.161
			c-3.514,0-6.374-2.859-6.374-6.374v-44.382c0-3.515,2.859-6.374,6.374-6.374h48.161c3.514,0,6.374,2.859,6.374,6.374V179.195z"/>
		<path id="XMLID_199_" d="M150.931,146.985l-17.083,12.246l-4.303-4.879c-1.096-1.244-2.992-1.362-4.234-0.266
			c-1.243,1.096-1.361,2.992-0.266,4.234l6.096,6.913c0.589,0.668,1.417,1.016,2.251,1.016c0.607,0,1.219-0.184,1.747-0.562
			l19.288-13.826c1.346-0.965,1.655-2.84,0.69-4.187C154.152,146.33,152.277,146.02,150.931,146.985z"/>
	</g>
</g>
</svg>
