<?xml version="1.0" encoding="utf-8"?>
<!-- Generator: Adobe Illustrator 19.0.0, SVG Export Plug-In . SVG Version: 6.00 Build 0)  -->
<svg version="1.1" id="Layer_1" xmlns="http://www.w3.org/2000/svg" xmlns:xlink="http://www.w3.org/1999/xlink" x="0px" y="0px"
	 viewBox="0 0 280 280" style="enable-background:new 0 0 280 280;" xml:space="preserve">
<style type="text/css">
	.st0{fill:#A3C4F3;}
	.st1{fill:#F26052;}
</style>
<g id="XMLID_1330_">
	<path id="XMLID_1333_" class="st0" d="M238.296,120.952H128.538c-7.836-22.059-28.883-37.86-53.63-37.86
		C43.478,83.092,18,108.571,18,140s25.478,56.908,56.908,56.908c24.747,0,45.795-15.8,53.63-37.86h39.916l17.355-16.931
		l17.355,16.931l17.355-16.931l17.355,16.931h0.423L262,140L238.296,120.952z"/>
	<circle id="XMLID_1329_" class="st1" cx="55.534" cy="140" r="15.49"/>
	<g id="XMLID_432_">
		<path id="XMLID_1560_" d="M263.879,137.662l-23.704-19.048c-0.532-0.428-1.195-0.662-1.879-0.662h-107.68
			c-9-22.731-31.121-37.86-55.708-37.86C41.875,80.092,15,106.967,15,140s26.875,59.908,59.908,59.908
			c24.587,0,46.708-15.128,55.708-37.86h37.838c0.783,0,1.534-0.306,2.095-0.853l15.26-14.888l15.26,14.888
			c1.164,1.137,3.025,1.137,4.189,0l15.26-14.888l15.261,14.888c0.561,0.546,1.312,0.853,2.095,0.853h0.423
			c0.684,0,1.347-0.233,1.879-0.662l23.704-19.048c0.709-0.569,1.121-1.429,1.121-2.338S264.588,138.231,263.879,137.662z
			 M238.257,155.231l-15.645-15.262c-1.164-1.137-3.025-1.137-4.189,0l-15.26,14.888l-15.26-14.888
			c-1.164-1.137-3.025-1.137-4.189,0l-16.48,16.079h-38.695c-1.27,0-2.402,0.799-2.827,1.996
			c-7.62,21.452-28.036,35.864-50.803,35.864C45.183,193.908,21,169.725,21,140s24.183-53.908,53.908-53.908
			c22.767,0,43.184,14.413,50.803,35.864c0.425,1.196,1.558,1.996,2.827,1.996H237.24L257.211,140L238.257,155.231z"/>
		<path id="XMLID_1564_" d="M55.534,121.51c-10.195,0-18.49,8.295-18.49,18.49s8.295,18.49,18.49,18.49s18.49-8.294,18.49-18.49
			S65.729,121.51,55.534,121.51z M55.534,152.49c-6.887,0-12.49-5.603-12.49-12.49c0-6.887,5.603-12.49,12.49-12.49
			c6.887,0,12.49,5.603,12.49,12.49C68.023,146.887,62.42,152.49,55.534,152.49z"/>
	</g>
</g>
</svg>
