<?xml version="1.0" encoding="utf-8"?>
<!-- Generator: Adobe Illustrator 19.0.0, SVG Export Plug-In . SVG Version: 6.00 Build 0)  -->
<svg version="1.1" id="Layer_1" xmlns="http://www.w3.org/2000/svg" xmlns:xlink="http://www.w3.org/1999/xlink" x="0px" y="0px"
	 viewBox="0 0 280 280" style="enable-background:new 0 0 280 280;" xml:space="preserve">
<style type="text/css">
	.st0{fill:#A3C4F3;}
	.st1{fill:#F26052;}
</style>
<g id="XMLID_1319_">
	<path id="XMLID_1325_" class="st0" d="M140,262c-70.831-22.849-95.407-84.758-99.623-96.942c-0.46-1.328-0.687-2.711-0.687-4.116
		V67.276c0-5.108,3.069-9.717,7.783-11.686l87.645-36.611c3.123-1.305,6.639-1.305,9.763,0l87.645,36.611
		c4.714,1.969,7.783,6.577,7.783,11.686v93.666c0,1.406-0.227,2.788-0.687,4.116C235.407,177.242,210.831,239.151,140,262"/>
	<g id="XMLID_430_">
		<path id="XMLID_1322_" class="st1" d="M140,129.718c11.218,0,20.312-9.094,20.312-20.312V92.635
			c0-11.218-9.094-20.312-20.312-20.312s-20.312,9.094-20.312,20.312v16.771C119.688,120.624,128.782,129.718,140,129.718z"/>
		<path id="XMLID_1323_" class="st1" d="M146.311,144.6h-12.622c-22.7,0-41.1,18.405-41.094,41.105l0.006,21.972l77.823,0l16.981,0
			v-21.983C187.405,162.999,169.007,144.6,146.311,144.6z"/>
	</g>
	<g id="XMLID_428_">
		<path id="XMLID_1320_" d="M233.684,52.822l-87.646-36.611c-3.838-1.603-8.238-1.603-12.076,0L46.316,52.822
			c-5.848,2.443-9.626,8.117-9.626,14.454v93.666c0,1.751,0.286,3.466,0.852,5.097c4.297,12.417,29.385,75.542,101.537,98.816
			c0.299,0.097,0.61,0.145,0.921,0.145s0.622-0.048,0.921-0.145c72.152-23.275,97.24-86.399,101.537-98.815
			c0.565-1.632,0.852-3.347,0.852-5.098V67.276C243.31,60.939,239.531,55.265,233.684,52.822z M237.31,160.942
			c0,1.081-0.176,2.136-0.521,3.135c-4.115,11.892-28.059,72.129-96.788,94.768c-68.729-22.639-92.673-82.876-96.788-94.769
			c-0.346-0.999-0.521-2.053-0.521-3.134V67.276c0-3.91,2.331-7.41,5.938-8.917l87.646-36.611c1.184-0.494,2.454-0.741,3.726-0.741
			c1.271,0,2.542,0.247,3.726,0.741l87.646,36.611c3.607,1.507,5.938,5.008,5.938,8.917V160.942z"/>
		<path id="XMLID_1577_" d="M140,132.718c12.854,0,23.313-10.458,23.313-23.313V92.635c0-12.854-10.458-23.313-23.313-23.313
			s-23.313,10.458-23.313,23.313v16.771C116.688,122.26,127.146,132.718,140,132.718z M122.688,92.635
			c0-9.546,7.767-17.313,17.313-17.313s17.313,7.766,17.313,17.313v16.771c0,9.546-7.767,17.313-17.313,17.313
			s-17.313-7.766-17.313-17.313V92.635z"/>
		<path id="XMLID_1579_" d="M146.311,141.6h-12.621c-11.78,0-22.854,4.588-31.184,12.919s-12.914,19.407-12.911,31.188l0.006,21.972
			c0,1.656,1.344,2.999,3,2.999l77.823,0c1.657,0,3-1.343,3-3s-1.343-3-3-3l-74.824,0l-0.005-18.973
			c-0.003-10.177,3.959-19.746,11.154-26.943s16.763-11.161,26.94-11.161h12.621c21.006,0,38.095,17.089,38.095,38.094v21.983
			c0,1.657,1.343,3,3,3s3-1.343,3-3v-21.983C190.405,161.381,170.624,141.6,146.311,141.6z"/>
	</g>
</g>
</svg>
