<?xml version="1.0" encoding="utf-8"?>
<!-- Generator: Adobe Illustrator 19.0.0, SVG Export Plug-In . SVG Version: 6.00 Build 0)  -->
<svg version="1.1" id="Layer_1" xmlns="http://www.w3.org/2000/svg" xmlns:xlink="http://www.w3.org/1999/xlink" x="0px" y="0px"
	 viewBox="0 0 280 280" style="enable-background:new 0 0 280 280;" xml:space="preserve">
<style type="text/css">
	.st0{fill:#A3C4F3;}
	.st1{fill:#F26052;}
</style>
<g id="XMLID_217_">
	<circle id="XMLID_386_" class="st0" cx="140" cy="140" r="122.328"/>
	<path id="XMLID_13_" d="M140,265c-68.925,0-125-56.075-125-125C15,71.075,71.075,15,140,15c68.926,0,125,56.075,125,125
		C265,208.925,208.925,265,140,265z M140,20.343C74.021,20.343,20.343,74.021,20.343,140S74.021,259.657,140,259.657
		c65.979,0,119.658-53.678,119.658-119.657S205.979,20.343,140,20.343z"/>
	<g id="XMLID_14_">
		<path id="XMLID_385_" class="st1" d="M122.412,183.633c-1.986,0-3.974-0.734-5.523-2.207L80.38,146.697
			c-3.207-3.051-3.334-8.123-0.283-11.331c3.052-3.208,8.124-3.333,11.331-0.283l30.863,29.358l66.157-65.745
			c3.138-3.12,8.214-3.104,11.334,0.035c3.12,3.14,3.104,8.214-0.036,11.334l-71.683,71.238
			C126.501,182.855,124.458,183.633,122.412,183.633z"/>
	</g>
	<g id="XMLID_15_">
		<path id="XMLID_16_" d="M122.413,186.305c-2.754,0-5.369-1.045-7.365-2.944l-36.509-34.728c-2.068-1.967-3.246-4.622-3.318-7.476
			c-0.071-2.853,0.973-5.564,2.94-7.632c4.063-4.268,10.84-4.437,15.108-0.378l28.981,27.568l64.315-63.914
			c2.016-2.004,4.689-3.106,7.531-3.106c0.011,0,0.023,0,0.034,0c2.855,0.009,5.535,1.129,7.546,3.154
			c2.012,2.024,3.115,4.711,3.106,7.566c-0.009,2.854-1.129,5.534-3.154,7.546l-71.683,71.238
			C127.93,185.201,125.255,186.305,122.413,186.305z M85.905,135.55c-1.413,0-2.824,0.555-3.873,1.657
			c-0.983,1.034-1.505,2.389-1.469,3.816c0.036,1.427,0.624,2.754,1.658,3.738l36.509,34.729c0.997,0.949,2.305,1.472,3.682,1.472
			c1.421,0,2.759-0.551,3.766-1.553l71.684-71.238c1.012-1.006,1.572-2.346,1.577-3.773c0.004-1.427-0.547-2.771-1.553-3.783
			s-2.345-1.572-3.773-1.577c-0.005,0-0.011,0-0.017,0c-1.421,0-2.758,0.551-3.765,1.553l-66.158,65.746
			c-1.025,1.019-2.678,1.037-3.724,0.041l-30.863-29.358C88.555,136.037,87.228,135.55,85.905,135.55z"/>
	</g>
</g>
</svg>
