<?xml version="1.0" encoding="utf-8"?>
<!-- Generator: Adobe Illustrator 19.0.0, SVG Export Plug-In . SVG Version: 6.00 Build 0)  -->
<svg version="1.1" id="Layer_1" xmlns="http://www.w3.org/2000/svg" xmlns:xlink="http://www.w3.org/1999/xlink" x="0px" y="0px"
	 viewBox="0 0 280 280" style="enable-background:new 0 0 280 280;" xml:space="preserve">
<style type="text/css">
	.st0{fill:#A3C4F3;}
	.st1{fill:#F26052;}
</style>
<g id="XMLID_17_">
	<rect id="XMLID_595_" x="47.922" y="63.798" class="st0" width="184.155" height="125.155"/>
	<rect id="XMLID_594_" x="38.885" y="31.031" class="st1" width="202.231" height="32.766"/>
	<g id="XMLID_106_">
		<rect id="XMLID_593_" x="65.253" y="17.682" class="st0" width="32.861" height="26.699"/>
	</g>
	<g id="XMLID_98_">
		<rect id="XMLID_591_" x="181.885" y="17.682" class="st0" width="32.861" height="26.699"/>
	</g>
	<rect id="XMLID_491_" x="82.189" y="83.903" class="st1" width="115.621" height="79.794"/>
	<rect id="XMLID_490_" x="123.569" y="17.682" class="st0" width="32.861" height="26.699"/>
	<rect id="XMLID_489_" x="127.283" y="188.952" class="st1" width="25.434" height="73.365"/>
	<g id="XMLID_18_">
		<path id="XMLID_62_" d="M82.189,166.379h115.621c1.482,0,2.683-1.201,2.683-2.682V83.903c0-1.481-1.201-2.682-2.683-2.682H82.189
			c-1.482,0-2.683,1.201-2.683,2.682v79.794C79.506,165.178,80.708,166.379,82.189,166.379z M84.873,86.585h110.255v74.43H84.873
			V86.585z"/>
		<path id="XMLID_79_" d="M241.115,28.349H217.43V17.682c0-1.481-1.201-2.682-2.683-2.682h-32.861c-1.482,0-2.683,1.201-2.683,2.682
			v10.667h-20.088V17.682c0-1.481-1.201-2.682-2.683-2.682h-32.861c-1.482,0-2.683,1.201-2.683,2.682v10.667h-20.088V17.682
			c0-1.481-1.201-2.682-2.683-2.682H65.253c-1.482,0-2.683,1.201-2.683,2.682v10.667H38.885c-1.482,0-2.683,1.201-2.683,2.682
			v32.766c0,1.481,1.201,2.682,2.683,2.682h6.354v122.473c0,1.481,1.201,2.682,2.683,2.682h43.779v20.335H47.828
			c-1.482,0-2.683,1.201-2.683,2.682s1.201,2.682,2.683,2.682H124.6v42.302h-22.03c-1.482,0-2.683,1.201-2.683,2.682
			c0,1.481,1.201,2.682,2.683,2.682h24.713h25.434h24.976c1.482,0,2.683-1.201,2.683-2.682c0-1.481-1.201-2.682-2.683-2.682H155.4
			v-42.302h76.772c1.482,0,2.683-1.201,2.683-2.682s-1.201-2.682-2.683-2.682h-43.874v-20.335h43.779
			c1.482,0,2.683-1.201,2.683-2.682V66.479h6.354c1.482,0,2.683-1.201,2.683-2.682V31.031
			C243.798,29.55,242.597,28.349,241.115,28.349z M184.568,20.364h27.495v21.335h-27.495V20.364z M126.252,20.364h27.495v21.335
			h-27.495V20.364z M67.936,20.364h27.495v21.335H67.936V20.364z M97.068,211.97v-20.335H124.6v20.335H97.068z M129.966,259.636
			v-68.001h20.068v68.001H129.966z M182.932,211.97H155.4v-20.335h27.532V211.97z M229.395,186.27h-76.678h-25.434H50.605V66.479
			h178.789V186.27z M238.432,61.115h-6.354H47.922h-6.354V33.713H62.57v10.668c0,1.481,1.201,2.682,2.683,2.682h32.861
			c1.482,0,2.683-1.201,2.683-2.682V33.713h20.088v10.668c0,1.481,1.201,2.682,2.683,2.682h32.861c1.482,0,2.683-1.201,2.683-2.682
			V33.713h20.088v10.668c0,1.481,1.201,2.682,2.683,2.682h32.861c1.482,0,2.683-1.201,2.683-2.682V33.713h21.002V61.115z"/>
		<path id="XMLID_92_" d="M123.288,106.358c-0.533-1.177-1.712-1.938-3.005-1.938h-0.001c-1.293,0-2.472,0.762-3.003,1.938
			l-14.943,33.034c-0.611,1.349-0.011,2.938,1.339,3.549c1.351,0.612,2.94,0.011,3.55-1.339l3.116-6.888h19.883l3.116,6.888
			c0.448,0.991,1.425,1.578,2.446,1.578c0.369,0,0.745-0.077,1.104-0.239c1.35-0.61,1.95-2.199,1.339-3.549L123.288,106.358z
			 M112.769,129.35l7.515-16.614l7.515,16.614H112.769z"/>
		<path id="XMLID_95_" d="M158.514,104.421h-8.418c-1.482,0-2.683,1.201-2.683,2.682v33.395c0,1.481,1.201,2.682,2.683,2.682h8.418
			c10.69,0,19.387-8.694,19.387-19.379C177.901,113.114,169.204,104.421,158.514,104.421z M158.514,137.815h-5.735v-28.031h5.735
			c7.731,0,14.021,6.287,14.021,14.015S166.245,137.815,158.514,137.815z"/>
	</g>
</g>
</svg>
