<?xml version="1.0" encoding="utf-8"?>
<!-- Generator: Adobe Illustrator 19.0.0, SVG Export Plug-In . SVG Version: 6.00 Build 0)  -->
<svg version="1.1" id="Layer_1" xmlns="http://www.w3.org/2000/svg" xmlns:xlink="http://www.w3.org/1999/xlink" x="0px" y="0px"
	 viewBox="0 0 280 280" style="enable-background:new 0 0 280 280;" xml:space="preserve">
<style type="text/css">
	.st0{fill:#F26052;}
	.st1{fill:#A3C4F3;}
</style>
<g id="XMLID_72_">
	<g id="XMLID_103_">
		<path id="XMLID_104_" class="st0" d="M104.217,136.34h-8.533c-2.24,0-4.062,1.83-4.062,4.078c0,2.245,1.828,4.071,4.076,4.071
			h8.519c2.243,0,4.069-1.83,4.069-4.078C108.286,138.167,106.461,136.34,104.217,136.34z"/>
		<path id="XMLID_121_" class="st0" d="M180.861,136.12c-0.009,0-0.017,0-0.026,0.001v-0.001c-2.815,0.021-5.651,0.043-8.511,0.057
			c-2.246,0.016-4.061,1.854-4.044,4.097c0.017,2.231,1.842,4.046,4.093,4.046c2.86-0.014,5.704-0.035,8.519-0.057
			c1.087-0.008,2.106-0.44,2.868-1.216c0.762-0.775,1.177-1.801,1.169-2.888C184.915,137.932,183.09,136.12,180.861,136.12z"/>
		<path id="XMLID_123_" class="st0" d="M206.423,135.85c-0.002,0-0.054,0-0.056,0l-2.551,0.034
			c-1.969,0.027-3.955,0.053-5.959,0.073c-1.086,0.012-2.103,0.447-2.863,1.227c-0.759,0.778-1.17,1.806-1.158,2.893
			c0.024,2.219,1.849,4.023,4.118,4.023l8.527-0.106c1.086-0.016,2.102-0.454,2.859-1.234c0.759-0.78,1.167-1.809,1.151-2.895
			C210.46,137.651,208.635,135.85,206.423,135.85z"/>
		<path id="XMLID_156_" class="st0" d="M53.135,136.404h-0.007H53.12c-2.851,0.007-5.696,0.014-8.517,0.029
			c-1.082,0-2.099,0.423-2.865,1.192c-0.771,0.775-1.193,1.803-1.189,2.893c0,2.237,1.825,4.057,4.084,4.057l8.51-0.028
			c2.24,0,4.062-1.83,4.062-4.078C57.205,138.227,55.379,136.404,53.135,136.404z"/>
		<path id="XMLID_157_" class="st0" d="M129.857,136.327c-0.03-0.005-0.061-0.008-0.093-0.008h-8.521
			c-2.242,0.016-4.065,1.849-4.065,4.086c0,2.245,1.825,4.072,4.069,4.072h8.521c2.246-0.016,4.067-1.85,4.059-4.086
			C133.827,138.182,132.055,136.38,129.857,136.327z"/>
		<path id="XMLID_160_" class="st0" d="M27.588,136.51H27.58c-0.001,0-0.023,0-0.024,0c-2.866,0.014-5.704,0.035-8.519,0.057
			c-2.242,0.016-4.053,1.857-4.037,4.104c0.016,2.227,1.842,4.039,4.101,4.039l0.383-0.003c2.69-0.02,5.398-0.04,8.127-0.054
			c2.246-0.016,4.061-1.854,4.044-4.096C31.641,138.326,29.815,136.51,27.588,136.51z"/>
		<path id="XMLID_161_" class="st0" d="M78.662,136.354c-0.03,0-0.058,0.003-0.087,0.007h-8.421
			c-2.246,0.016-4.067,1.85-4.058,4.086c0,2.241,1.825,4.064,4.069,4.064h8.5c2.242-0.016,4.066-1.849,4.066-4.086
			C82.731,138.181,80.906,136.354,78.662,136.354z"/>
		<path id="XMLID_162_" class="st0" d="M155.314,136.262c-0.003,0-0.007,0-0.01,0l-8.51,0.029c-2.239,0-4.061,1.83-4.061,4.078
			c0,2.241,1.825,4.064,4.077,4.064l8.516-0.028c1.082,0,2.1-0.423,2.866-1.192c0.771-0.774,1.193-1.802,1.19-2.893
			C159.382,138.082,157.557,136.262,155.314,136.262z"/>
	</g>
	<path id="XMLID_464_" class="st1" d="M223.144,139.716l-8.979,27.274c12.072-11.164,31.762-21.951,47.699-28.396
		c-16.279-5.507-36.557-15.131-49.26-25.585L223.144,139.716z"/>
	<path id="XMLID_11_" d="M214.165,170.128c-0.586,0-1.176-0.164-1.696-0.498c-1.202-0.774-1.73-2.262-1.283-3.62l8.624-26.196
		l-10.124-25.651c-0.525-1.33-0.084-2.847,1.071-3.688c1.156-0.842,2.734-0.795,3.838,0.113
		c13.258,10.91,34.29,20.305,48.273,25.036c1.242,0.42,2.092,1.57,2.13,2.881c0.038,1.311-0.743,2.508-1.96,3
		c-13.683,5.533-34.136,16.132-46.745,27.791C215.698,169.845,214.934,170.128,214.165,170.128z M219.483,121.897l6.578,16.667
		c0.269,0.682,0.291,1.437,0.062,2.133l-5.605,17.024c10.11-7.475,22.244-14.071,32.829-18.879
		C242.5,134.654,230.007,128.775,219.483,121.897z"/>
</g>
</svg>
