<svg xmlns="http://www.w3.org/2000/svg" xmlns:xlink="http://www.w3.org/1999/xlink" width="48" zoomAndPan="magnify" viewBox="0 0 36 36.000001" height="48" preserveAspectRatio="xMidYMid meet" version="1.0"><defs><clipPath id="0adfd3e36f"><path d="M 5 1 L 35.511719 1 L 35.511719 32.835938 L 5 32.835938 Z M 5 1 " clip-rule="nonzero"/></clipPath><clipPath id="e2d838ba67"><path d="M 0.488281 0 L 31 0 L 31 32.835938 L 0.488281 32.835938 Z M 0.488281 0 " clip-rule="nonzero"/></clipPath></defs><g clip-path="url(#0adfd3e36f)"><path fill="#ffec8d" d="M 18.25 33.101562 C 18.558594 33.101562 18.867188 33.101562 19.171875 33.074219 C 20.363281 33.011719 23.484375 32.835938 24.804688 30.125 C 29.6875 20.628906 33.082031 13.746094 34.90625 9.632812 C 34.96875 9.484375 35.027344 9.332031 35.078125 9.175781 C 35.183594 8.871094 35.257812 8.554688 35.296875 8.234375 C 35.449219 6.894531 35.265625 3.613281 30.15625 2.09375 C 29.027344 1.722656 27.871094 1.523438 26.6875 1.5 C 25.1875 1.460938 23.863281 1.914062 22.703125 2.863281 C 22.054688 3.390625 21.363281 4.160156 20.316406 5.867188 C 19.964844 4.980469 19.523438 4.140625 18.996094 3.347656 C 18.027344 1.871094 16.394531 1.027344 14.488281 1.027344 C 14.179688 1.027344 13.875 1.046875 13.570312 1.085938 C 12.539062 1.222656 11.539062 1.480469 10.566406 1.855469 C 9.496094 2.261719 8.503906 2.8125 7.597656 3.511719 C 5.289062 5.320312 5.109375 7.40625 5.210938 8.507812 C 5.519531 11.71875 6.03125 15.230469 6.734375 18.957031 C 7.308594 22.183594 8.09375 25.359375 9.085938 28.480469 C 9.554688 29.964844 10.847656 31.851562 14.335938 32.648438 C 15.621094 32.949219 16.925781 33.097656 18.25 33.101562 Z M 18.25 33.101562 " fill-opacity="1" fill-rule="nonzero"/></g><g clip-path="url(#e2d838ba67)"><path fill="#ffffff" d="M 13.683594 32.085938 C 12.359375 32.085938 11.054688 31.933594 9.765625 31.632812 C 6.277344 30.847656 4.992188 28.949219 4.519531 27.464844 C 3.527344 24.339844 2.746094 21.160156 2.171875 17.929688 C 1.46875 14.207031 0.957031 10.691406 0.648438 7.484375 C 0.546875 6.394531 0.722656 4.296875 3.03125 2.488281 C 3.9375 1.789062 4.929688 1.234375 6.003906 0.832031 C 6.972656 0.457031 7.972656 0.199219 9.003906 0.0585938 C 9.308594 0.0195312 9.617188 0 9.921875 0 C 11.832031 0 13.472656 0.84375 14.433594 2.324219 C 14.960938 3.113281 15.402344 3.953125 15.75 4.839844 C 16.800781 3.136719 17.488281 2.363281 18.140625 1.835938 C 19.300781 0.894531 20.628906 0.441406 22.121094 0.484375 C 23.304688 0.515625 24.460938 0.71875 25.582031 1.09375 C 30.691406 2.613281 30.882812 5.890625 30.722656 7.234375 C 30.683594 7.554688 30.613281 7.867188 30.503906 8.171875 C 30.457031 8.328125 30.398438 8.480469 30.332031 8.632812 C 28.519531 12.726562 25.121094 19.625 20.234375 29.125 C 18.914062 31.832031 15.792969 32.007812 14.601562 32.074219 C 14.304688 32.078125 14 32.085938 13.683594 32.085938 Z M 13.683594 32.085938 " fill-opacity="1" fill-rule="nonzero"/></g><path fill="#f26052" d="M 20.894531 5.1875 C 21.457031 4.6875 22.605469 4.703125 24.332031 5.234375 C 25.789062 5.667969 26.484375 6.164062 26.425781 6.730469 C 26.398438 6.777344 26.382812 6.824219 26.375 6.878906 C 24.582031 10.925781 21.246094 17.699219 16.363281 27.195312 C 16.226562 27.488281 15.5625 27.671875 14.371094 27.738281 C 13.140625 27.804688 11.925781 27.695312 10.726562 27.417969 C 9.496094 27.136719 8.800781 26.710938 8.632812 26.148438 C 7.695312 23.195312 6.953125 20.191406 6.414062 17.140625 C 5.734375 13.519531 5.246094 10.164062 4.945312 7.074219 C 4.914062 6.710938 5.164062 6.320312 5.695312 5.90625 C 6.257812 5.472656 6.871094 5.132812 7.535156 4.882812 C 8.1875 4.628906 8.863281 4.457031 9.554688 4.359375 C 10.203125 4.277344 10.625 4.402344 10.824219 4.734375 C 11.390625 5.53125 11.945312 6.84375 12.496094 8.667969 C 13.042969 10.496094 13.480469 12.089844 13.8125 13.453125 C 14.144531 14.816406 14.394531 15.496094 14.5625 15.492188 C 14.691406 15.492188 15.171875 14.730469 16.003906 13.203125 C 16.835938 11.675781 17.742188 10.050781 18.71875 8.320312 C 19.707031 6.59375 20.433594 5.550781 20.894531 5.1875 Z M 24.429688 8.5625 C 24.464844 8.5625 24.5 8.535156 24.53125 8.488281 C 24.566406 8.4375 24.628906 8.335938 24.730469 8.1875 C 24.820312 8.054688 24.894531 7.914062 24.957031 7.765625 C 25.007812 7.605469 25.035156 7.4375 25.027344 7.265625 C 25.035156 7.082031 25 6.90625 24.917969 6.742188 C 24.792969 6.546875 24.632812 6.382812 24.445312 6.246094 C 24.160156 6.035156 23.84375 5.894531 23.5 5.824219 C 23.652344 5.863281 23.792969 5.929688 23.921875 6.023438 C 24.074219 6.121094 24.238281 6.414062 24.421875 6.890625 C 24.605469 7.449219 24.609375 8.003906 24.429688 8.5625 Z M 24.429688 8.5625 " fill-opacity="1" fill-rule="nonzero"/></svg>