<svg xmlns="http://www.w3.org/2000/svg" xmlns:xlink="http://www.w3.org/1999/xlink" width="48" zoomAndPan="magnify" viewBox="0 0 36 36.000001" height="48" preserveAspectRatio="xMidYMid meet" version="1.0"><defs><clipPath id="1ffa111e8e"><path d="M 4.527344 0 L 31.527344 0 L 31.527344 35.027344 L 4.527344 35.027344 Z M 4.527344 0 " clip-rule="nonzero"/></clipPath></defs><g clip-path="url(#1ffa111e8e)"><path fill="#f26052" d="M 18 0.0117188 C 10.558594 0.0117188 4.527344 6.042969 4.527344 13.484375 C 4.527344 16.351562 5.5 18.953125 6.925781 21.355469 C 7.636719 22.558594 8.464844 23.710938 9.335938 24.820312 L 18 35.015625 L 25.847656 25.632812 C 26.992188 24.246094 28.089844 22.804688 29.011719 21.289062 C 30.46875 18.886719 31.472656 16.300781 31.472656 13.484375 C 31.472656 6.042969 25.441406 0.0117188 18 0.0117188 Z M 18 24.09375 C 14.25 24.09375 10.953125 22.148438 9.066406 19.210938 C 8.007812 17.558594 7.390625 15.59375 7.390625 13.484375 C 7.390625 7.625 12.140625 2.875 18 2.875 C 23.859375 2.875 28.609375 7.625 28.609375 13.484375 C 28.609375 15.59375 27.992188 17.558594 26.929688 19.210938 C 25.042969 22.148438 21.75 24.09375 18 24.09375 Z M 18 24.09375 " fill-opacity="1" fill-rule="nonzero"/></g></svg>