<svg xmlns="http://www.w3.org/2000/svg" xmlns:xlink="http://www.w3.org/1999/xlink" width="48" zoomAndPan="magnify" viewBox="0 0 36 36.000001" height="48" preserveAspectRatio="xMidYMid meet" version="1.0"><defs><clipPath id="080be6dd3a"><path d="M 5 0 L 31 0 L 31 35.027344 L 5 35.027344 Z M 5 0 " clip-rule="nonzero"/></clipPath><clipPath id="353120d29e"><path d="M 13 34 L 23 34 L 23 35.027344 L 13 35.027344 Z M 13 34 " clip-rule="nonzero"/></clipPath></defs><path fill="#f26052" d="M 19.511719 0.671875 C 7.296875 0.03125 1.695312 11.664062 9.945312 22.253906 C 13.6875 27.058594 17.695312 34.617188 18.203125 34.1875 C 18.378906 34.039062 18.140625 33.890625 19.792969 31.820312 C 34.292969 13.710938 30.140625 9.523438 27.3125 5.007812 C 25.539062 2.179688 20.777344 0.738281 19.511719 0.671875 Z M 19.511719 0.671875 " fill-opacity="1" fill-rule="evenodd"/><path fill="#f26052" d="M 18.378906 20.382812 C 17.382812 20.964844 17.085938 20.109375 13.820312 17.296875 C 13.679688 17.175781 13.738281 17.128906 12.238281 15.609375 C 11.867188 15.230469 11.835938 14.40625 11.429688 13.738281 C 10.539062 12.269531 10.835938 12.171875 11.023438 9.511719 C 11.191406 7.082031 16.113281 5.917969 17.917969 9.105469 C 18.054688 9.34375 18.089844 9.585938 18.195312 9.335938 C 19.742188 5.785156 25.59375 7.375 25.523438 10.082031 C 25.40625 14.730469 22.40625 17.332031 20.902344 18.648438 C 20.433594 19.0625 19.726562 19.394531 19.441406 19.578125 C 19.351562 19.636719 18.679688 20.203125 18.378906 20.382812 Z M 18.378906 20.382812 " fill-opacity="1" fill-rule="evenodd"/><g clip-path="url(#080be6dd3a)"><path fill="#ffec8d" d="M 17.710938 34.832031 C 17.710938 34.832031 11.839844 27.300781 8.316406 20.519531 C 6.773438 17.542969 5.6875 14.703125 5.6875 12.679688 C 5.6875 5.832031 11.25 0.269531 18.101562 0.269531 C 24.949219 0.269531 30.511719 5.832031 30.511719 12.679688 C 30.511719 14.703125 29.429688 17.542969 27.882812 20.519531 C 24.359375 27.300781 18.492188 34.832031 18.492188 34.832031 C 18.398438 34.953125 18.253906 35.023438 18.101562 35.023438 C 17.949219 35.023438 17.804688 34.953125 17.710938 34.832031 Z M 18.101562 33.710938 C 19.460938 31.917969 24.058594 25.726562 27.003906 20.0625 C 28.460938 17.253906 29.519531 14.589844 29.519531 12.679688 C 29.519531 6.378906 24.402344 1.261719 18.101562 1.261719 C 11.796875 1.261719 6.679688 6.378906 6.679688 12.679688 C 6.679688 14.589844 7.742188 17.253906 9.199219 20.0625 C 12.140625 25.726562 16.742188 31.917969 18.101562 33.710938 Z M 18.101562 33.710938 " fill-opacity="1" fill-rule="evenodd"/></g><g clip-path="url(#353120d29e)"><path fill="#ffec8d" d="M 14.125 35.023438 C 13.851562 35.023438 13.628906 34.796875 13.632812 34.523438 C 13.632812 34.25 13.859375 34.03125 14.132812 34.03125 C 16.515625 34.042969 19.265625 34.027344 22.074219 34.03125 C 22.347656 34.03125 22.570312 34.253906 22.570312 34.527344 C 22.570312 34.800781 22.347656 35.023438 22.070312 35.023438 C 19.261719 35.023438 16.511719 35.035156 14.125 35.023438 Z M 14.125 35.023438 " fill-opacity="1" fill-rule="evenodd"/></g><path fill="#ffec8d" d="M 18.101562 8.59375 C 19.933594 6.15625 23.019531 6.304688 24.621094 7.746094 C 26.300781 9.253906 26.40625 12.277344 24.726562 15.296875 C 23.609375 17.449219 20.75 19.617188 18.355469 21.050781 C 18.199219 21.144531 18.003906 21.144531 17.84375 21.050781 C 15.453125 19.617188 12.597656 17.449219 11.476562 15.304688 C 9.796875 12.28125 9.898438 9.257812 11.582031 7.746094 C 13.183594 6.304688 16.269531 6.15625 18.101562 8.59375 Z M 17.667969 9.746094 C 16.308594 7.304688 13.601562 7.261719 12.246094 8.484375 C 11.710938 8.964844 11.398438 9.640625 11.289062 10.425781 C 11.117188 11.707031 11.480469 13.261719 12.347656 14.824219 C 12.347656 14.828125 12.351562 14.832031 12.351562 14.835938 C 13.363281 16.777344 15.910156 18.703125 18.101562 20.042969 C 20.292969 18.703125 22.839844 16.777344 23.847656 14.835938 C 23.851562 14.832031 23.851562 14.828125 23.855469 14.824219 C 24.722656 13.261719 25.085938 11.707031 24.910156 10.425781 C 24.804688 9.640625 24.492188 8.964844 23.957031 8.484375 C 22.597656 7.261719 19.890625 7.304688 18.535156 9.746094 C 18.445312 9.902344 18.28125 10 18.101562 10 C 17.921875 10 17.753906 9.902344 17.667969 9.746094 Z M 17.667969 9.746094 " fill-opacity="1" fill-rule="evenodd"/></svg>