<svg xmlns="http://www.w3.org/2000/svg" xmlns:xlink="http://www.w3.org/1999/xlink" width="48" zoomAndPan="magnify" viewBox="0 0 36 36.000001" height="48" preserveAspectRatio="xMidYMid meet" version="1.0"><defs><clipPath id="4c374b582a"><path d="M 0.929688 8.351562 L 35.070312 8.351562 L 35.070312 31.234375 L 0.929688 31.234375 Z M 0.929688 8.351562 " clip-rule="nonzero"/></clipPath><clipPath id="3d024f89aa"><path d="M 5 3.503906 L 15 3.503906 L 15 18 L 5 18 Z M 5 3.503906 " clip-rule="nonzero"/></clipPath></defs><path fill="#f26052" d="M 23.308594 14.316406 L 23.378906 14.992188 C 23.601562 14.972656 23.835938 14.960938 24.070312 14.960938 C 24.261719 14.960938 24.460938 14.96875 24.664062 14.984375 L 24.714844 14.304688 C 24.5 14.285156 24.28125 14.277344 24.070312 14.277344 C 23.8125 14.277344 23.554688 14.289062 23.308594 14.316406 " fill-opacity="1" fill-rule="nonzero"/><path fill="#f26052" d="M 20.621094 15.160156 L 20.972656 15.75 C 21.339844 15.539062 21.730469 15.371094 22.132812 15.246094 L 21.917969 14.59375 C 21.46875 14.734375 21.03125 14.925781 20.621094 15.160156 " fill-opacity="1" fill-rule="nonzero"/><path fill="#f26052" d="M 11.277344 24.476562 C 11.738281 24.386719 12.195312 24.257812 12.628906 24.09375 L 12.378906 23.457031 C 11.980469 23.605469 11.5625 23.726562 11.140625 23.808594 L 11.277344 24.476562 " fill-opacity="1" fill-rule="nonzero"/><path fill="#f26052" d="M 18.523438 16.984375 L 19.074219 17.40625 C 19.347656 17.066406 19.640625 16.753906 19.949219 16.484375 L 19.480469 15.980469 C 19.144531 16.273438 18.824219 16.613281 18.523438 16.984375 " fill-opacity="1" fill-rule="nonzero"/><path fill="#f26052" d="M 8.558594 23.933594 L 8.496094 24.613281 C 8.808594 24.640625 9.121094 24.65625 9.421875 24.65625 C 9.578125 24.65625 9.734375 24.652344 9.890625 24.644531 L 9.855469 23.964844 C 9.714844 23.96875 9.566406 23.972656 9.421875 23.972656 C 9.140625 23.972656 8.847656 23.960938 8.558594 23.933594 " fill-opacity="1" fill-rule="nonzero"/><path fill="#f26052" d="M 14.597656 22.191406 C 14.257812 22.460938 13.902344 22.703125 13.539062 22.914062 L 13.890625 23.5 C 14.289062 23.273438 14.675781 23.011719 15.039062 22.71875 L 14.597656 22.191406 " fill-opacity="1" fill-rule="nonzero"/><path fill="#f26052" d="M 16.367188 20.332031 C 16.105469 20.6875 15.828125 21.019531 15.542969 21.320312 L 16.054688 21.785156 C 16.359375 21.460938 16.65625 21.109375 16.933594 20.734375 L 16.367188 20.332031 " fill-opacity="1" fill-rule="nonzero"/><path fill="#f26052" d="M 5.78125 24.0625 C 6.226562 24.203125 6.679688 24.320312 7.121094 24.410156 L 7.265625 23.746094 C 6.847656 23.65625 6.421875 23.546875 6 23.410156 L 5.78125 24.0625 " fill-opacity="1" fill-rule="nonzero"/><path fill="#f26052" d="M 28.425781 16.003906 C 28.816406 16.175781 29.210938 16.371094 29.609375 16.582031 L 29.945312 15.984375 C 29.53125 15.765625 29.117188 15.5625 28.714844 15.382812 L 28.425781 16.003906 " fill-opacity="1" fill-rule="nonzero"/><path fill="#f26052" d="M 25.945312 15.175781 C 26.351562 15.265625 26.777344 15.382812 27.203125 15.527344 L 27.433594 14.882812 C 26.980469 14.730469 26.53125 14.605469 26.097656 14.507812 L 25.945312 15.175781 " fill-opacity="1" fill-rule="nonzero"/><g clip-path="url(#4c374b582a)"><path fill="#f26052" d="M 26.320312 21.804688 L 25.949219 21.828125 L 25.671875 22.082031 L 21.019531 26.371094 L 16.699219 13.367188 L 21.296875 9.445312 L 27.761719 9.6875 L 31.164062 16.691406 C 31.152344 16.683594 31.140625 16.675781 31.125 16.664062 L 30.753906 17.242188 C 31.089844 17.449219 31.425781 17.671875 31.753906 17.902344 L 33.429688 21.351562 Z M 28.4375 8.652344 L 20.925781 8.371094 L 15.90625 12.65625 L 14.664062 12.4375 C 14.503906 12.753906 14.324219 13.078125 14.132812 13.414062 L 15.691406 13.691406 L 17.375 18.757812 C 17.28125 18.929688 17.183594 19.097656 17.085938 19.261719 L 17.652344 19.585938 L 20.039062 26.765625 L 12.816406 26.433594 L 12.507812 26.421875 L 12.238281 26.578125 L 6.503906 29.933594 L 4.515625 23.527344 L 4.769531 22.957031 C 4.582031 22.875 4.410156 22.796875 4.265625 22.726562 L 2.175781 16.007812 L 6.082031 13.488281 C 5.898438 13.167969 5.730469 12.859375 5.574219 12.558594 L 0.929688 15.554688 L 5.890625 31.515625 L 12.769531 27.488281 L 20.960938 27.863281 L 26.386719 22.855469 L 35.070312 22.308594 L 28.4375 8.652344 " fill-opacity="1" fill-rule="nonzero"/></g><g clip-path="url(#3d024f89aa)"><path fill="#f26052" d="M 7.445312 8.050781 C 7.445312 6.589844 8.628906 5.40625 10.085938 5.40625 C 11.546875 5.40625 12.730469 6.589844 12.730469 8.050781 C 12.730469 9.511719 11.546875 10.695312 10.085938 10.695312 C 8.628906 10.695312 7.445312 9.511719 7.445312 8.050781 Z M 14.941406 8.355469 C 14.941406 5.675781 12.769531 3.503906 10.085938 3.503906 C 7.40625 3.503906 5.234375 5.675781 5.234375 8.355469 C 5.234375 11.484375 10.085938 17.605469 10.085938 17.605469 C 10.085938 17.605469 14.941406 11.484375 14.941406 8.355469 " fill-opacity="1" fill-rule="nonzero"/></g></svg>