<svg xmlns="http://www.w3.org/2000/svg" xmlns:xlink="http://www.w3.org/1999/xlink" width="48" zoomAndPan="magnify" viewBox="0 0 36 36.000001" height="48" preserveAspectRatio="xMidYMid meet" version="1.0"><defs><clipPath id="6b2b34d061"><path d="M 13 10.507812 L 22.9375 10.507812 L 22.9375 24.371094 L 13 24.371094 Z M 13 10.507812 " clip-rule="nonzero"/></clipPath><clipPath id="6f40debe9e"><path d="M 12.71875 10.507812 L 22.9375 10.507812 L 22.9375 24.371094 L 12.71875 24.371094 Z M 12.71875 10.507812 " clip-rule="nonzero"/></clipPath></defs><g clip-path="url(#6b2b34d061)"><path fill="#f26052" d="M 18 24.207031 C 17.171875 23.84375 13.046875 18.507812 13.046875 15.761719 C 13.046875 12.992188 15.230469 10.8125 18 10.8125 C 20.765625 10.8125 22.949219 13.035156 22.949219 15.84375 C 22.949219 18.570312 18.828125 23.84375 18 24.207031 Z M 18 24.207031 " fill-opacity="1" fill-rule="nonzero"/></g><g clip-path="url(#6f40debe9e)"><path fill="#f26052" d="M 18 11.113281 C 20.605469 11.113281 22.644531 13.195312 22.644531 15.84375 C 22.644531 16.933594 21.878906 18.691406 20.542969 20.691406 C 19.472656 22.328125 18.441406 23.480469 18 23.84375 C 17.574219 23.480469 16.523438 22.328125 15.453125 20.671875 C 14.121094 18.628906 13.351562 16.851562 13.351562 15.761719 C 13.351562 13.15625 15.390625 11.113281 18 11.113281 M 18 10.507812 C 15.050781 10.507812 12.746094 12.8125 12.746094 15.761719 C 12.746094 18.710938 17.292969 24.511719 18 24.511719 C 18.707031 24.511719 23.253906 18.792969 23.253906 15.84375 C 23.253906 12.890625 20.949219 10.507812 18 10.507812 Z M 18 10.507812 " fill-opacity="1" fill-rule="nonzero"/></g></svg>