<svg xmlns="http://www.w3.org/2000/svg" xmlns:xlink="http://www.w3.org/1999/xlink" width="48" zoomAndPan="magnify" viewBox="0 0 36 36.000001" height="48" preserveAspectRatio="xMidYMid meet" version="1.0"><defs><clipPath id="cf6d74a8ec"><path d="M 5.675781 0 L 30.488281 0 L 30.488281 35 L 5.675781 35 Z M 5.675781 0 " clip-rule="nonzero"/></clipPath></defs><path fill="#f26052" d="M 17.992188 0.796875 C 24.382812 0.796875 29.5625 5.976562 29.5625 12.363281 C 29.5625 17.15625 20.964844 28.871094 17.992188 34.230469 C 15.144531 29.089844 6.421875 16.875 6.421875 12.363281 C 6.421875 5.976562 11.605469 0.796875 17.992188 0.796875 Z M 23.164062 11.929688 C 23.164062 9.082031 20.84375 6.757812 17.992188 6.757812 C 15.144531 6.757812 12.824219 9.082031 12.824219 11.929688 C 12.824219 14.777344 15.144531 17.097656 17.992188 17.097656 C 20.84375 17.097656 23.164062 14.777344 23.164062 11.929688 Z M 23.164062 11.929688 " fill-opacity="1" fill-rule="nonzero"/><g clip-path="url(#cf6d74a8ec)"><path fill="#ffffff" d="M 17.992188 34.980469 C 17.71875 34.980469 17.46875 34.832031 17.339844 34.59375 C 16.582031 33.230469 15.417969 31.378906 14.074219 29.238281 C 10.332031 23.285156 5.675781 15.878906 5.675781 12.363281 C 5.675781 5.574219 11.199219 0.046875 17.992188 0.046875 C 24.785156 0.046875 30.3125 5.574219 30.3125 12.363281 C 30.3125 16.0625 25.917969 22.972656 22.042969 29.070312 C 20.710938 31.167969 19.453125 33.148438 18.648438 34.59375 C 18.515625 34.832031 18.265625 34.980469 17.992188 34.980469 Z M 17.992188 1.542969 C 12.027344 1.542969 7.171875 6.398438 7.171875 12.363281 C 7.171875 15.445312 11.894531 22.957031 15.339844 28.441406 C 16.359375 30.0625 17.273438 31.515625 17.992188 32.734375 C 18.769531 31.429688 19.75 29.882812 20.777344 28.269531 C 24.167969 22.933594 28.8125 15.625 28.8125 12.363281 C 28.8125 6.398438 23.960938 1.542969 17.992188 1.542969 Z M 17.992188 1.542969 " fill-opacity="1" fill-rule="nonzero"/></g><path fill="#ffffff" d="M 17.992188 17.847656 C 14.730469 17.847656 12.074219 15.191406 12.074219 11.929688 C 12.074219 8.664062 14.730469 6.011719 17.992188 6.011719 C 21.257812 6.011719 23.914062 8.664062 23.914062 11.929688 C 23.914062 15.191406 21.257812 17.847656 17.992188 17.847656 Z M 17.992188 7.507812 C 15.554688 7.507812 13.574219 9.492188 13.574219 11.929688 C 13.574219 14.367188 15.554688 16.347656 17.992188 16.347656 C 20.429688 16.347656 22.414062 14.367188 22.414062 11.929688 C 22.414062 9.492188 20.429688 7.507812 17.992188 7.507812 Z M 17.992188 7.507812 " fill-opacity="1" fill-rule="nonzero"/></svg>