<svg xmlns="http://www.w3.org/2000/svg" xmlns:xlink="http://www.w3.org/1999/xlink" width="48" zoomAndPan="magnify" viewBox="0 0 36 36.000001" height="48" preserveAspectRatio="xMidYMid meet" version="1.0"><defs><clipPath id="c04684cb6c"><path d="M 13.070312 10.507812 L 23 10.507812 L 23 24.371094 L 13.070312 24.371094 Z M 13.070312 10.507812 " clip-rule="nonzero"/></clipPath></defs><g clip-path="url(#c04684cb6c)"><path fill="#f26052" d="M 17.996094 10.824219 C 20.550781 10.824219 22.621094 12.894531 22.621094 15.449219 C 22.621094 17.367188 19.183594 22.050781 17.996094 24.191406 C 16.855469 22.136719 13.371094 17.253906 13.371094 15.449219 C 13.371094 12.894531 15.441406 10.824219 17.996094 10.824219 Z M 20.0625 15.277344 C 20.0625 14.136719 19.132812 13.210938 17.996094 13.210938 C 16.855469 13.210938 15.929688 14.136719 15.929688 15.277344 C 15.929688 16.414062 16.855469 17.34375 17.996094 17.34375 C 19.132812 17.34375 20.0625 16.414062 20.0625 15.277344 Z M 20.0625 15.277344 " fill-opacity="1" fill-rule="nonzero"/><path fill="#ffffff" d="M 17.996094 24.492188 C 17.886719 24.492188 17.785156 24.433594 17.734375 24.339844 C 17.429688 23.792969 16.964844 23.054688 16.425781 22.195312 C 14.929688 19.816406 13.070312 16.855469 13.070312 15.449219 C 13.070312 12.734375 15.277344 10.523438 17.996094 10.523438 C 20.710938 10.523438 22.921875 12.734375 22.921875 15.449219 C 22.921875 16.929688 21.164062 19.691406 19.613281 22.128906 C 19.082031 22.96875 18.578125 23.757812 18.257812 24.339844 C 18.203125 24.433594 18.105469 24.492188 17.996094 24.492188 Z M 17.996094 11.125 C 15.609375 11.125 13.667969 13.066406 13.667969 15.449219 C 13.667969 16.683594 15.554688 19.683594 16.933594 21.878906 C 17.339844 22.527344 17.707031 23.105469 17.996094 23.59375 C 18.304688 23.074219 18.699219 22.453125 19.109375 21.808594 C 20.464844 19.675781 22.320312 16.753906 22.320312 15.449219 C 22.320312 13.066406 20.378906 11.125 17.996094 11.125 Z M 17.996094 11.125 " fill-opacity="1" fill-rule="nonzero"/></g><path fill="#ffffff" d="M 17.996094 17.640625 C 16.691406 17.640625 15.628906 16.582031 15.628906 15.277344 C 15.628906 13.972656 16.691406 12.910156 17.996094 12.910156 C 19.300781 12.910156 20.363281 13.972656 20.363281 15.277344 C 20.363281 16.582031 19.300781 17.640625 17.996094 17.640625 Z M 17.996094 13.507812 C 17.019531 13.507812 16.226562 14.300781 16.226562 15.277344 C 16.226562 16.25 17.019531 17.042969 17.996094 17.042969 C 18.96875 17.042969 19.761719 16.25 19.761719 15.277344 C 19.761719 14.300781 18.96875 13.507812 17.996094 13.507812 Z M 17.996094 13.507812 " fill-opacity="1" fill-rule="nonzero"/></svg>