<svg xmlns="http://www.w3.org/2000/svg" xmlns:xlink="http://www.w3.org/1999/xlink" width="947" zoomAndPan="magnify" viewBox="0 0 710.25 207.000001" height="276" preserveAspectRatio="xMidYMid meet" version="1.0"><defs><clipPath id="96b1128f54"><path d="M 40 42 L 158.367188 42 L 158.367188 167.402344 L 40 167.402344 Z M 40 42 " clip-rule="nonzero"/></clipPath><clipPath id="c46e385584"><path d="M 22 38.324219 L 141 38.324219 L 141 164 L 22 164 Z M 22 38.324219 " clip-rule="nonzero"/></clipPath><clipPath id="a7a55b010a"><path d="M 507 30 L 604 30 L 604 178.425781 L 507 178.425781 Z M 507 30 " clip-rule="nonzero"/></clipPath><clipPath id="e40c78794c"><path d="M 492 27.285156 L 589 27.285156 L 589 176 L 492 176 Z M 492 27.285156 " clip-rule="nonzero"/></clipPath><clipPath id="7dce240083"><path d="M 185 41 L 237.910156 41 L 237.910156 167.402344 L 185 167.402344 Z M 185 41 " clip-rule="nonzero"/></clipPath><clipPath id="27c7bd776e"><path d="M 172 38.324219 L 225 38.324219 L 225 165 L 172 165 Z M 172 38.324219 " clip-rule="nonzero"/></clipPath><clipPath id="9fbf09fedb"><path d="M 635 41 L 687.929688 41 L 687.929688 167.402344 L 635 167.402344 Z M 635 41 " clip-rule="nonzero"/></clipPath><clipPath id="ead044bcad"><path d="M 622 38.324219 L 675 38.324219 L 675 165 L 622 165 Z M 622 38.324219 " clip-rule="nonzero"/></clipPath><clipPath id="817577d75d"><path d="M 264 42 L 347.738281 42 L 347.738281 167 L 264 167 Z M 264 42 " clip-rule="nonzero"/></clipPath><clipPath id="759e8f251d"><path d="M 250.519531 39 L 335 39 L 335 164 L 250.519531 164 Z M 250.519531 39 " clip-rule="nonzero"/></clipPath><clipPath id="b9c47d176c"><path d="M 378 43 L 478.683594 43 L 478.683594 167 L 378 167 Z M 378 43 " clip-rule="nonzero"/></clipPath><clipPath id="977b15dec8"><path d="M 361.039062 39 L 462 39 L 462 163 L 361.039062 163 Z M 361.039062 39 " clip-rule="nonzero"/></clipPath></defs><g clip-path="url(#96b1128f54)"><path fill="#ffec8d" d="M 91.3125 167.640625 C 92.519531 167.640625 93.734375 167.640625 94.929688 167.53125 C 99.578125 167.277344 111.765625 166.59375 116.925781 156.003906 C 135.992188 118.90625 149.257812 92.023438 156.382812 75.953125 C 156.636719 75.367188 156.863281 74.773438 157.054688 74.164062 C 157.472656 72.972656 157.757812 71.75 157.90625 70.496094 C 158.515625 65.257812 157.789062 52.441406 137.828125 46.5 C 133.425781 45.054688 128.90625 44.28125 124.273438 44.175781 C 121.445312 44.105469 118.691406 44.527344 116.015625 45.445312 C 113.339844 46.359375 110.90625 47.714844 108.714844 49.507812 C 106.179688 51.566406 103.480469 54.574219 99.386719 61.238281 C 98.015625 57.773438 96.300781 54.496094 94.234375 51.394531 C 90.449219 45.628906 84.074219 42.332031 76.617188 42.332031 C 75.417969 42.332031 74.226562 42.410156 73.035156 42.566406 C 69.007812 43.105469 65.097656 44.109375 61.304688 45.574219 C 57.117188 47.152344 53.25 49.3125 49.703125 52.046875 C 40.683594 59.105469 39.980469 67.253906 40.382812 71.5625 C 41.589844 84.101562 43.582031 97.824219 46.335938 112.371094 C 48.582031 124.976562 51.644531 137.382812 55.527344 149.585938 C 57.351562 155.375 62.40625 162.746094 76.023438 165.871094 C 81.050781 167.035156 86.148438 167.625 91.3125 167.640625 Z M 91.3125 167.640625 " fill-opacity="1" fill-rule="nonzero"/></g><g clip-path="url(#c46e385584)"><path fill="#ffffff" d="M 73.484375 163.671875 C 68.3125 163.660156 63.207031 163.070312 58.171875 161.902344 C 44.554688 158.820312 39.53125 151.410156 37.675781 145.617188 C 33.804688 133.398438 30.746094 120.980469 28.503906 108.359375 C 25.765625 93.828125 23.769531 80.089844 22.554688 67.5625 C 22.160156 63.296875 22.851562 55.105469 31.875 48.046875 C 35.414062 45.304688 39.28125 43.144531 43.476562 41.574219 C 47.269531 40.113281 51.179688 39.105469 55.207031 38.558594 C 56.394531 38.402344 57.589844 38.324219 58.789062 38.324219 C 66.253906 38.324219 72.652344 41.617188 76.40625 47.398438 C 78.476562 50.488281 80.191406 53.765625 81.554688 57.230469 C 85.660156 50.574219 88.347656 47.558594 90.886719 45.5 C 93.078125 43.714844 95.515625 42.371094 98.191406 41.460938 C 100.867188 40.554688 103.621094 40.140625 106.445312 40.21875 C 111.070312 40.335938 115.578125 41.125 119.964844 42.589844 C 139.929688 48.527344 140.664062 61.335938 140.046875 66.582031 C 139.894531 67.835938 139.609375 69.058594 139.191406 70.25 C 139 70.859375 138.777344 71.457031 138.519531 72.039062 C 131.429688 88.035156 118.164062 114.992188 99.066406 152.09375 C 93.914062 162.679688 81.714844 163.351562 77.066406 163.621094 C 75.90625 163.640625 74.722656 163.671875 73.484375 163.671875 Z M 73.484375 163.671875 " fill-opacity="1" fill-rule="nonzero"/></g><path fill="#f26052" d="M 101.65625 58.582031 C 103.851562 56.628906 108.328125 56.691406 115.082031 58.773438 C 120.769531 60.460938 123.492188 62.40625 123.25 64.609375 C 123.148438 64.789062 123.082031 64.984375 123.058594 65.195312 C 116.054688 81.003906 103.019531 107.457031 83.945312 144.554688 C 83.417969 145.710938 80.824219 146.421875 76.160156 146.683594 C 71.355469 146.9375 66.609375 146.519531 61.925781 145.425781 C 57.125 144.324219 54.398438 142.671875 53.746094 140.46875 C 50.082031 128.929688 47.195312 117.199219 45.085938 105.277344 C 42.433594 91.132812 40.523438 78.027344 39.351562 65.960938 C 39.222656 64.539062 40.195312 63.015625 42.273438 61.386719 C 44.46875 59.695312 46.871094 58.367188 49.46875 57.398438 C 52.015625 56.410156 54.644531 55.726562 57.351562 55.351562 C 59.878906 55.03125 61.535156 55.519531 62.308594 56.8125 C 64.519531 59.925781 66.695312 65.050781 68.835938 72.191406 C 70.972656 79.328125 72.691406 85.554688 73.984375 90.871094 C 75.285156 96.195312 76.261719 98.855469 76.90625 98.847656 C 77.417969 98.847656 79.300781 95.867188 82.546875 89.902344 C 85.796875 83.9375 89.332031 77.578125 93.15625 70.824219 C 97.011719 64.085938 99.84375 60.003906 101.65625 58.582031 Z M 115.464844 71.773438 C 115.59375 71.773438 115.734375 71.667969 115.859375 71.476562 C 115.988281 71.285156 116.246094 70.890625 116.640625 70.3125 C 116.992188 69.792969 117.28125 69.242188 117.511719 68.660156 C 117.722656 68.027344 117.820312 67.375 117.800781 66.707031 C 117.832031 65.992188 117.691406 65.308594 117.375 64.660156 C 116.875 63.902344 116.257812 63.253906 115.519531 62.722656 C 114.410156 61.90625 113.179688 61.355469 111.828125 61.066406 C 112.425781 61.230469 112.976562 61.492188 113.484375 61.847656 C 114.070312 62.230469 114.710938 63.371094 115.421875 65.246094 C 116.144531 67.417969 116.160156 69.59375 115.464844 71.773438 Z M 115.464844 71.773438 " fill-opacity="1" fill-rule="nonzero"/><g clip-path="url(#a7a55b010a)"><path fill="#ffec8d" d="M 583.191406 119.753906 L 584.117188 118.65625 C 588.679688 113.195312 591.96875 109.164062 594.195312 106.363281 C 598.648438 100.964844 600.59375 91.527344 591.933594 81.789062 C 588.371094 77.792969 584.179688 74.632812 579.351562 72.3125 C 576.113281 70.652344 572.679688 69.785156 569.039062 69.71875 C 565.667969 69.699219 562.546875 70.578125 559.683594 72.359375 C 559.042969 55.539062 557.941406 48.625 556.902344 44.542969 C 555.734375 39.90625 552.15625 33.925781 541.6875 31.5625 C 539.058594 30.980469 536.394531 30.6875 533.703125 30.691406 C 532.09375 30.691406 530.492188 30.792969 528.898438 30.996094 C 518.28125 32.433594 513.3125 39.339844 512.164062 45.425781 C 509.84375 57.3125 508.453125 75.726562 507.851562 101.726562 C 507.265625 127.496094 507.617188 145.78125 508.9375 157.613281 C 509.363281 161.960938 512.003906 171.25 526.441406 173.960938 C 529.046875 174.449219 531.675781 174.691406 534.324219 174.691406 C 537.203125 174.691406 540.054688 174.402344 542.871094 173.820312 C 544.988281 173.445312 547.011719 172.792969 548.949219 171.867188 C 550.882812 170.9375 552.660156 169.769531 554.277344 168.359375 C 555.464844 169.785156 556.675781 171.257812 557.914062 172.773438 C 558.679688 173.695312 559.535156 174.527344 560.488281 175.257812 C 561.4375 175.992188 562.457031 176.613281 563.542969 177.121094 C 564.632812 177.628906 565.761719 178.007812 566.9375 178.261719 C 568.109375 178.519531 569.296875 178.640625 570.496094 178.632812 C 576.058594 178.632812 580.816406 175.945312 584.332031 173.597656 C 589.242188 170.308594 593.570312 166.378906 597.3125 161.804688 C 608.644531 147.976562 601.773438 138.445312 598.90625 135.449219 C 593.054688 129.285156 587.816406 124.074219 583.191406 119.753906 Z M 583.191406 119.753906 " fill-opacity="1" fill-rule="nonzero"/></g><g clip-path="url(#e40c78794c)"><path fill="#ffffff" d="M 555.011719 175.183594 C 553.808594 175.191406 552.625 175.070312 551.449219 174.8125 C 550.277344 174.558594 549.148438 174.175781 548.058594 173.671875 C 546.972656 173.164062 545.953125 172.542969 545 171.808594 C 544.050781 171.078125 543.195312 170.246094 542.429688 169.324219 C 541.167969 167.8125 539.941406 166.347656 538.773438 164.910156 C 537.160156 166.324219 535.382812 167.496094 533.449219 168.425781 C 531.511719 169.351562 529.484375 170 527.371094 170.371094 C 524.550781 170.957031 521.707031 171.25 518.828125 171.25 C 516.175781 171.25 513.546875 171 510.9375 170.511719 C 496.5 167.800781 493.867188 158.519531 493.433594 154.164062 C 492.125 142.339844 491.761719 124.054688 492.347656 98.277344 C 492.929688 72.3125 494.351562 53.863281 496.667969 41.984375 C 497.808594 35.875 502.789062 28.992188 513.40625 27.601562 C 515.011719 27.390625 516.625 27.285156 518.246094 27.285156 C 520.933594 27.289062 523.59375 27.582031 526.21875 28.160156 C 536.6875 30.496094 540.265625 36.503906 541.4375 41.140625 C 542.457031 45.191406 543.550781 52.109375 544.21875 68.957031 C 547.0625 67.148438 550.171875 66.242188 553.546875 66.230469 C 557.179688 66.304688 560.613281 67.171875 563.847656 68.828125 C 568.691406 71.152344 572.894531 74.328125 576.457031 78.351562 C 585.117188 88.085938 583.171875 97.527344 578.71875 102.921875 C 576.503906 105.703125 573.15625 109.746094 568.640625 115.21875 L 567.714844 116.304688 C 572.351562 120.625 577.570312 125.835938 583.476562 132 C 586.332031 134.996094 593.214844 144.539062 581.871094 158.363281 C 578.132812 162.9375 573.804688 166.871094 568.890625 170.15625 C 565.332031 172.496094 560.582031 175.183594 555.011719 175.183594 Z M 555.011719 175.183594 " fill-opacity="1" fill-rule="nonzero"/></g><path fill="#3658bf" d="M 572.878906 142.183594 C 574.113281 143.3125 573.324219 145.601562 570.503906 149.042969 C 567.675781 152.492188 564.40625 155.453125 560.695312 157.925781 C 556.984375 160.398438 554.671875 161.078125 553.75 159.957031 C 544.613281 149.015625 537.902344 140.214844 533.617188 133.558594 C 532.265625 135.023438 530.957031 136.433594 529.722656 137.789062 L 529.722656 152.167969 C 529.722656 153.972656 527.949219 155.246094 524.394531 155.980469 C 520.816406 156.71875 517.234375 156.746094 513.644531 156.0625 C 510.035156 155.390625 508.179688 154.261719 508.082031 152.679688 C 506.847656 141.625 506.507812 123.601562 507.0625 98.609375 C 507.617188 73.617188 508.964844 55.65625 511.105469 44.71875 C 511.335938 43.367188 512.738281 42.511719 515.332031 42.179688 C 517.921875 41.835938 520.488281 41.949219 523.039062 42.511719 C 525.578125 43.074219 526.960938 43.8125 527.183594 44.71875 C 529.21875 52.84375 530.1875 75.347656 530.09375 112.230469 C 533.011719 107.949219 540.121094 97.871094 551.421875 81.996094 C 552.429688 80.640625 554.460938 80.695312 557.515625 82.160156 C 560.570312 83.625 563.21875 85.628906 565.460938 88.171875 C 567.722656 90.703125 568.339844 92.539062 567.316406 93.667969 C 565.171875 96.375 561.839844 100.4375 557.328125 105.851562 L 547.128906 118.035156 C 553.347656 122.746094 561.929688 130.796875 572.878906 142.183594 Z M 524.660156 51.3125 C 524.785156 51.074219 524.929688 50.847656 525.089844 50.636719 C 525.25 50.421875 525.390625 50.199219 525.503906 49.957031 C 525.636719 49.691406 525.722656 49.410156 525.765625 49.113281 C 525.820312 48.78125 525.847656 48.441406 525.847656 48.105469 C 525.847656 47.753906 525.792969 47.414062 525.683594 47.082031 C 525.546875 46.710938 525.347656 46.375 525.089844 46.074219 C 524.75 45.691406 524.355469 45.378906 523.902344 45.144531 C 523.332031 44.84375 522.742188 44.589844 522.128906 44.386719 C 522.453125 44.5625 522.761719 44.761719 523.058594 44.980469 C 523.65625 45.578125 524.078125 46.285156 524.328125 47.09375 C 524.796875 48.472656 524.902344 49.878906 524.644531 51.3125 Z M 563.058594 88.882812 C 563.210938 89.0625 563.324219 89.257812 563.402344 89.476562 C 563.503906 89.753906 563.625 90.042969 563.734375 90.320312 C 563.859375 90.679688 563.917969 91.046875 563.902344 91.425781 C 563.902344 91.878906 563.875 92.328125 563.820312 92.777344 C 563.730469 93.339844 563.5625 93.875 563.308594 94.382812 C 562.996094 95.050781 562.574219 95.644531 562.046875 96.164062 C 562.300781 96.148438 562.527344 96.0625 562.726562 95.902344 L 563.902344 94.976562 C 564.410156 94.605469 564.777344 94.125 565.007812 93.539062 C 565.167969 92.84375 565.109375 92.167969 564.839844 91.507812 C 564.449219 90.496094 563.855469 89.621094 563.058594 88.882812 Z M 567.628906 147.941406 L 568.308594 147.597656 C 568.703125 147.359375 569.070312 147.078125 569.402344 146.753906 C 569.890625 146.335938 570.257812 145.828125 570.503906 145.234375 C 570.734375 144.554688 570.734375 143.878906 570.503906 143.203125 C 570.179688 142.246094 569.671875 141.398438 568.984375 140.660156 C 570.449219 142.472656 569.996094 144.898438 567.628906 147.941406 Z M 567.628906 147.941406 " fill-opacity="1" fill-rule="nonzero"/><g clip-path="url(#7dce240083)"><path fill="#ffec8d" d="M 190.238281 93.21875 C 185.792969 113.96875 184.589844 134.367188 186.683594 153.839844 C 186.683594 154.023438 186.707031 154.207031 186.753906 154.390625 C 187.359375 158.316406 190.09375 165.1875 201.664062 167.121094 C 203.773438 167.46875 205.898438 167.648438 208.039062 167.648438 C 210.375 167.648438 212.6875 167.433594 214.980469 167.003906 C 228.675781 164.429688 229.375 154.160156 229.375 152.125 C 229.375 150.285156 229.394531 147.015625 229.433594 142.316406 C 229.484375 137.503906 229.511719 134.152344 229.511719 132.269531 C 229.511719 130.367188 229.511719 127.527344 229.433594 123.726562 C 229.386719 119.703125 229.289062 116.683594 229.128906 114.484375 L 229.050781 113.394531 C 228.929688 111.6875 228.789062 109.753906 228.636719 107.554688 C 228.457031 104.753906 228.121094 101.96875 227.625 99.203125 C 227.203125 96.90625 226.714844 94.738281 226.171875 92.683594 C 226.109375 92.421875 226.03125 92.167969 225.949219 91.917969 C 225.863281 91.664062 225.824219 91.5625 225.757812 91.386719 C 228.515625 89.53125 230.75 87.179688 232.460938 84.332031 C 233.867188 82.023438 234.980469 79.582031 235.808594 77.011719 C 236.527344 74.738281 236.976562 72.414062 237.160156 70.039062 C 237.4375 66.59375 237.144531 63.199219 236.277344 59.855469 C 235.113281 55.390625 232.9375 51.492188 229.75 48.160156 C 228.742188 47.058594 227.632812 46.074219 226.417969 45.207031 C 225.203125 44.339844 223.910156 43.609375 222.542969 43.015625 C 221.175781 42.421875 219.757812 41.976562 218.296875 41.683594 C 216.832031 41.386719 215.355469 41.246094 213.863281 41.265625 C 206.246094 41.265625 199.351562 45.011719 194.429688 51.832031 C 190.261719 57.609375 188.148438 63.738281 188.148438 70.054688 C 188.167969 75.046875 189.363281 79.738281 191.734375 84.132812 C 192.246094 85.105469 192.835938 86.03125 193.496094 86.914062 C 192.078125 88.507812 191.058594 90.324219 190.429688 92.359375 C 190.375 92.636719 190.300781 92.929688 190.238281 93.21875 Z M 190.238281 93.21875 " fill-opacity="1" fill-rule="nonzero"/></g><g clip-path="url(#27c7bd776e)"><path fill="#ffffff" d="M 195.226562 164.835938 C 193.085938 164.835938 190.960938 164.65625 188.851562 164.308594 C 177.289062 162.34375 174.546875 155.472656 173.941406 151.539062 C 173.941406 151.363281 173.886719 151.179688 173.871094 150.988281 C 171.785156 131.519531 172.980469 111.140625 177.425781 90.375 C 177.488281 90.078125 177.566406 89.785156 177.648438 89.496094 C 178.277344 87.457031 179.300781 85.644531 180.714844 84.046875 C 180.054688 83.164062 179.46875 82.238281 178.953125 81.265625 C 176.5625 76.875 175.359375 72.183594 175.34375 67.1875 C 175.34375 60.875 177.449219 54.742188 181.617188 48.964844 C 186.539062 42.152344 193.441406 38.398438 201.050781 38.398438 C 202.542969 38.382812 204.019531 38.519531 205.484375 38.8125 C 206.945312 39.109375 208.363281 39.550781 209.730469 40.148438 C 211.101562 40.742188 212.390625 41.472656 213.605469 42.339844 C 214.820312 43.207031 215.929688 44.191406 216.9375 45.296875 C 220.121094 48.625 222.292969 52.515625 223.449219 56.972656 C 224.316406 60.328125 224.613281 63.734375 224.339844 67.1875 C 224.152344 69.566406 223.699219 71.894531 222.980469 74.167969 C 222.15625 76.738281 221.042969 79.175781 219.640625 81.480469 C 217.925781 84.332031 215.691406 86.6875 212.929688 88.542969 C 212.996094 88.714844 213.058594 88.890625 213.121094 89.074219 C 213.179688 89.257812 213.28125 89.578125 213.351562 89.839844 C 213.886719 91.886719 214.375 94.085938 214.796875 96.351562 C 215.289062 99.121094 215.628906 101.90625 215.816406 104.714844 C 215.964844 106.90625 216.101562 108.84375 216.222656 110.542969 L 216.300781 111.640625 C 216.460938 113.832031 216.5625 116.859375 216.613281 120.835938 C 216.660156 124.636719 216.683594 127.484375 216.683594 129.378906 C 216.683594 131.273438 216.664062 134.640625 216.628906 139.472656 C 216.578125 144.160156 216.554688 147.429688 216.554688 149.28125 C 216.554688 151.3125 215.855469 161.585938 202.171875 164.152344 C 199.875 164.59375 197.5625 164.824219 195.226562 164.835938 Z M 195.226562 164.835938 " fill-opacity="1" fill-rule="nonzero"/></g><path fill="#3658bf" d="M 189.304688 92.921875 C 189.769531 91.332031 191.84375 90.65625 195.527344 90.890625 C 199.210938 91.128906 201.234375 91.800781 201.609375 92.921875 C 202.078125 94.691406 202.5 96.582031 202.875 98.582031 C 203.277344 100.898438 203.558594 103.230469 203.710938 105.578125 C 203.894531 108.230469 204.0625 110.542969 204.199219 112.476562 C 204.339844 114.40625 204.429688 117.28125 204.476562 121.003906 C 204.523438 124.730469 204.546875 127.535156 204.546875 129.433594 C 204.546875 131.335938 204.546875 134.605469 204.476562 139.394531 C 204.40625 144.183594 204.40625 147.457031 204.40625 149.355469 C 204.40625 150.75 202.921875 151.734375 199.933594 152.292969 C 196.90625 152.855469 193.878906 152.878906 190.84375 152.359375 C 187.777344 151.847656 186.140625 150.988281 185.949219 149.777344 C 183.996094 131.453125 185.113281 112.5 189.304688 92.921875 Z M 201.050781 50.542969 C 202.378906 50.515625 203.65625 50.765625 204.875 51.292969 C 206.097656 51.816406 207.152344 52.574219 208.046875 53.554688 C 209.808594 55.363281 211.019531 57.480469 211.679688 59.917969 C 212.136719 61.671875 212.339844 63.457031 212.292969 65.269531 C 212.246094 67.082031 211.949219 68.855469 211.402344 70.582031 C 210.867188 72.234375 210.144531 73.796875 209.234375 75.273438 C 208.199219 76.949219 206.808594 78.242188 205.058594 79.148438 C 203.109375 80.164062 201.035156 80.652344 198.835938 80.613281 C 196.84375 80.660156 194.980469 80.195312 193.242188 79.21875 C 191.707031 78.347656 190.519531 77.136719 189.679688 75.578125 C 188.242188 72.953125 187.519531 70.144531 187.511719 67.148438 C 187.511719 63.425781 188.839844 59.71875 191.496094 56.03125 C 194.152344 52.34375 197.335938 50.515625 201.050781 50.542969 Z M 199.792969 99.210938 L 200.078125 98.652344 C 200.210938 98.3125 200.304688 97.964844 200.355469 97.601562 C 200.449219 97.109375 200.425781 96.621094 200.285156 96.136719 C 200.078125 95.574219 199.703125 95.152344 199.167969 94.882812 C 198.402344 94.460938 197.585938 94.222656 196.714844 94.175781 C 197.007812 94.199219 197.289062 94.273438 197.558594 94.390625 C 198.152344 94.757812 198.609375 95.25 198.929688 95.871094 C 199.550781 96.898438 199.839844 98.011719 199.792969 99.210938 Z M 202.859375 53.902344 C 204.667969 55.421875 206.183594 57.195312 207.402344 59.21875 C 208.332031 60.65625 209.054688 62.1875 209.574219 63.816406 L 209.984375 65.632812 C 210.007812 63.988281 209.773438 62.382812 209.289062 60.8125 C 208.9375 59.574219 208.355469 58.457031 207.542969 57.457031 C 206.875 56.699219 206.152344 55.996094 205.375 55.355469 C 204.824219 54.875 204.21875 54.480469 203.558594 54.167969 Z M 202.859375 53.902344 " fill-opacity="1" fill-rule="nonzero"/><g clip-path="url(#9fbf09fedb)"><path fill="#ffec8d" d="M 640.261719 93.21875 C 635.816406 113.96875 634.613281 134.367188 636.707031 153.839844 C 636.707031 154.023438 636.726562 154.207031 636.773438 154.390625 C 637.378906 158.316406 640.113281 165.1875 651.6875 167.121094 C 653.796875 167.46875 655.921875 167.648438 658.0625 167.648438 C 660.394531 167.648438 662.710938 167.433594 665.003906 167.003906 C 678.699219 164.429688 679.394531 154.160156 679.394531 152.125 C 679.394531 150.285156 679.414062 147.015625 679.457031 142.316406 C 679.507812 137.503906 679.53125 134.152344 679.53125 132.269531 C 679.53125 130.367188 679.53125 127.527344 679.457031 123.726562 C 679.410156 119.703125 679.308594 116.683594 679.148438 114.484375 L 679.074219 113.394531 C 678.949219 111.6875 678.8125 109.753906 678.660156 107.554688 C 678.476562 104.753906 678.140625 101.96875 677.648438 99.203125 C 677.226562 96.90625 676.734375 94.738281 676.191406 92.683594 C 676.128906 92.421875 676.054688 92.167969 675.96875 91.917969 C 675.886719 91.664062 675.847656 91.5625 675.777344 91.386719 C 678.535156 89.53125 680.769531 87.179688 682.484375 84.332031 C 683.886719 82.023438 685.003906 79.582031 685.832031 77.011719 C 686.546875 74.738281 686.996094 72.414062 687.179688 70.039062 C 687.457031 66.59375 687.164062 63.199219 686.300781 59.855469 C 685.136719 55.390625 682.960938 51.492188 679.769531 48.160156 C 678.765625 47.058594 677.652344 46.074219 676.4375 45.207031 C 675.226562 44.339844 673.933594 43.609375 672.566406 43.015625 C 671.195312 42.421875 669.78125 41.976562 668.316406 41.683594 C 666.855469 41.386719 665.378906 41.246094 663.886719 41.265625 C 656.269531 41.265625 649.371094 45.011719 644.453125 51.832031 C 640.285156 57.609375 638.167969 63.738281 638.167969 70.054688 C 638.1875 75.046875 639.382812 79.738281 641.753906 84.132812 C 642.269531 85.105469 642.855469 86.03125 643.515625 86.914062 C 642.101562 88.507812 641.078125 90.324219 640.453125 92.359375 C 640.398438 92.636719 640.320312 92.929688 640.261719 93.21875 Z M 640.261719 93.21875 " fill-opacity="1" fill-rule="nonzero"/></g><g clip-path="url(#ead044bcad)"><path fill="#ffffff" d="M 645.25 164.835938 C 643.109375 164.835938 640.984375 164.65625 638.875 164.308594 C 627.308594 162.34375 624.566406 155.472656 623.960938 151.539062 C 623.960938 151.363281 623.90625 151.179688 623.894531 150.988281 C 621.808594 131.519531 623.003906 111.140625 627.449219 90.375 C 627.507812 90.078125 627.585938 89.785156 627.671875 89.496094 C 628.300781 87.457031 629.324219 85.644531 630.734375 84.046875 C 630.078125 83.164062 629.488281 82.238281 628.972656 81.265625 C 626.585938 76.875 625.382812 72.183594 625.363281 67.1875 C 625.363281 60.875 627.472656 54.742188 631.640625 48.964844 C 636.558594 42.152344 643.464844 38.398438 651.074219 38.398438 C 652.566406 38.382812 654.042969 38.519531 655.503906 38.8125 C 656.96875 39.109375 658.382812 39.550781 659.753906 40.148438 C 661.121094 40.742188 662.414062 41.472656 663.628906 42.339844 C 664.84375 43.207031 665.953125 44.191406 666.957031 45.296875 C 670.140625 48.625 672.3125 52.515625 673.472656 56.972656 C 674.339844 60.328125 674.636719 63.734375 674.359375 67.1875 C 674.175781 69.566406 673.722656 71.894531 673.003906 74.167969 C 672.179688 76.738281 671.066406 79.175781 669.664062 81.480469 C 667.949219 84.332031 665.710938 86.6875 662.949219 88.542969 C 663.019531 88.714844 663.082031 88.890625 663.140625 89.074219 C 663.203125 89.257812 663.304688 89.578125 663.371094 89.839844 C 663.90625 91.886719 664.398438 94.085938 664.820312 96.351562 C 665.3125 99.121094 665.652344 101.90625 665.839844 104.714844 C 665.984375 106.90625 666.121094 108.84375 666.246094 110.542969 L 666.320312 111.640625 C 666.484375 113.832031 666.582031 116.859375 666.636719 120.835938 C 666.683594 124.636719 666.707031 127.484375 666.707031 129.378906 C 666.707031 131.273438 666.6875 134.640625 666.652344 139.472656 C 666.601562 144.160156 666.574219 147.429688 666.574219 149.28125 C 666.574219 151.3125 665.878906 161.585938 652.191406 164.152344 C 649.898438 164.59375 647.585938 164.824219 645.25 164.835938 Z M 645.25 164.835938 " fill-opacity="1" fill-rule="nonzero"/></g><path fill="#3658bf" d="M 639.324219 92.921875 C 639.789062 91.332031 641.863281 90.65625 645.546875 90.890625 C 649.234375 91.128906 651.257812 91.800781 651.632812 92.921875 C 652.101562 94.691406 652.519531 96.582031 652.898438 98.582031 C 653.300781 100.898438 653.578125 103.230469 653.730469 105.578125 C 653.914062 108.230469 654.085938 110.542969 654.222656 112.476562 C 654.359375 114.40625 654.453125 117.28125 654.5 121.003906 C 654.542969 124.730469 654.566406 127.535156 654.566406 129.433594 C 654.566406 131.335938 654.566406 134.605469 654.5 139.394531 C 654.429688 144.183594 654.429688 147.457031 654.429688 149.355469 C 654.429688 150.75 652.941406 151.734375 649.953125 152.292969 C 646.929688 152.855469 643.898438 152.878906 640.867188 152.359375 C 637.800781 151.847656 636.160156 150.988281 635.96875 149.777344 C 634.019531 131.453125 635.136719 112.5 639.324219 92.921875 Z M 651.074219 50.542969 C 652.402344 50.515625 653.675781 50.765625 654.898438 51.292969 C 656.117188 51.816406 657.175781 52.574219 658.070312 53.554688 C 659.832031 55.363281 661.042969 57.480469 661.703125 59.917969 C 662.15625 61.671875 662.363281 63.457031 662.316406 65.269531 C 662.269531 67.082031 661.972656 68.855469 661.425781 70.582031 C 660.890625 72.234375 660.164062 73.796875 659.257812 75.273438 C 658.222656 76.949219 656.828125 78.242188 655.082031 79.148438 C 653.128906 80.164062 651.054688 80.652344 648.859375 80.613281 C 646.867188 80.660156 645 80.195312 643.265625 79.21875 C 641.726562 78.347656 640.539062 77.136719 639.703125 75.578125 C 638.261719 72.953125 637.539062 70.144531 637.53125 67.148438 C 637.53125 63.425781 638.859375 59.71875 641.515625 56.03125 C 644.171875 52.34375 647.359375 50.515625 651.074219 50.542969 Z M 649.816406 99.210938 L 650.101562 98.652344 C 650.234375 98.3125 650.328125 97.964844 650.375 97.601562 C 650.46875 97.109375 650.445312 96.621094 650.304688 96.136719 C 650.097656 95.574219 649.726562 95.152344 649.1875 94.882812 C 648.425781 94.460938 647.605469 94.222656 646.734375 94.175781 C 647.027344 94.199219 647.308594 94.273438 647.578125 94.390625 C 648.171875 94.757812 648.628906 95.25 648.949219 95.871094 C 649.574219 96.898438 649.863281 98.011719 649.816406 99.210938 Z M 652.882812 53.902344 C 654.691406 55.421875 656.203125 57.195312 657.425781 59.21875 C 658.351562 60.65625 659.078125 62.1875 659.59375 63.816406 L 660.007812 65.632812 C 660.027344 63.988281 659.796875 62.382812 659.308594 60.8125 C 658.957031 59.574219 658.375 58.457031 657.5625 57.457031 C 656.898438 56.699219 656.175781 55.996094 655.394531 55.355469 C 654.84375 54.875 654.238281 54.480469 653.578125 54.167969 Z M 652.882812 53.902344 " fill-opacity="1" fill-rule="nonzero"/><g clip-path="url(#817577d75d)"><path fill="#ffec8d" d="M 343.878906 53.859375 C 343.238281 50.648438 340.222656 42.113281 326.515625 42.113281 C 325.828125 42.113281 325.070312 42.113281 324.257812 42.164062 C 307.972656 42.964844 306.039062 52.847656 305.902344 56.625 C 305.902344 57.695312 305.707031 61.042969 305.226562 71.207031 L 304.269531 71.207031 C 292.859375 71.207031 282.746094 76.15625 275.015625 85.507812 C 267.785156 94.273438 264.113281 105.492188 264.113281 118.84375 C 264.070312 121.648438 264.304688 124.429688 264.816406 127.1875 C 265.324219 129.945312 266.097656 132.628906 267.140625 135.234375 C 268.179688 137.839844 269.464844 140.316406 270.996094 142.667969 C 272.527344 145.015625 274.273438 147.195312 276.238281 149.199219 C 284.273438 157.617188 294.355469 162.054688 305.289062 162.054688 L 306.117188 162.054688 C 307.390625 163.183594 308.800781 164.101562 310.351562 164.808594 C 311.898438 165.511719 313.515625 165.976562 315.203125 166.199219 C 318.402344 166.671875 321.613281 166.902344 324.847656 166.890625 L 326.453125 166.890625 C 329.523438 166.957031 332.570312 166.726562 335.597656 166.199219 C 344.796875 164.367188 348.058594 157.609375 348.058594 152.378906 C 348.058594 139.074219 347.710938 121.046875 347.03125 98.765625 C 346.105469 68.050781 344.796875 58.410156 343.878906 53.859375 Z M 343.878906 53.859375 " fill-opacity="1" fill-rule="nonzero"/></g><g clip-path="url(#759e8f251d)"><path fill="#ffffff" d="M 313.050781 163.917969 L 311.445312 163.917969 C 308.199219 163.925781 304.972656 163.695312 301.761719 163.226562 C 300.074219 163.003906 298.457031 162.539062 296.90625 161.832031 C 295.359375 161.125 293.949219 160.203125 292.675781 159.074219 L 291.863281 159.074219 C 280.921875 159.074219 270.871094 154.621094 262.804688 146.21875 C 260.839844 144.210938 259.09375 142.03125 257.5625 139.679688 C 256.03125 137.324219 254.742188 134.84375 253.703125 132.238281 C 252.664062 129.628906 251.886719 126.945312 251.378906 124.183594 C 250.871094 121.421875 250.636719 118.636719 250.679688 115.832031 C 250.679688 102.476562 254.351562 91.269531 261.582031 82.511719 C 269.3125 73.144531 279.425781 68.195312 290.851562 68.195312 L 291.816406 68.195312 C 292.28125 58.046875 292.460938 54.695312 292.460938 53.589844 C 292.605469 49.835938 294.53125 39.929688 310.816406 39.125 C 311.621094 39.125 312.386719 39.070312 313.082031 39.070312 C 326.742188 39.070312 329.796875 47.632812 330.4375 50.824219 C 331.347656 55.363281 332.664062 64.964844 333.613281 95.738281 C 334.292969 118.007812 334.640625 136.054688 334.640625 149.359375 C 334.640625 154.582031 331.378906 161.339844 322.179688 163.179688 C 319.160156 163.71875 316.117188 163.964844 313.050781 163.917969 Z M 313.050781 163.917969 " fill-opacity="1" fill-rule="nonzero"/></g><path fill="#3658bf" d="M 317.960938 53.371094 C 319.230469 59.730469 320.207031 73.996094 320.894531 96.171875 C 321.578125 118.347656 321.921875 136.089844 321.921875 149.398438 C 321.921875 150.667969 318.5 151.253906 311.660156 151.160156 C 304.820312 151.0625 301.339844 150.476562 301.21875 149.398438 C 301.21875 148.417969 301.265625 147.101562 301.363281 145.4375 C 298.214844 146.035156 295.035156 146.328125 291.832031 146.3125 C 284.308594 146.3125 277.683594 143.332031 271.964844 137.371094 C 270.574219 135.949219 269.335938 134.402344 268.253906 132.734375 C 267.167969 131.066406 266.261719 129.308594 265.527344 127.460938 C 264.792969 125.609375 264.246094 123.707031 263.890625 121.75 C 263.535156 119.792969 263.378906 117.820312 263.414062 115.832031 C 263.414062 105.472656 266.09375 97.066406 271.449219 90.609375 C 276.804688 84.15625 283.273438 80.921875 290.851562 80.90625 C 296.117188 80.90625 300.402344 82.285156 303.707031 85.042969 C 304.589844 66.863281 305.078125 56.550781 305.171875 54.101562 C 305.171875 52.832031 307.25 52.101562 311.40625 51.910156 C 315.5625 51.714844 317.746094 52.203125 317.960938 53.371094 Z M 270.453125 98.234375 C 271.75 95.917969 273.355469 93.84375 275.273438 92.007812 C 276.902344 90.359375 278.660156 88.867188 280.550781 87.535156 L 282.746094 86.214844 C 281.5 86.371094 280.316406 86.734375 279.195312 87.300781 C 278.078125 87.867188 277.085938 88.605469 276.222656 89.519531 C 274.378906 91.171875 272.886719 93.101562 271.753906 95.304688 Z M 302.277344 116.570312 C 302.46875 110.898438 302.761719 104.445312 303.152344 97.214844 C 301.589844 95.449219 299.339844 94.5625 296.40625 94.5625 C 295.4375 94.574219 294.488281 94.695312 293.550781 94.933594 C 292.25 95.28125 291 95.769531 289.808594 96.394531 C 288.335938 97.132812 287.039062 98.113281 285.925781 99.328125 C 284.621094 100.867188 283.667969 102.605469 283.066406 104.535156 C 282.238281 107.058594 281.84375 109.648438 281.894531 112.304688 C 281.921875 113.84375 282.195312 115.335938 282.722656 116.78125 C 283.25 118.226562 284 119.546875 284.972656 120.738281 C 287.015625 123.417969 289.363281 124.757812 292.007812 124.757812 C 293.449219 124.789062 294.816406 124.492188 296.113281 123.875 C 297.296875 123.285156 298.273438 122.453125 299.046875 121.382812 C 299.996094 120.003906 300.777344 118.535156 301.394531 116.980469 C 301.652344 116.761719 301.945312 116.625 302.277344 116.570312 Z M 316.203125 59.679688 C 316.296875 59.476562 316.425781 59.261719 316.570312 59.019531 C 316.769531 58.597656 316.886719 58.15625 316.933594 57.695312 C 317.035156 57.101562 317.011719 56.515625 316.859375 55.933594 C 316.625 55.273438 316.210938 54.757812 315.613281 54.390625 C 314.71875 53.828125 313.742188 53.53125 312.683594 53.507812 C 312.808594 53.511719 312.933594 53.535156 313.050781 53.578125 C 313.359375 53.726562 313.652344 53.898438 313.925781 54.09375 C 314.355469 54.371094 314.722656 54.714844 315.027344 55.121094 C 315.402344 55.667969 315.695312 56.257812 315.910156 56.882812 C 316.21875 57.792969 316.316406 58.722656 316.203125 59.679688 Z M 316.203125 59.679688 " fill-opacity="1" fill-rule="nonzero"/><g clip-path="url(#b9c47d176c)"><path fill="#ffec8d" d="M 378.457031 129.597656 C 378.457031 137.742188 381.4375 145.742188 387.300781 153.359375 C 394.09375 162.171875 403.75 166.828125 415.128906 166.828125 C 426.273438 166.828125 437.191406 163.515625 447.683594 156.953125 C 451.066406 158.070312 454.539062 158.675781 458.101562 158.765625 C 466.652344 158.765625 473.726562 153.808594 476.132812 146.117188 C 477.359375 141.683594 478.074219 137.171875 478.28125 132.574219 C 478.625 127.523438 478.707031 121.554688 478.5 114.867188 C 478.25 107.449219 477.335938 100.113281 475.757812 92.863281 C 474.21875 85.613281 471.96875 78.59375 469.007812 71.800781 C 467.308594 67.898438 465.152344 64.265625 462.542969 60.90625 C 459.933594 57.542969 456.949219 54.554688 453.589844 51.941406 C 451.742188 50.496094 449.785156 49.21875 447.71875 48.105469 C 445.65625 46.988281 443.511719 46.058594 441.289062 45.304688 C 439.066406 44.554688 436.796875 43.996094 434.480469 43.628906 C 432.160156 43.261719 429.828125 43.089844 427.484375 43.117188 C 423.539062 43.132812 419.71875 43.828125 416.023438 45.203125 C 412.277344 46.605469 408.878906 48.605469 405.835938 51.203125 C 403.523438 53.171875 401.359375 55.289062 399.34375 57.558594 C 396.808594 60.421875 394.648438 63.546875 392.867188 66.933594 C 391.3125 69.898438 389.949219 72.949219 388.769531 76.082031 C 387.40625 79.75 386.425781 83.523438 385.832031 87.394531 C 385.238281 91.113281 384.933594 94.855469 384.917969 98.625 C 384.925781 100.578125 385.253906 102.476562 385.894531 104.324219 C 384.246094 106.796875 382.859375 109.40625 381.730469 112.15625 C 379.496094 117.757812 378.40625 123.570312 378.457031 129.597656 Z M 378.457031 129.597656 " fill-opacity="1" fill-rule="nonzero"/></g><g clip-path="url(#977b15dec8)"><path fill="#ffffff" d="M 397.710938 162.964844 C 386.25 162.964844 376.675781 158.308594 369.882812 149.492188 C 364.019531 141.867188 361.039062 133.878906 361.039062 125.710938 C 361 119.679688 362.105469 113.867188 364.351562 108.269531 C 365.480469 105.515625 366.867188 102.902344 368.519531 100.425781 C 367.878906 98.585938 367.550781 96.6875 367.539062 94.738281 C 367.515625 90.980469 367.777344 87.246094 368.332031 83.527344 C 368.941406 79.65625 369.933594 75.886719 371.3125 72.214844 C 372.476562 69.078125 373.84375 66.027344 375.40625 63.070312 C 377.179688 59.679688 379.335938 56.554688 381.875 53.691406 C 383.890625 51.421875 386.054688 49.304688 388.363281 47.339844 C 391.441406 44.726562 394.871094 42.722656 398.65625 41.328125 C 402.351562 39.949219 406.171875 39.253906 410.117188 39.242188 C 412.457031 39.214844 414.785156 39.386719 417.097656 39.75 C 419.410156 40.117188 421.675781 40.675781 423.894531 41.421875 C 426.109375 42.171875 428.25 43.101562 430.3125 44.210938 C 432.371094 45.320312 434.324219 46.597656 436.171875 48.035156 C 439.53125 50.652344 442.515625 53.640625 445.125 57 C 447.738281 60.363281 449.894531 63.992188 451.601562 67.890625 C 454.554688 74.691406 456.800781 81.714844 458.339844 88.96875 C 459.910156 96.214844 460.816406 103.546875 461.050781 110.960938 C 461.257812 117.65625 461.183594 123.617188 460.832031 128.667969 C 460.640625 133.261719 459.945312 137.773438 458.746094 142.210938 C 456.308594 149.929688 449.234375 154.878906 440.683594 154.878906 C 437.121094 154.789062 433.648438 154.1875 430.265625 153.078125 C 419.773438 159.640625 408.855469 162.964844 397.710938 162.964844 Z M 397.710938 162.964844 " fill-opacity="1" fill-rule="nonzero"/></g><path fill="#3658bf" d="M 410.066406 55.753906 C 412.953125 55.710938 415.769531 56.148438 418.507812 57.070312 C 421.25 57.992188 423.757812 59.339844 426.035156 61.121094 C 428.3125 62.90625 430.332031 64.945312 432.097656 67.238281 C 433.859375 69.53125 435.3125 72.003906 436.453125 74.664062 C 438.96875 80.398438 440.882812 86.324219 442.191406 92.445312 C 443.566406 98.710938 444.355469 105.050781 444.566406 111.460938 C 444.765625 117.710938 444.695312 123.03125 444.378906 127.535156 C 444.25 130.84375 443.777344 134.105469 442.953125 137.316406 C 442.320312 139.34375 437.25 138.457031 427.742188 134.660156 C 417.859375 142.515625 407.847656 146.441406 397.710938 146.441406 C 396.289062 146.492188 394.882812 146.375 393.488281 146.089844 C 392.097656 145.800781 390.757812 145.347656 389.476562 144.738281 C 388.191406 144.125 387 143.367188 385.898438 142.46875 C 384.800781 141.566406 383.820312 140.546875 382.96875 139.410156 C 379.363281 134.722656 377.558594 130.15625 377.550781 125.710938 C 377.507812 121.832031 378.203125 118.09375 379.636719 114.492188 C 380.941406 111.191406 382.84375 108.277344 385.332031 105.75 C 387.664062 103.414062 390.203125 101.328125 392.949219 99.5 C 395.667969 97.691406 398.546875 96.203125 401.59375 95.03125 C 404.699219 93.820312 407.265625 92.902344 409.292969 92.269531 C 411.242188 91.660156 413.214844 91.148438 415.210938 90.738281 C 414.953125 80.605469 412.671875 75.535156 408.367188 75.527344 C 407.324219 75.527344 406.117188 76.289062 404.660156 77.808594 C 403.09375 79.480469 401.703125 81.285156 400.492188 83.226562 C 399.164062 85.3125 397.898438 87.4375 396.6875 89.601562 C 395.480469 91.769531 394.5 93.605469 393.75 95.113281 L 392.792969 97.394531 C 386.964844 97.144531 384.050781 96.257812 384.050781 94.738281 C 384.039062 91.851562 384.253906 88.980469 384.6875 86.125 C 385.105469 83.355469 385.796875 80.664062 386.769531 78.039062 C 387.699219 75.566406 388.78125 73.160156 390.011719 70.820312 C 391.148438 68.621094 392.539062 66.59375 394.179688 64.734375 C 395.683594 63.039062 397.296875 61.457031 399.023438 59.984375 C 400.613281 58.628906 402.394531 57.585938 404.355469 56.859375 C 406.191406 56.148438 408.097656 55.78125 410.066406 55.753906 Z M 416.316406 113.179688 C 416.617188 111.640625 416.746094 110.085938 416.699219 108.519531 C 416.699219 106.4375 416.511719 105.25 416.128906 105 C 413.210938 105.375 409.851562 107.6875 406.054688 111.9375 C 402.253906 116.1875 400.867188 119.390625 401.886719 121.542969 C 402.136719 122.042969 403.4375 121.792969 405.785156 120.78125 C 408.242188 119.703125 410.554688 118.367188 412.722656 116.78125 C 415.011719 115.136719 416.253906 113.9375 416.335938 113.210938 Z M 419.554688 60.890625 C 422.199219 62.902344 424.542969 65.214844 426.585938 67.828125 C 428.527344 70.175781 430.234375 72.679688 431.714844 75.339844 L 433.433594 78.382812 C 432.960938 75.960938 432.167969 73.648438 431.054688 71.445312 C 430.140625 69.582031 428.96875 67.902344 427.535156 66.402344 C 426.382812 65.246094 425.15625 64.179688 423.847656 63.203125 C 422.949219 62.488281 421.964844 61.921875 420.898438 61.496094 Z M 419.554688 60.890625 " fill-opacity="1" fill-rule="nonzero"/></svg>