<?xml version="1.0" encoding="utf-8"?>
<!-- Generator: Adobe Illustrator 19.0.0, SVG Export Plug-In . SVG Version: 6.00 Build 0)  -->
<svg version="1.1" id="Layer_1" xmlns="http://www.w3.org/2000/svg" xmlns:xlink="http://www.w3.org/1999/xlink" x="0px" y="0px"
	 viewBox="0 0 280 280" style="enable-background:new 0 0 280 280;" xml:space="preserve">
<style type="text/css">
	.st0{fill:#3658BF;}
	.st1{fill:#FFFFFF;}
	.st2{fill:#F26052;}
	.st3{fill:#A3C4F3;}
</style>
<g id="XMLID_754_">
	<path id="XMLID_813_" class="st0" d="M106.495,99.875c0.004-0.518-0.096-1.032-0.292-1.512c-0.196-0.48-0.486-0.917-0.851-1.286
		c-0.366-0.369-0.801-0.662-1.279-0.863c-0.48-0.201-0.993-0.306-1.514-0.309h-69.41c-0.522-0.002-1.04,0.099-1.523,0.296
		c-0.483,0.198-0.923,0.488-1.293,0.855c-0.371,0.367-0.665,0.803-0.866,1.283c-0.202,0.48-0.306,0.996-0.308,1.516v43.691
		c0.003,1.053,0.425,2.062,1.173,2.806c0.748,0.744,1.761,1.163,2.817,1.163h69.366c0.522,0.001,1.039-0.101,1.521-0.299
		c0.483-0.198,0.921-0.491,1.291-0.858c0.369-0.367,0.662-0.803,0.863-1.284c0.2-0.481,0.303-0.997,0.304-1.516V99.875H106.495z"/>
	<path id="XMLID_812_" class="st1" d="M97.49,67.618c0-0.433-0.085-0.862-0.251-1.262c-0.167-0.4-0.41-0.764-0.717-1.07
		c-0.308-0.306-0.672-0.549-1.074-0.715c-0.4-0.166-0.831-0.251-1.265-0.251H41.809c-0.878-0.001-1.721,0.346-2.343,0.965
		c-0.622,0.618-0.972,1.458-0.974,2.334v34.843l26.088,19.615c0.982,0.739,2.18,1.141,3.411,1.141c1.231,0,2.429-0.402,3.411-1.141
		l26.088-19.615V67.618z"/>
	<path id="XMLID_809_" class="st0" d="M97.974,67.62c-0.001-1.002-0.403-1.963-1.113-2.671c-0.712-0.708-1.676-1.106-2.682-1.105
		H41.809c-0.498-0.001-0.99,0.096-1.45,0.285c-0.46,0.189-0.878,0.467-1.231,0.817c-0.352,0.35-0.632,0.766-0.823,1.224
		c-0.191,0.458-0.29,0.949-0.291,1.445v34.848c-0.001,0.074,0.016,0.147,0.05,0.213c0.034,0.066,0.084,0.122,0.145,0.164
		c0,0,18.31,13.784,26.079,19.615c1.065,0.806,2.364,1.241,3.701,1.241c1.336,0,2.636-0.435,3.701-1.241
		c7.767-5.835,26.087-19.615,26.087-19.615c0.061-0.042,0.112-0.098,0.145-0.164c0.035-0.066,0.052-0.139,0.05-0.213V67.62z
		 M97.016,67.62v34.606c-1.956,1.466-18.592,13.984-25.892,19.471c-0.903,0.676-2.001,1.04-3.13,1.04
		c-1.129,0-2.227-0.364-3.13-1.04l-25.892-19.471V67.62c0.002-0.751,0.302-1.47,0.834-2.001c0.532-0.531,1.254-0.83,2.007-0.832
		h52.37c0.751,0.003,1.472,0.302,2.003,0.833C96.717,66.151,97.015,66.87,97.016,67.62z"/>
	<path id="XMLID_808_" class="st1" d="M30.286,96.898c0,0,24.719,18.589,33.98,25.541c1.073,0.808,2.38,1.244,3.724,1.244
		c1.344,0,2.651-0.436,3.724-1.244c9.245-6.951,33.978-25.541,33.978-25.541c0.099-0.079,0.162-0.192,0.179-0.316
		c0.017-0.124-0.016-0.25-0.089-0.352c-0.077-0.101-0.19-0.167-0.316-0.184c-0.126-0.017-0.254,0.016-0.355,0.092
		c0,0-24.719,18.591-33.968,25.541c-0.909,0.684-2.017,1.054-3.155,1.054s-2.246-0.37-3.155-1.054
		c-9.249-6.95-33.967-25.541-33.967-25.541c-0.101-0.071-0.227-0.099-0.349-0.08c-0.122,0.019-0.233,0.085-0.308,0.183
		c-0.075,0.098-0.109,0.221-0.095,0.344C30.128,96.707,30.19,96.819,30.286,96.898z"/>
	<path id="XMLID_807_" class="st2" d="M47.714,76.658h20.913c0.127,0,0.249-0.05,0.339-0.14c0.09-0.09,0.14-0.211,0.14-0.338
		s-0.05-0.248-0.14-0.338c-0.09-0.089-0.212-0.14-0.339-0.14H47.714c-0.127,0-0.249,0.05-0.339,0.14
		c-0.09,0.09-0.14,0.211-0.14,0.338s0.05,0.248,0.14,0.338C47.466,76.608,47.587,76.658,47.714,76.658z"/>
	<path id="XMLID_806_" class="st2" d="M47.685,85.039h40.227c0.129,0,0.251-0.051,0.343-0.141c0.09-0.09,0.141-0.213,0.141-0.341
		s-0.05-0.251-0.141-0.341c-0.091-0.09-0.214-0.141-0.343-0.141H47.682c-0.128,0-0.251,0.051-0.342,0.141
		c-0.091,0.09-0.142,0.213-0.142,0.341s0.051,0.251,0.142,0.341c0.091,0.09,0.214,0.141,0.342,0.141"/>
	<path id="XMLID_805_" class="st2" d="M47.684,93.432h40.228c0.065,0.003,0.131-0.007,0.192-0.03
		c0.061-0.023,0.117-0.058,0.165-0.103c0.047-0.045,0.084-0.099,0.111-0.159c0.025-0.06,0.038-0.125,0.038-0.19
		s-0.013-0.13-0.038-0.19c-0.026-0.06-0.064-0.114-0.111-0.159c-0.048-0.045-0.103-0.08-0.165-0.103
		c-0.061-0.023-0.127-0.033-0.192-0.03H47.681c-0.124,0.006-0.242,0.059-0.328,0.149c-0.086,0.09-0.134,0.209-0.134,0.333
		c0,0.124,0.048,0.243,0.134,0.333c0.086,0.09,0.203,0.143,0.328,0.149"/>
	<path id="XMLID_804_" class="st2" d="M47.685,101.808h40.227c0.129,0,0.251-0.051,0.341-0.141c0.091-0.09,0.142-0.213,0.142-0.341
		c0-0.128-0.05-0.25-0.142-0.341c-0.09-0.09-0.213-0.141-0.341-0.141H47.682c-0.128,0-0.251,0.051-0.342,0.141
		c-0.091,0.09-0.142,0.213-0.142,0.341c0,0.128,0.051,0.25,0.142,0.341c0.091,0.09,0.213,0.141,0.342,0.141"/>
	<path id="XMLID_803_" d="M100.232,127.962l2.093,3.759c0.03,0.055,0.071,0.103,0.12,0.142c0.049,0.04,0.105,0.069,0.165,0.087
		c0.06,0.017,0.124,0.023,0.185,0.016c0.063-0.007,0.123-0.025,0.178-0.055c0.055-0.03,0.103-0.071,0.143-0.119
		c0.038-0.049,0.067-0.105,0.085-0.165s0.023-0.123,0.017-0.185c-0.007-0.063-0.026-0.123-0.057-0.177l-2.093-3.769
		c-0.061-0.109-0.165-0.191-0.286-0.226c-0.12-0.035-0.251-0.022-0.363,0.037c-0.111,0.064-0.192,0.167-0.227,0.291
		c-0.035,0.123-0.02,0.254,0.041,0.367"/>
	<path id="XMLID_802_" class="st2" d="M36.156,61.519l-13.08-13.036c-0.044-0.044-0.097-0.079-0.155-0.103
		c-0.058-0.024-0.12-0.036-0.183-0.036c-0.063,0-0.125,0.012-0.183,0.036c-0.058,0.024-0.111,0.059-0.155,0.103
		c-0.044,0.044-0.08,0.097-0.104,0.155c-0.024,0.058-0.036,0.12-0.036,0.182c0,0.063,0.012,0.124,0.036,0.182
		c0.024,0.058,0.059,0.11,0.104,0.154l13.079,13.036c0.044,0.044,0.097,0.079,0.155,0.103c0.058,0.024,0.12,0.036,0.183,0.036
		c0.063,0,0.125-0.012,0.183-0.036c0.058-0.024,0.111-0.059,0.155-0.103c0.044-0.044,0.08-0.097,0.104-0.155
		c0.024-0.058,0.036-0.12,0.036-0.182c0-0.063-0.012-0.124-0.036-0.182C36.235,61.616,36.201,61.564,36.156,61.519z"/>
	<path id="XMLID_801_" class="st2" d="M41.802,55.759l-2.586-9.622c-0.036-0.118-0.117-0.218-0.225-0.278
		c-0.108-0.06-0.236-0.076-0.356-0.044c-0.12,0.032-0.222,0.109-0.286,0.215c-0.064,0.106-0.084,0.232-0.056,0.353l2.586,9.622
		c0.036,0.118,0.117,0.218,0.225,0.278c0.108,0.06,0.236,0.076,0.356,0.044c0.12-0.032,0.222-0.109,0.286-0.215
		C41.811,56.006,41.831,55.879,41.802,55.759z"/>
	<path id="XMLID_800_" class="st2" d="M29.945,66.898l-10.427-2.786c-0.121-0.028-0.248-0.008-0.354,0.056
		c-0.106,0.064-0.184,0.166-0.216,0.285c-0.032,0.119-0.016,0.247,0.044,0.355c0.06,0.108,0.16,0.189,0.279,0.224l10.427,2.786
		c0.06,0.02,0.124,0.027,0.188,0.022c0.063-0.005,0.125-0.023,0.182-0.052c0.057-0.029,0.107-0.069,0.147-0.118
		c0.041-0.049,0.071-0.105,0.09-0.166s0.025-0.125,0.018-0.188c-0.006-0.063-0.026-0.124-0.056-0.18
		c-0.031-0.056-0.072-0.105-0.122-0.144c-0.05-0.039-0.107-0.069-0.168-0.086L29.945,66.898z"/>
	<path id="XMLID_784_" d="M173.635,87.849c0.964,0.123,1.929,0.205,2.884,0.256c0.061,0.005,0.123-0.003,0.182-0.022
		c0.058-0.019,0.112-0.05,0.159-0.09c0.047-0.04,0.085-0.089,0.113-0.144c0.028-0.055,0.044-0.115,0.048-0.176v-0.017
		c0.006-0.126-0.038-0.249-0.123-0.343c-0.085-0.094-0.203-0.151-0.329-0.158c-0.934-0.041-1.866-0.133-2.821-0.246
		c-0.06-0.009-0.123-0.007-0.183,0.008c-0.059,0.015-0.115,0.041-0.165,0.077c-0.049,0.036-0.091,0.082-0.123,0.135
		c-0.031,0.053-0.053,0.111-0.061,0.171v0.018c-0.014,0.127,0.023,0.253,0.102,0.353c0.081,0.099,0.196,0.163,0.323,0.178
		 M182.319,87.971c0.975-0.106,1.939-0.236,2.872-0.41c0.124-0.02,0.234-0.089,0.308-0.19c0.073-0.102,0.103-0.228,0.084-0.352
		v-0.01c-0.025-0.123-0.096-0.232-0.2-0.305c-0.102-0.072-0.23-0.102-0.355-0.084c-0.922,0.174-1.855,0.307-2.8,0.399
		c-0.125,0.013-0.24,0.076-0.32,0.173c-0.079,0.098-0.118,0.223-0.106,0.348c0.018,0.123,0.082,0.236,0.179,0.314
		c0.096,0.079,0.22,0.118,0.345,0.11 M165.197,85.838c0.922,0.327,1.847,0.613,2.767,0.869c0.121,0.029,0.25,0.011,0.359-0.052
		c0.108-0.063,0.189-0.165,0.224-0.285c0.032-0.121,0.017-0.25-0.046-0.358c-0.061-0.109-0.165-0.189-0.286-0.222h-0.008
		c-0.89-0.245-1.794-0.53-2.696-0.849c-0.12-0.04-0.25-0.031-0.363,0.024c-0.113,0.055-0.2,0.153-0.242,0.272
		c-0.022,0.057-0.031,0.118-0.029,0.179c0.002,0.061,0.017,0.121,0.042,0.177c0.025,0.056,0.061,0.106,0.106,0.147
		c0.046,0.042,0.099,0.074,0.156,0.096h0.011 M190.803,86.082c0.922-0.318,1.825-0.675,2.708-1.053
		c0.059-0.025,0.111-0.062,0.154-0.108c0.044-0.046,0.078-0.099,0.101-0.158c0.023-0.059,0.034-0.122,0.032-0.185
		c-0.001-0.063-0.016-0.125-0.041-0.183c-0.025-0.058-0.063-0.11-0.108-0.154c-0.046-0.044-0.1-0.078-0.159-0.101
		c-0.059-0.023-0.121-0.034-0.185-0.032c-0.063,0.001-0.125,0.015-0.184,0.041c-0.851,0.379-1.734,0.726-2.626,1.033
		c-0.06,0.021-0.115,0.053-0.162,0.095c-0.047,0.042-0.085,0.093-0.113,0.15c-0.028,0.057-0.043,0.119-0.047,0.182
		c-0.004,0.063,0.006,0.126,0.026,0.186c0.02,0.058,0.053,0.112,0.094,0.158c0.042,0.046,0.091,0.083,0.148,0.11
		c0.055,0.027,0.115,0.042,0.178,0.046c0.061,0.003,0.124-0.006,0.182-0.026 M157.313,82.228c0.851,0.491,1.703,0.941,2.554,1.36
		c0.054,0.029,0.113,0.047,0.174,0.053c0.061,0.006,0.123,0,0.182-0.018s0.113-0.047,0.161-0.086
		c0.047-0.039,0.087-0.087,0.115-0.141l0.006-0.013c0.055-0.114,0.064-0.245,0.024-0.365c-0.04-0.12-0.125-0.22-0.237-0.279
		c-0.833-0.41-1.663-0.859-2.502-1.329c-0.054-0.032-0.113-0.054-0.174-0.063c-0.061-0.01-0.124-0.007-0.184,0.008
		c-0.061,0.015-0.118,0.041-0.168,0.077c-0.051,0.037-0.093,0.083-0.125,0.136c-0.032,0.053-0.054,0.112-0.064,0.173
		c-0.01,0.061-0.007,0.124,0.007,0.184c0.014,0.06,0.041,0.117,0.078,0.167c0.036,0.05,0.083,0.093,0.136,0.125l0.022,0.012
		 M198.621,82.29c0.821-0.53,1.61-1.094,2.371-1.677c0.054-0.036,0.101-0.083,0.137-0.138c0.036-0.055,0.06-0.117,0.07-0.182
		c0.011-0.065,0.008-0.131-0.008-0.195c-0.017-0.064-0.046-0.123-0.087-0.175c-0.041-0.052-0.093-0.094-0.15-0.125
		c-0.058-0.031-0.121-0.049-0.188-0.054c-0.065-0.005-0.131,0.004-0.194,0.025c-0.063,0.022-0.119,0.056-0.167,0.101
		c-0.738,0.562-1.509,1.104-2.307,1.616c-0.108,0.068-0.185,0.175-0.214,0.3c-0.028,0.124-0.006,0.255,0.061,0.363
		c0.069,0.108,0.177,0.185,0.301,0.213c0.125,0.029,0.256,0.007,0.364-0.061l0.01-0.006 M150.136,77.477
		c0.666,0.439,1.333,0.91,2,1.401c0.113,0.071,0.213,0.153,0.329,0.225c0.05,0.036,0.108,0.062,0.168,0.076
		c0.061,0.014,0.124,0.016,0.185,0.006c0.061-0.01,0.12-0.032,0.173-0.065c0.053-0.033,0.099-0.075,0.135-0.126
		c0.037-0.05,0.063-0.107,0.077-0.168c0.014-0.06,0.017-0.123,0.006-0.184c-0.01-0.061-0.031-0.12-0.065-0.173
		c-0.032-0.053-0.076-0.098-0.126-0.135c-0.106-0.082-0.204-0.154-0.308-0.236c-0.688-0.501-1.371-0.972-2.05-1.411
		c-0.106-0.069-0.233-0.094-0.356-0.069c-0.124,0.025-0.232,0.098-0.301,0.202c-0.07,0.104-0.095,0.232-0.07,0.355
		C149.958,77.3,150.032,77.408,150.136,77.477z M205.276,76.721c0.667-0.716,1.296-1.453,1.886-2.209
		c0.075-0.101,0.106-0.226,0.089-0.35c-0.017-0.124-0.081-0.236-0.179-0.314c-0.049-0.039-0.106-0.067-0.166-0.084
		c-0.06-0.017-0.123-0.022-0.185-0.014c-0.061,0.007-0.121,0.027-0.176,0.057c-0.055,0.031-0.103,0.071-0.142,0.12
		c-0.575,0.736-1.178,1.452-1.824,2.147c-0.085,0.094-0.129,0.217-0.124,0.343c0.006,0.126,0.061,0.245,0.153,0.331
		c0.046,0.042,0.1,0.074,0.158,0.095c0.059,0.021,0.12,0.03,0.183,0.027c0.061-0.003,0.123-0.018,0.178-0.044
		c0.057-0.026,0.107-0.063,0.148-0.109 M110.045,76.34c0.782-0.512,1.593-0.976,2.43-1.391c0.057-0.028,0.106-0.066,0.147-0.114
		c0.041-0.047,0.072-0.102,0.091-0.161c0.019-0.059,0.026-0.122,0.022-0.184c-0.006-0.062-0.023-0.123-0.052-0.178v-0.005
		c-0.059-0.112-0.16-0.197-0.28-0.236c-0.12-0.04-0.251-0.031-0.366,0.024c-0.873,0.438-1.719,0.926-2.535,1.462
		c-0.05,0.034-0.095,0.077-0.129,0.128c-0.035,0.051-0.058,0.107-0.071,0.167c-0.012,0.06-0.012,0.121,0,0.181
		c0.012,0.06,0.035,0.117,0.07,0.168l0.007,0.011c0.069,0.104,0.176,0.176,0.297,0.201c0.123,0.025,0.25,0.001,0.353-0.067
		l0.017-0.011 M142.613,73.533c0.861,0.337,1.722,0.727,2.595,1.146c0.114,0.056,0.246,0.065,0.367,0.024
		c0.121-0.041,0.22-0.128,0.277-0.242s0.066-0.246,0.025-0.366c-0.041-0.12-0.129-0.22-0.243-0.276
		c-0.892-0.424-1.785-0.818-2.66-1.167c-0.058-0.024-0.118-0.036-0.179-0.036c-0.061,0-0.123,0.012-0.179,0.035
		c-0.057,0.023-0.108,0.058-0.152,0.101c-0.043,0.043-0.078,0.095-0.101,0.151v0.015c-0.048,0.115-0.047,0.245,0.001,0.36
		c0.049,0.115,0.141,0.206,0.257,0.253 M117.706,72.796c0.851-0.276,1.754-0.542,2.719-0.778c0.123-0.032,0.23-0.111,0.295-0.22
		c0.065-0.109,0.084-0.24,0.054-0.363c-0.031-0.122-0.108-0.226-0.216-0.291c-0.107-0.065-0.236-0.085-0.358-0.057
		c-0.994,0.245-1.915,0.521-2.789,0.798c-0.06,0.019-0.115,0.05-0.164,0.091c-0.048,0.041-0.088,0.091-0.117,0.147
		c-0.057,0.113-0.067,0.245-0.028,0.365c0.04,0.121,0.125,0.221,0.239,0.278C117.454,72.824,117.586,72.835,117.706,72.796z
		 M134.456,71.309c0.913,0.133,1.835,0.307,2.779,0.53c0.124,0.028,0.254,0.007,0.362-0.06c0.107-0.067,0.184-0.174,0.213-0.297
		c0.026-0.123,0.004-0.251-0.064-0.358c-0.066-0.107-0.172-0.184-0.293-0.215c-0.964-0.225-1.915-0.399-2.853-0.542
		c-0.063-0.014-0.126-0.015-0.19-0.004c-0.063,0.011-0.123,0.035-0.176,0.07c-0.054,0.035-0.1,0.08-0.136,0.133
		c-0.036,0.053-0.06,0.112-0.072,0.175s-0.012,0.127,0.001,0.189c0.013,0.062,0.038,0.121,0.075,0.174
		c0.037,0.052,0.083,0.097,0.137,0.131s0.114,0.057,0.178,0.067C134.43,71.305,134.442,71.308,134.456,71.309z M125.998,71.077
		c0.913-0.082,1.856-0.133,2.83-0.143c0.125-0.005,0.244-0.058,0.332-0.147c0.088-0.089,0.138-0.208,0.141-0.333
		c-0.002-0.126-0.054-0.246-0.144-0.334c-0.09-0.088-0.212-0.137-0.338-0.136c-0.994,0.011-1.969,0.062-2.902,0.143
		c-0.124,0.011-0.238,0.07-0.317,0.164c-0.079,0.094-0.119,0.217-0.108,0.34v0.017c0.013,0.123,0.075,0.237,0.17,0.316
		c0.096,0.079,0.219,0.118,0.343,0.109"/>
	<path id="XMLID_759_" class="st2" d="M113.641,225.077c0.933,0.054,1.897,0.083,2.882,0.093c0.063,0.001,0.124-0.01,0.182-0.032
		c0.058-0.022,0.111-0.055,0.156-0.099c0.044-0.043,0.081-0.094,0.105-0.15c0.025-0.057,0.038-0.118,0.04-0.18v-0.007
		c0.001-0.126-0.048-0.248-0.137-0.337c-0.088-0.09-0.209-0.142-0.335-0.144c-0.974-0.011-1.915-0.041-2.841-0.091
		c-0.126-0.007-0.249,0.037-0.344,0.121c-0.094,0.083-0.151,0.201-0.159,0.327c-0.01,0.123,0.029,0.244,0.109,0.338
		c0.079,0.094,0.194,0.153,0.316,0.162h0.024 M122.285,224.971c0.944-0.071,1.897-0.164,2.874-0.275
		c0.063-0.007,0.123-0.025,0.178-0.055c0.057-0.03,0.105-0.07,0.144-0.119c0.04-0.049,0.069-0.105,0.087-0.165
		c0.018-0.061,0.024-0.124,0.017-0.186v-0.005c-0.014-0.127-0.079-0.243-0.178-0.322c-0.1-0.079-0.227-0.117-0.355-0.102
		c-0.953,0.112-1.897,0.204-2.832,0.275c-0.125,0.008-0.242,0.066-0.325,0.161c-0.083,0.095-0.125,0.218-0.117,0.343v0.008
		c0.012,0.125,0.072,0.242,0.168,0.323c0.095,0.082,0.219,0.123,0.345,0.117 M105.054,223.966c0.925,0.192,1.877,0.368,2.852,0.522
		c0.125,0.018,0.252-0.014,0.353-0.089c0.102-0.075,0.171-0.186,0.19-0.311c0.019-0.124-0.012-0.25-0.087-0.351
		c-0.075-0.102-0.185-0.17-0.31-0.189c-0.964-0.154-1.888-0.319-2.8-0.512c-0.124-0.025-0.252,0-0.357,0.069
		c-0.106,0.069-0.18,0.177-0.207,0.299c-0.013,0.061-0.014,0.124-0.002,0.185c0.011,0.06,0.034,0.119,0.067,0.171
		c0.034,0.053,0.078,0.097,0.129,0.133c0.052,0.035,0.109,0.06,0.171,0.073 M130.867,223.833c0.925-0.173,1.868-0.369,2.821-0.582
		c0.121-0.025,0.227-0.097,0.296-0.201c0.067-0.105,0.091-0.23,0.065-0.351v-0.012c-0.026-0.123-0.1-0.23-0.206-0.299
		c-0.106-0.069-0.234-0.093-0.358-0.069c-0.944,0.213-1.877,0.398-2.8,0.574c-0.061,0.011-0.119,0.035-0.172,0.069
		c-0.052,0.034-0.097,0.077-0.132,0.129c-0.035,0.052-0.06,0.108-0.073,0.17c-0.013,0.061-0.013,0.124-0.002,0.185
		c0.024,0.125,0.096,0.237,0.202,0.309C130.612,223.827,130.741,223.854,130.867,223.833z M96.745,221.498
		c0.883,0.35,1.785,0.676,2.728,0.982c0.059,0.02,0.121,0.028,0.184,0.023c0.063-0.005,0.123-0.022,0.178-0.049
		c0.057-0.028,0.106-0.067,0.147-0.114c0.041-0.047,0.071-0.101,0.091-0.161c0.019-0.059,0.026-0.121,0.022-0.183
		c-0.005-0.063-0.022-0.123-0.049-0.178c-0.028-0.055-0.067-0.106-0.114-0.145c-0.047-0.041-0.102-0.072-0.161-0.091
		c-0.923-0.305-1.816-0.623-2.667-0.97c-0.119-0.044-0.252-0.041-0.369,0.011c-0.117,0.052-0.209,0.147-0.256,0.265
		c-0.023,0.058-0.035,0.119-0.034,0.18c0,0.063,0.013,0.123,0.037,0.18c0.025,0.057,0.06,0.107,0.105,0.15
		c0.044,0.043,0.097,0.077,0.154,0.1 M139.265,221.876l2.767-0.742c0.06-0.016,0.115-0.043,0.166-0.081
		c0.049-0.037,0.09-0.084,0.121-0.138c0.032-0.053,0.053-0.113,0.061-0.174c0.007-0.061,0.004-0.124-0.012-0.183v-0.006
		c-0.032-0.121-0.112-0.225-0.221-0.289c-0.109-0.064-0.239-0.082-0.362-0.049c-0.934,0.255-1.856,0.5-2.767,0.736
		c-0.123,0.034-0.226,0.113-0.29,0.222c-0.064,0.109-0.082,0.239-0.049,0.362c0.034,0.123,0.113,0.227,0.222,0.292
		s0.24,0.084,0.364,0.055 M147.564,219.592c0.904-0.256,1.828-0.522,2.75-0.79c0.123-0.035,0.226-0.117,0.287-0.227
		c0.061-0.112,0.077-0.243,0.041-0.364c-0.035-0.123-0.117-0.225-0.228-0.286c-0.112-0.061-0.243-0.077-0.364-0.042
		c-0.925,0.267-1.836,0.53-2.75,0.798c-0.12,0.031-0.222,0.109-0.284,0.215c-0.063,0.107-0.079,0.234-0.048,0.353v0.012
		c0.034,0.121,0.114,0.225,0.225,0.287c0.109,0.061,0.24,0.078,0.362,0.044h0.006 M89.006,217.608
		c0.789,0.501,1.62,0.982,2.491,1.463c0.112,0.057,0.242,0.069,0.362,0.032c0.121-0.035,0.222-0.117,0.284-0.226
		c0.031-0.054,0.05-0.113,0.059-0.174c0.007-0.061,0.002-0.124-0.013-0.184c-0.017-0.059-0.046-0.115-0.083-0.164
		c-0.038-0.049-0.085-0.09-0.139-0.12h-0.007c-0.862-0.469-1.671-0.941-2.447-1.43c-0.108-0.066-0.237-0.088-0.361-0.059
		c-0.123,0.029-0.23,0.106-0.296,0.213c-0.067,0.103-0.09,0.23-0.064,0.351c0.026,0.121,0.1,0.226,0.204,0.293l0.013,0.008
		 M155.821,217.188c0.903-0.266,1.828-0.543,2.738-0.819c0.123-0.035,0.226-0.115,0.289-0.226c0.061-0.111,0.077-0.24,0.043-0.363
		c-0.04-0.118-0.124-0.218-0.234-0.277c-0.111-0.059-0.239-0.075-0.361-0.041c-0.922,0.275-1.836,0.542-2.75,0.819
		c-0.118,0.031-0.218,0.108-0.279,0.213c-0.061,0.106-0.078,0.231-0.047,0.349l0.007,0.019c0.017,0.061,0.046,0.118,0.084,0.167
		c0.038,0.049,0.088,0.09,0.142,0.12c0.055,0.031,0.115,0.051,0.178,0.058c0.063,0.007,0.126,0.002,0.186-0.014 M164.053,214.752
		c0.914-0.275,1.828-0.542,2.75-0.819c0.06-0.018,0.115-0.048,0.165-0.088c0.048-0.038,0.088-0.088,0.118-0.143
		c0.029-0.055,0.048-0.115,0.054-0.177c0.006-0.063,0-0.125-0.018-0.185s-0.048-0.115-0.088-0.164
		c-0.04-0.048-0.089-0.089-0.144-0.118c-0.055-0.03-0.115-0.048-0.178-0.054c-0.063-0.006-0.125,0-0.185,0.018
		c-0.913,0.278-1.836,0.543-2.75,0.819c-0.12,0.037-0.222,0.12-0.283,0.231c-0.059,0.112-0.072,0.242-0.035,0.363
		c0.036,0.12,0.119,0.221,0.231,0.281C163.802,214.776,163.933,214.79,164.053,214.752z M82.124,212.341
		c0.666,0.623,1.383,1.266,2.174,1.909c0.099,0.075,0.222,0.109,0.345,0.095c0.124-0.013,0.237-0.075,0.316-0.17
		c0.079-0.095,0.119-0.216,0.109-0.34c-0.008-0.123-0.064-0.238-0.156-0.321c-0.78-0.637-1.489-1.258-2.128-1.861
		c-0.09-0.087-0.211-0.133-0.337-0.131c-0.125,0.001-0.245,0.053-0.332,0.143l-0.008,0.01c-0.043,0.043-0.076,0.094-0.099,0.15
		c-0.023,0.057-0.034,0.115-0.033,0.177c0.001,0.06,0.013,0.12,0.037,0.176c0.024,0.055,0.058,0.106,0.102,0.149l0.014,0.012
		 M172.304,212.326l2.75-0.797c0.121-0.034,0.225-0.114,0.286-0.225c0.063-0.109,0.078-0.239,0.043-0.359
		c-0.034-0.121-0.114-0.224-0.225-0.286c-0.109-0.061-0.239-0.077-0.361-0.043h-0.011c-0.922,0.267-1.836,0.522-2.747,0.79
		c-0.121,0.036-0.224,0.119-0.286,0.23c-0.061,0.111-0.077,0.24-0.043,0.363c0.017,0.06,0.046,0.117,0.085,0.166
		c0.04,0.049,0.088,0.09,0.143,0.12c0.055,0.03,0.115,0.049,0.178,0.057c0.063,0.007,0.126,0.001,0.186-0.016 M180.56,209.972
		c0.922-0.256,1.836-0.503,2.758-0.757c0.123-0.031,0.226-0.109,0.29-0.218c0.064-0.108,0.083-0.237,0.052-0.358
		c-0.035-0.12-0.115-0.224-0.225-0.286c-0.109-0.064-0.239-0.082-0.362-0.052l-2.767,0.768c-0.119,0.03-0.221,0.106-0.284,0.21
		c-0.064,0.105-0.082,0.231-0.053,0.35l0.007,0.02c0.016,0.06,0.043,0.115,0.081,0.164c0.038,0.049,0.085,0.09,0.138,0.12
		c0.053,0.031,0.113,0.05,0.173,0.059c0.061,0.008,0.124,0.004,0.183-0.012h0.011 M76.502,205.725
		c0.513,0.831,1.078,1.627,1.692,2.385c0.081,0.097,0.197,0.16,0.324,0.173c0.127,0.013,0.253-0.023,0.353-0.102
		c0.048-0.038,0.089-0.087,0.119-0.141c0.03-0.054,0.049-0.114,0.055-0.176c0.007-0.061,0.001-0.124-0.016-0.183
		c-0.017-0.059-0.047-0.114-0.085-0.164c-0.585-0.724-1.126-1.482-1.621-2.272c-0.032-0.053-0.074-0.1-0.123-0.137
		c-0.05-0.038-0.107-0.065-0.167-0.082c-0.06-0.016-0.123-0.019-0.185-0.01c-0.062,0.008-0.121,0.029-0.175,0.06
		s-0.101,0.073-0.139,0.124c-0.038,0.049-0.065,0.106-0.081,0.166c-0.016,0.06-0.019,0.123-0.011,0.185
		c0.009,0.061,0.029,0.121,0.061,0.174 M188.863,207.763l2.767-0.703c0.121-0.03,0.227-0.107,0.292-0.213
		c0.066-0.107,0.087-0.236,0.057-0.357c-0.031-0.124-0.111-0.228-0.22-0.295c-0.108-0.065-0.239-0.084-0.363-0.055
		c-0.922,0.226-1.848,0.462-2.779,0.707c-0.121,0.03-0.226,0.107-0.29,0.214c-0.065,0.107-0.084,0.234-0.054,0.356v0.014
		c0.034,0.121,0.114,0.224,0.222,0.286c0.109,0.063,0.238,0.081,0.361,0.051 M197.171,205.728c0.934-0.212,1.864-0.424,2.791-0.636
		c0.061-0.012,0.119-0.036,0.171-0.071c0.052-0.035,0.096-0.079,0.13-0.131c0.035-0.052,0.059-0.109,0.071-0.17
		c0.011-0.061,0.011-0.124-0.001-0.185v-0.007c-0.029-0.124-0.106-0.231-0.213-0.299c-0.107-0.069-0.237-0.094-0.362-0.069
		c-0.922,0.204-1.856,0.424-2.8,0.636c-0.061,0.014-0.119,0.041-0.171,0.077c-0.051,0.036-0.095,0.082-0.127,0.135
		c-0.034,0.053-0.057,0.112-0.067,0.174c-0.01,0.061-0.008,0.124,0.006,0.185c0.013,0.061,0.04,0.119,0.076,0.17
		c0.036,0.052,0.083,0.095,0.136,0.129c0.053,0.032,0.112,0.055,0.174,0.066c0.061,0.01,0.125,0.008,0.186-0.006 M247.857,203.61
		c0.905,0.297,1.785,0.636,2.649,0.991c0.057,0.026,0.118,0.041,0.179,0.043c0.063,0.004,0.125-0.006,0.183-0.028
		c0.059-0.022,0.112-0.054,0.159-0.095c0.046-0.042,0.083-0.093,0.108-0.149c0.026-0.057,0.042-0.117,0.044-0.179
		c0.002-0.061-0.007-0.124-0.029-0.182c-0.02-0.059-0.053-0.112-0.095-0.158c-0.042-0.046-0.093-0.083-0.149-0.109l-0.031-0.013
		c-0.872-0.378-1.785-0.714-2.708-1.021c-0.058-0.022-0.12-0.03-0.182-0.028c-0.061,0.004-0.123,0.018-0.178,0.044
		c-0.057,0.026-0.106,0.064-0.148,0.109c-0.041,0.046-0.073,0.099-0.094,0.156v0.014c-0.038,0.119-0.029,0.249,0.026,0.361
		c0.055,0.113,0.153,0.2,0.272,0.242 M205.567,203.937c0.944-0.184,1.874-0.357,2.809-0.522c0.125-0.022,0.237-0.093,0.31-0.196
		c0.073-0.103,0.102-0.232,0.081-0.357c-0.023-0.124-0.093-0.236-0.197-0.308c-0.103-0.073-0.232-0.102-0.357-0.081
		c-0.944,0.176-1.878,0.349-2.821,0.53c-0.061,0.011-0.119,0.032-0.171,0.065c-0.052,0.032-0.097,0.075-0.133,0.125
		c-0.035,0.049-0.06,0.106-0.075,0.166c-0.013,0.06-0.014,0.121-0.005,0.183v0.013c0.025,0.123,0.097,0.231,0.201,0.302
		c0.103,0.071,0.231,0.097,0.355,0.075 M214.014,202.491c0.958-0.142,1.898-0.265,2.83-0.388c0.063-0.007,0.123-0.028,0.177-0.059
		c0.054-0.031,0.101-0.072,0.139-0.121c0.038-0.049,0.066-0.106,0.083-0.166c0.016-0.06,0.02-0.123,0.012-0.185
		c-0.008-0.061-0.028-0.121-0.059-0.176c-0.031-0.054-0.073-0.101-0.123-0.139c-0.049-0.037-0.106-0.066-0.166-0.082
		c-0.06-0.017-0.124-0.02-0.185-0.012c-0.944,0.112-1.889,0.245-2.842,0.387c-0.063,0.008-0.121,0.029-0.176,0.059
		c-0.054,0.031-0.102,0.072-0.141,0.121c-0.037,0.049-0.066,0.106-0.082,0.166c-0.017,0.06-0.02,0.123-0.013,0.185
		c0.018,0.126,0.085,0.239,0.188,0.316C213.76,202.474,213.888,202.509,214.014,202.491z M239.574,201.733
		c0.957,0.133,1.889,0.287,2.811,0.461c0.061,0.012,0.124,0.011,0.185-0.001c0.06-0.013,0.118-0.037,0.17-0.072
		c0.052-0.036,0.096-0.081,0.13-0.132c0.034-0.052,0.058-0.109,0.069-0.171c0.023-0.125-0.005-0.254-0.076-0.359
		c-0.071-0.105-0.18-0.178-0.305-0.204c-0.932-0.173-1.886-0.326-2.85-0.461c-0.125-0.016-0.25,0.018-0.35,0.094
		c-0.1,0.076-0.165,0.188-0.183,0.311c-0.018,0.124,0.014,0.249,0.089,0.35c0.075,0.1,0.185,0.167,0.309,0.186 M222.527,201.51
		c0.958-0.081,1.908-0.142,2.839-0.194c0.126-0.006,0.245-0.063,0.331-0.158c0.084-0.094,0.129-0.218,0.121-0.344
		c-0.001-0.061-0.016-0.121-0.041-0.178c-0.025-0.055-0.061-0.106-0.107-0.148c-0.044-0.042-0.097-0.075-0.155-0.096
		c-0.057-0.022-0.118-0.032-0.18-0.03h-0.019c-0.944,0.053-1.908,0.113-2.874,0.195c-0.126,0.011-0.243,0.07-0.326,0.165
		c-0.082,0.096-0.124,0.22-0.114,0.346c0.012,0.127,0.073,0.244,0.172,0.327c0.097,0.082,0.224,0.123,0.351,0.112 M231.069,201.172
		c0.957,0,1.907,0.03,2.841,0.071c0.127,0.006,0.251-0.04,0.345-0.125c0.093-0.087,0.149-0.206,0.154-0.332
		c0.005-0.127-0.041-0.25-0.126-0.344c-0.087-0.093-0.206-0.148-0.333-0.154c-0.944-0.041-1.908-0.071-2.881-0.071
		c-0.06,0-0.121,0.011-0.178,0.034c-0.058,0.022-0.109,0.055-0.153,0.099c-0.044,0.042-0.079,0.093-0.103,0.149
		c-0.024,0.057-0.037,0.117-0.037,0.177v0.013c-0.001,0.126,0.048,0.248,0.137,0.337c0.088,0.09,0.208,0.142,0.334,0.144"/>
	<path id="XMLID_756_" class="st2" d="M107.224,202c-0.534,0.001-1.056,0.16-1.499,0.457c-0.444,0.297-0.789,0.718-0.992,1.211
		c-0.204,0.492-0.256,1.034-0.151,1.556c0.106,0.522,0.364,1.002,0.742,1.378c0.379,0.376,0.861,0.631,1.384,0.735
		c0.524,0.103,1.068,0.049,1.561-0.156c0.493-0.204,0.915-0.549,1.211-0.993c0.296-0.444,0.454-0.964,0.453-1.497
		c0-0.353-0.071-0.705-0.207-1.03c-0.137-0.327-0.337-0.624-0.588-0.874c-0.251-0.25-0.549-0.448-0.878-0.583
		C107.931,202.068,107.579,201.999,107.224,202z M107.224,202.955c0.345-0.001,0.684,0.1,0.971,0.291
		c0.289,0.191,0.513,0.463,0.646,0.78c0.133,0.319,0.17,0.669,0.102,1.008c-0.066,0.338-0.232,0.649-0.476,0.893
		c-0.244,0.244-0.554,0.411-0.893,0.48c-0.339,0.067-0.691,0.034-1.011-0.097c-0.32-0.131-0.593-0.353-0.786-0.64
		c-0.192-0.286-0.296-0.623-0.297-0.968v-0.008c0.001-0.46,0.185-0.903,0.512-1.229S106.761,202.955,107.224,202.955z"/>
	<path id="XMLID_753_" d="M227.596,128.536c-0.416,0-0.822,0.123-1.169,0.353c-0.345,0.23-0.616,0.557-0.774,0.94
		c-0.16,0.382-0.202,0.804-0.12,1.211c0.081,0.406,0.28,0.78,0.575,1.074c0.293,0.293,0.669,0.493,1.076,0.575
		c0.408,0.081,0.831,0.04,1.214-0.119c0.385-0.159,0.713-0.427,0.944-0.772c0.232-0.344,0.355-0.749,0.356-1.164
		c0-0.275-0.054-0.548-0.16-0.802c-0.106-0.255-0.26-0.486-0.456-0.681c-0.195-0.195-0.426-0.349-0.681-0.454
		c-0.255-0.106-0.529-0.16-0.804-0.16L227.596,128.536z M227.596,129.49c0.305,0.001,0.598,0.124,0.814,0.339
		c0.215,0.216,0.335,0.509,0.335,0.814c-0.001,0.304-0.123,0.596-0.339,0.812c-0.216,0.215-0.51,0.335-0.815,0.335
		s-0.599-0.12-0.814-0.335c-0.216-0.215-0.339-0.507-0.339-0.812c0-0.305,0.12-0.598,0.335-0.814
		c0.215-0.215,0.509-0.338,0.814-0.339H227.596z"/>
	<path id="XMLID_752_" class="st2" d="M212.534,107.802l12.638-5.835c0.113-0.056,0.201-0.153,0.244-0.272
		c0.044-0.118,0.041-0.249-0.008-0.365c-0.025-0.057-0.063-0.108-0.107-0.151c-0.046-0.043-0.099-0.076-0.158-0.099
		c-0.058-0.022-0.12-0.033-0.183-0.031c-0.063,0.002-0.124,0.016-0.18,0.041h-0.011l-12.635,5.835
		c-0.057,0.026-0.107,0.063-0.149,0.109c-0.042,0.046-0.075,0.1-0.096,0.158s-0.031,0.12-0.028,0.183
		c0.002,0.062,0.018,0.123,0.044,0.179v0.007c0.05,0.111,0.144,0.198,0.258,0.241c0.115,0.043,0.243,0.039,0.355-0.011h0.011"/>
	<path id="XMLID_749_" d="M60.735,178.004c-0.08-0.046-0.172-0.067-0.264-0.061c-0.092,0.006-0.18,0.038-0.253,0.095
		c-0.073,0.055-0.128,0.131-0.158,0.219c-0.03,0.087-0.034,0.18-0.011,0.269l6.077,25.159c0.018,0.07,0.053,0.136,0.101,0.191
		c0.048,0.055,0.108,0.099,0.175,0.126c0.068,0.031,0.142,0.044,0.216,0.04c0.074-0.004,0.146-0.026,0.21-0.065l10.843-6.237
		l10.469-3.892c0.085-0.031,0.159-0.087,0.213-0.159c0.054-0.073,0.085-0.16,0.091-0.25c0.007-0.09-0.011-0.182-0.054-0.262
		c-0.042-0.081-0.107-0.147-0.186-0.191L60.735,178.004z M61.225,179.353c0,0,20.929,11.422,25.599,13.972l-9.526,3.533
		c-0.026,0.008-0.05,0.02-0.071,0.037l-10.321,5.941L61.225,179.353z"/>
	<path id="XMLID_746_" class="st2" d="M219.876,51.156c0.023-0.089,0.018-0.183-0.012-0.271c-0.03-0.087-0.085-0.164-0.159-0.22
		c-0.073-0.056-0.161-0.09-0.254-0.097c-0.091-0.007-0.184,0.013-0.266,0.058l-23.109,12.608c-0.078,0.047-0.143,0.114-0.186,0.194
		c-0.043,0.08-0.064,0.171-0.06,0.262c0.008,0.092,0.043,0.179,0.1,0.252c0.057,0.073,0.132,0.128,0.219,0.16l8.8,3.265l9.113,5.246
		c0.065,0.037,0.136,0.06,0.21,0.065c0.073,0.005,0.148-0.007,0.215-0.035c0.069-0.029,0.129-0.075,0.176-0.132
		c0.047-0.057,0.079-0.125,0.095-0.197L219.876,51.156z M218.699,51.979l-4.72,19.491l-8.591-4.947
		c-0.023-0.017-0.048-0.029-0.076-0.037l-7.856-2.914L218.699,51.979z"/>
	<path id="XMLID_745_" d="M77.582,196.932l-16.307-18.36c-0.04-0.047-0.089-0.085-0.144-0.113c-0.055-0.028-0.115-0.044-0.176-0.049
		s-0.123,0.002-0.182,0.022c-0.059,0.019-0.113,0.049-0.16,0.089h-0.006c-0.095,0.084-0.154,0.202-0.162,0.329
		c-0.008,0.126,0.034,0.251,0.117,0.346l16.305,18.361c0.041,0.047,0.09,0.084,0.145,0.112c0.055,0.026,0.115,0.043,0.177,0.047
		c0.062,0.004,0.123-0.005,0.181-0.024c0.058-0.02,0.112-0.052,0.158-0.093l0.006-0.005c0.094-0.078,0.154-0.19,0.166-0.311
		c0.012-0.121-0.026-0.243-0.104-0.337l-0.017-0.019"/>
	<path id="XMLID_744_" class="st2" d="M205.709,67.194l13.71-15.448c0.084-0.094,0.127-0.217,0.121-0.343
		c-0.007-0.126-0.063-0.244-0.156-0.329c-0.096-0.082-0.221-0.123-0.347-0.115c-0.126,0.008-0.244,0.066-0.328,0.16l-13.726,15.448
		c-0.083,0.095-0.126,0.219-0.118,0.346s0.067,0.244,0.162,0.327c0.096,0.083,0.22,0.125,0.346,0.117
		c0.127-0.008,0.245-0.066,0.328-0.161"/>
	<path id="XMLID_743_" d="M76.62,197.351l-2.79,5.686l-2.067-2.496c-0.081-0.097-0.198-0.159-0.324-0.172
		c-0.126-0.013-0.253,0.023-0.353,0.101c-0.049,0.04-0.089,0.089-0.118,0.144c-0.03,0.055-0.048,0.117-0.054,0.179
		c-0.006,0.063,0.001,0.125,0.019,0.185c0.019,0.06,0.049,0.117,0.089,0.165l2.539,3.066c0.052,0.06,0.118,0.107,0.192,0.136
		c0.074,0.03,0.155,0.041,0.234,0.031c0.079-0.008,0.155-0.036,0.22-0.081c0.065-0.046,0.118-0.106,0.154-0.177l3.109-6.352
		c0.055-0.112,0.064-0.24,0.024-0.358c-0.04-0.119-0.125-0.216-0.237-0.272c-0.113-0.055-0.243-0.064-0.363-0.024
		c-0.119,0.04-0.218,0.124-0.276,0.236"/>
	<path id="XMLID_742_" class="st2" d="M205.065,67.359l2.624,5.336c0.036,0.071,0.09,0.131,0.155,0.177
		c0.065,0.045,0.141,0.074,0.22,0.084c0.079,0.01,0.161,0,0.236-0.03c0.075-0.03,0.139-0.079,0.19-0.142l2.135-2.578
		c0.079-0.097,0.118-0.221,0.105-0.346c-0.012-0.125-0.073-0.239-0.171-0.319c-0.046-0.04-0.1-0.07-0.159-0.089
		c-0.058-0.019-0.12-0.026-0.18-0.022c-0.061,0.005-0.121,0.021-0.176,0.049c-0.055,0.028-0.103,0.066-0.143,0.112l-0.008,0.008
		l-1.672,2.016l-2.293-4.668c-0.025-0.058-0.061-0.111-0.107-0.155c-0.047-0.044-0.101-0.079-0.16-0.102
		c-0.06-0.023-0.123-0.034-0.186-0.032c-0.064,0.002-0.127,0.016-0.185,0.042c-0.058,0.026-0.111,0.064-0.154,0.11
		c-0.043,0.047-0.077,0.101-0.099,0.161c-0.023,0.06-0.032,0.123-0.029,0.187c0.002,0.063,0.018,0.126,0.046,0.183l0.011,0.024"/>
	<path id="XMLID_741_" class="st0" d="M252.089,149.271c-0.095-0.355-0.258-0.687-0.482-0.977c-0.224-0.291-0.503-0.535-0.821-0.719
		c-0.319-0.183-0.67-0.302-1.034-0.35c-0.366-0.048-0.736-0.024-1.091,0.071h-0.006l-24.088,6.434
		c-0.356,0.095-0.689,0.258-0.981,0.482c-0.291,0.224-0.536,0.501-0.72,0.819c-0.184,0.319-0.303,0.669-0.351,1.033
		c-0.048,0.363-0.024,0.732,0.071,1.087l3.84,14.292c0.194,0.715,0.662,1.325,1.307,1.695c0.643,0.37,1.408,0.471,2.126,0.28
		c5.619-1.502,18.473-4.936,24.087-6.437c0.356-0.095,0.689-0.258,0.981-0.481c0.292-0.224,0.537-0.501,0.721-0.819
		c0.184-0.317,0.303-0.667,0.352-1.032c0.048-0.363,0.024-0.732-0.071-1.087c-1.01-3.762-2.83-10.533-3.84-14.296"/>
	<path id="XMLID_740_" class="st1" d="M222.535,155.229c0,0,10.444,4.213,14.905,6.009c0.666,0.271,1.402,0.316,2.097,0.13
		c0.694-0.185,1.309-0.592,1.751-1.158c2.952-3.767,9.848-12.575,9.848-12.575c0.077-0.097,0.112-0.222,0.097-0.346
		c-0.016-0.124-0.079-0.237-0.178-0.314c-0.1-0.078-0.227-0.113-0.352-0.097c-0.126,0.014-0.242,0.079-0.321,0.178l-9.842,12.572
		c-0.314,0.403-0.751,0.693-1.247,0.825c-0.494,0.131-1.018,0.099-1.492-0.094l-14.902-6.009c-0.118-0.047-0.248-0.044-0.364,0.004
		c-0.117,0.049-0.208,0.142-0.256,0.259c-0.024,0.057-0.036,0.119-0.036,0.18c0,0.063,0.013,0.124,0.036,0.18
		c0.024,0.058,0.059,0.109,0.103,0.154c0.044,0.043,0.096,0.078,0.154,0.101h0.005"/>
	<path id="XMLID_739_" class="st1" d="M138.025,95.399c0,0,1.26,7.23,2.686,10.441c0,0-2.327,7.108,2.584,5.634
		c0,0,3.988,11.331,14.623,6.024l1.882,5.604l20.263-3.607l-4.527-11.076l-10.244-17.991L138.025,95.399z"/>
	<path id="XMLID_736_" d="M137.93,94.929c-0.124,0.025-0.232,0.097-0.303,0.2c-0.071,0.103-0.099,0.23-0.078,0.353
		c0,0,1.248,7.067,2.66,10.39c-0.325,1.086-0.499,2.211-0.519,3.344c-0.084,0.435-0.053,0.885,0.094,1.304
		c0.147,0.419,0.402,0.791,0.739,1.079c0.338,0.288,0.747,0.482,1.184,0.56c0.438,0.079,0.889,0.041,1.307-0.111
		c0.572,1.34,2.698,5.623,6.916,6.944c2.58,0.719,5.337,0.422,7.703-0.829l1.715,5.093c0.037,0.108,0.112,0.201,0.21,0.259
		c0.099,0.059,0.215,0.079,0.329,0.06l20.263-3.62c0.071-0.011,0.138-0.038,0.197-0.079c0.058-0.04,0.107-0.094,0.142-0.156
		c0.032-0.063,0.05-0.132,0.054-0.202c0.004-0.071-0.007-0.142-0.032-0.207l-4.53-11.076c-0.011-0.016-0.022-0.033-0.029-0.051
		l-10.244-17.989c-0.048-0.085-0.123-0.154-0.212-0.196c-0.089-0.042-0.189-0.056-0.286-0.04L137.93,94.929z M138.576,95.778
		l26.472-4.816c0,0,9.618,16.904,10.054,17.662l4.294,10.503l-19.274,3.435l-1.746-5.216c-0.022-0.065-0.058-0.124-0.106-0.174
		c-0.047-0.05-0.105-0.088-0.168-0.113c-0.063-0.026-0.13-0.039-0.198-0.037c-0.067,0.002-0.133,0.018-0.195,0.048
		c-3.047,1.523-5.525,1.636-7.492,1.012c-4.613-1.442-6.465-6.76-6.465-6.76c-0.04-0.117-0.124-0.214-0.234-0.27
		c-0.112-0.056-0.24-0.065-0.358-0.026c-0.28,0.119-0.582,0.18-0.887,0.182c-0.305,0.002-0.608-0.057-0.89-0.172
		c-0.272-0.216-0.483-0.497-0.613-0.818c-0.13-0.321-0.176-0.669-0.132-1.012c0.026-1.093,0.206-2.178,0.533-3.222
		c0.036-0.11,0.032-0.23-0.012-0.337c-1.153-3.205-2.018-6.507-2.581-9.866"/>
	<path id="XMLID_735_" d="M164.459,96.355c-1.85,1.076-3.484,2.487-4.815,4.161c-0.079,0.098-0.117,0.224-0.102,0.35
		c0.013,0.126,0.077,0.241,0.176,0.32c0.099,0.079,0.225,0.116,0.351,0.102c0.125-0.014,0.24-0.077,0.321-0.175
		c1.249-1.574,2.785-2.901,4.524-3.913c0.111-0.058,0.195-0.158,0.232-0.277c0.038-0.119,0.028-0.248-0.03-0.36
		c-0.059-0.112-0.161-0.196-0.283-0.234c-0.123-0.038-0.254-0.026-0.367,0.032"/>
	<path id="XMLID_734_" d="M164.407,99.998c-0.849-0.521-1.745-0.959-2.678-1.309c-0.06-0.02-0.123-0.028-0.185-0.023
		s-0.123,0.021-0.179,0.049c-0.055,0.028-0.106,0.067-0.147,0.114c-0.041,0.047-0.072,0.102-0.091,0.161v0.006
		c-0.037,0.121-0.025,0.251,0.032,0.363c0.059,0.112,0.159,0.197,0.279,0.236c0.86,0.323,1.686,0.729,2.466,1.213
		c0.053,0.033,0.112,0.055,0.174,0.066c0.061,0.01,0.125,0.008,0.186-0.006c0.061-0.014,0.119-0.04,0.17-0.077
		c0.052-0.036,0.095-0.082,0.129-0.136c0.032-0.053,0.055-0.112,0.065-0.174c0.011-0.062,0.008-0.125-0.006-0.186
		c-0.014-0.061-0.04-0.119-0.077-0.17c-0.036-0.051-0.083-0.094-0.136-0.127"/>
	<path id="XMLID_733_" d="M157.675,96.565c0.316,1.806,0.433,3.64,0.349,5.471c-0.004,0.044-0.019,0.085-0.044,0.121
		c-0.025,0.036-0.059,0.065-0.099,0.083c-0.041,0.019-0.085,0.025-0.13,0.017c-0.044-0.007-0.084-0.028-0.117-0.059
		c-1.482-1.466-2.738-3.144-3.725-4.98c0,0-10.298,1.473-15.756-1.309l0.35,1.719c-1.307-0.751-2.341-1.896-2.955-3.271
		c-0.613-1.374-0.776-2.907-0.46-4.378l-2.062,2.167c0,0,1.64-19.921,20.884-23.787c15.471-3.098,21.877,6.389,21.877,6.389
		s12.108,5.823,8.327,18.054c-3.242,10.483-4.769,12.077-7.449,18.07l-2.566,0.491l-8.49-8.519c1.002-0.828,1.652-2.003,1.82-3.289
		c0.17-1.286-0.155-2.588-0.909-3.645c-1.426-2.281-5.734-3.201-8.85,0.655"/>
	<path id="XMLID_732_" d="M142.388,99.625c0.745-0.783,1.686-1.356,2.723-1.662c0.12-0.041,0.219-0.127,0.274-0.24
		c0.057-0.113,0.066-0.243,0.026-0.363c-0.019-0.059-0.05-0.113-0.091-0.16c-0.04-0.047-0.089-0.085-0.144-0.113
		c-0.055-0.028-0.115-0.044-0.178-0.049c-0.061-0.004-0.124,0.003-0.183,0.023h-0.008c-1.211,0.359-2.302,1.038-3.157,1.965
		c-0.079,0.099-0.117,0.225-0.103,0.351c0.014,0.126,0.077,0.242,0.177,0.321c0.048,0.039,0.103,0.067,0.164,0.085
		c0.059,0.017,0.121,0.022,0.184,0.016c0.061-0.007,0.121-0.026,0.176-0.056c0.054-0.03,0.102-0.07,0.141-0.118"/>
	<path id="XMLID_731_" d="M152.461,108.76c-0.145,1.037-0.658,1.988-1.446,2.68c-0.788,0.692-1.798,1.08-2.848,1.094
		c-0.123,0.013-0.237,0.072-0.32,0.164c-0.083,0.092-0.129,0.212-0.127,0.336c0.004,0.123,0.058,0.24,0.148,0.324
		c0.09,0.084,0.212,0.129,0.335,0.125h0.026c1.276-0.022,2.501-0.499,3.452-1.347c0.952-0.847,1.567-2.007,1.733-3.268
		c0.012-0.126-0.026-0.252-0.106-0.351c-0.079-0.099-0.194-0.163-0.32-0.18c-0.125-0.012-0.251,0.026-0.349,0.105
		c-0.099,0.079-0.161,0.194-0.174,0.319"/>
	<path id="XMLID_730_" d="M144.983,103.661c0.266-0.036,0.513-0.149,0.714-0.326c0.2-0.177,0.344-0.409,0.411-0.666
		c0.069-0.258,0.059-0.53-0.029-0.782c-0.087-0.252-0.246-0.473-0.459-0.634c-0.213-0.161-0.468-0.257-0.735-0.273
		c-0.267-0.016-0.533,0.046-0.765,0.18c-0.231,0.134-0.417,0.333-0.535,0.573c-0.117,0.24-0.161,0.508-0.125,0.773
		c0.024,0.176,0.082,0.345,0.171,0.498c0.09,0.153,0.209,0.287,0.35,0.395c0.142,0.107,0.303,0.186,0.475,0.231
		C144.628,103.674,144.807,103.685,144.983,103.661z"/>
	<path id="XMLID_729_" class="st3" d="M152.434,233.727l-5.058-65.2v-30.274l33.693-4.499l21.415,9.03
		c3.868,0.388,16.402,48.851,20.801,90.943H152.434z"/>
	<path id="XMLID_726_" d="M151.952,233.759c0.012,0.119,0.067,0.23,0.156,0.311c0.089,0.081,0.206,0.126,0.326,0.127h70.852
		c0.067,0.001,0.135-0.012,0.196-0.038c0.061-0.026,0.118-0.065,0.162-0.114c0.046-0.049,0.081-0.108,0.102-0.172
		c0.02-0.064,0.029-0.131,0.022-0.197c-3.526-33.726-12.278-71.524-17.611-85.493c-0.605-1.814-1.454-3.539-2.524-5.124
		c-0.244-0.355-0.602-0.614-1.015-0.737l-21.366-9.009c-0.078-0.031-0.162-0.042-0.245-0.031l-33.693,4.499
		c-0.115,0.014-0.222,0.07-0.301,0.156c-0.078,0.087-0.123,0.198-0.125,0.315v30.272c0,0.011,0.005,0.022,0.012,0.03
		L151.952,233.759z M152.874,233.247c-0.44-5.635-4.933-63.567-5.016-64.743v-29.833c3.703-0.5,31.039-4.151,33.151-4.427
		c1.711,0.726,21.28,8.97,21.28,8.97c0.046,0.018,0.094,0.031,0.143,0.038c0.088,0.03,0.166,0.083,0.225,0.154
		c0.195,0.188,0.367,0.397,0.512,0.624c0.844,1.425,1.544,2.93,2.092,4.492c5.294,13.856,13.939,51.233,17.497,84.725H152.874z"/>
	<path id="XMLID_725_" class="st2" d="M149.756,130.613c-0.049-1.525,0.281-3.036,0.959-4.403c0.678-1.366,1.684-2.545,2.929-3.43
		c4.256-2.875,30.483-10.268,42.338-5.809c4.44,1.667,5.447,5.952,7.109,12.18c0.872,3.282,0.307,4.315,2.872,8.989
		c2.567,4.674-1.517,8.786-6.852,8.764c-11.125-0.15-22.147-2.144-32.616-5.9c-13.57-5.103-16.472-2.608-19.497-1.053
		c0,0-2.205-6.505,2.758-9.336"/>
	<path id="XMLID_724_" d="M151.806,130.802c2.283-0.489,4.639-0.547,6.945-0.172c0.121,0.026,0.249,0.005,0.355-0.061
		c0.106-0.066,0.18-0.172,0.208-0.293c0.031-0.118,0.014-0.244-0.047-0.35c-0.061-0.106-0.162-0.183-0.281-0.215l-0.029-0.006
		c-2.442-0.402-4.937-0.347-7.358,0.16c-0.123,0.03-0.227,0.107-0.295,0.214c-0.066,0.107-0.088,0.236-0.06,0.358
		c0.024,0.121,0.096,0.228,0.2,0.297c0.105,0.07,0.231,0.095,0.353,0.071h0.01"/>
	<path id="XMLID_723_" d="M202.317,134.026c0,0-5.055,2.731-17.147-0.036c-0.06-0.014-0.121-0.018-0.182-0.01
		c-0.06,0.008-0.119,0.029-0.172,0.059c-0.052,0.031-0.099,0.072-0.135,0.12c-0.037,0.049-0.064,0.105-0.079,0.164l-0.005,0.022
		c-0.028,0.123-0.006,0.251,0.06,0.358c0.066,0.107,0.172,0.183,0.295,0.213c12.573,2.864,17.822-0.058,17.822-0.058
		c0.103-0.064,0.178-0.166,0.208-0.284c0.031-0.117,0.016-0.242-0.043-0.349c-0.059-0.106-0.155-0.186-0.272-0.224
		C202.552,133.964,202.426,133.973,202.317,134.026z"/>
	<path id="XMLID_722_" d="M15.479,234.202h249.043c0.126,0,0.249-0.051,0.338-0.141c0.09-0.089,0.141-0.21,0.141-0.337
		c0-0.127-0.051-0.249-0.141-0.338c-0.089-0.09-0.212-0.139-0.338-0.139H15.479c-0.127,0-0.249,0.049-0.339,0.139
		c-0.09,0.089-0.14,0.21-0.14,0.338c0,0.126,0.05,0.248,0.14,0.337C15.23,234.151,15.352,234.202,15.479,234.202z"/>
	<path id="XMLID_721_" class="st1" d="M108.418,139.851c-0.931-1.977-1.658-4.042-2.17-6.167c-0.415-2.2-1.416-4.25-2.899-5.932
		c-1.032-1.028-2.75,0-2.75,0s-5.23-7.067-7.421-10.034c-0.255-0.339-0.632-0.565-1.052-0.629c-0.42-0.064-0.848,0.038-1.193,0.286
		c-0.35,0.26-0.592,0.64-0.677,1.068c-0.085,0.427-0.008,0.871,0.215,1.244c1.729,2.881,5.617,9.317,5.617,9.317
		c-0.655,0.239-1.258,0.605-1.77,1.077c-0.512,0.473-0.926,1.042-1.216,1.675c0,0-2.33,1.222-2.448,3.405
		c-0.468,0.511-0.804,1.128-0.981,1.798c-0.176,0.67-0.185,1.372-0.028,2.046c0.531,2.334,3.458,4.337,5.102,5.313
		c1.201,0.807,2.276,1.784,3.192,2.902l5.015-1.499L108.418,139.851z"/>
	<path id="XMLID_718_" d="M108.765,140.173c0.067-0.067,0.112-0.155,0.126-0.249c0.016-0.094,0.001-0.19-0.041-0.275
		c-0.915-1.936-1.628-3.959-2.128-6.041c-0.434-2.302-1.485-4.444-3.04-6.2c-0.234-0.227-0.518-0.397-0.828-0.498
		c-0.311-0.1-0.641-0.127-0.964-0.081c-0.393,0.047-0.777,0.152-1.139,0.311l-7.196-9.702c-0.323-0.441-0.808-0.736-1.349-0.82
		c-0.541-0.084-1.094,0.05-1.537,0.372L90.656,117c-0.45,0.327-0.759,0.81-0.868,1.353c-0.109,0.543-0.011,1.108,0.277,1.581
		l5.338,8.856c-1.175,0.54-2.123,1.472-2.684,2.634c-0.652,0.374-1.214,0.884-1.652,1.493c-0.438,0.61-0.738,1.305-0.883,2.04
		c-0.479,0.569-0.818,1.24-0.991,1.961c-0.173,0.72-0.177,1.472-0.008,2.194c0.299,1.069,0.878,2.04,1.675,2.815
		c1.086,1.091,2.31,2.033,3.642,2.806c1.157,0.771,2.193,1.709,3.072,2.785c0.059,0.073,0.138,0.129,0.227,0.156
		c0.09,0.029,0.186,0.031,0.278,0.005l5.016-1.499c0.078-0.028,0.15-0.071,0.213-0.127L108.765,140.173z M107.851,139.749
		l-5.152,5.549l-4.586,1.371c-0.904-1.058-1.953-1.986-3.114-2.758c-1.259-0.725-2.418-1.611-3.447-2.634
		c-0.676-0.654-1.169-1.473-1.428-2.376c-0.138-0.595-0.131-1.216,0.02-1.808c0.151-0.593,0.442-1.14,0.85-1.597
		c0.082-0.084,0.131-0.195,0.139-0.311c0.107-0.637,0.361-1.242,0.743-1.764c0.382-0.523,0.881-0.949,1.458-1.244
		c0.054-0.026,0.102-0.064,0.142-0.109c0.038-0.047,0.067-0.1,0.084-0.159c0.261-0.565,0.634-1.074,1.094-1.495
		c0.461-0.421,1.002-0.747,1.59-0.957c0.067-0.024,0.127-0.061,0.178-0.112c0.05-0.049,0.089-0.109,0.113-0.177
		c0.028-0.065,0.038-0.136,0.032-0.207c-0.005-0.071-0.028-0.139-0.065-0.201l-5.616-9.316c-0.165-0.272-0.222-0.594-0.16-0.905
		c0.061-0.311,0.237-0.588,0.493-0.777c0.242-0.175,0.542-0.249,0.837-0.204c0.296,0.044,0.563,0.202,0.742,0.44l7.421,10.034
		c0.071,0.099,0.176,0.167,0.295,0.191c0.118,0.024,0.242,0.001,0.344-0.063c0.351-0.202,0.738-0.332,1.139-0.385
		c0.183-0.03,0.37-0.018,0.547,0.036c0.177,0.054,0.339,0.147,0.474,0.273c1.418,1.61,2.373,3.571,2.767,5.676
		c0.481,2.064,1.176,4.075,2.073,5.996"/>
	<path id="XMLID_717_" class="st3" d="M113.786,143.95c0.638-0.006,1.271,0.121,1.858,0.374c0.587,0.251,1.113,0.623,1.547,1.089
		c2.945,2.812,8.852,9.101,18.442,22.017c0,0,6.502-22.079,11.231-27.264c4.729-5.186,23.293,2.301,18.678,22.491
		c-4.616,20.189-12.198,38.819-24.945,39.116c-12.748,0.297-21.694-11.545-31.016-24.648c-9.322-13.103-10.81-20.914-9.877-23.602
		c0.034-0.105,0.075-0.207,0.124-0.305c-0.257-0.522-1.139-1.923-1.867-3.288c-0.325-0.619-0.445-1.325-0.345-2.016
		c0.1-0.693,0.415-1.336,0.901-1.84c2.678-2.728,5.876-4.898,9.405-6.381c0.471-0.195,0.992-0.234,1.487-0.115
		c0.495,0.119,0.941,0.392,1.271,0.779c1.252,1.443,3.108,3.602,3.108,3.602"/>
	<path id="XMLID_714_" d="M114.012,143.478c-0.451-0.522-1.915-2.239-2.979-3.445c-0.398-0.458-0.931-0.78-1.522-0.922
		c-0.592-0.142-1.212-0.095-1.776,0.133c-3.591,1.509-6.845,3.718-9.571,6.495c-0.555,0.572-0.916,1.307-1.028,2.097
		c-0.113,0.79,0.029,1.594,0.403,2.3c0.646,1.237,1.426,2.485,1.764,3.097c-0.03,0.083-0.05,0.125-0.05,0.135
		c-0.39,1.136-0.4,3.12,0.38,5.983c1.128,4.122,3.917,10.123,9.559,18.048c4.682,6.585,9.272,12.843,14.287,17.427
		c5.087,4.64,10.628,7.566,17.131,7.426c5.242-0.121,9.654-3.231,13.335-8.283c5.415-7.403,9.293-19.021,12.072-31.201
		c3.299-14.491-5.086-22.569-12.04-24.295c-3.109-0.777-5.95-0.275-7.468,1.379c-1.434,1.574-3.056,4.704-4.595,8.303
		c-2.923,6.853-5.621,15.454-6.461,18.234c-9.282-12.435-15.025-18.55-17.929-21.31c-0.451-0.483-0.993-0.873-1.596-1.146
		c-0.602-0.273-1.254-0.424-1.915-0.446 M113.426,144.266c0.043,0.05,0.097,0.091,0.158,0.119c0.06,0.028,0.125,0.043,0.192,0.044
		c0.578-0.001,1.152,0.118,1.683,0.349c0.53,0.231,1.008,0.569,1.402,0.992c2.934,2.801,8.82,9.081,18.38,21.961
		c0.054,0.071,0.126,0.125,0.21,0.158c0.083,0.032,0.173,0.041,0.262,0.025c0.087-0.016,0.167-0.057,0.232-0.115
		c0.065-0.06,0.112-0.137,0.136-0.222c0,0,3.18-10.789,6.709-19.031c1.49-3.486,3.024-6.514,4.42-8.036
		c1.323-1.454,3.814-1.781,6.522-1.105c6.627,1.645,14.494,9.376,11.347,23.163c-2.75,12.046-6.556,23.53-11.909,30.862
		c-3.488,4.775-7.633,7.761-12.596,7.884c-6.246,0.145-11.559-2.71-16.452-7.178c-4.974-4.542-9.518-10.749-14.152-17.274
		c-5.549-7.791-8.308-13.692-9.416-17.751c-0.718-2.587-0.759-4.399-0.4-5.42c0.031-0.095,0.069-0.186,0.113-0.275
		c0.048-0.126,0.044-0.266-0.011-0.388c-0.256-0.531-1.139-1.935-1.877-3.315c-0.275-0.529-0.378-1.13-0.293-1.719
		c0.085-0.59,0.352-1.139,0.766-1.569c2.633-2.687,5.778-4.823,9.252-6.279c0.378-0.155,0.796-0.186,1.193-0.091
		c0.398,0.095,0.755,0.313,1.022,0.622c1.252,1.442,3.108,3.599,3.108,3.599"/>
	<path id="XMLID_713_" d="M135.223,167.67c2.4,4.286,4.149,8.903,5.193,13.701c0.012,0.061,0.036,0.119,0.071,0.171
		c0.034,0.052,0.078,0.096,0.13,0.131c0.052,0.034,0.111,0.058,0.171,0.07c0.061,0.012,0.124,0.013,0.185,0.001
		c0.061-0.012,0.119-0.036,0.171-0.071c0.052-0.035,0.096-0.078,0.131-0.13c0.035-0.052,0.059-0.109,0.071-0.171
		c0.012-0.061,0.012-0.124,0-0.184c-1.058-4.904-2.842-9.625-5.295-14.004c-0.031-0.054-0.073-0.102-0.124-0.139
		c-0.051-0.038-0.107-0.066-0.167-0.082c-0.123-0.032-0.254-0.014-0.363,0.049c-0.109,0.064-0.189,0.168-0.221,0.291
		c-0.032,0.121-0.014,0.251,0.049,0.361"/>
	<path id="XMLID_712_" d="M102.165,152.482c0,0,5.823-5.589,9.683-6.767c0.121-0.036,0.222-0.119,0.283-0.231
		c0.06-0.111,0.073-0.24,0.037-0.362c-0.038-0.12-0.123-0.22-0.233-0.28c-0.112-0.059-0.242-0.072-0.363-0.038
		c-4.011,1.222-10.076,6.994-10.076,6.994c-0.089,0.088-0.141,0.208-0.143,0.334c-0.002,0.126,0.046,0.248,0.132,0.339
		c0.043,0.046,0.094,0.082,0.151,0.107c0.057,0.025,0.119,0.038,0.182,0.04s0.124-0.01,0.183-0.031
		c0.058-0.023,0.111-0.057,0.156-0.1"/>
</g>
</svg>
