<?xml version="1.0" encoding="utf-8"?>
<!-- Generator: Adobe Illustrator 19.0.0, SVG Export Plug-In . SVG Version: 6.00 Build 0)  -->
<svg version="1.1" id="Layer_1" xmlns="http://www.w3.org/2000/svg" xmlns:xlink="http://www.w3.org/1999/xlink" x="0px" y="0px"
	 viewBox="0 0 280 280" style="enable-background:new 0 0 280 280;" xml:space="preserve">
<style type="text/css">
	.st0{fill:#A3C4F3;}
	.st1{fill:#8BBAF2;}
	.st2{fill:#FFFFFF;}
	.st3{fill:#3658BF;}
	.st4{fill:#1B44AA;}
	.st5{fill:#D1D3D4;}
	.st6{fill:#D39266;}
	.st7{fill:#F26052;}
	.st8{fill:#05293C;}
	.st9{fill:#ED473E;}
	.st10{fill:#FFF2E6;}
</style>
<g id="XMLID_755_">
	<path id="XMLID_863_" class="st0" d="M178.575,221.385l6.793-71.637H98.753v83.286h71.383c7.667,0,7.964-7.424,8.437-11.646
		L178.575,221.385z"/>
	<path id="XMLID_862_" class="st0" d="M264.571,50.505c0.382-0.88-0.022-1.903-0.902-2.285c-0.716-0.311-1.551-0.106-2.042,0.5
		c-16.085,19.759-31.119,32.707-42.525,35.912c-0.772,0.211-1.57-0.243-1.781-1.016c-0.05-0.181-0.064-0.37-0.041-0.556l0.298-2.647
		c0.291-0.707,0.013-1.521-0.65-1.902l-1.008,1.403c-2.164,0.377-3.915-2.926-3.915-2.926l-2.335,3.957l2.065,2.557l1.576,0.177
		c0.386,0.036,0.67,0.378,0.634,0.764c-0.036,0.386-0.378,0.67-0.764,0.634c-0.019-0.002-0.038-0.004-0.057-0.008
		c-3.27-0.598-6.416-1.738-9.309-3.375c-2.91-1.646-5.723-3.46-8.422-5.433c-2.305-8.251-4.522-20.4-7.025-28.391
		c-0.25-0.81-1.11-1.264-1.92-1.014c-0.665,0.205-1.108,0.832-1.081,1.527c0.703,19.262,1.751,28.969,2.278,32.145
		c0.174,1.044,0.701,1.997,1.493,2.698c5.912,5.24,7.943,7.746,11.806,10.593c2.545,1.868,4.187,4.72,4.523,7.859l2.633,25.035
		c0,0,5.798,8.807,27.413-0.588c-0.235-1.408-0.372-2.164-0.372-2.164c-1.907-8.963-2.786-21.363-3.116-27.223
		c-0.109-1.786,0.599-3.524,1.924-4.726c15.35-13.762,25.91-30.717,30.624-41.508L264.571,50.505z"/>
	<path id="XMLID_861_" class="st1" d="M187.209,55.603c0,0-0.819-0.652-1.595-1.243c0.683,15.045,1.556,23.312,2.022,26.15
		c0.173,1.051,0.702,2.011,1.5,2.718c5.913,5.24,7.946,7.746,11.807,10.593l-10.529-12.579c-1.253-1.293-1.999-2.993-2.1-4.791
		L187.211,55.6L187.209,55.603z"/>
	<path id="XMLID_860_" d="M211.477,77.889l-1.122-3.573c0,0,7.091-0.818,10.308,0.328c0,0,1.582,5.182-3.163,10.251l-0.329,1.273
		l-1.311-1.488l-3.561-4.169l-0.821-2.62L211.477,77.889z"/>
	<path id="XMLID_859_" class="st2" d="M217.285,83.06l0.298-2.647c0.291-0.707,0.013-1.521-0.65-1.902l-1.008,1.403
		c-2.164,0.377-3.915-2.926-3.915-2.926l-2.335,3.957l2.065,2.557l1.575,0.177c0.386,0.036,0.67,0.378,0.634,0.764
		c-0.036,0.386-0.378,0.67-0.764,0.634c-0.019-0.002-0.038-0.004-0.057-0.008c-0.059,2.078,2.551,3.729,2.551,3.729
		c1.444-1.11,2.616-2.535,3.426-4.167c-0.774,0.21-1.572-0.248-1.782-1.022c-0.048-0.178-0.062-0.364-0.041-0.548L217.285,83.06z"/>
	<path id="XMLID_858_" class="st3" d="M208.099,126.718c-4.539,6.202-8.581,12.753-12.088,19.592
		c-2.838,5.391-5.005,11.11-6.454,17.028c2.899,11.81,12.302,39.839,18.826,54.312c0.536,1.192,1.936,1.723,3.128,1.188
		c0.9-0.405,1.455-1.326,1.391-2.311c-1.458-22.051-4.898-52.53-4.898-52.53c4.492-5.85,12.266-18.662,12.266-18.662
		c-0.406,8.494,9.782,61.044,13.82,85.711c0.203,1.291,1.413,2.173,2.704,1.97c1.005-0.158,1.797-0.941,1.966-1.944
		c6.846-40-1.349-93.597-3.242-104.942c-21.616,9.394-27.413,0.588-27.413,0.588L208.099,126.718z"/>
	<path id="XMLID_857_" class="st2" d="M261.631,48.719c-1.316,1.616-2.624,3.184-3.924,4.705c0.317,1.916,2.117,3.22,4.036,2.924
		c1.101-2.091,2.05-4.057,2.833-5.851c0.381-0.88-0.024-1.902-0.903-2.283c-0.716-0.31-1.551-0.104-2.041,0.504V48.719z"/>
	<path id="XMLID_856_" class="st2" d="M233.028,224.535c0.379,2.337,0.736,4.522,1.06,6.511c0.203,1.291,1.413,2.173,2.704,1.97
		c1.005-0.158,1.797-0.941,1.966-1.944c0.399-2.329,0.745-4.708,1.046-7.118c-1.894,1.637-4.626,1.872-6.772,0.582L233.028,224.535z
		"/>
	<path id="XMLID_855_" class="st4" d="M209.306,217.176l0.239-5.012l-19.986-48.833c2.859,11.649,11.994,39.145,18.554,53.708
		L209.306,217.176z"/>
	<path id="XMLID_854_" class="st5" d="M212.903,216.527c-0.147-2.223-0.331-4.505-0.544-6.812c-1.25,2.27-3.941,3.327-6.401,2.513
		c0.857,1.926,1.673,3.749,2.427,5.422c0.536,1.192,1.936,1.723,3.128,1.188C212.413,218.433,212.967,217.512,212.903,216.527z"/>
	<path id="XMLID_853_" class="st4" d="M207.939,163.133l0.067,0.865c4.492-5.85,12.266-18.662,12.266-18.662
		c-0.372,7.809,8.429,52.544,12.757,79.2l0,0l-12.056-87.302l-13.035,25.899V163.133z"/>
	<path id="XMLID_852_" class="st1" d="M261.742,56.347c0,0-0.491-1.881-1.78-0.165c-4.934,6.564-18.079,26.042-27.605,33.198
		c-3.334,2.524-5.378,6.397-5.581,10.574c-0.585,9.579,0.304,19.192,2.637,28.501l0,0c1.879-0.607,3.909-1.367,6.104-2.325
		c-0.235-1.408-0.372-2.164-0.372-2.164c-1.918-8.989-2.796-21.432-3.123-27.276c-0.097-1.783,0.623-3.514,1.955-4.703
		C245.199,81.78,254.591,69.726,261.742,56.347z"/>
	<path id="XMLID_851_" class="st5" d="M215.678,84.716c-0.262-0.501-0.753-0.841-1.313-0.911l-1.04-0.128
		c0.384,0.05,0.654,0.402,0.604,0.786s-0.402,0.654-0.786,0.604c0,0-0.008-0.001-0.013-0.002c-0.059,2.078,2.551,3.729,2.551,3.729
		c0.543-0.365,1.036-0.798,1.467-1.289l-1.472-2.792L215.678,84.716z"/>
	<path id="XMLID_850_" class="st6" d="M213.194,83.665"/>
	<path id="XMLID_849_" class="st5" d="M264.608,49.162l-4.647,7.021c0.573,0.191,1.182,0.248,1.78,0.165
		c1.101-2.091,2.05-4.057,2.833-5.851C264.771,50.076,264.783,49.592,264.608,49.162z"/>
	<path id="XMLID_848_" class="st2" d="M209.545,212.164L209.545,212.164l3.044,5.726c0.243-0.413,0.353-0.89,0.316-1.367
		c-0.147-2.223-0.331-4.505-0.544-6.812c-0.606,1.133-1.607,2.005-2.813,2.449L209.545,212.164z"/>
	<path id="XMLID_847_" class="st5" d="M235.935,225.362c-1.017-0.065-2.007-0.347-2.906-0.827c0.379,2.337,0.735,4.522,1.06,6.511
		c0.151,1.084,1.049,1.909,2.141,1.968L235.935,225.362z"/>
	<path id="XMLID_846_" class="st2" d="M190.295,54.671c-0.638-2.446-1.288-4.791-1.96-6.923c-0.264-0.797-1.123-1.229-1.92-0.965
		c-0.636,0.21-1.059,0.813-1.042,1.482c0.092,2.539,0.19,4.883,0.293,7.062c0,0,3.56,1.025,4.635-0.653L190.295,54.671z"/>
	<path id="XMLID_845_" class="st5" d="M186.171,46.87c-0.863,0.434-0.813,1.098-0.786,1.842c0.087,2.367,0.18,4.564,0.276,6.606
		c0.509,0.137,1.029,0.23,1.554,0.279l-1.043-8.733V46.87z"/>
	<path id="XMLID_842_" class="st2" d="M170.137,233.319H98.754c-0.157,0-0.285-0.128-0.285-0.285v-83.286
		c0-0.157,0.127-0.285,0.285-0.285h86.614c0.08,0,0.157,0.033,0.211,0.093c0.054,0.059,0.08,0.138,0.073,0.218l-6.794,71.637
		c-0.002,0.021-0.007,0.043-0.013,0.063l-0.001,0.003l-0.071,0.719C178.337,226.357,177.607,233.319,170.137,233.319z
		 M99.038,232.749h71.098c6.958,0,7.627-6.386,8.07-10.612l0.085-0.781l6.764-71.324H99.038V232.749z"/>
	<g id="XMLID_840_">
		<path id="XMLID_841_" class="st7" d="M178.142,169.81l-40.614-2.703l3.794-57.019l33.616,2.237l6.493,7.98L178.142,169.81z"/>
	</g>
	<g id="XMLID_450_">
		<path id="XMLID_837_" class="st2" d="M156.378,144.758l0.099-1.49c0.365-5.479,7.387-5.215,7.682-9.645
			c0.139-2.095-1.341-3.569-3.717-3.727c-2.498-0.166-4.208,1.218-4.348,3.312l-0.046,0.683c0.016,0.303-0.216,0.561-0.519,0.578
			c-0.055,0.003-0.111-0.002-0.165-0.016l-3.374-0.386c-0.345-0.014-0.614-0.302-0.605-0.647l0.035-0.524
			c0.311-4.67,4.148-7.615,9.426-7.264c5.196,0.342,8.38,3.593,8.076,8.144c-0.448,6.728-7.544,6.337-7.792,10.083l-0.081,1.209
			c0.007,0.328-0.253,0.6-0.581,0.608c-0.034,0.001-0.069-0.001-0.103-0.007l-3.384-0.228c-0.328,0.007-0.6-0.253-0.608-0.581
			c-0.001-0.034,0.001-0.069,0.007-0.103H156.378z M155.467,151.129c0.152-1.641,1.605-2.849,3.246-2.697l0.009,0.001
			c1.608,0.016,2.899,1.333,2.884,2.941c-0.016,1.608-1.333,2.899-2.941,2.884c-0.123-0.001-0.246-0.01-0.368-0.027
			c-1.627-0.064-2.894-1.436-2.83-3.063c0-0.012,0.001-0.025,0.002-0.037L155.467,151.129z"/>
	</g>
	<g id="XMLID_449_">
		<path id="XMLID_835_" class="st8" d="M174.938,112.325l-0.497,7.461l6.995,0.519L174.938,112.325z"/>
	</g>
	<g id="XMLID_832_">
		<path id="XMLID_833_" class="st9" d="M174.938,112.325l-0.497,7.461l6.995,0.519L174.938,112.325z"/>
	</g>
	<path id="XMLID_831_" class="st3" d="M170.096,233.034H37.621c-5.051,0.043-9.299-3.78-9.784-8.808l-7.468-73.81
		c-0.194-1.513,0.875-2.897,2.388-3.091c0.136-0.017,0.273-0.025,0.41-0.022h75.442c1.008,0.019,1.947-0.512,2.45-1.386l2.588-4.577
		c0.503-0.874,1.442-1.405,2.45-1.386h44.206c1.758,0.039,3.22,1.367,3.427,3.113l7.923,78.322
		c0.473,4.221,0.77,11.646,8.437,11.646L170.096,233.034z"/>
	<path id="XMLID_830_" class="st2" d="M155.322,158.759l-1.588-15.696c-0.208-1.746-1.669-3.074-3.427-3.113h-44.212
		c-1.008-0.019-1.947,0.512-2.45,1.386l-2.588,4.577c-0.503,0.874-1.442,1.405-2.45,1.386h-75.44
		c-1.526-0.032-2.789,1.179-2.82,2.705c-0.003,0.136,0.004,0.273,0.022,0.408l5.454,53.904
		C74.275,158.047,155.322,158.759,155.322,158.759z"/>
	<path id="XMLID_829_" class="st0" d="M155.322,158.759l-1.588-15.696c-0.208-1.746-1.669-3.074-3.427-3.113h-44.212
		c-1.008-0.019-1.947,0.512-2.45,1.386l-2.588,4.577c-0.503,0.874-1.442,1.405-2.45,1.386h-75.44
		c-1.526-0.032-2.789,1.179-2.82,2.705c-0.003,0.136,0.004,0.273,0.022,0.408l5.454,53.904
		C74.275,158.047,155.322,158.759,155.322,158.759z"/>
	<path id="XMLID_828_" class="st2" d="M37.621,233.034h132.471c-5.581,0-7.257-3.937-7.938-7.707H28.015
		C28.98,229.851,32.995,233.072,37.621,233.034z"/>
	<path id="XMLID_827_" class="st0" d="M37.621,233.034h132.471c-5.581,0-7.257-3.937-7.938-7.707H28.015
		C28.98,229.851,32.995,233.072,37.621,233.034z"/>
	<g id="XMLID_446_">
		
			<rect id="XMLID_826_" x="205.837" y="68.039" transform="matrix(-0.7632 0.6462 -0.6462 -0.7632 409.2113 -8.674)" width="0.716" height="5.213"/>
	</g>
	<g id="XMLID_445_">
		
			<rect id="XMLID_824_" x="212.163" y="64.331" transform="matrix(-0.9936 0.113 -0.113 -0.9936 431.2332 109.2539)" width="0.717" height="5.025"/>
	</g>
	<g id="XMLID_444_">
		
			<rect id="XMLID_822_" x="224.149" y="71.16" transform="matrix(-0.8801 0.4747 -0.4747 -0.8801 458.823 27.1901)" width="3.661" height="0.715"/>
	</g>
	<path id="XMLID_820_" d="M19.625,120.396h-0.013c-0.048-0.007-0.082-0.052-0.076-0.1c1.463-10.56,5.106-19.413,10.828-26.312
		c4.722-5.629,10.757-10.011,17.572-12.757c7.481-3.039,15.506-4.513,23.578-4.328c0.049,0.006,0.085,0.05,0.079,0.1
		c-0.005,0.042-0.038,0.075-0.079,0.079l0,0c-8.05-0.182-16.051,1.289-23.51,4.322c-11.081,4.601-24.984,15.088-28.284,38.919
		c-0.006,0.044-0.044,0.077-0.089,0.077L19.625,120.396z"/>
	<path id="XMLID_819_" class="st2" d="M179.744,177.062L179.744,177.062c-0.049-0.003-0.087-0.045-0.084-0.095l1.01-18.531
		c0.005-0.048,0.046-0.085,0.095-0.084c0.049,0.003,0.087,0.045,0.084,0.095l-1.01,18.531c-0.003,0.047-0.042,0.084-0.09,0.084
		H179.744z"/>
	<path id="XMLID_818_" d="M230.289,226.492c-0.043,0.001-0.081-0.03-0.089-0.073l-10.479-57.978
		c-0.008-0.048,0.024-0.094,0.072-0.104c0.047-0.01,0.093,0.02,0.103,0.067c0,0.002,0.001,0.003,0.001,0.005l10.479,57.978
		c0.008,0.048-0.024,0.094-0.072,0.104h-0.016L230.289,226.492z"/>
	<path id="XMLID_815_" d="M215.68,89.082c-0.053,0-0.106-0.014-0.152-0.044c-0.112-0.07-2.747-1.763-2.684-3.978
		c0.002-0.083,0.041-0.16,0.105-0.212c0.064-0.053,0.148-0.076,0.229-0.06c0.269,0.021,0.466-0.143,0.488-0.373
		c0.011-0.11-0.023-0.218-0.095-0.304c-0.071-0.086-0.171-0.139-0.282-0.149l-1.581-0.178c-0.075-0.008-0.143-0.046-0.19-0.103
		l-2.065-2.557c-0.075-0.092-0.084-0.221-0.024-0.324l2.335-3.957c0.052-0.089,0.154-0.126,0.252-0.14
		c0.103,0.002,0.196,0.06,0.245,0.151c0.017,0.031,1.601,2.994,3.503,2.795l0.937-1.305c0.086-0.12,0.247-0.152,0.373-0.081
		c0.772,0.444,1.105,1.392,0.787,2.219l-0.294,2.61c-0.001,0.007-0.002,0.014-0.003,0.022c-0.014,0.141-0.003,0.281,0.034,0.419
		c0.082,0.301,0.275,0.553,0.546,0.707c0.271,0.157,0.585,0.197,0.886,0.115c0.107-0.03,0.224,0.007,0.295,0.095
		c0.071,0.086,0.085,0.207,0.035,0.307c-0.824,1.661-2.037,3.136-3.508,4.266C215.803,89.062,215.742,89.082,215.68,89.082z
		 M213.422,85.348c0.142,1.483,1.727,2.726,2.247,3.097c1.194-0.952,2.201-2.146,2.941-3.482c-0.26-0.018-0.515-0.093-0.748-0.228
		c-0.403-0.23-0.691-0.604-0.812-1.052c-0.058-0.215-0.075-0.435-0.048-0.655c0.001-0.008,0.002-0.014,0.003-0.022l0.295-2.625
		c0.003-0.026,0.009-0.051,0.019-0.076c0.202-0.493,0.063-1.053-0.321-1.397l-0.843,1.172c-0.043,0.061-0.109,0.102-0.182,0.115
		c-1.865,0.319-3.384-1.724-3.964-2.646l-1.989,3.37l1.868,2.313l1.459,0.165c0.257,0.023,0.494,0.148,0.662,0.352
		c0.169,0.202,0.248,0.458,0.224,0.721C214.191,84.92,213.849,85.272,213.422,85.348z"/>
	<path id="XMLID_810_" d="M218.211,130.772c-7.645,0.001-10.191-3.664-10.348-3.902c-0.025-0.038-0.041-0.082-0.045-0.127
		l-2.633-25.036c-0.327-3.052-1.934-5.843-4.409-7.66c-2.307-1.7-3.924-3.24-6.162-5.373c-1.529-1.457-3.264-3.109-5.665-5.237
		c-0.838-0.742-1.402-1.759-1.585-2.864c-0.237-1.426-1.461-9.682-2.282-32.183c-0.032-0.822,0.495-1.566,1.282-1.809
		c0.958-0.294,1.98,0.242,2.276,1.201c1.4,4.471,2.718,10.274,3.993,15.886c1.028,4.524,1.999,8.8,3.007,12.419
		c2.659,1.937,5.456,3.739,8.315,5.356c2.874,1.625,5.976,2.75,9.22,3.343c0.264,0.033,0.465-0.143,0.486-0.373
		c0.011-0.11-0.023-0.218-0.094-0.304c-0.071-0.086-0.171-0.139-0.282-0.149l-1.582-0.178c-0.075-0.008-0.143-0.046-0.19-0.103
		l-2.065-2.557c-0.075-0.092-0.084-0.221-0.024-0.324l2.335-3.957c0.052-0.089,0.159-0.126,0.252-0.14
		c0.103,0.002,0.196,0.06,0.245,0.151c0.017,0.031,1.607,2.994,3.503,2.795l0.937-1.305c0.087-0.12,0.249-0.152,0.373-0.081
		c0.772,0.444,1.105,1.392,0.787,2.219l-0.294,2.61c-0.018,0.152-0.007,0.303,0.033,0.449c0.17,0.618,0.81,0.982,1.432,0.815
		c11.056-3.107,26.108-15.828,42.38-35.818c0.569-0.702,1.546-0.942,2.376-0.581c0.495,0.215,0.877,0.61,1.076,1.112
		c0.192,0.488,0.189,1.022-0.009,1.506c-0.004,0.014-0.008,0.028-0.014,0.04c-4.89,11.196-15.522,28.005-30.695,41.606
		c-1.268,1.149-1.934,2.789-1.83,4.496c0.36,6.383,1.242,18.398,3.111,27.183c0.002,0.008,0.14,0.765,0.375,2.176
		c0.022,0.129-0.047,0.256-0.167,0.308C228.027,129.69,222.366,130.772,218.211,130.772z M208.377,126.607
		c0.532,0.696,6.757,7.996,26.82-0.655c-0.212-1.263-0.335-1.939-0.335-1.94c-1.875-8.813-2.76-20.862-3.12-27.259
		c-0.116-1.88,0.62-3.685,2.017-4.953c15.089-13.527,25.664-30.233,30.539-41.373c0.003-0.012,0.007-0.024,0.012-0.036
		c0.155-0.356,0.161-0.751,0.019-1.111c-0.142-0.36-0.417-0.644-0.773-0.799c-0.598-0.261-1.298-0.087-1.707,0.417
		c-16.345,20.08-31.499,32.868-42.669,36.007c-0.925,0.254-1.881-0.291-2.133-1.214c-0.06-0.218-0.076-0.442-0.049-0.665
		l0.298-2.646c0.003-0.026,0.009-0.051,0.019-0.076c0.202-0.493,0.063-1.053-0.321-1.397l-0.843,1.172
		c-0.043,0.061-0.109,0.102-0.182,0.115c-1.867,0.319-3.384-1.724-3.964-2.646l-1.989,3.37l1.868,2.313l1.46,0.165
		c0.257,0.023,0.494,0.148,0.662,0.352c0.169,0.202,0.247,0.458,0.223,0.721c-0.024,0.261-0.15,0.499-0.352,0.667
		c-0.203,0.169-0.459,0.239-0.721,0.224c-0.008-0.001-0.072-0.01-0.08-0.011c-3.309-0.604-6.471-1.751-9.4-3.407
		c-2.907-1.644-5.75-3.478-8.45-5.451c-0.052-0.038-0.089-0.092-0.106-0.154c-1.021-3.653-2.002-7.971-3.04-12.542
		c-1.273-5.601-2.589-11.393-3.982-15.841c-0.203-0.66-0.905-1.03-1.564-0.826c-0.541,0.166-0.903,0.677-0.88,1.243
		c0.819,22.466,2.038,30.69,2.274,32.11c0.162,0.977,0.66,1.875,1.401,2.531c2.409,2.136,4.147,3.791,5.68,5.251
		c2.223,2.118,3.829,3.649,6.107,5.327c2.603,1.91,4.293,4.847,4.637,8.058L208.377,126.607z"/>
	<path id="XMLID_799_" class="st7" d="M215.218,88.716c0,0-2.598,27.981,21.94,34.371l4.523-2.215l-3.052-3.886
		c0,0-22.066-5.891-22.796-28.239l-0.617-0.031L215.218,88.716z"/>
	<path id="XMLID_796_" d="M236.427,233.33c-1.282,0-2.413-0.934-2.617-2.239c-1.215-7.426-2.988-17.374-4.864-27.906
		c-4.12-23.13-8.763-49.195-8.964-56.83c-1.824,2.971-7.904,12.782-11.681,17.724c0.232,2.069,3.489,31.299,4.887,52.429
		c0.071,1.099-0.555,2.139-1.559,2.59c-0.645,0.288-1.367,0.313-2.027,0.06c-0.662-0.251-1.187-0.745-1.477-1.39
		c-6.389-14.174-15.859-42.206-18.843-54.362c-0.011-0.044-0.011-0.091,0-0.136c1.453-5.936,3.633-11.686,6.478-17.091
		c3.501-6.828,7.575-13.433,12.11-19.627c0.053-0.073,0.139-0.117,0.23-0.117h0.007c0.095,0,0.185,0.048,0.237,0.128
		c0.057,0.086,5.962,8.477,27.062-0.693c0.08-0.036,0.172-0.032,0.249,0.011c0.077,0.042,0.131,0.117,0.145,0.204
		c1.749,10.482,10.126,64.808,3.242,105.037c-0.19,1.125-1.075,2-2.203,2.177C236.7,233.319,236.563,233.33,236.427,233.33z
		 M220.27,145.05c0.028,0,0.056,0.004,0.083,0.012c0.125,0.038,0.207,0.156,0.201,0.286c-0.281,5.904,4.624,33.441,8.952,57.737
		c1.877,10.534,3.649,20.484,4.865,27.916c0.179,1.136,1.249,1.909,2.379,1.734c0.885-0.139,1.581-0.826,1.729-1.71
		c6.794-39.701-1.314-93.198-3.182-104.489c-19.237,8.256-25.898,2.182-27.19,0.653c-4.428,6.083-8.412,12.558-11.843,19.251
		c-2.815,5.346-4.972,11.03-6.414,16.897c2.997,12.169,12.426,40.073,18.793,54.196c0.228,0.507,0.64,0.894,1.16,1.092
		c0.519,0.195,1.085,0.179,1.592-0.048c0.788-0.354,1.28-1.17,1.224-2.032c-1.441-21.792-4.863-52.212-4.897-52.516
		c-0.008-0.073,0.012-0.147,0.057-0.206c4.432-5.771,12.171-18.508,12.249-18.636C220.08,145.1,220.173,145.05,220.27,145.05z"/>
	<path id="XMLID_793_" class="st2" d="M37.531,233.319c-5.195,0.001-9.478-3.882-9.978-9.066l-7.467-73.809
		c-0.213-1.659,0.969-3.188,2.636-3.403c0.149-0.019,0.301-0.027,0.451-0.024h75.438c0.016,0,0.032,0,0.047,0
		c0.892,0,1.712-0.473,2.156-1.244l2.587-4.574c0.556-0.967,1.584-1.575,2.704-1.531h44.201c1.895,0.042,3.487,1.488,3.71,3.364
		l8.007,79.104c0.443,4.227,1.113,10.613,8.071,10.613h0.004c0.157,0,0.285,0.128,0.285,0.285s-0.127,0.285-0.285,0.285H37.62
		C37.591,233.319,37.56,233.319,37.531,233.319z M23.119,147.586c-0.11,0-0.218,0.006-0.324,0.02
		c-1.356,0.175-2.318,1.418-2.144,2.772l7.468,73.818c0.472,4.891,4.512,8.553,9.414,8.553c0.028,0,0.056,0,0.085,0h129.18
		c-4.421-1.745-4.983-7.109-5.344-10.553l-0.083-0.778l-7.923-78.324c-0.189-1.591-1.544-2.821-3.15-2.857h-44.2
		c-0.916,0.014-1.752,0.459-2.203,1.244l-2.587,4.574c-0.547,0.949-1.556,1.531-2.646,1.531c-0.019,0-0.038,0-0.058,0H23.167
		C23.151,147.586,23.135,147.586,23.119,147.586z"/>
	<path id="XMLID_790_" class="st2" d="M37.541,233.319c-4.706,0-8.822-3.324-9.804-7.933c-0.018-0.083,0.003-0.171,0.057-0.238
		s0.135-0.106,0.221-0.106h134.139c0.138,0,0.256,0.099,0.28,0.234c0.58,3.209,2.004,7.474,7.658,7.474
		c0.157,0,0.285,0.128,0.285,0.285s-0.127,0.285-0.285,0.285H37.62C37.594,233.319,37.568,233.319,37.541,233.319z M28.374,225.611
		c1.053,4.167,4.847,7.138,9.167,7.138c0.026,0,0.031-0.027,0.08,0h129.153c-3.276-1.285-4.354-4.501-4.857-7.138H28.374z"/>
	<circle id="XMLID_789_" class="st7" cx="61.458" cy="120.989" r="15.889"/>
	<path id="XMLID_783_" class="st3" d="M94.675,103.98c-9.686-18.19-32.285-25.085-50.475-15.398s-25.085,32.285-15.398,50.475
		c8.979,16.863,29.245,24.22,46.952,17.045l4.71,8.844l6.862-3.654l-4.71-8.844C98.446,141.759,103.651,120.841,94.675,103.98z
		 M76.239,148.744c-15.039,8.01-33.724,2.311-41.734-12.729s-2.311-33.724,12.729-41.734s33.724-2.311,41.734,12.729
		c0.001,0.002,0.002,0.003,0.003,0.005C96.976,122.054,91.277,140.736,76.239,148.744z"/>
	<path id="XMLID_782_" d="M44.2,88.58c-18.191,9.688-25.084,32.287-15.396,50.478c2.075,3.896,4.824,7.393,8.121,10.328l4.654-4.516
		c-12.9-11.131-14.334-30.612-3.203-43.512s30.612-14.334,43.512-3.203c1.38,1.191,2.652,2.502,3.8,3.917l4.656-4.519
		c-11.33-13.518-30.577-17.26-46.146-8.971L44.2,88.58z"/>
	<path id="XMLID_781_" class="st0" d="M44.2,88.58c-18.191,9.688-25.084,32.287-15.396,50.478c2.075,3.896,4.824,7.393,8.121,10.328
		l4.654-4.516c-12.9-11.131-14.334-30.612-3.203-43.512s30.612-14.334,43.512-3.203c1.38,1.191,2.652,2.502,3.8,3.917l4.656-4.519
		c-11.33-13.518-30.577-17.26-46.146-8.971L44.2,88.58z"/>
	<path id="XMLID_780_" d="M119.17,229.366L119.17,229.366c-3.101,1.642-6.945,0.471-8.604-2.62l-33.021-62.011
		c-0.437-0.821-0.126-1.841,0.695-2.278l8.255-4.397c0.821-0.437,1.841-0.126,2.278,0.695l33.021,62.011
		c1.642,3.101,0.471,6.945-2.62,8.604L119.17,229.366z"/>
	<path id="XMLID_779_" class="st0" d="M78.239,162.453c-0.821,0.437-1.132,1.457-0.695,2.278l33.021,62.011
		c1.66,3.091,5.504,4.261,8.604,2.62l-36.803-69.113L78.239,162.453z"/>
	<path id="XMLID_778_" class="st10" d="M120.293,224.043c-0.032,0-0.061-0.017-0.077-0.044l-20.399-37.463
		c-0.025-0.042-0.01-0.097,0.032-0.121l0.001,0c0.042-0.025,0.095-0.011,0.12,0.03c0.001,0.001,0.001,0.002,0.002,0.003
		l20.399,37.463c0.025,0.042,0.01,0.097-0.032,0.121l-0.001,0C120.324,224.04,120.308,224.044,120.293,224.043z"/>
	<path id="XMLID_777_" class="st2" d="M65.322,129.016l-11.892-11.892c-1.145-1.151-1.145-3.011,0-4.162l0,0
		c1.151-1.145,3.011-1.145,4.162,0l11.891,11.891c1.145,1.151,1.145,3.011,0,4.162l0,0c-1.151,1.144-3.01,1.144-4.161,0V129.016z"/>
	<path id="XMLID_774_" class="st2" d="M69.484,117.124l-11.891,11.892c-1.151,1.145-3.011,1.145-4.162,0l0,0
		c-1.145-1.151-1.145-3.011,0-4.162l11.891-11.891c1.151-1.145,3.011-1.145,4.162,0l0,0
		C70.629,114.114,70.629,115.973,69.484,117.124z"/>
	<path id="XMLID_773_" d="M15.454,233.498h235.932c0.12,0,0.236-0.048,0.32-0.133c0.085-0.084,0.133-0.199,0.133-0.319
		c0-0.121-0.048-0.236-0.133-0.32c-0.084-0.085-0.2-0.132-0.32-0.132H15.454c-0.12,0-0.236,0.047-0.321,0.132
		c-0.085,0.084-0.133,0.199-0.133,0.32c0,0.12,0.048,0.235,0.133,0.319C15.218,233.45,15.333,233.498,15.454,233.498z"/>
</g>
</svg>
