<?xml version="1.0" encoding="utf-8"?>
<!-- Generator: Adobe Illustrator 19.0.0, SVG Export Plug-In . SVG Version: 6.00 Build 0)  -->
<svg version="1.1" id="Layer_1" xmlns="http://www.w3.org/2000/svg" xmlns:xlink="http://www.w3.org/1999/xlink" x="0px" y="0px"
	 viewBox="0 0 280 280" style="enable-background:new 0 0 280 280;" xml:space="preserve">
<style type="text/css">
	.st0{fill:#EF4941;}
	.st1{fill:#F26052;}
	.st2{fill:#FFFFFF;}
	.st3{fill:#D1D3D4;}
	.st4{fill:#1B44AA;}
	.st5{fill:#0C378E;}
	.st6{fill:#011721;}
	.st7{fill:#A3C4F3;}
	.st8{fill:#79B1F2;}
	.st9{fill:none;}
</style>
<g id="XMLID_924_">
	<g id="XMLID_235_">
		<path id="XMLID_1165_" class="st0" d="M169.868,164.98l-16.646,1.657c-1.055,0.121-1.813,1.076-1.691,2.131
			c0.094,0.818,0.698,1.485,1.502,1.66c6.312,1.127,12.718,1.636,19.128,1.52l8.011-1.967L169.868,164.98z"/>
	</g>
	<path id="XMLID_1164_" class="st1" d="M151.618,169.244c0.224,0.62,0.764,1.072,1.414,1.183c6.311,1.127,12.718,1.636,19.128,1.52
		l7.848-1.924l-0.24-0.24l-2.015-0.979l-6.821,0.408c-4.482,0.659-16.502,0.158-19.314,0.029L151.618,169.244z"/>
	<path id="XMLID_1163_" class="st2" d="M161.145,171.526c-2.693-1.731-1.254-5.554-1.254-5.554l-6.672,0.665
		c-1.056,0.121-1.813,1.076-1.691,2.131c0.094,0.818,0.698,1.485,1.503,1.66c2.682,0.521,5.392,0.887,8.116,1.099L161.145,171.526z"
		/>
	<path id="XMLID_1162_" class="st3" d="M153.032,170.427c2.682,0.521,5.392,0.887,8.116,1.099c-0.729-0.462-1.255-1.183-1.472-2.018
		c-3.547-0.067-6.768-0.206-8.056-0.265c0.224,0.62,0.764,1.072,1.414,1.183H153.032z"/>
	<path id="XMLID_2_" d="M170.356,172.257c-5.597,0-11.204-0.484-16.742-1.436c-0.099-0.016-0.196-0.031-0.295-0.045
		c-0.113-0.016-0.227-0.033-0.339-0.053c-0.753-0.129-1.383-0.656-1.644-1.377c-0.018-0.05-0.022-0.103-0.013-0.155
		c-0.04-0.116-0.075-0.247-0.092-0.389c-0.14-1.219,0.737-2.324,1.956-2.465l16.651-1.658c0.053-0.007,0.112,0.006,0.161,0.029
		l7.858,3.814c0.009,0.004,0.018,0.007,0.027,0.012l2.016,0.978c0.009,0.004,0.018,0.009,0.027,0.014l0.377,0.183
		c0.114,0.055,0.181,0.175,0.168,0.302c-0.014,0.126-0.105,0.23-0.228,0.261l-0.124,0.031c-0.013,0.005-0.026,0.009-0.04,0.013
		l-7.847,1.923C171.607,172.251,170.982,172.257,170.356,172.257z M151.96,169.283c0.211,0.444,0.631,0.764,1.122,0.849
		c0.108,0.019,0.215,0.034,0.322,0.049c0.103,0.015,0.208,0.031,0.311,0.048c6.12,1.052,12.322,1.53,18.439,1.417l0.155-0.046
		l6.987-1.712l-1.653-0.802c-0.009-0.004-0.018-0.007-0.027-0.012l-7.805-3.788l-16.562,1.649c-0.884,0.102-1.524,0.909-1.423,1.798
		c0.018,0.141,0.067,0.281,0.114,0.399C151.96,169.18,151.966,169.232,151.96,169.283z"/>
	<path id="XMLID_1161_" d="M190.39,137.458l-2.307-3.709l8.436-4.569c1.546-0.57,3.269,0.146,3.957,1.642
		c0.802,1.605,1.913,4.569,2.376,10.487l-8.596-1.057l-3.864-2.793L190.39,137.458z"/>
	<path id="XMLID_1160_" class="st2" d="M190.393,142.189l4.035,2.195l2.134-1.812c0.338-0.222,0.79-0.145,1.035,0.177
		c0.287,0.333,0.287,0.827,0,1.16c0,0,3.52-2.69,5.411-2.569c-0.826-0.285-1.624-0.648-2.382-1.082
		c-2.7-1.202-1.218-4.328-2.886-4.862c-0.521-0.168-0.779,1.932-2.251,1.758c-1.18-0.139-5.109-1.344-5.109-1.344v6.372
		L190.393,142.189z"/>
	<path id="XMLID_1159_" class="st3" d="M197.603,143.908c0.509-0.506,1.056-0.971,1.636-1.392l-0.919-0.529
		c-0.376-0.23-0.858-0.193-1.194,0.094l-0.565,0.492c0.338-0.222,0.79-0.145,1.035,0.177c0.287,0.333,0.287,0.827,0,1.16
		L197.603,143.908z"/>
	<path id="XMLID_1158_" class="st1" d="M188.003,137.124c-4.748,4.301-12.084,13.346-18.807,29.439
		c-0.835,2.007,0.116,4.311,2.123,5.146c0.524,0.218,1.089,0.32,1.656,0.299c7.146-0.271,18.396-2.645,24.528-7.112l10.284,23.574
		c0,0,15.474,5.922,25.98-0.955c0,0-9.026-27.23-19.069-41.637c-2.982-4.362-8.559-6.121-13.504-4.26
		c-1.851,0.718-3.516,1.845-4.871,3.297l-14.71,16.429c0,0,5.677-14.025,9.044-22.364c0.344-0.851-0.067-1.821-0.918-2.165
		c-0.591-0.239-1.266-0.119-1.739,0.309L188.003,137.124z"/>
	<path id="XMLID_1157_" class="st0" d="M181.616,161.343c0,0,5.677-14.025,9.044-22.364c0.294-0.689,0.076-1.491-0.527-1.936
		c0,0-8.604,20.56-8.517,24.298V161.343z"/>
	<path id="XMLID_1156_" d="M197.9,158.089c-3.848,9.887-24.35,13.615-25.74,13.858c0.268,0.048,0.54,0.068,0.813,0.06
		c7.146-0.271,18.396-2.645,24.528-7.112l10.284,23.574c0,0,0.216,0.082,0.601,0.213l13.991-5.567
		c-18.602-5.966-24.48-25.027-24.48-25.027H197.9z"/>
	<g id="XMLID_222_">
		<path id="XMLID_1155_" class="st0" d="M197.9,158.089c-3.848,9.887-24.35,13.615-25.74,13.858c0.268,0.048,0.54,0.068,0.813,0.06
			c7.146-0.271,18.396-2.645,24.528-7.112l10.284,23.574c0,0,0.216,0.082,0.601,0.213l13.991-5.567
			c-18.602-5.966-24.48-25.027-24.48-25.027H197.9z"/>
	</g>
	<path id="XMLID_3_" d="M194.428,144.685c-0.049,0-0.099-0.012-0.143-0.036l-4.034-2.196h-0.001l-0.013-0.007
		c-0.096-0.053-0.156-0.154-0.156-0.264v-6.372c0-0.095,0.046-0.186,0.122-0.242c0.076-0.058,0.173-0.073,0.267-0.046
		c0.039,0.012,3.917,1.199,5.056,1.334c0.666,0.069,1.004-0.41,1.388-1.057c0.242-0.406,0.495-0.825,0.921-0.688
		c0.913,0.291,1.06,1.2,1.204,2.078c0.175,1.077,0.356,2.191,1.712,2.795c0.766,0.437,1.55,0.793,2.358,1.072
		c0.142,0.049,0.225,0.196,0.196,0.343c-0.029,0.148-0.17,0.271-0.314,0.241c-0.036-0.001-0.075-0.002-0.113-0.002
		c-1.785,0-5.063,2.487-5.097,2.512c-0.121,0.095-0.295,0.081-0.4-0.032c-0.106-0.113-0.11-0.286-0.009-0.403
		c0.189-0.22,0.189-0.55,0-0.767c-0.159-0.211-0.436-0.256-0.642-0.123l-2.104,1.789
		C194.566,144.66,194.497,144.685,194.428,144.685z M190.681,142.003l3.709,2.018l1.977-1.678c0.5-0.33,1.132-0.222,1.469,0.225
		c0.15,0.173,0.24,0.385,0.268,0.606c0.869-0.599,2.408-1.573,3.742-1.967c-0.468-0.205-0.926-0.436-1.369-0.689
		c-1.626-0.722-1.853-2.115-2.034-3.234c-0.143-0.879-0.251-1.397-0.744-1.585c-0.072,0.07-0.184,0.262-0.27,0.405
		c-0.349,0.588-0.882,1.485-1.975,1.347c-0.983-0.116-3.743-0.928-4.773-1.238V142.003z"/>
	<path id="XMLID_1154_" class="st2" d="M188.475,144.383c0.777-1.924,1.525-3.772,2.183-5.411c0.344-0.851-0.067-1.821-0.918-2.165
		c-0.591-0.239-1.266-0.119-1.739,0.309c-1.325,1.214-2.577,2.505-3.749,3.867C184.252,141.007,184.226,144.757,188.475,144.383z"/>
	<path id="XMLID_1153_" class="st3" d="M187.174,144.356c0.431,0.06,0.868,0.069,1.301,0.028l2.183-5.411
		c0.294-0.689,0.076-1.491-0.527-1.936c0,0-1.342,3.205-2.959,7.313L187.174,144.356z"/>
	<path id="XMLID_4_" d="M221.213,191.119c-7.216,0-13.436-2.33-13.533-2.367c-0.076-0.028-0.136-0.087-0.169-0.161l-10.134-23.233
		c-5.992,4.185-16.735,6.661-24.39,6.952c-0.605,0.018-1.222-0.09-1.782-0.323c-1.045-0.434-1.859-1.249-2.291-2.295
		c-0.431-1.046-0.43-2.198,0.006-3.243c7.266-17.394,14.931-25.964,18.864-29.531c0.006-0.006,0.011-0.011,0.015-0.015
		c0.554-0.501,1.36-0.646,2.054-0.363c0.486,0.196,0.867,0.569,1.071,1.053c0.205,0.483,0.21,1.016,0.013,1.502
		c-2.676,6.631-6.815,16.856-8.398,20.769l13.56-15.147c1.381-1.479,3.103-2.645,4.986-3.377c5.092-1.916,10.791-0.12,13.861,4.371
		c9.951,14.276,19.016,41.439,19.106,41.711c0.043,0.13-0.007,0.272-0.121,0.346C230.04,190.314,225.454,191.119,221.213,191.119z
		 M208.01,188.233c1.435,0.518,15.623,5.369,25.396-0.842c-0.886-2.624-9.53-27.815-18.956-41.34
		c-2.914-4.261-8.32-5.968-13.152-4.15c-1.796,0.697-3.441,1.811-4.757,3.221l-14.705,16.424c-0.097,0.11-0.261,0.132-0.383,0.054
		c-0.124-0.077-0.175-0.232-0.12-0.368c0,0,5.678-14.025,9.045-22.364c0.281-0.696-0.056-1.491-0.753-1.773
		c-0.478-0.19-1.026-0.097-1.409,0.238c-0.005,0.005-0.008,0.008-0.013,0.013c-3.891,3.525-11.5,12.022-18.731,29.333
		c-0.769,1.85,0.11,3.983,1.961,4.753c0.48,0.2,1.011,0.289,1.53,0.276c7.693-0.292,18.533-2.809,24.362-7.054
		c0.075-0.053,0.168-0.07,0.256-0.047c0.088,0.023,0.161,0.086,0.197,0.17L208.01,188.233z"/>
	<path id="XMLID_1152_" class="st4" d="M172.928,199.084c0,0-19.645,26.796-39.777,55.718c-0.656,0.94-0.425,2.234,0.514,2.889
		c0.698,0.487,1.623,0.498,2.333,0.029c9.281-6.17,25.503-18.276,45.104-38.491l6.372-11.224l-14.548-8.921H172.928z"/>
	<path id="XMLID_1151_" class="st5" d="M181.098,219.228l6.372-11.224l-3.28-2.012l-11.266-6.91l-28.057,52.365
		c12.913-9.762,25.027-20.537,36.229-32.223L181.098,219.228z"/>
	<path id="XMLID_1150_" class="st2" d="M138.579,247.031c-1.797,2.565-3.607,5.155-5.431,7.771c-0.656,0.94-0.425,2.234,0.515,2.889
		c0.698,0.487,1.623,0.498,2.333,0.029c2.483-1.651,5.466-3.727,8.873-6.271C142.033,251.504,139.489,249.717,138.579,247.031"/>
	<path id="XMLID_1149_" class="st3" d="M140.925,250.214l-7.533,7.251c0.687,0.714,1.79,0.823,2.603,0.256
		c2.483-1.651,5.466-3.727,8.873-6.271C143.475,251.352,142.125,250.928,140.925,250.214"/>
	<path id="XMLID_5_" d="M134.852,258.368c-0.474,0-0.949-0.143-1.359-0.43c-1.074-0.749-1.339-2.233-0.589-3.308
		c19.659-28.243,38.949-54.589,39.762-55.697c0.075-0.146,0.249-0.191,0.392-0.12c0.029,0.014,0.059,0.035,0.081,0.058l14.492,8.878
		c0.137,0.085,0.184,0.263,0.104,0.404l-6.372,11.224c-0.013,0.022-0.028,0.042-0.046,0.061c-0.375,0.387-0.743,0.76-1.113,1.134
		l-0.552,0.559c-5.326,5.472-10.892,10.778-16.54,15.773c-11.623,10.33-21.069,17.158-26.947,21.066
		C135.763,258.235,135.307,258.368,134.852,258.368z M173.006,199.486c-1.968,2.688-20.616,28.201-39.609,55.488
		c-0.56,0.803-0.363,1.913,0.439,2.472c0.604,0.419,1.386,0.427,1.996,0.025c5.861-3.898,15.283-10.707,26.88-21.015
		c5.638-4.986,11.193-10.282,16.51-15.743l0.554-0.561c0.359-0.364,0.719-0.727,1.081-1.103l6.21-10.937L173.006,199.486z"/>
	<path id="XMLID_1148_" class="st1" d="M237.816,251.455v0.498c0.001,0.66-0.534,1.196-1.194,1.196l-0.008,0h-47.252
		c-0.66,0.004-1.198-0.528-1.202-1.188c0-0.005,0-0.01,0-0.014v-0.498c-0.004-0.66,0.528-1.198,1.188-1.202c0,0,0.01,0,0.014,0
		h47.263c0.66-0.004,1.198,0.528,1.202,1.188c0,0.003,0,0.006,0,0.008"/>
	<path id="XMLID_1147_" class="st4" d="M229.034,189.514c-4.141-8.277-19.068-10.795-19.068-10.795
		c-7.707,4.435-18.516,9.757-26.489,14.077c-6.102,3.309-10.553,6.286-10.553,6.286c6.562,24.012,26.315,48.598,35.089,58.675
		c0.586,0.667,1.601,0.734,2.269,0.148c0.455-0.399,0.647-1.021,0.497-1.608c-5.091-19.618-15.555-51.008-15.555-51.008
		c14.94-3.807,23.834-7.856,29.122-11.264c1.841-1.185,3.434-2.717,4.689-4.511H229.034z"/>
	<path id="XMLID_1146_" class="st5" d="M195.226,205.29c14.94-3.807,23.834-7.856,29.122-11.264
		c1.868-1.202,4.718-0.372,5.955-2.139l-1.271-2.372c-1.55-2.733-3.861-4.956-6.653-6.398c0,0-24.672,10.171-39.538,19.424
		c3.452,20.199,12.37,39.788,20.93,50.203l1.113-0.185l4.035-3.126c-5.411-19.298-13.696-44.148-13.696-44.148L195.226,205.29z"/>
	<path id="XMLID_1145_" class="st1" d="M48.725,151.677l10.1,43.716l-15.047,52.223c-0.418,1.344-1.847,2.095-3.191,1.677
		c-1.048-0.326-1.77-1.287-1.792-2.384l-1.13-55.205L48.725,151.677z"/>
	<path id="XMLID_1144_" class="st5" d="M47.946,104.452c0,0,14.676-6.493,18.264-14.755c-7.752-4.987-16.754-7.687-25.971-7.789
		c-0.76,0.022-1.358,0.656-1.337,1.416c0.013,0.465,0.261,0.892,0.657,1.134c3.296,2.044,8.504,4.183,15.759,6.843l-15.581,5.124
		l8.207,8.027L47.946,104.452z"/>
	<path id="XMLID_1142_" class="st4" d="M38.927,83.182c-0.051,0.511,0.195,1.007,0.632,1.276c3.296,2.044,8.504,4.183,15.759,6.843
		l1.966-0.361l-0.423-0.303c-4.407-3.345-15.336-6.689-17.937-7.455H38.927z"/>
	<path id="XMLID_1141_" class="st2" d="M39.56,84.458c1.773,1.055,3.614,1.99,5.512,2.798c1.484-0.912,1.947-2.854,1.035-4.338
		c-0.157-0.256-0.349-0.488-0.572-0.689c-1.758-0.213-3.527-0.32-5.298-0.321c-0.76,0.023-1.357,0.658-1.334,1.418
		C38.917,83.79,39.164,84.216,39.56,84.458"/>
	<path id="XMLID_1140_" class="st3" d="M38.927,83.182c-0.051,0.511,0.195,1.007,0.632,1.276c1.773,1.055,3.614,1.99,5.512,2.798
		c0.562-0.424,1.009-0.983,1.299-1.626c-3.282-1.195-6.252-2.096-7.445-2.449L38.927,83.182z"/>
	<path id="XMLID_1139_" class="st4" d="M47.368,104.452c0,0,15.032-6.634,18.62-14.897c-5.284,5.329-12.518,8.932-19.946,10.001
		l-2.103,1.534l3.433,3.357L47.368,104.452z"/>
	<g id="XMLID_209_">
		<path id="XMLID_7_" d="M47.946,104.753c-0.077,0-0.153-0.029-0.21-0.086l-8.209-8.027c-0.075-0.073-0.107-0.181-0.082-0.283
			c0.023-0.102,0.099-0.184,0.198-0.217l14.762-4.855c-7.727-2.854-12.106-4.774-15.004-6.571c-0.483-0.296-0.782-0.813-0.8-1.381
			c-0.026-0.925,0.704-1.699,1.627-1.726c9.299,0.103,18.335,2.813,26.144,7.838c0.123,0.08,0.171,0.237,0.113,0.372
			c-3.594,8.274-17.814,14.643-18.418,14.91C48.028,104.745,47.987,104.753,47.946,104.753z M40.301,96.557l7.707,7.537
			c1.683-0.776,14.377-6.827,17.822-14.283c-7.663-4.874-16.508-7.502-25.594-7.603c-0.58,0.018-1.049,0.514-1.032,1.107
			c0.011,0.364,0.203,0.696,0.514,0.886c2.961,1.836,7.511,3.811,15.704,6.817c0.12,0.043,0.2,0.159,0.197,0.286
			c-0.002,0.128-0.085,0.241-0.207,0.281L40.301,96.557z"/>
	</g>
	<path id="XMLID_1138_" d="M42.973,86.997l0.601-3.736c0,0-6.823,0.547-10.108,1.222c0,0-4.422,3.959,3.114,12.384l4.593-6.03
		l1.804-3.848L42.973,86.997z"/>
	<path id="XMLID_1137_" class="st2" d="M40.963,96.403l-0.173-2.064h2.755l2.388-3.454l-3.679-4.83c0,0-1.202,3.734-4.619,4.199
		l-1.172-2.064c0,0-1.516,1.6,0.252,4.254c0.651,1.416,0.603,3.054-0.129,4.429l4.381-0.47L40.963,96.403z"/>
	<path id="XMLID_6_" d="M36.586,97.172c-0.099,0-0.193-0.049-0.249-0.133c-0.062-0.092-0.069-0.21-0.016-0.309
		c0.683-1.285,0.728-2.841,0.12-4.164c-1.856-2.779-0.214-4.569-0.197-4.586c0.066-0.068,0.162-0.1,0.255-0.092
		c0.094,0.012,0.178,0.067,0.225,0.15l1.068,1.883c3.035-0.548,4.165-3.926,4.175-3.962c0.035-0.106,0.126-0.184,0.236-0.203
		c0.106-0.023,0.222,0.026,0.29,0.114l3.679,4.829c0.079,0.103,0.082,0.245,0.008,0.353l-2.388,3.454
		c-0.056,0.081-0.149,0.129-0.248,0.129h-2.428l0.143,1.691c0,0.002,0.001,0.005,0.001,0.008c0.033,0.149-0.053,0.301-0.198,0.349
		c-0.022,0.007-0.046,0.012-0.069,0.014l-4.375,0.471C36.607,97.172,36.596,97.172,36.586,97.172z M36.438,88.756
		c-0.296,0.569-0.627,1.788,0.526,3.519c0.629,1.362,0.66,2.899,0.119,4.241l3.557-0.382l-0.149-1.772
		c-0.007-0.083,0.021-0.167,0.079-0.228c0.056-0.062,0.136-0.097,0.221-0.097h2.597l2.175-3.146l-3.223-4.231
		c-0.478,1.081-1.849,3.507-4.664,3.89c-0.132,0.011-0.242-0.043-0.303-0.15L36.438,88.756z"/>
	<path id="XMLID_1136_" class="st1" d="M201.982,205.019H224v2.957c-0.001,1.249-1.013,2.261-2.262,2.262h-17.494
		c-1.249-0.001-2.261-1.013-2.262-2.262V205.019z"/>
	<path id="XMLID_1135_" class="st1" d="M224,205.019h-11.314l0.307,1.093v4.125h8.443c1.416,0,2.565-1.148,2.565-2.565V205.019z"/>
	<path id="XMLID_1134_" class="st1" d="M193.513,250.808c2.073,0,3.754,1.681,3.754,3.754c0,2.073-1.681,3.754-3.754,3.754
		c-2.073,0-3.754-1.681-3.754-3.754v0C189.759,252.489,191.44,250.808,193.513,250.808"/>
	<path id="XMLID_1133_" class="st1" d="M232.464,250.808c2.073,0,3.754,1.681,3.754,3.754c0,2.073-1.681,3.754-3.754,3.754
		c-2.073,0-3.754-1.681-3.754-3.754v0C228.71,252.489,230.391,250.808,232.464,250.808"/>
	<path id="XMLID_1132_" class="st2" d="M210.781,256.298c-0.857-3.302-1.443-5.472-2.525-9.234
		c-0.566,0.872-1.215,1.686-1.939,2.431c-1.085,0.88-2.362,1.493-3.727,1.789c2.054,2.538,3.908,4.728,5.429,6.473
		c0.586,0.667,1.601,0.734,2.269,0.148c0.455-0.399,0.647-1.021,0.497-1.608L210.781,256.298z"/>
	<path id="XMLID_1131_" class="st3" d="M206.085,249.709c-1.048,0.756-2.239,1.292-3.5,1.576c2.054,2.538,3.908,4.728,5.429,6.473
		c0.457,0.544,1.224,0.711,1.866,0.406L206.085,249.709z"/>
	<path id="XMLID_1130_" d="M244.45,135.365c1.04-2.983,4.301-4.558,7.283-3.518c2.983,1.04,4.558,4.301,3.518,7.283
		c-1.04,2.982-4.3,4.558-7.282,3.519c-2.983-1.039-4.559-4.3-3.52-7.283L244.45,135.365"/>
	<path id="XMLID_1129_" class="st1" d="M251.173,131.712l-2.961,10.999c3.008,0.928,6.198-0.758,7.126-3.766
		c0.928-3.008-0.758-6.198-3.766-7.126C251.44,131.779,251.307,131.743,251.173,131.712"/>
	<rect id="XMLID_1128_" x="208.931" y="210.237" class="st1" width="8.118" height="10.931"/>
	<rect id="XMLID_1127_" x="210.922" y="221.168" class="st1" width="4.134" height="30.281"/>
	<rect id="XMLID_1126_" x="212.989" y="221.168" width="2.067" height="30.281"/>
	<rect id="XMLID_1125_" x="212.989" y="210.237" width="4.059" height="10.931"/>
	<path id="XMLID_1124_" d="M236.46,250.26h-23.47v1.443h24.827v-0.089C237.814,250.866,237.208,250.26,236.46,250.26"/>
	<rect id="XMLID_1123_" x="78.965" y="173.128" width="2.333" height="85.189"/>
	<rect id="XMLID_1122_" x="186.622" y="173.128" width="2.333" height="85.189"/>
	<path id="XMLID_1121_" d="M63.366,172.035h138.775c0.49,0.001,0.886,0.398,0.887,0.887v0.411c-0.001,0.49-0.398,0.886-0.887,0.887
		H63.366c-0.49-0.001-0.886-0.398-0.887-0.887v-0.411C62.48,172.433,62.877,172.036,63.366,172.035"/>
	<path id="XMLID_1120_" class="st6" d="M108.001,172.035h45.026c0.514,0,0.931-0.417,0.931-0.931s-0.417-0.931-0.931-0.931h-45.026
		c-0.514,0-0.931,0.417-0.931,0.931S107.487,172.035,108.001,172.035L108.001,172.035z"/>
	<path id="XMLID_1119_" class="st7" d="M108.033,170.472h33.846l-9.389-24.768H98.644L108.033,170.472z"/>
	<path id="XMLID_1118_" d="M120.484,157.459c0.962-0.246,2.006,0.59,2.333,1.868c0.42,1.079-0.087,2.297-1.148,2.759
		c-0.962,0.24-2.006-0.59-2.333-1.868c-0.424-1.081,0.084-2.303,1.148-2.765"/>
	<path id="XMLID_1117_" d="M144.284,74.379c-1.644,0.002-3.169-0.859-4.016-2.269c-2.47-4.15-7.836-5.512-11.987-3.043
		c-1.252,0.745-2.298,1.791-3.043,3.043c-1.332,2.216-4.209,2.932-6.424,1.599c-2.216-1.332-2.932-4.209-1.599-6.424l0,0
		c5.137-8.58,16.257-11.372,24.837-6.235c2.561,1.533,4.702,3.675,6.235,6.235c1.332,2.216,0.615,5.093-1.601,6.425
		c-0.727,0.437-1.559,0.668-2.406,0.669H144.284z"/>
	<path id="XMLID_1116_" class="st8" d="M155.904,67.409c-1.644,0.002-3.169-0.859-4.016-2.269
		c-6.337-10.565-20.04-13.992-30.604-7.654c-3.141,1.884-5.77,4.513-7.654,7.654c-1.332,2.216-4.208,2.932-6.424,1.6
		c-2.216-1.332-2.932-4.208-1.6-6.424l0,0c9.002-14.996,28.457-19.856,43.453-10.853c4.453,2.673,8.18,6.4,10.853,10.853
		c1.332,2.216,0.615,5.093-1.601,6.425c-0.727,0.437-1.559,0.668-2.406,0.669L155.904,67.409z"/>
	<path id="XMLID_1115_" class="st8" d="M97.319,60.034c-2.59-0.01-4.681-2.118-4.671-4.707c0.003-0.841,0.232-1.665,0.664-2.387
		c13.077-21.785,41.338-28.845,63.123-15.769c6.47,3.883,11.885,9.299,15.769,15.769c1.332,2.216,0.616,5.091-1.6,6.424
		c-2.216,1.332-5.091,0.616-6.424-1.6l0,0c-10.412-17.354-32.92-22.983-50.275-12.571c-5.159,3.095-9.476,7.412-12.571,12.571
		c-0.847,1.409-2.372,2.27-4.016,2.269V60.034z"/>
	<path id="XMLID_1114_" class="st8" d="M132.758,71.617c3.586,0,6.493,2.907,6.493,6.493c0,3.586-2.907,6.493-6.493,6.493
		c-3.586,0-6.493-2.907-6.493-6.493C126.266,74.524,129.173,71.617,132.758,71.617L132.758,71.617"/>
	<g id="XMLID_188_">
		<path id="XMLID_1113_" class="st8" d="M144.284,74.379c-1.644,0.002-3.169-0.859-4.016-2.269c-2.47-4.15-7.836-5.512-11.987-3.043
			c-1.252,0.745-2.298,1.791-3.043,3.043c-1.332,2.216-4.209,2.932-6.424,1.599c-2.216-1.332-2.932-4.209-1.599-6.424l0,0
			c5.137-8.58,16.257-11.372,24.837-6.235c2.561,1.533,4.702,3.675,6.235,6.235c1.332,2.216,0.615,5.093-1.601,6.425
			c-0.727,0.437-1.559,0.668-2.406,0.669H144.284z"/>
	</g>
	<path id="XMLID_1111_" class="st7" d="M132.758,78.108l1.924-6.202c-3.448-0.984-7.041,1.013-8.025,4.461
		c-0.94,3.295,0.841,6.753,4.07,7.9l2.037-6.16H132.758z"/>
	<path id="XMLID_1110_" class="st7" d="M135.765,68.384l2.775-8.972c-1.865-0.621-3.818-0.937-5.783-0.934
		c-6.373-0.022-12.282,3.328-15.537,8.807c-1.332,2.216-0.616,5.092,1.599,6.424s5.092,0.616,6.424-1.599l0,0
		c2.146-3.622,6.575-5.19,10.522-3.727V68.384z"/>
	<path id="XMLID_1109_" class="st7" d="M139.774,55.424l2.755-8.907c-3.154-1.037-6.452-1.568-9.771-1.573
		c-11.112,0.038-21.401,5.862-27.153,15.37c-1.332,2.216-0.616,5.091,1.6,6.424c2.216,1.332,5.091,0.616,6.424-1.6
		c4.009-6.743,11.285-10.863,19.129-10.832c2.383-0.002,4.752,0.375,7.017,1.117V55.424z"/>
	<path id="XMLID_1108_" class="st7" d="M144.011,41.727l2.75-8.889c-4.523-1.468-9.248-2.219-14.004-2.227
		c-16.143,0.053-31.091,8.515-39.445,22.328c-1.388,2.182-0.745,5.075,1.437,6.463c2.182,1.388,5.075,0.745,6.463-1.437
		c0.012-0.019,0.024-0.037,0.035-0.056c0.03-0.048,0.059-0.096,0.088-0.145c6.584-11.077,18.536-17.845,31.422-17.795
		c3.819-0.001,7.616,0.59,11.254,1.753V41.727z"/>
	<path id="XMLID_1107_" class="st6" d="M128.066,133.744l-18.07-5.29c-1.05-0.308-1.651-1.409-1.343-2.459
		c0.098-0.333,0.282-0.635,0.533-0.875l13.62-13.007l13.621-13.002c0.792-0.755,2.046-0.726,2.801,0.066
		c0.239,0.251,0.408,0.559,0.491,0.896l4.445,18.297l4.449,18.297c0.259,1.063-0.393,2.134-1.456,2.393
		c-0.338,0.082-0.692,0.074-1.026-0.024l-18.07-5.29L128.066,133.744z"/>
	<path id="XMLID_1106_" class="st1" d="M128.066,133.744l-18.07-5.29c-1.05-0.308-1.651-1.409-1.343-2.459
		c0.098-0.333,0.282-0.635,0.533-0.875l13.62-13.007l13.621-13.002c0.792-0.755,2.046-0.726,2.801,0.066
		c0.239,0.251,0.408,0.559,0.491,0.896l4.445,18.297l4.449,18.297c0.259,1.063-0.393,2.134-1.456,2.393
		c-0.338,0.082-0.692,0.074-1.026-0.024l-18.07-5.29L128.066,133.744z"/>
	<path id="XMLID_1105_" class="st1" d="M128.572,132.017l-17.066-5.002c-0.362-0.106-0.57-0.485-0.464-0.847
		c0.034-0.115,0.097-0.22,0.184-0.302l12.865-12.278l12.859-12.278c0.273-0.26,0.705-0.25,0.966,0.023
		c0.083,0.087,0.141,0.194,0.169,0.31l4.205,17.275l4.201,17.28c0.089,0.367-0.136,0.736-0.503,0.825
		c-0.117,0.028-0.238,0.025-0.354-0.008l-17.066-5.002L128.572,132.017z"/>
	<path id="XMLID_1104_" class="st2" d="M132.621,123.102l-2.645-0.776l2.542-11.55l4.2,1.231L132.621,123.102z"/>
	<path id="XMLID_1103_" class="st2" d="M128.894,124.088c0.855-0.855,2.24-0.854,3.095,0c0.855,0.855,0.854,2.24,0,3.095
		c-0.855,0.854-2.24,0.854-3.095,0C128.039,126.328,128.039,124.943,128.894,124.088L128.894,124.088"/>
	<path id="XMLID_1102_" class="st7" d="M60.949,240.142h60.87v2.176c-0.003,8.954-7.261,16.212-16.215,16.215h-28.44
		c-8.954-0.003-16.212-7.261-16.215-16.215V240.142z"/>
	<path id="XMLID_1101_" d="M79.34,253.748h24.091c8.313-0.002,15.592-5.578,17.757-13.605H61.582
		c2.164,8.028,9.444,13.606,17.759,13.607"/>
	<g id="XMLID_183_">
		<path id="XMLID_1100_" class="st8" d="M79.34,253.748h24.091c8.313-0.002,15.592-5.578,17.757-13.605H61.582
			c2.164,8.028,9.444,13.606,17.759,13.607"/>
	</g>
	<path id="XMLID_1099_" d="M85.834,235.358c0,0-13.932-29.857,13.707-49.65c0,0,19.573,15.48-3.981,49.65L85.834,235.358z"/>
	<g id="XMLID_181_">
		<path id="XMLID_1098_" class="st8" d="M85.834,235.358c0,0-13.932-29.857,13.707-49.65c0,0,19.573,15.48-3.981,49.65
			L85.834,235.358z"/>
	</g>
	<path id="XMLID_1097_" class="st7" d="M99.547,185.707c0,0,5.154,37.232-9.662,49.65h5.681
		C119.119,201.187,99.547,185.707,99.547,185.707"/>
	<path id="XMLID_1096_" class="st8" d="M106.798,209.695c0,0-15.954-0.108-20.932,15.39l4.023,4.142L106.798,209.695z"/>
	<path id="XMLID_1095_" d="M83.806,240.142c0,0-0.774-40.693,41.241-28.308c0,0-3.76,18.356-29.193,28.308H83.806z"/>
	<g id="XMLID_178_">
		<path id="XMLID_1094_" class="st8" d="M83.806,240.142c0,0-0.774-40.693,41.241-28.308c0,0-3.76,18.356-29.193,28.308H83.806z"/>
	</g>
	<path id="XMLID_1093_" class="st7" d="M125.046,211.833c0,0-22.228,1.765-35.609,28.308h6.416
		C121.287,230.189,125.046,211.833,125.046,211.833"/>
	<path id="XMLID_1092_" class="st8" d="M82.752,223.994l-0.063-0.465c0,0,14.607,2.444,14.556,16.051l-0.922,0.298l-5.395-1.665
		l-8.61-11.678l0.432-2.542L82.752,223.994z"/>
	<path id="XMLID_1091_" d="M96.298,240.142c0,0,2.875-18.577-29.304-17.803c0.383,7.323,4.355,13.985,10.616,17.803H96.298z"/>
	<rect id="XMLID_1090_" x="66.995" y="222.315" class="st9" width="29.37" height="17.827"/>
	<g id="XMLID_175_">
		<path id="XMLID_1089_" class="st8" d="M96.298,240.142c0,0,2.875-18.577-29.304-17.803c0.383,7.323,4.355,13.985,10.616,17.803
			H96.298z"/>
	</g>
	<path id="XMLID_1088_" class="st7" d="M66.995,222.338c0.383,7.323,4.355,13.985,10.616,17.803h7.518
		C74.513,234.331,67,222.338,67,222.338H66.995z"/>
	<path id="XMLID_1087_" d="M94.364,232.003c-0.04,0.003-0.074-0.027-0.077-0.067c-0.001-0.02,0.005-0.039,0.018-0.054
		c0.09-0.12,9.138-12.464,19.478-16.689c0.038-0.013,0.079,0.008,0.091,0.046c0.012,0.035-0.004,0.072-0.037,0.088
		c-10.298,4.208-19.325,16.515-19.416,16.64c-0.014,0.019-0.036,0.03-0.059,0.03L94.364,232.003z"/>
	<path id="XMLID_1086_" d="M99.816,211.51h-0.008c-0.039-0.004-0.068-0.04-0.064-0.079c0.498-4.666,0.686-9.359,0.564-14.049
		c0-0.04,0.032-0.072,0.072-0.072c0.04,0,0.072,0.032,0.072,0.072c0.123,4.696-0.066,9.396-0.565,14.067
		c-0.004,0.037-0.035,0.065-0.072,0.065L99.816,211.51z"/>
	<path id="XMLID_1085_" d="M85.129,240.213c-0.012,0-0.024-0.003-0.035-0.008c-2.858-1.563-5.502-3.488-7.867-5.728
		c-0.028-0.029-0.026-0.075,0.002-0.102c0.029-0.028,0.075-0.026,0.102,0.002c2.354,2.229,4.986,4.144,7.831,5.699
		c0.035,0.019,0.049,0.062,0.03,0.098c-0.013,0.024-0.038,0.039-0.065,0.038L85.129,240.213z"/>
	<path id="XMLID_1084_" d="M80.17,98.798l-3.142-0.614l1.202-9.36l3.202-0.505L80.17,98.798z"/>
	<path id="XMLID_1083_" d="M81.429,88.317l0.402,0.127l-1.315,10.352h-0.347L81.429,88.317z"/>
	<path id="XMLID_1082_" class="st7" d="M78.423,89.049l2.655-0.347l-1.127,9.713l-2.584-0.387L78.423,89.049z"/>
	<path id="XMLID_1081_" class="st0" d="M53.931,196.142l-9.544,41.785l-3.046,11.476c1.125,0.032,2.129-0.704,2.435-1.788
		l15.049-52.229l-10.1-43.716L53.931,196.142z"/>
	<path id="XMLID_1080_" class="st3" d="M38.581,236.543l0.212,10.367c0.028,1.408,1.191,2.526,2.598,2.499
		c1.098-0.021,2.058-0.743,2.384-1.792l2.859-9.922c0,0-2.217,1.045-8.056-1.151L38.581,236.543z"/>
	<path id="XMLID_1079_" class="st4" d="M82.712,94.877c0.384-0.693,0.134-1.566-0.559-1.95c-0.532-0.295-1.192-0.222-1.647,0.181
		c-6.883,6.19-17.577,15.59-20.28,16.728L43.721,97.374c-2.968-2.241-7.19-1.652-9.431,1.316c-0.413,0.547-0.74,1.153-0.97,1.798
		c-2.975,8.404-6.928,23.749-8.365,48.304c6.797,5.236,15.911,6.343,23.764,2.886c0.436-11.856,0.554-24.126,0.209-36.574
		l11.509,3.747c0,0,8.86,0.084,22.273-23.972V94.877z"/>
	<path id="XMLID_1078_" class="st5" d="M82.712,94.877c0.341-0.579,0.218-1.32-0.292-1.758c-0.03,0.053-8.869,15.489-21.082,23.334
		c-5.212-1.012-10.357-2.345-15.406-3.991c0,0,2.466,26.003-13.32,40.241c5.319,1.578,11.026,1.215,16.102-1.026
		c0.436-11.856,0.554-24.126,0.209-36.574l11.509,3.747c0,0,8.86,0.084,22.273-23.972L82.712,94.877z"/>
	<path id="XMLID_1077_" class="st2" d="M80.506,93.108c-1.178,1.059-2.473,2.216-3.816,3.407c0,0,0.488,3.053,3.281,3.048
		c0.892-1.454,1.804-3.006,2.741-4.689c0.384-0.693,0.134-1.566-0.559-1.95c-0.532-0.295-1.192-0.222-1.647,0.181V93.108z"/>
	<path id="XMLID_1076_" class="st3" d="M78.444,99.18c0.467,0.26,0.994,0.392,1.528,0.384c0.892-1.454,1.804-3.006,2.741-4.689
		c0.341-0.579,0.218-1.32-0.292-1.758C82.408,93.141,80.964,95.662,78.444,99.18"/>
	<path id="XMLID_1075_" class="st1" d="M24.956,148.791c1.256-21.485,4.441-35.918,7.214-44.821
		c-6.012,19.317-13.98,64.656,0.058,151.658c0.205,1.312,1.435,2.209,2.748,2.004c1.005-0.157,1.802-0.929,1.991-1.928
		c6.442-34.344,10.372-69.113,11.759-104.028c-7.853,3.457-16.967,2.35-23.764-2.886L24.956,148.791z"/>
	<path id="XMLID_1074_" class="st0" d="M36.963,255.705c6.442-34.344,10.372-69.113,11.759-104.028
		c-2.484,1.066-5.127,1.716-7.822,1.924v0.07c2.302,32.851-5.423,98.232-6.113,103.973c1.094-0.049,2.005-0.857,2.182-1.938
		L36.963,255.705z"/>
	<path id="XMLID_1073_" class="st3" d="M38.762,245.385c-2.582,1.155-5.535,1.155-8.117,0c0.493,3.351,1.019,6.766,1.577,10.243
		c0.205,1.312,1.435,2.209,2.748,2.004c1.005-0.157,1.802-0.929,1.991-1.928c0.561-2.958,1.188-6.39,1.854-10.242l-0.053-0.079
		L38.762,245.385z"/>
	<path id="XMLID_1072_" class="st2" d="M36.963,255.705c0.561-2.958,1.188-6.39,1.854-10.242l-0.053-0.079
		c-0.847,0.409-1.754,0.678-2.687,0.798c-0.65,6.053-1.142,10.2-1.295,11.462c1.094-0.049,2.005-0.857,2.182-1.938L36.963,255.705z"
		/>
	<path id="XMLID_1071_" class="st2" d="M43.776,247.616l2.859-9.922c-0.724,0.24-1.492,0.32-2.25,0.233l-3.046,11.476
		C42.466,249.437,43.471,248.7,43.776,247.616"/>
	<path id="XMLID_1070_" class="st1" d="M87.066,80.477c3.08-3.08,8.073-3.08,11.153,0c3.08,3.08,3.08,8.073,0,11.153
		c-3.08,3.08-8.073,3.08-11.153,0C83.986,88.551,83.986,83.557,87.066,80.477L87.066,80.477"/>
	<path id="XMLID_1069_" class="st2" d="M88.68,90.017L88.68,90.017c-0.484-0.487-0.484-1.274,0-1.761l6.162-6.162
		c0.48-0.493,1.269-0.503,1.761-0.023s0.503,1.269,0.023,1.761c-0.008,0.008-0.015,0.016-0.023,0.023l-6.157,6.162
		c-0.487,0.488-1.277,0.488-1.765,0.001C88.681,90.018,88.681,90.017,88.68,90.017"/>
	<path id="XMLID_1068_" class="st2" d="M96.604,90.017L96.604,90.017c-0.487,0.484-1.274,0.484-1.761,0l-6.162-6.162
		c-0.493-0.48-0.503-1.269-0.023-1.761c0.48-0.493,1.269-0.503,1.761-0.023c0.008,0.008,0.016,0.015,0.023,0.023l6.162,6.164
		C97.087,88.745,97.087,89.53,96.604,90.017"/>
	<path id="XMLID_1067_" d="M149.439,129.076c-0.045,0-0.084-0.031-0.094-0.075l-6.316-26.372c-0.015-0.051,0.014-0.104,0.065-0.12
		l0.002,0l0,0c0.053-0.014,0.107,0.018,0.12,0.071l0,0l0,0l6.316,26.372c0.015,0.051-0.014,0.105-0.064,0.12l-0.002,0h-0.028
		L149.439,129.076z"/>
	<path id="XMLID_1066_" d="M117.265,133.551c-0.01,0.002-0.021,0.002-0.031,0l-11.396-3.848c-0.05-0.017-0.077-0.07-0.061-0.12
		c0.018-0.049,0.07-0.076,0.12-0.061l11.396,3.848c0.048,0.018,0.074,0.071,0.058,0.12c-0.014,0.037-0.049,0.063-0.089,0.064
		L117.265,133.551z"/>
	<path id="XMLID_1065_" d="M176.715,42.109c-0.033,0-0.063-0.016-0.081-0.043c-3.203-4.293-7.105-8.016-11.543-11.015
		c-10.276-7.062-22.686-10.334-35.109-9.258c-0.05,0.007-0.096-0.027-0.103-0.077v-0.013c-0.004-0.054,0.036-0.1,0.09-0.105l0.001,0
		c12.472-1.083,24.932,2.205,35.246,9.301c4.454,3.012,8.369,6.751,11.583,11.062c0.03,0.043,0.02,0.102-0.023,0.132l-0.002,0.001
		l0,0c-0.016,0.011-0.035,0.017-0.054,0.017L176.715,42.109z"/>
	<path id="XMLID_1064_" d="M15.479,258.591h249.043c0.126,0,0.249-0.051,0.338-0.141c0.09-0.089,0.141-0.21,0.141-0.337
		c0-0.127-0.051-0.249-0.141-0.338c-0.089-0.09-0.212-0.139-0.338-0.139H15.479c-0.127,0-0.249,0.049-0.339,0.139
		c-0.09,0.089-0.14,0.21-0.14,0.338c0,0.126,0.05,0.248,0.14,0.337C15.23,258.54,15.352,258.591,15.479,258.591z"/>
	<path id="XMLID_8_" d="M39.271,153.968c-5.157,0.001-10.268-1.679-14.499-4.937c-0.079-0.061-0.123-0.156-0.117-0.256
		c1.432-24.461,5.348-39.815,8.382-48.386c0.24-0.674,0.58-1.306,1.013-1.88c2.337-3.096,6.756-3.714,9.851-1.374l16.362,12.355
		c2.199-1.064,9.289-6.937,20.041-16.604c0.551-0.488,1.353-0.578,1.994-0.222c0.405,0.224,0.699,0.594,0.827,1.039
		c0.128,0.446,0.074,0.915-0.15,1.32c0,0,0,0,0,0.001c-13.261,23.783-22.056,24.127-22.53,24.127
		c-0.054-0.007-0.067-0.005-0.099-0.015l-11.104-3.613c0.31,11.557,0.236,23.723-0.221,36.167c-0.005,0.115-0.074,0.218-0.18,0.264
		C45.771,153.305,42.512,153.968,39.271,153.968z M25.265,148.65c6.649,5.051,15.494,6.129,23.162,2.829
		c0.457-12.519,0.524-24.753,0.202-36.366c-0.002-0.097,0.042-0.19,0.121-0.249c0.079-0.06,0.178-0.077,0.272-0.045l11.459,3.728
		c0.652-0.043,9.292-1.083,21.967-23.816l0.263,0.147l-0.263-0.147c0.147-0.265,0.182-0.572,0.099-0.863
		c-0.083-0.291-0.276-0.532-0.54-0.679c-0.42-0.232-0.943-0.175-1.302,0.144c-7.828,7.038-17.717,15.665-20.364,16.78
		c-0.097,0.04-0.21,0.028-0.297-0.038L43.54,97.614c-1.373-1.036-3.066-1.476-4.765-1.238c-1.703,0.237-3.21,1.124-4.246,2.494
		c-0.396,0.526-0.707,1.104-0.926,1.719C30.59,109.105,26.7,124.352,25.265,148.65z"/>
	<path id="XMLID_1063_" d="M38.819,245.693c-0.016,0-0.034-0.001-0.052-0.005c-0.163-0.028-0.272-0.183-0.244-0.348
		c5.325-30.864,8.656-62.381,9.898-93.675c0.007-0.166,0.166-0.268,0.312-0.289c0.166,0.007,0.295,0.147,0.289,0.312
		c-1.245,31.32-4.577,62.864-9.908,93.755C39.09,245.589,38.963,245.693,38.819,245.693z"/>
	<g id="XMLID_153_">
		<path id="XMLID_10_" d="M34.593,257.951c-1.303,0-2.458-0.965-2.662-2.277c-6.585-40.813-9.031-76.78-7.268-106.9
			c0.007-0.112,0.074-0.21,0.176-0.256c0.101-0.046,0.22-0.033,0.308,0.035c4.486,3.454,10.085,5.132,15.731,4.748
			c2.665-0.207,5.265-0.847,7.725-1.901c0.009-0.005,0.019-0.008,0.028-0.011c0.076-0.026,0.153-0.02,0.222,0.014
			c0.083,0.039,0.144,0.115,0.164,0.204l10.099,43.715c0.012,0.05,0.011,0.102-0.004,0.151l-15.047,52.223
			c-0.228,0.733-0.723,1.328-1.397,1.681c-0.674,0.355-1.445,0.424-2.171,0.198c-0.856-0.265-1.516-0.906-1.82-1.71
			c-0.46,2.648-0.923,5.257-1.41,7.854c0,0.011-0.001,0.02-0.002,0.031c-0.183,1.108-1.054,1.974-2.17,2.151
			c0.012,0.001-0.028,0.018-0.079,0.025c-0.046,0.007-0.095,0.008-0.143,0.009c-0.002,0-0.075,0.004-0.077,0.004
			C34.728,257.948,34.661,257.951,34.593,257.951z M25.231,149.37c-1.698,29.962,0.756,65.69,7.294,106.21
			c0.167,1.073,1.165,1.839,2.238,1.762c0.014-0.001,0.026-0.002,0.036-0.001l0.059-0.002c0.001-0.001,0.075-0.005,0.076-0.006
			c-0.006-0.004,0.02-0.012,0.047-0.019c0.867-0.139,1.532-0.788,1.684-1.625c0.001-0.013,0.002-0.027,0.005-0.04
			c0.626-3.331,1.209-6.683,1.802-10.111c0.026-0.151,0.159-0.278,0.318-0.248c0.155,0.012,0.275,0.139,0.278,0.294l0.027,1.319
			c0.019,0.97,0.654,1.815,1.58,2.102c0.574,0.18,1.181,0.124,1.713-0.156c0.532-0.279,0.923-0.749,1.101-1.322l15.023-52.142
			l-10.003-43.296c-2.396,0.996-4.962,1.61-7.589,1.812C35.301,154.292,29.754,152.685,25.231,149.37z"/>
	</g>
	<g id="XMLID_152_">
		<path id="XMLID_987_" d="M26.797,129.739c-0.013,0-0.027-0.001-0.04-0.002c-0.151-0.021-0.261-0.15-0.261-0.298
			c0-0.013,0.001-0.027,0.002-0.04c0.108-0.805,0.22-1.605,0.333-2.381c0.022-0.163,0.176-0.281,0.341-0.254
			c0.15,0.021,0.257,0.15,0.257,0.297c0,0.014-0.001,0.029-0.004,0.043c-0.114,0.774-0.223,1.571-0.331,2.374
			C27.074,129.63,26.946,129.739,26.797,129.739z"/>
	</g>
	<g id="XMLID_151_">
		<path id="XMLID_986_" d="M26.672,130.643c-0.013,0-0.026-0.001-0.039-0.002c-0.151-0.02-0.262-0.149-0.262-0.298
			c0-0.013,0.001-0.026,0.002-0.039l0.124-0.905c0.023-0.164,0.183-0.272,0.338-0.258c0.151,0.021,0.261,0.149,0.261,0.297
			c0,0.014-0.001,0.028-0.002,0.041l-0.124,0.903C26.95,130.533,26.821,130.643,26.672,130.643z"/>
	</g>
	<g id="XMLID_150_">
		<path id="XMLID_985_" d="M27.129,127.361c-0.014,0-0.029-0.001-0.043-0.004c-0.149-0.021-0.257-0.15-0.257-0.297
			c0-0.014,0.001-0.029,0.004-0.043l0.159-1.041c0.025-0.163,0.166-0.284,0.342-0.252c0.149,0.022,0.256,0.15,0.256,0.296
			c0,0.015-0.001,0.031-0.004,0.046l-0.159,1.039C27.405,127.253,27.276,127.361,27.129,127.361z"/>
	</g>
	<g id="XMLID_149_">
		<path id="XMLID_984_" d="M27.614,124.237c-0.015,0-0.032-0.001-0.048-0.004c-0.163-0.027-0.275-0.181-0.249-0.345l0.177-1.058
			c0.026-0.163,0.186-0.282,0.345-0.247c0.148,0.023,0.251,0.151,0.251,0.296c0,0.016-0.001,0.033-0.005,0.049l-0.175,1.056
			C27.886,124.132,27.759,124.237,27.614,124.237z"/>
	</g>
	<g id="XMLID_148_">
		<path id="XMLID_983_" d="M26.298,133.672c-0.012,0-0.023-0.001-0.035-0.002c-0.153-0.018-0.265-0.148-0.265-0.298
			c0-0.012,0.001-0.023,0.002-0.035c0.121-1.031,0.245-2.045,0.375-3.033c0.021-0.164,0.17-0.274,0.337-0.259
			c0.151,0.02,0.262,0.149,0.262,0.298c0,0.013-0.001,0.026-0.002,0.039c-0.129,0.985-0.254,1.997-0.375,3.026
			C26.578,133.56,26.448,133.672,26.298,133.672z"/>
	</g>
	<g id="XMLID_147_">
		<path id="XMLID_982_" d="M27.287,126.321c-0.014,0-0.029-0.001-0.045-0.004c-0.149-0.022-0.256-0.15-0.256-0.296
			c0-0.015,0.001-0.031,0.004-0.046c0.107-0.706,0.215-1.407,0.326-2.088c0.027-0.163,0.175-0.272,0.345-0.249
			c0.164,0.027,0.275,0.182,0.249,0.345l0,0l0,0c-0.001,0.002-0.001,0.005-0.001,0.007c-0.109,0.663-0.215,1.344-0.318,2.031
			c-0.002,0.014-0.005,0.028-0.007,0.042C27.562,126.214,27.434,126.321,27.287,126.321z"/>
	</g>
	<g id="XMLID_146_">
		<path id="XMLID_981_" d="M25.182,145.628c-0.007,0-0.014,0-0.021-0.001c-0.159-0.011-0.279-0.143-0.279-0.299
			c0-0.007,0-0.014,0.001-0.021c0.077-1.098,0.162-2.17,0.249-3.229c0.014-0.166,0.161-0.294,0.324-0.275
			c0.157,0.013,0.276,0.144,0.276,0.299c0,0.008,0,0.016-0.001,0.025c-0.087,1.057-0.171,2.126-0.249,3.222
			C25.471,145.507,25.338,145.628,25.182,145.628z"/>
	</g>
	<g id="XMLID_145_">
		<path id="XMLID_980_" d="M24.962,149.092c-0.031,0-0.061-0.005-0.089-0.014c-0.041-0.012-0.08-0.032-0.113-0.06
			c-0.069-0.061-0.11-0.151-0.106-0.244c0.033-0.552,0.069-1.088,0.106-1.626l0.046-0.673l0,0c0.011-0.164,0.132-0.314,0.319-0.279
			c0.166,0.011,0.291,0.154,0.279,0.319l0,0c-0.05,0.755-0.096,1.522-0.142,2.294C25.254,148.967,25.122,149.092,24.962,149.092z"/>
	</g>
	<g id="XMLID_144_">
		<path id="XMLID_979_" d="M25.431,142.402c-0.008,0-0.015,0-0.023-0.001c-0.157-0.012-0.277-0.144-0.277-0.299
			c0-0.008,0-0.015,0.001-0.023l0.06-0.762c0.014-0.164,0.136-0.29,0.325-0.274c0.156,0.013,0.275,0.144,0.275,0.299
			c0,0.008,0,0.016-0.001,0.026l-0.06,0.757C25.719,142.283,25.586,142.402,25.431,142.402z"/>
	</g>
	<g id="XMLID_143_">
		<path id="XMLID_978_" d="M25.106,146.795c-0.006,0-0.013,0-0.02-0.001c-0.159-0.011-0.281-0.142-0.281-0.299
			c0-0.006,0-0.013,0.001-0.02l0.076-1.168c0.011-0.166,0.156-0.302,0.321-0.278c0.159,0.011,0.279,0.143,0.279,0.299
			c0,0.007,0,0.014-0.001,0.021l-0.076,1.166C25.395,146.673,25.263,146.795,25.106,146.795z"/>
	</g>
	<g id="XMLID_142_">
		<path id="XMLID_977_" d="M26.246,134.094c-0.011,0-0.022-0.001-0.034-0.002c-0.154-0.018-0.267-0.147-0.267-0.298
			c0-0.011,0.001-0.022,0.002-0.034l0.052-0.424c0.02-0.164,0.175-0.282,0.335-0.262c0.153,0.019,0.264,0.148,0.264,0.298
			c0,0.012-0.001,0.025-0.002,0.036l-0.052,0.419C26.526,133.981,26.397,134.094,26.246,134.094z"/>
	</g>
	<g id="XMLID_141_">
		<path id="XMLID_976_" d="M25.491,141.643c-0.008,0-0.016,0-0.026-0.001c-0.156-0.013-0.275-0.144-0.275-0.299
			c0-0.008,0-0.016,0.001-0.026c0.218-2.562,0.472-5.105,0.756-7.557c0.019-0.166,0.17-0.284,0.332-0.264
			c0.154,0.018,0.267,0.148,0.267,0.298c0,0.012-0.001,0.023-0.002,0.034c-0.283,2.447-0.537,4.983-0.754,7.54
			C25.777,141.524,25.646,141.643,25.491,141.643z"/>
	</g>
	<g id="XMLID_140_">
		<path id="XMLID_975_" d="M27.79,123.18c-0.016,0-0.033-0.001-0.05-0.005c-0.147-0.025-0.25-0.151-0.25-0.296
			c0-0.016,0.001-0.033,0.005-0.05c0.109-0.645,0.218-1.282,0.33-1.905c0.029-0.163,0.187-0.276,0.349-0.243
			c0.146,0.026,0.248,0.153,0.248,0.296c0,0.018-0.001,0.035-0.005,0.053c-0.112,0.62-0.221,1.258-0.33,1.9
			C28.061,123.077,27.934,123.18,27.79,123.18z"/>
	</g>
	<g id="XMLID_139_">
		<path id="XMLID_974_" d="M29.943,112.469c-0.022,0-0.046-0.002-0.069-0.008c-0.162-0.038-0.262-0.2-0.223-0.362l0,0l0,0
			c0-0.001,0-0.001,0-0.001c0.123-0.522,0.248-1.026,0.372-1.524c0.04-0.16,0.198-0.265,0.364-0.218
			c0.136,0.034,0.228,0.156,0.228,0.291c0,0.023-0.002,0.048-0.009,0.073c-0.123,0.495-0.247,0.997-0.369,1.515
			c0,0.001-0.001,0.002-0.001,0.004l0,0C30.203,112.377,30.08,112.469,29.943,112.469z"/>
	</g>
	<g id="XMLID_138_">
		<path id="XMLID_973_" d="M30.891,108.717c-0.025,0-0.05-0.004-0.076-0.009c-0.135-0.036-0.224-0.157-0.224-0.291
			c0-0.025,0.004-0.05,0.009-0.076l0.171-0.645c0.043-0.16,0.21-0.254,0.369-0.211c0.134,0.036,0.222,0.157,0.222,0.29
			c0,0.026-0.004,0.053-0.011,0.079l-0.169,0.64C31.146,108.627,31.025,108.717,30.891,108.717z"/>
	</g>
	<g id="XMLID_137_">
		<path id="XMLID_972_" d="M30.502,110.196c-0.025,0-0.049-0.004-0.074-0.009c-0.136-0.034-0.227-0.156-0.227-0.291
			c0-0.025,0.004-0.049,0.009-0.074c0.129-0.51,0.258-0.998,0.39-1.484c0.045-0.16,0.204-0.255,0.369-0.211
			c0.134,0.036,0.222,0.157,0.222,0.29c0,0.026-0.004,0.052-0.011,0.079c-0.13,0.481-0.258,0.968-0.387,1.475
			C30.759,110.106,30.636,110.196,30.502,110.196z"/>
	</g>
	<g id="XMLID_136_">
		<path id="XMLID_967_" d="M31.061,108.074c-0.026,0-0.053-0.004-0.08-0.011c-0.134-0.036-0.221-0.159-0.221-0.29
			c0-0.026,0.004-0.053,0.011-0.08c0.143-0.523,0.286-1.023,0.427-1.516c0.046-0.161,0.211-0.257,0.371-0.207
			c0.133,0.038,0.218,0.159,0.218,0.289c0,0.027-0.004,0.055-0.012,0.082c-0.141,0.493-0.282,0.991-0.425,1.511
			C31.315,107.986,31.194,108.074,31.061,108.074z"/>
	</g>
	<g id="XMLID_135_">
		<path id="XMLID_966_" d="M28.12,121.278c-0.018,0-0.035-0.001-0.054-0.005c-0.144-0.027-0.247-0.153-0.247-0.296
			c0-0.018,0.001-0.035,0.005-0.054l0.19-1.037c0.031-0.162,0.177-0.274,0.351-0.241c0.144,0.027,0.245,0.154,0.245,0.296
			c0,0.018-0.001,0.036-0.005,0.055l-0.19,1.034C28.389,121.176,28.263,121.278,28.12,121.278z"/>
	</g>
	<g id="XMLID_134_">
		<path id="XMLID_965_" d="M31.618,106.103c-0.028,0-0.056-0.004-0.085-0.012c-0.13-0.039-0.216-0.159-0.216-0.289
			c0-0.027,0.004-0.056,0.012-0.085c0.187-0.635,0.371-1.25,0.554-1.838c0.049-0.159,0.218-0.248,0.376-0.197
			c0.129,0.04,0.211,0.159,0.211,0.286c0,0.029-0.005,0.06-0.014,0.089c-0.181,0.585-0.365,1.195-0.55,1.828
			C31.868,106.018,31.748,106.103,31.618,106.103z"/>
	</g>
	<g id="XMLID_133_">
		<path id="XMLID_964_" d="M30.314,110.948c-0.023,0-0.048-0.002-0.073-0.009c-0.136-0.033-0.228-0.156-0.228-0.291
			c0-0.023,0.002-0.048,0.009-0.073l0.188-0.754c0.042-0.161,0.209-0.254,0.366-0.216c0.161,0.042,0.257,0.205,0.216,0.366
			l-0.188,0.749C30.573,110.856,30.449,110.948,30.314,110.948z"/>
	</g>
	<g id="XMLID_132_">
		<path id="XMLID_963_" d="M31.487,106.561c-0.027,0-0.055-0.004-0.083-0.012c-0.132-0.038-0.217-0.159-0.217-0.288
			c0-0.028,0.004-0.056,0.012-0.085l0.13-0.457c0.046-0.16,0.213-0.257,0.371-0.207c0.133,0.038,0.218,0.157,0.218,0.288
			c0,0.028-0.004,0.056-0.012,0.083l-0.13,0.459C31.739,106.475,31.618,106.561,31.487,106.561z"/>
	</g>
	<g id="XMLID_131_">
		<path id="XMLID_962_" d="M28.648,118.465c-0.019,0-0.039-0.002-0.059-0.006c-0.142-0.028-0.242-0.154-0.242-0.294
			c0-0.02,0.002-0.04,0.006-0.06c0.065-0.328,0.129-0.654,0.195-0.975c0.034-0.164,0.196-0.262,0.355-0.235
			c0.163,0.034,0.268,0.193,0.235,0.355l0,0c0,0.001,0,0.001,0,0.002l-0.195,0.97C28.915,118.366,28.789,118.465,28.648,118.465z"/>
	</g>
	<g id="XMLID_130_">
		<path id="XMLID_961_" d="M28.31,120.242c-0.018,0-0.036-0.001-0.055-0.005c-0.163-0.031-0.27-0.188-0.241-0.351l0,0l0,0
			c0.001-0.005,0.002-0.011,0.004-0.015c0.107-0.58,0.215-1.151,0.325-1.71c0.004-0.019,0.007-0.038,0.011-0.055
			c0.032-0.163,0.193-0.268,0.352-0.237c0.143,0.028,0.243,0.154,0.243,0.295c0,0.019-0.002,0.039-0.006,0.058
			c-0.114,0.58-0.225,1.174-0.337,1.775C28.579,120.141,28.452,120.242,28.31,120.242z"/>
	</g>
	<g id="XMLID_129_">
		<path id="XMLID_960_" d="M28.843,117.491c-0.019,0-0.039-0.002-0.06-0.006c-0.162-0.033-0.268-0.191-0.235-0.355l0,0l0,0l0,0
			c0.112-0.555,0.225-1.099,0.339-1.634c0.004-0.016,0.007-0.033,0.011-0.048c0.034-0.162,0.19-0.267,0.356-0.231
			c0.142,0.029,0.238,0.154,0.238,0.294c0,0.02-0.002,0.041-0.007,0.062c0,0.005-0.001,0.009-0.002,0.014
			c-0.116,0.544-0.231,1.098-0.345,1.664C29.108,117.393,28.984,117.491,28.843,117.491z"/>
	</g>
	<g id="XMLID_128_">
		<path id="XMLID_959_" d="M29.192,115.811c-0.021,0-0.042-0.002-0.063-0.007c-0.141-0.029-0.237-0.155-0.237-0.294
			c0-0.021,0.002-0.042,0.007-0.063l0.197-0.913c0.035-0.161,0.193-0.262,0.358-0.229c0.14,0.031,0.236,0.155,0.236,0.294
			c0,0.021-0.002,0.042-0.007,0.065l-0.197,0.911C29.456,115.715,29.33,115.811,29.192,115.811z"/>
	</g>
	<g id="XMLID_127_">
		<path id="XMLID_958_" d="M29.748,113.309c-0.022,0-0.045-0.002-0.067-0.007c-0.162-0.038-0.263-0.198-0.227-0.36l0.294,0.067
			l-0.292-0.067l0.015-0.068c0.06-0.261,0.119-0.521,0.18-0.775c0.039-0.161,0.205-0.258,0.363-0.222
			c0.137,0.033,0.23,0.156,0.23,0.291c0,0.023-0.002,0.047-0.008,0.072l-0.195,0.836C30.009,113.215,29.886,113.309,29.748,113.309z
			"/>
	</g>
	<g id="XMLID_126_">
		<path id="XMLID_957_" d="M29.389,114.899c-0.021,0-0.042-0.002-0.065-0.007c-0.141-0.031-0.236-0.155-0.236-0.294
			c0-0.021,0.002-0.042,0.007-0.065c0.119-0.542,0.238-1.072,0.36-1.593c0.038-0.161,0.193-0.265,0.36-0.224
			c0.139,0.032,0.232,0.156,0.232,0.292c0,0.022-0.002,0.046-0.008,0.068c-0.12,0.519-0.24,1.046-0.358,1.586
			C29.652,114.802,29.528,114.899,29.389,114.899z"/>
	</g>
	<path id="XMLID_9_" d="M209.223,258.604c-0.041,0-0.083-0.001-0.126-0.004c-0.51-0.033-0.975-0.263-1.31-0.646
		c-1.363-1.565-2.783-3.244-4.22-4.991c-0.008-0.008-0.016-0.016-0.023-0.026c-0.004-0.004-0.05-0.063-0.054-0.067
		c-9.072-11.05-25.107-32.674-30.856-53.71c-0.034-0.124,0.015-0.257,0.123-0.329c0.045-0.029,4.532-3.022,10.577-6.299
		c3.147-1.706,6.669-3.533,10.398-5.467c5.615-2.912,11.422-5.924,16.083-8.607c0.061-0.033,0.127-0.05,0.201-0.035
		c0.069,0.012,7.031,1.214,12.734,4.557c1.347,0.722,2.584,1.624,3.67,2.676c1.255,1.158,2.225,2.411,2.88,3.717
		c0.005,0.011,0.009,0.021,0.014,0.031l1.254,2.34c0.053,0.1,0.046,0.222-0.019,0.315c-0.825,1.179-2.293,1.765-3.714,2.33
		c-0.811,0.324-1.65,0.658-2.326,1.092c-4.939,3.183-12.786,5.906-28.896,10.02c1.006,3.032,8.517,25.733,13.597,43.85
		c0.005,0.016,0.008,0.032,0.009,0.048c0.702,2.5,1.324,4.795,1.85,6.822c0.18,0.701-0.047,1.431-0.589,1.908
		C210.129,258.438,209.687,258.604,209.223,258.604z M203.917,252.479c0.035,0.018,0.066,0.042,0.092,0.073
		c1.441,1.754,2.865,3.438,4.231,5.007c0.23,0.262,0.548,0.419,0.897,0.441c0.346,0.028,0.685-0.09,0.948-0.322
		c0.372-0.328,0.527-0.828,0.404-1.308c-0.528-2.034-1.154-4.34-1.859-6.855c-0.005-0.016-0.008-0.032-0.009-0.048
		c-5.335-19.018-13.341-43.067-13.679-44.083c-0.026-0.079-0.019-0.166,0.021-0.24c0.04-0.073,0.109-0.127,0.19-0.147
		c16.253-4.141,24.121-6.857,29.032-10.023c0.726-0.466,1.591-0.811,2.429-1.145c1.332-0.531,2.594-1.033,3.335-1.97l-1.181-2.203
		c-0.007-0.013-0.013-0.026-0.018-0.04c-0.621-1.233-1.544-2.419-2.743-3.525c-1.051-1.018-2.244-1.887-3.551-2.588
		c-5.238-3.07-11.549-4.308-12.436-4.471c-4.657,2.676-10.429,5.669-16.012,8.566c-3.726,1.933-7.246,3.758-10.388,5.461
		c-5.338,2.894-9.456,5.564-10.349,6.151c5.769,20.861,21.673,42.301,30.659,53.245L203.917,252.479z"/>
	<path id="XMLID_956_" class="st1" d="M218.683,206.112h-25.73c-2.966,0-5.371-2.405-5.371-5.371c0-2.966,2.405-5.371,5.371-5.371
		h25.73c5.585-0.009,10.474-3.75,11.943-9.138l11.713-42.16c0.793-2.858,3.754-4.532,6.612-3.738l0.001,0l0,0
		c2.858,0.794,4.532,3.754,3.738,6.612c0,0,0,0.001,0,0.001l0,0l-11.708,42.133c-2.754,10.048-11.88,17.018-22.299,17.03
		L218.683,206.112z"/>
	<path id="XMLID_955_" d="M236.475,184.419l11.705-42.129c0.185-0.668,0.237-1.366,0.155-2.055
		c-2.686-0.427-5.265,1.228-5.996,3.848l-11.713,42.16c-1.469,5.388-6.358,9.129-11.943,9.138h-25.73
		c-2.966-0.001-5.37,2.403-5.371,5.368c0,0,0,0.001,0,0.001l0,0c0.008,0.21,0.029,0.419,0.063,0.626
		c0.264,0.047,0.532,0.074,0.801,0.081h25.73c10.418-0.012,19.545-6.982,22.299-17.03L236.475,184.419z"/>
	<path id="XMLID_954_" class="st0" d="M200.372,201.458h-4.763l5.504-16.72c1.885-5.779,7.278-9.686,13.357-9.676h31.99
		c1.244,0,2.252,1.008,2.252,2.252c0,1.244-1.008,2.252-2.252,2.252h-31.99c-4.13-0.006-7.795,2.648-9.077,6.574L200.372,201.458"/>
	<path id="XMLID_953_" d="M246.461,175.067h-31.99c-6.079-0.009-11.472,3.898-13.357,9.676l-0.317,0.969
		c1.038-2.271,2.671-4.219,4.726-5.637c2.714-1.837,5.926-2.798,9.203-2.751h33.988c-0.001-1.243-1.009-2.251-2.252-2.252
		L246.461,175.067z"/>
</g>
</svg>
