<?xml version="1.0" encoding="utf-8"?>
<!-- Generator: Adobe Illustrator 19.0.0, SVG Export Plug-In . SVG Version: 6.00 Build 0)  -->
<svg version="1.1" id="Layer_1" xmlns="http://www.w3.org/2000/svg" xmlns:xlink="http://www.w3.org/1999/xlink" x="0px" y="0px"
	 viewBox="0 0 280 280" style="enable-background:new 0 0 280 280;" xml:space="preserve">
<style type="text/css">
	.st0{fill:#F26052;}
	.st1{fill:#FFFFFF;}
	.st2{fill:#EF4941;}
	.st3{fill:#D1D3D4;}
	.st4{fill:#1B44AA;}
	.st5{fill:#0C378E;}
	.st6{fill:#A3C4F3;}
	.st7{fill:#79B1F2;}
	.st8{fill:#011721;}
	.st9{clip-path:url(#XMLID_2_);fill:#FAFAFF;}
	.st10{clip-path:url(#XMLID_2_);fill:#F9FAFF;}
	.st11{clip-path:url(#XMLID_2_);fill:#F8FAFE;}
	.st12{clip-path:url(#XMLID_2_);fill:#F7FAFE;}
	.st13{clip-path:url(#XMLID_2_);fill:#F6F9FE;}
	.st14{clip-path:url(#XMLID_2_);fill:#F5F9FE;}
	.st15{clip-path:url(#XMLID_2_);fill:#F4F9FD;}
	.st16{clip-path:url(#XMLID_2_);fill:#F3F9FD;}
	.st17{clip-path:url(#XMLID_2_);fill:#F2F9FD;}
	.st18{clip-path:url(#XMLID_2_);fill:#F1F9FC;}
	.st19{clip-path:url(#XMLID_2_);fill:#F0F9FC;}
	.st20{clip-path:url(#XMLID_2_);fill:#EEF8FC;}
	.st21{clip-path:url(#XMLID_2_);fill:#EDF8FB;}
	.st22{clip-path:url(#XMLID_2_);fill:#ECF8FB;}
	.st23{clip-path:url(#XMLID_2_);fill:#EBF8FB;}
	.st24{clip-path:url(#XMLID_2_);fill:#EAF8FB;}
	.st25{clip-path:url(#XMLID_2_);fill:#E9F8FA;}
	.st26{clip-path:url(#XMLID_2_);fill:#E8F7FA;}
	.st27{clip-path:url(#XMLID_2_);fill:#E7F7FA;}
	.st28{clip-path:url(#XMLID_2_);fill:#E6F7F9;}
	.st29{clip-path:url(#XMLID_2_);fill:#E5F7F9;}
	.st30{clip-path:url(#XMLID_3_);fill:#FAFAFF;}
	.st31{clip-path:url(#XMLID_3_);fill:#F9FAFF;}
	.st32{clip-path:url(#XMLID_3_);fill:#F8FAFE;}
	.st33{clip-path:url(#XMLID_3_);fill:#F7FAFE;}
	.st34{clip-path:url(#XMLID_3_);fill:#F6F9FE;}
	.st35{clip-path:url(#XMLID_3_);fill:#F5F9FE;}
	.st36{clip-path:url(#XMLID_3_);fill:#F4F9FD;}
	.st37{clip-path:url(#XMLID_3_);fill:#F3F9FD;}
	.st38{clip-path:url(#XMLID_3_);fill:#F2F9FD;}
	.st39{clip-path:url(#XMLID_3_);fill:#F1F9FC;}
	.st40{clip-path:url(#XMLID_3_);fill:#F0F9FC;}
	.st41{clip-path:url(#XMLID_3_);fill:#EEF8FC;}
	.st42{clip-path:url(#XMLID_3_);fill:#EDF8FB;}
	.st43{clip-path:url(#XMLID_3_);fill:#ECF8FB;}
	.st44{clip-path:url(#XMLID_3_);fill:#EBF8FB;}
	.st45{clip-path:url(#XMLID_3_);fill:#EAF8FB;}
	.st46{clip-path:url(#XMLID_3_);fill:#E9F8FA;}
	.st47{clip-path:url(#XMLID_3_);fill:#E8F7FA;}
	.st48{clip-path:url(#XMLID_3_);fill:#E7F7FA;}
	.st49{clip-path:url(#XMLID_3_);fill:#E6F7F9;}
	.st50{clip-path:url(#XMLID_3_);fill:#E5F7F9;}
	.st51{clip-path:url(#XMLID_4_);fill:#FAFAFF;}
	.st52{clip-path:url(#XMLID_4_);fill:#F9FAFF;}
	.st53{clip-path:url(#XMLID_4_);fill:#F8FAFE;}
	.st54{clip-path:url(#XMLID_4_);fill:#F7FAFE;}
	.st55{clip-path:url(#XMLID_4_);fill:#F6F9FE;}
	.st56{clip-path:url(#XMLID_4_);fill:#F5F9FE;}
	.st57{clip-path:url(#XMLID_4_);fill:#F4F9FD;}
	.st58{clip-path:url(#XMLID_4_);fill:#F3F9FD;}
	.st59{clip-path:url(#XMLID_4_);fill:#F2F9FD;}
	.st60{clip-path:url(#XMLID_4_);fill:#F1F9FC;}
	.st61{clip-path:url(#XMLID_4_);fill:#F0F9FC;}
	.st62{clip-path:url(#XMLID_4_);fill:#EEF8FC;}
	.st63{clip-path:url(#XMLID_4_);fill:#EDF8FB;}
	.st64{clip-path:url(#XMLID_4_);fill:#ECF8FB;}
	.st65{clip-path:url(#XMLID_4_);fill:#EBF8FB;}
	.st66{clip-path:url(#XMLID_4_);fill:#EAF8FB;}
	.st67{clip-path:url(#XMLID_4_);fill:#E9F8FA;}
	.st68{clip-path:url(#XMLID_4_);fill:#E8F7FA;}
	.st69{clip-path:url(#XMLID_4_);fill:#E7F7FA;}
	.st70{clip-path:url(#XMLID_4_);fill:#E6F7F9;}
	.st71{clip-path:url(#XMLID_4_);fill:#E5F7F9;}
</style>
<g id="XMLID_880_">
	<g id="XMLID_404_">
		<rect id="XMLID_1291_" x="46.471" y="127.938" width="2.869" height="104.784"/>
	</g>
	<g id="XMLID_403_">
		<rect id="XMLID_1290_" x="178.891" y="127.938" width="2.869" height="104.784"/>
	</g>
	<g id="XMLID_402_">
		<path id="XMLID_1289_" d="M27.141,126.593h170.99c0.523,0,0.946,0.424,0.946,0.946v0.798c0,0.523-0.424,0.946-0.946,0.946H27.141
			c-0.523,0-0.946-0.424-0.946-0.946v-0.798C26.195,127.017,26.619,126.593,27.141,126.593z"/>
	</g>
	<path id="XMLID_1288_" class="st0" d="M158.559,117.915l-20.475,2.041c-1.297,0.127-2.245,1.282-2.118,2.579
		c0.101,1.034,0.867,1.88,1.885,2.084c7.763,1.386,15.643,2.013,23.528,1.87l9.855-2.419l-12.674-6.151L158.559,117.915z"/>
	<path id="XMLID_1287_" class="st1" d="M147.834,125.968c-3.314-2.13-1.544-6.831-1.544-6.831l0,0l-8.207,0.817
		c-1.296,0.105-2.261,1.24-2.157,2.536c0.086,1.062,0.875,1.935,1.923,2.126c3.299,0.64,6.632,1.091,9.982,1.352L147.834,125.968z"
		/>
	<path id="XMLID_1286_" d="M136.113,123.161c0.275,0.763,0.939,1.32,1.739,1.457c7.763,1.386,15.643,2.013,23.527,1.87l9.653-2.37
		l-0.293-0.289l-2.479-1.203l-8.391,0.502c-5.513,0.81-20.298,0.194-23.757,0.035L136.113,123.161z"/>
	<path id="XMLID_1285_" class="st2" d="M136.113,123.161c0.275,0.763,0.939,1.32,1.739,1.457c7.763,1.386,15.643,2.013,23.527,1.87
		l9.653-2.37l-0.293-0.289l-2.479-1.203l-8.391,0.502c-5.513,0.81-20.298,0.194-23.757,0.035L136.113,123.161z"/>
	<path id="XMLID_1284_" class="st3" d="M137.851,124.616c3.299,0.64,6.632,1.091,9.982,1.352c-0.896-0.568-1.544-1.455-1.81-2.482
		c-4.362-0.084-8.325-0.252-9.911-0.325c0.275,0.763,0.939,1.32,1.739,1.457L137.851,124.616z"/>
	<path id="XMLID_1815_" d="M159.137,126.782c-7.168,0-14.319-0.636-21.335-1.888c-1.153-0.23-2-1.167-2.115-2.332
		c-0.069-0.702,0.14-1.389,0.588-1.933c0.448-0.545,1.081-0.883,1.782-0.952l20.476-2.041c0.065-0.007,0.131,0.011,0.185,0.047
		l12.639,6.134c0.106,0.051,0.169,0.164,0.157,0.281c-0.013,0.117-0.097,0.215-0.212,0.243l-9.855,2.419
		C160.676,126.775,159.906,126.782,159.137,126.782z M158.503,118.202l-20.391,2.033c-1.141,0.112-1.978,1.131-1.867,2.273
		c0.09,0.917,0.758,1.655,1.661,1.836c7.729,1.379,15.632,2.009,23.468,1.864l9.04-2.226L158.503,118.202z"/>
	<path id="XMLID_1283_" d="M183.727,84.063l-2.838-4.562l10.376-5.62c1.9-0.701,4.02,0.178,4.866,2.018
		c0.986,1.974,2.354,5.625,2.922,12.899l-10.573-1.3l-4.753-3.436L183.727,84.063z"/>
	<path id="XMLID_1282_" class="st1" d="M183.73,89.882l4.963,2.7l2.624-2.23c0.416-0.274,0.973-0.179,1.273,0.217
		c0.355,0.409,0.358,1.015,0.007,1.427c0,0,4.33-3.308,6.653-3.16c-1.016-0.348-1.996-0.791-2.929-1.323
		c-3.323-1.481-1.499-5.318-3.546-5.981c-0.64-0.207-0.958,2.377-2.769,2.161c-1.457-0.172-6.278-1.653-6.278-1.653v7.84
		L183.73,89.882z"/>
	<path id="XMLID_1281_" class="st3" d="M192.598,91.997c0.628-0.622,1.302-1.195,2.018-1.713l0,0l-1.13-0.651
		c-0.462-0.284-1.054-0.238-1.467,0.112l-0.695,0.605c0.415-0.274,0.973-0.179,1.273,0.217c0.355,0.409,0.358,1.015,0.007,1.427
		L192.598,91.997z"/>
	<path id="XMLID_1809_" d="M188.693,92.862c-0.046,0-0.092-0.011-0.134-0.034l-4.963-2.701c-0.091-0.049-0.147-0.143-0.147-0.246
		l-0.001-7.839c0-0.089,0.043-0.173,0.114-0.226c0.07-0.053,0.165-0.069,0.249-0.043c0.048,0.015,4.813,1.476,6.229,1.643
		c0.869,0.108,1.306-0.52,1.794-1.341c0.291-0.493,0.569-0.962,1.028-0.808c1.068,0.345,1.237,1.385,1.415,2.485
		c0.208,1.285,0.443,2.741,2.158,3.505c0.938,0.533,1.907,0.971,2.906,1.314c0.132,0.045,0.211,0.182,0.184,0.32
		c-0.027,0.137-0.154,0.262-0.292,0.224c-0.047-0.002-0.094-0.004-0.143-0.004c-2.228,0-6.282,3.076-6.323,3.108
		c-0.112,0.088-0.274,0.076-0.373-0.03c-0.099-0.104-0.103-0.265-0.01-0.374c0.264-0.309,0.262-0.755-0.004-1.062
		c-0.222-0.293-0.616-0.358-0.908-0.167l-2.597,2.209C188.823,92.839,188.758,92.862,188.693,92.862z M184.009,89.714l4.649,2.53
		l2.477-2.104c0.563-0.377,1.29-0.252,1.678,0.261c0.212,0.244,0.323,0.548,0.328,0.856c1.087-0.759,3.201-2.12,4.945-2.562
		c-0.655-0.274-1.292-0.587-1.905-0.937c-1.966-0.875-2.239-2.561-2.459-3.915c-0.181-1.118-0.327-1.814-1.035-2.042
		c-0.061,0.034-0.25,0.35-0.373,0.561c-0.417,0.703-1.048,1.775-2.342,1.611c-1.247-0.147-4.807-1.203-5.965-1.553V89.714z"/>
	<path id="XMLID_1280_" class="st0" d="M180.864,83.651c-5.839,5.289-14.862,16.41-23.133,36.208
		c-1.026,2.47,0.145,5.304,2.615,6.33c0.644,0.267,1.337,0.393,2.034,0.367c8.79-0.336,22.632-3.251,30.173-8.744l12.649,28.997
		c0,0,19.033,7.286,31.957-1.175c0,0-11.098-33.492-23.455-51.216c-3.668-5.365-10.527-7.53-16.61-5.241
		c-2.277,0.884-4.325,2.27-5.991,4.056l-18.094,20.208c0,0,6.982-17.251,11.123-27.508c0.423-1.048-0.084-2.24-1.131-2.663
		c-0.726-0.293-1.555-0.146-2.136,0.378L180.864,83.651z"/>
	<path id="XMLID_1279_" d="M173.009,113.442c0,0,6.982-17.251,11.124-27.507c0.362-0.848,0.094-1.833-0.648-2.381
		C183.485,83.554,172.901,108.837,173.009,113.442z"/>
	<path id="XMLID_1278_" class="st2" d="M173.009,113.442c0,0,6.982-17.251,11.124-27.507c0.362-0.848,0.094-1.833-0.648-2.381
		C183.485,83.554,172.901,108.837,173.009,113.442z"/>
	<path id="XMLID_1277_" class="st1" d="M181.446,92.582c0.955-2.362,1.875-4.64,2.69-6.648c0.423-1.048-0.084-2.24-1.131-2.663
		c-0.726-0.293-1.555-0.146-2.136,0.378c-1.63,1.493-3.17,3.081-4.612,4.756c0,0.024-0.033,4.635,5.194,4.175L181.446,92.582z"/>
	<path id="XMLID_1276_" class="st3" d="M179.845,92.548c0.53,0.073,1.068,0.085,1.601,0.035c0.955-2.362,1.875-4.64,2.69-6.648
		c0.362-0.848,0.094-1.833-0.648-2.381c0,0-1.65,3.944-3.639,8.994H179.845z"/>
	<path id="XMLID_1275_" d="M193.045,109.44c-4.726,12.161-29.952,16.748-31.661,17.045c0.33,0.059,0.665,0.084,1,0.074
		c8.79-0.336,22.632-3.251,30.173-8.744l12.649,28.997c0,0,0.267,0.101,0.742,0.262l17.208-6.847
		c-22.88-7.339-30.111-30.784-30.111-30.784V109.44z"/>
	<path id="XMLID_1274_" class="st2" d="M193.045,109.44c-4.726,12.161-29.952,16.748-31.661,17.045c0.33,0.059,0.665,0.084,1,0.074
		c8.79-0.336,22.632-3.251,30.173-8.744l12.649,28.997c0,0,0.267,0.101,0.742,0.262l17.208-6.847
		c-22.88-7.339-30.111-30.784-30.111-30.784V109.44z"/>
	<path id="XMLID_1799_" d="M221.717,149.98c-8.859,0-16.494-2.863-16.616-2.909c-0.07-0.026-0.126-0.081-0.157-0.15l-12.511-28.68
		c-7.326,5.168-20.594,8.233-30.044,8.596c-0.717,0.025-1.475-0.108-2.151-0.39c-2.609-1.083-3.85-4.087-2.766-6.695
		c8.932-21.383,18.356-31.914,23.188-36.294c0.004-0.007,0.01-0.011,0.016-0.016c0.656-0.592,1.608-0.761,2.429-0.43
		c1.189,0.481,1.766,1.839,1.285,3.028c-3.408,8.441-8.739,21.619-10.52,26.021l17.023-19.013c1.689-1.811,3.798-3.237,6.099-4.13
		c6.228-2.343,13.19-0.143,16.942,5.346c12.238,17.552,23.379,50.95,23.489,51.285c0.041,0.122-0.007,0.254-0.113,0.323
		C232.543,148.992,226.919,149.979,221.717,149.98z M205.411,146.588c1.557,0.564,19.263,6.71,31.413-1.071
		c-0.958-2.844-11.659-34.171-23.349-50.939c-3.605-5.277-10.297-7.393-16.281-5.139c-2.221,0.862-4.256,2.24-5.885,3.985
		l-18.089,20.204c-0.091,0.102-0.243,0.123-0.357,0.05c-0.116-0.072-0.163-0.217-0.112-0.343c0,0,6.981-17.251,11.122-27.508
		c0.363-0.902-0.074-1.933-0.977-2.299c-0.616-0.245-1.332-0.124-1.83,0.315c-0.004,0.005-0.01,0.01-0.014,0.014
		c-4.793,4.341-14.162,14.804-23.063,36.108c-0.467,1.125-0.469,2.366-0.003,3.491c0.465,1.126,1.342,2.004,2.468,2.472
		c0.602,0.25,1.261,0.373,1.916,0.346c9.488-0.363,22.846-3.466,30.017-8.691c0.07-0.049,0.155-0.066,0.239-0.044
		c0.082,0.022,0.15,0.08,0.184,0.159L205.411,146.588z"/>
	<path id="XMLID_1273_" class="st4" d="M162.317,159.864c0,0-24.164,32.957-48.926,68.534c-0.805,1.158-0.519,2.748,0.639,3.553
		c0.857,0.596,1.991,0.61,2.863,0.034c11.416-7.589,31.369-22.479,55.478-47.345l7.838-13.805l-17.891-10.973L162.317,159.864z"/>
	<path id="XMLID_1272_" class="st5" d="M172.37,184.638l7.838-13.805l-4.036-2.474l-13.856-8.495l-34.516,64.41l0,0
		C143.686,212.266,158.59,199.012,172.37,184.638z"/>
	<path id="XMLID_1271_" class="st1" d="M120.067,218.841c-2.211,3.15-4.438,6.336-6.681,9.558c-0.805,1.158-0.519,2.748,0.639,3.553
		c0.857,0.596,1.991,0.61,2.863,0.034c3.054-2.03,6.726-4.588,10.914-7.714c0,0-3.26-0.241-4.905-1.562
		C121.677,221.648,120.71,220.326,120.067,218.841z"/>
	<path id="XMLID_1270_" class="st3" d="M122.957,222.752l-9.266,8.92c0.844,0.878,2.201,1.013,3.2,0.316
		c3.054-2.03,6.726-4.588,10.914-7.714c-1.713-0.121-3.374-0.642-4.849-1.521L122.957,222.752z"/>
	<path id="XMLID_1792_" d="M115.486,232.69c-0.565,0-1.128-0.171-1.616-0.51c-0.622-0.431-1.037-1.079-1.171-1.824
		c-0.134-0.746,0.03-1.498,0.462-2.118c24.481-35.173,48.689-68.21,48.931-68.54c0.035-0.071,0.085-0.104,0.161-0.126
		c0.077-0.018,0.146,0.009,0.212,0.05l17.89,10.971c0.073,0.045,0.122,0.12,0.131,0.206c0,0.002,0.001,0.004,0.001,0.007
		c0.005,0.058-0.005,0.116-0.034,0.166l-7.838,13.804c-0.012,0.021-0.026,0.04-0.043,0.057l-0.596,0.606
		c-7.052,7.323-14.527,14.471-22.214,21.243c-7.328,6.495-14.628,12.463-21.694,17.738l-0.1,0.078
		c-0.01,0.007-0.02,0.013-0.03,0.019c-3.781,2.819-7.445,5.41-10.891,7.7C116.571,232.534,116.028,232.69,115.486,232.69z
		 M162.389,160.234c-2.272,3.109-25.395,34.743-48.769,68.324c-0.346,0.498-0.477,1.101-0.37,1.699
		c0.107,0.598,0.441,1.117,0.939,1.464c0.766,0.533,1.767,0.547,2.549,0.031c3.447-2.291,7.114-4.884,10.898-7.706
		c0.009-0.007,0.016-0.012,0.025-0.018l0.072-0.056c7.054-5.265,14.341-11.222,21.658-17.708c7.676-6.762,15.14-13.9,22.184-21.214
		l0.57-0.58l7.687-13.538L162.389,160.234z"/>
	<g id="XMLID_373_">
		<path id="XMLID_1269_" class="st0" d="M242.135,224.063v1.051c0,0.692-0.561,1.252-1.252,1.252h-58.57
			c-0.692,0-1.252-0.561-1.252-1.252v-1.051c0-0.692,0.561-1.252,1.252-1.252h58.57
			C241.575,222.811,242.135,223.372,242.135,224.063z"/>
	</g>
	<g id="XMLID_372_">
		<circle id="XMLID_1268_" class="st0" cx="187.644" cy="228.105" r="4.617"/>
	</g>
	<g id="XMLID_371_">
		<circle id="XMLID_1267_" class="st0" cx="235.554" cy="228.105" r="4.617"/>
	</g>
	<g id="XMLID_370_">
		<path id="XMLID_1266_" class="st0" d="M240.462,222.811h-28.863v1.778h30.537v-0.112c0-0.922-0.747-1.669-1.669-1.669
			L240.462,222.811z"/>
	</g>
	<path id="XMLID_1265_" class="st4" d="M231.333,148.093c-5.093-10.181-23.454-13.277-23.454-13.277
		c-9.48,5.456-22.782,12.001-32.583,17.315c-7.511,4.07-12.98,7.735-12.98,7.735c8.071,29.536,32.368,59.777,43.158,72.171
		c0.718,0.823,1.968,0.907,2.79,0.189c0.563-0.492,0.801-1.259,0.614-1.982c-6.262-24.129-19.132-62.741-19.132-62.741
		c18.378-4.682,29.316-9.662,35.821-13.854c2.262-1.458,4.219-3.343,5.762-5.549l0,0L231.333,148.093z"/>
	<path id="XMLID_1264_" class="st5" d="M189.75,167.498c18.378-4.682,29.316-9.662,35.821-13.854
		c2.298-1.481,5.802-0.457,7.325-2.632l-1.563-2.915c-1.906-3.362-4.749-6.096-8.183-7.869c0,0-30.348,12.51-48.632,23.892
		c4.246,24.853,15.215,48.941,25.745,61.75l1.369-0.224l4.964-3.837c-6.658-23.736-16.846-54.303-16.846-54.303L189.75,167.498z"/>
	<path id="XMLID_1263_" class="st1" d="M208.882,230.239c-1.054-4.061-1.778-6.726-3.113-11.358
		c-0.696,1.072-1.495,2.074-2.385,2.991c-1.334,1.083-2.904,1.837-4.583,2.202c2.526,3.122,4.807,5.816,6.677,7.959
		c0.718,0.823,1.968,0.907,2.79,0.189C208.831,231.729,209.068,230.962,208.882,230.239z"/>
	<path id="XMLID_1262_" class="st3" d="M203.107,222.134c-1.29,0.931-2.754,1.59-4.306,1.939c2.526,3.122,4.807,5.816,6.677,7.959
		c0.562,0.67,1.505,0.875,2.295,0.5l-4.666-10.402L203.107,222.134z"/>
	<circle id="XMLID_1261_" cx="256.962" cy="83.82" r="7.038"/>
	<path id="XMLID_1260_" class="st0" d="M258.561,76.994l-3.639,13.528c3.699,1.142,7.623-0.931,8.765-4.63s-0.931-7.623-4.63-8.765
		c-0.163-0.05-0.327-0.094-0.493-0.133H258.561z"/>
	<path id="XMLID_1259_" class="st0" d="M198.059,167.163h27.079v1.906c-0.001,2.494-2.023,4.516-4.518,4.518h-18.048
		c-2.494-0.001-4.516-2.023-4.518-4.518v-1.906l0,0H198.059z"/>
	<rect id="XMLID_1258_" x="206.605" y="173.582" class="st0" width="9.986" height="13.444"/>
	<rect id="XMLID_1257_" x="209.056" y="187.025" class="st0" width="5.085" height="37.246"/>
	<rect id="XMLID_1256_" x="211.597" y="187.025" width="2.542" height="37.246"/>
	<rect id="XMLID_1255_" x="211.597" y="173.582" width="4.993" height="13.444"/>
	<path id="XMLID_1254_" class="st0" d="M143.378,75.476l-14.685-0.224c-0.853-0.012-1.535-0.714-1.522-1.567
		c0.004-0.272,0.079-0.537,0.219-0.771l7.534-12.611l7.534-12.611c0.438-0.733,1.387-0.972,2.12-0.534
		c0.233,0.139,0.425,0.337,0.557,0.574l7.154,12.831l7.154,12.831c0.416,0.746,0.148,1.687-0.598,2.103
		c-0.236,0.132-0.503,0.199-0.774,0.195l-14.685-0.224L143.378,75.476z"/>
	<path id="XMLID_1253_" class="st1" d="M143.399,74.072l-13.872-0.207c-0.295-0.006-0.529-0.249-0.523-0.544
		c0.002-0.092,0.028-0.183,0.075-0.262l7.118-11.909l7.116-11.909c0.151-0.252,0.478-0.335,0.73-0.184
		c0.08,0.048,0.147,0.117,0.192,0.199l6.758,12.116l6.757,12.117c0.144,0.257,0.052,0.581-0.204,0.725
		c-0.082,0.046-0.175,0.069-0.269,0.068l-13.872-0.207L143.399,74.072z"/>
	<path id="XMLID_1252_" class="st0" d="M143.399,74.072l-13.872-0.207c-0.295-0.006-0.529-0.249-0.523-0.544
		c0.002-0.092,0.028-0.183,0.075-0.262l7.118-11.909l7.116-11.909c0.151-0.252,0.478-0.335,0.73-0.184
		c0.08,0.048,0.147,0.117,0.192,0.199l6.758,12.116l6.757,12.117c0.144,0.257,0.052,0.581-0.204,0.725
		c-0.082,0.046-0.175,0.069-0.269,0.068l-13.872-0.207L143.399,74.072z"/>
	<path id="XMLID_1251_" class="st1" d="M144.588,66.527l-2.152-0.033l-0.493-9.212l3.413,0.052L144.588,66.527z"/>
	<circle id="XMLID_1250_" class="st1" cx="143.475" cy="68.883" r="1.707"/>
	<path id="XMLID_1249_" class="st6" d="M24.31,210.366h74.87v6.699c-0.006,8.789-7.129,15.912-15.918,15.918H40.231
		c-8.789-0.006-15.912-7.129-15.918-15.918v-6.699l0,0H24.31z"/>
	<path id="XMLID_1248_" d="M46.932,227.102H76.56c10.225-0.002,19.178-6.86,21.842-16.732H25.088
		c2.662,9.872,11.613,16.732,21.837,16.736L46.932,227.102z"/>
	<path id="XMLID_1247_" class="st7" d="M46.932,227.102H76.56c10.225-0.002,19.178-6.86,21.842-16.732H25.088
		c2.662,9.872,11.613,16.732,21.837,16.736L46.932,227.102z"/>
	<path id="XMLID_1246_" d="M54.92,204.479c0,0-17.138-36.724,16.865-61.071c0,0,24.075,19.042-4.897,61.071H54.92z"/>
	<path id="XMLID_1245_" class="st7" d="M54.92,204.479c0,0-17.138-36.724,16.865-61.071c0,0,24.075,19.042-4.897,61.071H54.92z"/>
	<path id="XMLID_1244_" class="st6" d="M71.786,143.411c0,0,6.341,45.796-11.883,61.071h6.988
		c28.971-42.028,4.897-61.071,4.897-61.071H71.786z"/>
	<path id="XMLID_1243_" class="st7" d="M80.699,172.915c0,0-19.624-0.133-25.747,18.925l4.948,5.095l20.798-24.02H80.699z"/>
	<path id="XMLID_1242_" d="M52.419,210.366c0,0-0.953-50.054,50.734-34.819c0,0-4.624,22.579-35.908,34.819H52.419z"/>
	<path id="XMLID_1241_" class="st7" d="M52.419,210.366c0,0-0.953-50.054,50.734-34.819c0,0-4.624,22.579-35.908,34.819H52.419z"/>
	<path id="XMLID_1240_" class="st6" d="M103.155,175.546c0,0-27.341,2.17-43.798,34.819h7.891
		C98.531,198.124,103.155,175.546,103.155,175.546z"/>
	<path id="XMLID_1239_" class="st7" d="M51.132,190.504l-0.076-0.573c0,0,17.966,3.005,17.905,19.743l-1.134,0.367l-6.635-2.047
		l-10.59-14.363L51.132,190.504L51.132,190.504z"/>
	<path id="XMLID_1238_" d="M67.79,210.366c0,0,3.536-22.85-36.043-21.899c0.47,9.008,5.357,17.202,13.057,21.899H67.79z"/>
	<path id="XMLID_1237_" class="st7" d="M67.79,210.366c0,0,3.536-22.85-36.043-21.899c0.47,9.008,5.357,17.202,13.057,21.899H67.79z
		"/>
	<path id="XMLID_1236_" class="st6" d="M31.745,188.467c0.47,9.008,5.357,17.202,13.057,21.899h9.249
		c-13.057-7.146-22.308-21.899-22.308-21.899H31.745z"/>
	<path id="XMLID_1235_" class="st8" d="M65.41,200.355c-0.019,0-0.037-0.006-0.053-0.017c-0.039-0.029-0.048-0.084-0.02-0.124
		c0.112-0.152,11.245-15.33,23.959-20.527c0.044-0.022,0.097-0.004,0.119,0.039c0.022,0.044,0.004,0.097-0.039,0.119
		c-0.004,0.002-0.009,0.004-0.013,0.005c-12.667,5.18-23.771,20.315-23.877,20.467c-0.017,0.023-0.043,0.037-0.072,0.037H65.41z"/>
	<path id="XMLID_1234_" class="st8" d="M72.118,175.149h-0.01c-0.049-0.005-0.084-0.049-0.078-0.098
		c0.612-5.739,0.844-11.512,0.693-17.281c0.003-0.049,0.045-0.087,0.095-0.084c0.042,0.003,0.077,0.034,0.083,0.076
		c0.151,5.778-0.081,11.561-0.695,17.308c-0.005,0.045-0.043,0.08-0.089,0.08L72.118,175.149z"/>
	<path id="XMLID_1233_" class="st8" d="M54.052,210.454c-0.015,0-0.029-0.003-0.043-0.01c-3.515-1.923-6.767-4.291-9.676-7.045
		c-0.03-0.039-0.023-0.095,0.016-0.126c0.034-0.026,0.081-0.025,0.113,0.003c2.898,2.742,6.137,5.098,9.638,7.011
		c0.043,0.024,0.059,0.077,0.037,0.121c-0.015,0.029-0.046,0.047-0.078,0.047L54.052,210.454z"/>
	<path id="XMLID_1232_" d="M153.556,126.456H75.202c-0.622,0-1.125-0.504-1.125-1.125v-0.947c0-0.622,0.504-1.125,1.125-1.125
		h78.354c0.622,0,1.125,0.504,1.125,1.125v0.947C154.682,125.952,154.178,126.456,153.556,126.456z"/>
	<path id="XMLID_1231_" d="M75.736,123.181h58.18L117.949,81.49l-58.35-0.881L75.736,123.181z"/>
	<path id="XMLID_1230_" class="st1" d="M77.242,123.181h55.388l-15.547-40.476l-55.558-0.884L77.242,123.181z"/>
	<path id="XMLID_1229_" class="st6" d="M77.242,123.181h55.388l-15.547-40.476l-55.558-0.884L77.242,123.181z"/>
	<g id="XMLID_344_">
		<path id="XMLID_1228_" d="M36.567,93.466h0.336c0.039-0.001,0.074,0.024,0.085,0.062l1.601,4.203c0.016,0.041,0,0.062-0.038,0.062
			h-0.316c-0.039,0.001-0.074-0.024-0.085-0.062l-1.425-3.744c-0.003-0.008-0.009-0.015-0.017-0.019
			c-0.007-0.004-0.015-0.004-0.021,0l-0.509,0.192h-0.017c-0.034-0.003-0.063-0.025-0.076-0.056l-0.119-0.224v-0.012
			c-0.007-0.023,0-0.047,0.019-0.062l0.515-0.321c0.022-0.014,0.047-0.02,0.073-0.019L36.567,93.466z"/>
	</g>
	<g id="XMLID_343_">
		<path id="XMLID_1227_" d="M38.267,93.466h0.336c0.039-0.002,0.074,0.024,0.085,0.062l1.601,4.203c0.016,0.041,0,0.062-0.038,0.062
			h-0.315c-0.039,0.001-0.075-0.024-0.086-0.062l-1.426-3.745c-0.003-0.008-0.009-0.015-0.016-0.019
			c-0.007-0.004-0.015-0.004-0.022,0l-0.509,0.192h-0.016c-0.034-0.003-0.064-0.025-0.077-0.056l-0.112-0.224V93.87
			c-0.007-0.023,0-0.047,0.019-0.062l0.513-0.321c0.022-0.013,0.048-0.02,0.074-0.019L38.267,93.466z"/>
	</g>
	<g id="XMLID_342_">
		<path id="XMLID_1740_" d="M41.433,97.548c-0.27-0.205-0.475-0.482-0.592-0.8l-0.852-2.242c-0.126-0.251-0.132-0.545-0.017-0.8
			c0.136-0.217,0.386-0.336,0.64-0.306c0.32,0.001,0.631,0.109,0.883,0.306c0.272,0.204,0.479,0.482,0.595,0.8l0.852,2.242
			c0.127,0.251,0.132,0.545,0.015,0.8c-0.14,0.218-0.392,0.337-0.649,0.307c-0.318-0.001-0.626-0.109-0.874-0.307H41.433z
			 M42.538,97.281c0.062-0.166,0.053-0.35-0.026-0.509l-0.87-2.286c-0.072-0.198-0.196-0.374-0.36-0.507
			c-0.146-0.123-0.331-0.191-0.522-0.192c-0.15-0.02-0.296,0.057-0.365,0.192c-0.062,0.165-0.053,0.349,0.026,0.507l0.87,2.286
			c0.072,0.199,0.196,0.375,0.36,0.509c0.143,0.121,0.324,0.189,0.512,0.192c0.153,0.017,0.301-0.058,0.378-0.192L42.538,97.281z"/>
	</g>
	<g id="XMLID_341_">
		<path id="XMLID_1736_" d="M44.43,97.548c-0.27-0.205-0.475-0.482-0.592-0.8l-0.852-2.242c-0.126-0.251-0.132-0.545-0.017-0.8
			c0.136-0.217,0.386-0.336,0.64-0.306c0.32,0.001,0.631,0.109,0.883,0.306c0.272,0.204,0.479,0.482,0.595,0.8l0.852,2.242
			c0.127,0.251,0.132,0.545,0.015,0.8c-0.14,0.218-0.392,0.337-0.649,0.307c-0.318-0.001-0.626-0.109-0.874-0.307H44.43z
			 M45.535,97.281c0.062-0.166,0.053-0.35-0.026-0.509l-0.87-2.286c-0.072-0.198-0.196-0.374-0.36-0.507
			c-0.147-0.124-0.333-0.191-0.525-0.192c-0.15-0.02-0.296,0.057-0.365,0.192c-0.062,0.165-0.053,0.349,0.026,0.507l0.87,2.286
			c0.072,0.199,0.196,0.375,0.36,0.509c0.143,0.121,0.324,0.189,0.512,0.192C45.31,97.489,45.458,97.414,45.535,97.281z"/>
	</g>
	<g id="XMLID_340_">
		<path id="XMLID_1732_" d="M47.419,97.548c-0.27-0.205-0.475-0.482-0.592-0.8l-0.852-2.242c-0.126-0.251-0.133-0.544-0.018-0.8
			c0.138-0.216,0.387-0.334,0.641-0.306c0.32,0.001,0.631,0.109,0.883,0.306c0.271,0.204,0.478,0.482,0.595,0.8l0.852,2.242
			c0.126,0.251,0.131,0.545,0.015,0.8c-0.141,0.218-0.393,0.337-0.65,0.307C47.976,97.855,47.668,97.746,47.419,97.548z
			 M48.526,97.281c0.062-0.166,0.052-0.35-0.026-0.509l-0.871-2.286c-0.072-0.198-0.196-0.374-0.36-0.507
			c-0.147-0.123-0.332-0.191-0.524-0.192c-0.15-0.019-0.296,0.057-0.365,0.192c-0.062,0.165-0.053,0.349,0.026,0.507l0.871,2.286
			c0.072,0.199,0.196,0.375,0.36,0.509c0.143,0.121,0.324,0.189,0.511,0.192C48.301,97.489,48.449,97.414,48.526,97.281z"/>
	</g>
	<g id="XMLID_339_">
		<path id="XMLID_1226_" d="M49.07,93.466h0.336c0.039-0.002,0.074,0.024,0.085,0.062l1.601,4.203c0.016,0.041,0,0.062-0.038,0.062
			h-0.317c-0.039,0.001-0.075-0.024-0.086-0.062l-1.427-3.744c-0.003-0.008-0.009-0.015-0.016-0.019
			c-0.007-0.004-0.015-0.004-0.022,0l-0.509,0.192h-0.016c-0.034-0.003-0.064-0.025-0.077-0.056l-0.112-0.224v-0.012
			c-0.007-0.023,0-0.047,0.019-0.062l0.513-0.321c0.022-0.013,0.048-0.02,0.074-0.019L49.07,93.466z"/>
	</g>
	<g id="XMLID_338_">
		<path id="XMLID_1726_" d="M52.241,97.548c-0.27-0.205-0.475-0.482-0.592-0.8l-0.852-2.242c-0.126-0.251-0.132-0.545-0.017-0.8
			c0.136-0.217,0.386-0.336,0.64-0.306c0.32,0.001,0.631,0.109,0.883,0.306c0.272,0.204,0.479,0.482,0.595,0.8l0.852,2.242
			c0.127,0.251,0.132,0.545,0.015,0.8c-0.14,0.218-0.392,0.337-0.649,0.307c-0.318-0.001-0.626-0.109-0.874-0.307H52.241z
			 M53.346,97.281c0.062-0.166,0.053-0.35-0.026-0.509l-0.87-2.286c-0.072-0.198-0.196-0.374-0.36-0.507
			c-0.147-0.124-0.333-0.191-0.525-0.192c-0.15-0.02-0.296,0.057-0.365,0.192c-0.062,0.165-0.053,0.349,0.026,0.507l0.87,2.286
			c0.072,0.199,0.196,0.375,0.36,0.509c0.143,0.121,0.324,0.189,0.512,0.192C53.121,97.489,53.27,97.414,53.346,97.281z"/>
	</g>
	<g id="XMLID_337_">
		<path id="XMLID_1225_" d="M53.891,93.466h0.336c0.039-0.002,0.074,0.024,0.085,0.062l1.601,4.203c0.016,0.041,0,0.062-0.038,0.062
			h-0.317c-0.039,0.001-0.075-0.024-0.086-0.062l-1.426-3.745c-0.003-0.008-0.009-0.015-0.016-0.019
			c-0.007-0.004-0.015-0.004-0.022,0l-0.509,0.192h-0.016c-0.034-0.003-0.064-0.025-0.077-0.056l-0.112-0.224V93.87
			c-0.007-0.023,0-0.047,0.019-0.062l0.513-0.321c0.022-0.013,0.048-0.02,0.074-0.019L53.891,93.466z"/>
	</g>
	<g id="XMLID_336_">
		<path id="XMLID_1720_" d="M57.062,97.548c-0.27-0.205-0.475-0.482-0.592-0.8l-0.852-2.242c-0.126-0.251-0.132-0.545-0.017-0.8
			c0.136-0.217,0.386-0.336,0.64-0.306c0.32,0.001,0.631,0.109,0.883,0.306c0.272,0.204,0.479,0.482,0.595,0.8l0.852,2.242
			c0.127,0.251,0.132,0.545,0.015,0.8c-0.14,0.218-0.392,0.337-0.649,0.307C57.619,97.855,57.311,97.747,57.062,97.548z
			 M58.167,97.281c0.062-0.166,0.053-0.35-0.026-0.509l-0.87-2.286c-0.072-0.198-0.196-0.374-0.36-0.507
			c-0.147-0.124-0.333-0.191-0.525-0.192c-0.15-0.02-0.296,0.057-0.365,0.192c-0.062,0.165-0.053,0.349,0.026,0.507l0.87,2.286
			c0.072,0.199,0.196,0.375,0.36,0.509c0.143,0.121,0.324,0.189,0.512,0.192C57.942,97.489,58.091,97.414,58.167,97.281z"/>
	</g>
	<g id="XMLID_335_">
		<path id="XMLID_1224_" d="M58.712,93.466h0.336c0.039-0.002,0.074,0.024,0.085,0.062l1.601,4.203c0.016,0.041,0,0.062-0.038,0.062
			h-0.318c-0.039,0.001-0.075-0.024-0.086-0.062l-1.426-3.745c-0.003-0.008-0.009-0.015-0.016-0.019
			c-0.007-0.004-0.015-0.004-0.022,0l-0.509,0.192h-0.016c-0.034-0.003-0.064-0.025-0.077-0.056l-0.112-0.224V93.87
			c-0.007-0.023,0-0.047,0.019-0.062l0.513-0.321c0.022-0.013,0.048-0.02,0.074-0.019L58.712,93.466z"/>
	</g>
	<g id="XMLID_334_">
		<path id="XMLID_1223_" d="M60.412,93.466h0.336c0.039-0.002,0.074,0.024,0.085,0.062l1.601,4.203c0.016,0.041,0,0.062-0.038,0.062
			h-0.315c-0.039,0.001-0.075-0.024-0.086-0.062l-1.426-3.745c-0.003-0.008-0.009-0.015-0.016-0.019
			c-0.007-0.004-0.015-0.004-0.022,0l-0.509,0.192h-0.016c-0.034-0.003-0.064-0.025-0.077-0.056l-0.112-0.224V93.87
			c-0.014-0.019-0.014-0.046,0-0.065l0.513-0.321c0.022-0.013,0.048-0.02,0.074-0.019H60.412z"/>
	</g>
	<g id="XMLID_333_">
		<path id="XMLID_1222_" d="M62.111,93.466h0.336c0.039-0.001,0.074,0.024,0.085,0.062l1.601,4.203c0.016,0.041,0,0.062-0.038,0.062
			h-0.316c-0.039,0.001-0.074-0.024-0.085-0.062l-1.426-3.745c-0.003-0.008-0.009-0.015-0.017-0.019
			c-0.007-0.004-0.015-0.004-0.021,0l-0.509,0.192h-0.017c-0.034-0.003-0.063-0.025-0.076-0.056l-0.119-0.224V93.87
			c-0.007-0.023,0-0.047,0.019-0.062l0.515-0.321c0.022-0.014,0.047-0.02,0.073-0.019L62.111,93.466z"/>
	</g>
	<g id="XMLID_332_">
		<path id="XMLID_1221_" d="M63.812,93.466h0.336c0.039-0.002,0.074,0.024,0.085,0.062l1.601,4.203c0.016,0.041,0,0.062-0.038,0.062
			h-0.315c-0.039,0.001-0.075-0.024-0.086-0.062l-1.429-3.744c-0.003-0.008-0.009-0.015-0.016-0.019
			c-0.007-0.004-0.015-0.004-0.022,0l-0.509,0.192h-0.016c-0.034-0.003-0.064-0.025-0.077-0.056l-0.112-0.224v-0.012
			c-0.007-0.023,0-0.047,0.019-0.062l0.513-0.321c0.022-0.013,0.048-0.02,0.074-0.019L63.812,93.466z"/>
	</g>
	<g id="XMLID_331_">
		<path id="XMLID_1708_" d="M66.982,97.548c-0.27-0.205-0.475-0.482-0.592-0.8l-0.852-2.242c-0.126-0.251-0.132-0.545-0.017-0.8
			c0.136-0.217,0.386-0.336,0.64-0.306c0.32,0.001,0.631,0.109,0.883,0.306c0.272,0.204,0.479,0.482,0.595,0.8l0.852,2.242
			c0.127,0.251,0.132,0.545,0.015,0.8c-0.14,0.218-0.392,0.337-0.649,0.307C67.539,97.855,67.23,97.747,66.982,97.548z
			 M68.087,97.281c0.062-0.166,0.053-0.35-0.026-0.509l-0.87-2.286c-0.072-0.198-0.196-0.374-0.36-0.507
			c-0.147-0.124-0.333-0.191-0.525-0.192c-0.15-0.02-0.296,0.057-0.365,0.192c-0.062,0.165-0.053,0.349,0.026,0.507l0.87,2.286
			c0.072,0.199,0.196,0.375,0.36,0.509c0.143,0.121,0.324,0.189,0.512,0.192C67.862,97.489,68.011,97.414,68.087,97.281z"/>
	</g>
	<g id="XMLID_330_">
		<path id="XMLID_1704_" d="M69.973,97.548c-0.27-0.205-0.475-0.482-0.592-0.8l-0.852-2.242c-0.126-0.251-0.132-0.545-0.017-0.8
			c0.136-0.217,0.386-0.336,0.64-0.306c0.32,0.001,0.631,0.109,0.883,0.306c0.272,0.204,0.479,0.482,0.595,0.8l0.852,2.242
			c0.127,0.251,0.132,0.545,0.015,0.8c-0.14,0.218-0.392,0.337-0.649,0.307C70.53,97.855,70.221,97.747,69.973,97.548z
			 M71.078,97.281c0.062-0.166,0.053-0.35-0.026-0.509l-0.87-2.286c-0.072-0.198-0.196-0.374-0.36-0.507
			c-0.147-0.124-0.333-0.191-0.525-0.192c-0.15-0.02-0.296,0.057-0.365,0.192c-0.062,0.165-0.053,0.349,0.026,0.507l0.87,2.286
			c0.072,0.199,0.196,0.375,0.36,0.509c0.143,0.121,0.324,0.189,0.512,0.192C70.853,97.489,71.001,97.414,71.078,97.281z"/>
	</g>
	<g id="XMLID_329_">
		<path id="XMLID_1700_" d="M72.963,97.548c-0.269-0.204-0.474-0.48-0.591-0.797l-0.852-2.242c-0.126-0.251-0.133-0.544-0.018-0.8
			c0.139-0.217,0.39-0.334,0.646-0.304c0.32,0.001,0.631,0.109,0.883,0.306c0.271,0.204,0.478,0.482,0.595,0.8l0.852,2.242
			c0.126,0.251,0.131,0.545,0.015,0.8c-0.141,0.218-0.393,0.337-0.65,0.307C73.523,97.86,73.213,97.75,72.963,97.548z M74.07,97.281
			c0.062-0.166,0.052-0.35-0.026-0.509l-0.871-2.286c-0.072-0.198-0.196-0.374-0.36-0.507c-0.147-0.123-0.332-0.191-0.524-0.192
			c-0.15-0.019-0.296,0.057-0.365,0.192c-0.062,0.165-0.053,0.349,0.026,0.507l0.871,2.286c0.072,0.199,0.196,0.375,0.36,0.509
			c0.143,0.121,0.324,0.189,0.511,0.192C73.845,97.489,73.993,97.414,74.07,97.281z"/>
	</g>
	<g id="XMLID_328_">
		<path id="XMLID_1696_" d="M75.96,97.548c-0.27-0.205-0.475-0.482-0.592-0.8l-0.852-2.242c-0.126-0.251-0.132-0.545-0.017-0.8
			c0.136-0.217,0.386-0.336,0.64-0.306c0.32,0.001,0.631,0.109,0.883,0.306c0.272,0.204,0.479,0.482,0.595,0.8l0.852,2.242
			c0.127,0.251,0.132,0.545,0.015,0.8c-0.14,0.218-0.392,0.337-0.649,0.307C76.517,97.855,76.209,97.747,75.96,97.548z
			 M77.065,97.281c0.062-0.166,0.053-0.35-0.026-0.509l-0.87-2.286c-0.072-0.198-0.196-0.374-0.36-0.507
			c-0.147-0.124-0.333-0.191-0.525-0.192c-0.15-0.02-0.296,0.057-0.365,0.192c-0.062,0.165-0.053,0.349,0.026,0.507l0.87,2.286
			c0.072,0.199,0.196,0.375,0.36,0.509c0.143,0.121,0.324,0.189,0.512,0.192C76.84,97.489,76.989,97.414,77.065,97.281z"/>
	</g>
	<g id="XMLID_327_">
		<path id="XMLID_1692_" d="M78.947,97.548c-0.27-0.205-0.475-0.482-0.592-0.8l-0.852-2.242c-0.126-0.251-0.132-0.545-0.017-0.8
			c0.136-0.217,0.386-0.336,0.64-0.306c0.32,0.001,0.631,0.109,0.883,0.306c0.272,0.204,0.479,0.482,0.595,0.8l0.852,2.242
			c0.127,0.251,0.132,0.545,0.015,0.8c-0.14,0.218-0.392,0.337-0.649,0.307C79.505,97.855,79.196,97.747,78.947,97.548z
			 M80.053,97.281c0.062-0.166,0.053-0.35-0.026-0.509l-0.87-2.286c-0.072-0.198-0.196-0.374-0.36-0.507
			c-0.147-0.124-0.333-0.191-0.525-0.192c-0.15-0.02-0.296,0.057-0.365,0.192c-0.062,0.165-0.053,0.349,0.026,0.507l0.87,2.286
			c0.072,0.199,0.196,0.375,0.36,0.509c0.143,0.121,0.324,0.189,0.512,0.192C79.828,97.489,79.976,97.414,80.053,97.281z"/>
	</g>
	<g id="XMLID_326_">
		<path id="XMLID_1220_" d="M80.597,93.466h0.336c0.039-0.002,0.074,0.024,0.085,0.062l1.601,4.203c0.016,0.041,0,0.062-0.038,0.062
			h-0.315c-0.039,0.001-0.075-0.024-0.086-0.062l-1.426-3.745c-0.003-0.008-0.009-0.015-0.016-0.019
			c-0.007-0.004-0.015-0.004-0.022,0l-0.509,0.192h-0.016c-0.034-0.003-0.064-0.025-0.077-0.056l-0.112-0.224V93.87
			c-0.007-0.023,0-0.047,0.019-0.062l0.513-0.321c0.022-0.013,0.048-0.02,0.074-0.019L80.597,93.466z"/>
	</g>
	<g id="XMLID_325_">
		<path id="XMLID_1219_" d="M39.392,100.883h0.336c0.039-0.001,0.074,0.024,0.085,0.062l1.601,4.203
			c0.016,0.041,0,0.062-0.038,0.062H41.06c-0.039,0.002-0.074-0.024-0.085-0.062l-1.426-3.744c-0.003-0.008-0.009-0.015-0.017-0.019
			c-0.007-0.004-0.015-0.004-0.021,0l-0.509,0.192l-0.017,0.007c-0.034-0.003-0.063-0.025-0.076-0.056l-0.119-0.224v-0.011
			c-0.007-0.023,0.001-0.047,0.02-0.062l0.515-0.321c0.022-0.013,0.047-0.02,0.073-0.019L39.392,100.883z"/>
	</g>
	<g id="XMLID_324_">
		<path id="XMLID_1218_" d="M41.097,100.883h0.336c0.039-0.001,0.074,0.024,0.085,0.062l1.596,4.203
			c0.017,0.041,0,0.062-0.038,0.062h-0.315c-0.04,0.002-0.076-0.024-0.087-0.062l-1.426-3.744c-0.003-0.008-0.008-0.015-0.016-0.019
			c-0.007-0.004-0.015-0.004-0.022,0l-0.509,0.192l-0.016,0.007c-0.034-0.003-0.064-0.025-0.077-0.056l-0.119-0.224v-0.011
			c-0.008-0.023,0-0.047,0.019-0.062l0.513-0.321c0.022-0.013,0.048-0.02,0.074-0.019L41.097,100.883z"/>
	</g>
	<g id="XMLID_323_">
		<path id="XMLID_1217_" d="M42.791,100.883h0.336c0.039-0.001,0.074,0.024,0.085,0.062l1.6,4.203c0.017,0.041,0,0.062-0.038,0.062
			H44.46c-0.04,0.002-0.076-0.024-0.087-0.062l-1.426-3.744c-0.003-0.008-0.008-0.015-0.016-0.019c-0.007-0.004-0.015-0.004-0.022,0
			l-0.509,0.192l-0.016,0.007c-0.034-0.003-0.064-0.025-0.077-0.056l-0.119-0.224v-0.011c-0.008-0.023,0-0.047,0.019-0.062
			l0.513-0.321c0.022-0.013,0.048-0.02,0.074-0.019L42.791,100.883z"/>
	</g>
	<g id="XMLID_322_">
		<path id="XMLID_1680_" d="M45.962,104.965c-0.27-0.204-0.475-0.482-0.592-0.8l-0.852-2.242c-0.126-0.251-0.132-0.544-0.018-0.8
			c0.138-0.216,0.387-0.334,0.641-0.306c0.32,0.001,0.631,0.109,0.883,0.306c0.272,0.204,0.478,0.482,0.595,0.8l0.852,2.242
			c0.126,0.251,0.132,0.545,0.015,0.8c-0.141,0.217-0.393,0.336-0.65,0.306C46.519,105.271,46.21,105.163,45.962,104.965z
			 M47.067,104.696c0.062-0.166,0.053-0.349-0.026-0.508l-0.87-2.28c-0.072-0.198-0.196-0.373-0.36-0.507
			c-0.147-0.123-0.332-0.191-0.524-0.192c-0.15-0.02-0.296,0.057-0.365,0.192c-0.062,0.165-0.053,0.349,0.026,0.507l0.87,2.286
			c0.072,0.199,0.196,0.374,0.36,0.508c0.143,0.121,0.324,0.189,0.511,0.192c0.154,0.017,0.303-0.061,0.379-0.196L47.067,104.696z"
			/>
	</g>
	<g id="XMLID_321_">
		<path id="XMLID_1216_" d="M47.611,100.883h0.336c0.039-0.001,0.074,0.024,0.085,0.062l1.6,4.203c0.017,0.041,0,0.062-0.038,0.062
			H49.28c-0.04,0.002-0.076-0.024-0.087-0.062l-1.426-3.744c-0.003-0.008-0.008-0.015-0.016-0.019c-0.007-0.004-0.015-0.004-0.022,0
			l-0.509,0.192l-0.016,0.007c-0.034-0.003-0.064-0.025-0.077-0.056l-0.119-0.224v-0.011c-0.008-0.023,0-0.047,0.019-0.062
			l0.513-0.321c0.022-0.013,0.048-0.02,0.074-0.019L47.611,100.883z"/>
	</g>
	<g id="XMLID_320_">
		<path id="XMLID_1674_" d="M50.783,104.965c-0.27-0.204-0.475-0.482-0.592-0.8l-0.852-2.242c-0.126-0.251-0.132-0.544-0.018-0.8
			c0.138-0.216,0.387-0.334,0.641-0.306c0.322,0.001,0.634,0.109,0.887,0.307c0.272,0.204,0.478,0.482,0.595,0.8l0.852,2.242
			c0.126,0.251,0.132,0.545,0.015,0.8c-0.141,0.217-0.393,0.336-0.65,0.306c-0.317-0.001-0.625-0.108-0.873-0.306L50.783,104.965z
			 M51.889,104.696c0.062-0.166,0.053-0.349-0.026-0.508l-0.871-2.28c-0.072-0.198-0.196-0.373-0.36-0.507
			c-0.147-0.123-0.332-0.191-0.524-0.192c-0.15-0.02-0.296,0.057-0.365,0.192c-0.062,0.165-0.053,0.349,0.026,0.507l0.87,2.286
			c0.072,0.199,0.196,0.374,0.36,0.508c0.143,0.121,0.324,0.189,0.511,0.192c0.154,0.017,0.303-0.061,0.379-0.196V104.696z"/>
	</g>
	<g id="XMLID_319_">
		<path id="XMLID_1215_" d="M52.432,100.883h0.336c0.039-0.001,0.074,0.024,0.085,0.062l1.6,4.203c0.017,0.041,0,0.062-0.038,0.062
			H54.1c-0.04,0.002-0.076-0.024-0.087-0.062l-1.426-3.744c-0.003-0.008-0.008-0.015-0.016-0.019c-0.007-0.004-0.015-0.004-0.022,0
			l-0.509,0.192l-0.016,0.007c-0.034-0.003-0.064-0.025-0.077-0.056l-0.119-0.224v-0.011c-0.008-0.023,0-0.047,0.019-0.062
			l0.513-0.321c0.022-0.013,0.048-0.02,0.074-0.019L52.432,100.883z"/>
	</g>
	<g id="XMLID_318_">
		<path id="XMLID_1668_" d="M55.604,104.965c-0.27-0.204-0.475-0.482-0.592-0.8l-0.852-2.242c-0.126-0.251-0.132-0.544-0.018-0.8
			c0.138-0.216,0.387-0.334,0.641-0.306c0.32,0.001,0.631,0.109,0.883,0.306c0.272,0.204,0.478,0.482,0.595,0.8l0.852,2.242
			c0.126,0.251,0.132,0.545,0.015,0.8c-0.141,0.217-0.393,0.336-0.65,0.306C56.16,105.271,55.852,105.163,55.604,104.965z
			 M56.709,104.696c0.062-0.166,0.053-0.349-0.026-0.508l-0.87-2.28c-0.072-0.198-0.196-0.373-0.36-0.507
			c-0.147-0.123-0.332-0.191-0.524-0.192c-0.15-0.02-0.296,0.057-0.365,0.192c-0.062,0.165-0.053,0.349,0.026,0.507l0.87,2.286
			c0.072,0.199,0.196,0.374,0.36,0.508c0.143,0.121,0.324,0.189,0.511,0.192c0.153,0.017,0.301-0.058,0.378-0.192L56.709,104.696z"
			/>
	</g>
	<g id="XMLID_317_">
		<path id="XMLID_1214_" d="M57.254,100.883h0.336c0.039-0.001,0.074,0.024,0.085,0.062l1.601,4.203
			c0.016,0.041,0,0.062-0.038,0.062h-0.317c-0.039,0.002-0.074-0.024-0.085-0.062l-1.426-3.744
			c-0.003-0.008-0.009-0.015-0.017-0.019c-0.007-0.004-0.015-0.004-0.021,0l-0.509,0.192l-0.017,0.007
			c-0.034-0.003-0.063-0.025-0.076-0.056l-0.119-0.224v-0.011c-0.007-0.023,0.001-0.047,0.02-0.062l0.515-0.321
			c0.022-0.013,0.047-0.02,0.073-0.019L57.254,100.883z"/>
	</g>
	<g id="XMLID_316_">
		<path id="XMLID_1213_" d="M58.953,100.883h0.336c0.039-0.001,0.074,0.024,0.085,0.062l1.6,4.203c0.017,0.041,0,0.062-0.038,0.062
			h-0.315c-0.04,0.002-0.076-0.024-0.087-0.062l-1.426-3.744c-0.003-0.008-0.008-0.015-0.016-0.019
			c-0.007-0.004-0.015-0.004-0.022,0l-0.509,0.192l-0.016,0.007c-0.034-0.003-0.064-0.025-0.077-0.056l-0.119-0.224v-0.011
			c-0.008-0.023,0-0.047,0.019-0.062l0.513-0.321c0.022-0.013,0.048-0.02,0.074-0.019L58.953,100.883z"/>
	</g>
	<g id="XMLID_315_">
		<path id="XMLID_1212_" d="M60.653,100.883h0.336c0.039-0.001,0.074,0.024,0.085,0.062l1.601,4.203
			c0.016,0.041,0,0.062-0.038,0.062h-0.316c-0.039,0.002-0.074-0.024-0.085-0.062l-1.426-3.744
			c-0.003-0.008-0.009-0.015-0.017-0.019c-0.007-0.004-0.015-0.004-0.021,0l-0.506,0.187l-0.017,0.007
			c-0.034-0.003-0.063-0.025-0.076-0.056l-0.119-0.224v-0.011c-0.007-0.023,0.001-0.047,0.02-0.062l0.515-0.321
			c0.022-0.013,0.047-0.02,0.073-0.019L60.653,100.883z"/>
	</g>
	<g id="XMLID_314_">
		<path id="XMLID_1658_" d="M63.824,104.965c-0.27-0.205-0.475-0.482-0.592-0.8l-0.851-2.242c-0.126-0.251-0.132-0.544-0.018-0.8
			c0.138-0.216,0.387-0.334,0.641-0.306c0.32,0.001,0.631,0.109,0.883,0.306c0.271,0.204,0.478,0.482,0.595,0.8l0.851,2.242
			c0.126,0.251,0.132,0.545,0.016,0.8c-0.141,0.217-0.393,0.336-0.65,0.306C64.381,105.271,64.073,105.163,63.824,104.965z
			 M64.93,104.696c0.062-0.166,0.052-0.349-0.026-0.508l-0.871-2.28c-0.072-0.198-0.196-0.374-0.36-0.507
			c-0.147-0.123-0.332-0.191-0.524-0.192c-0.15-0.02-0.296,0.057-0.365,0.192c-0.062,0.165-0.053,0.349,0.026,0.507l0.871,2.286
			c0.072,0.199,0.196,0.374,0.36,0.508c0.143,0.121,0.324,0.189,0.511,0.192c0.153,0.017,0.301-0.058,0.378-0.192L64.93,104.696z"/>
	</g>
	<g id="XMLID_313_">
		<path id="XMLID_1654_" d="M66.815,104.965c-0.27-0.205-0.475-0.482-0.592-0.8l-0.851-2.242c-0.126-0.251-0.132-0.544-0.018-0.8
			c0.138-0.216,0.387-0.334,0.641-0.306c0.32,0.001,0.631,0.109,0.883,0.306c0.271,0.204,0.478,0.482,0.595,0.8l0.851,2.242
			c0.126,0.251,0.132,0.545,0.016,0.8c-0.141,0.217-0.393,0.336-0.65,0.306C67.372,105.271,67.064,105.163,66.815,104.965z
			 M67.921,104.696c0.062-0.166,0.052-0.349-0.026-0.508l-0.871-2.28c-0.072-0.198-0.196-0.374-0.36-0.507
			c-0.147-0.123-0.332-0.191-0.524-0.192c-0.15-0.02-0.296,0.057-0.365,0.192c-0.062,0.165-0.053,0.349,0.026,0.507l0.871,2.286
			c0.072,0.199,0.196,0.374,0.36,0.508c0.143,0.121,0.324,0.189,0.511,0.192c0.153,0.017,0.301-0.058,0.378-0.192L67.921,104.696z"
			/>
	</g>
	<g id="XMLID_312_">
		<path id="XMLID_1650_" d="M69.807,104.965c-0.27-0.204-0.475-0.482-0.592-0.8l-0.852-2.242c-0.126-0.251-0.132-0.544-0.018-0.8
			c0.138-0.216,0.387-0.334,0.641-0.306c0.32,0.001,0.631,0.109,0.883,0.306c0.271,0.204,0.478,0.482,0.595,0.8l0.852,2.242
			c0.126,0.251,0.132,0.545,0.015,0.8c-0.141,0.217-0.393,0.336-0.65,0.306C70.363,105.271,70.055,105.163,69.807,104.965z
			 M70.912,104.696c0.062-0.166,0.053-0.349-0.026-0.508l-0.868-2.28c-0.072-0.198-0.196-0.373-0.36-0.507
			c-0.147-0.123-0.332-0.191-0.524-0.192c-0.15-0.02-0.296,0.057-0.365,0.192c-0.062,0.165-0.053,0.349,0.026,0.507l0.87,2.286
			c0.072,0.199,0.196,0.374,0.36,0.508c0.143,0.121,0.324,0.189,0.511,0.192c0.153,0.017,0.301-0.058,0.378-0.192L70.912,104.696z"
			/>
	</g>
	<g id="XMLID_311_">
		<path id="XMLID_1211_" d="M71.456,100.883h0.336c0.039-0.001,0.074,0.024,0.085,0.062l1.601,4.203
			c0.016,0.041,0,0.062-0.038,0.062h-0.316c-0.039,0.002-0.074-0.024-0.085-0.062l-1.428-3.744
			c-0.003-0.008-0.009-0.015-0.017-0.019c-0.007-0.004-0.015-0.004-0.021,0l-0.509,0.192l-0.017,0.007
			c-0.034-0.003-0.063-0.025-0.076-0.056l-0.119-0.224v-0.011c-0.007-0.023,0.001-0.047,0.02-0.062l0.515-0.321
			c0.022-0.013,0.047-0.02,0.073-0.019L71.456,100.883z"/>
	</g>
	<g id="XMLID_310_">
		<path id="XMLID_1210_" d="M73.157,100.883h0.336c0.039-0.001,0.074,0.024,0.085,0.062l1.596,4.203
			c0.017,0.041,0,0.062-0.038,0.062h-0.315c-0.04,0.002-0.076-0.024-0.087-0.062l-1.426-3.744c-0.003-0.008-0.008-0.015-0.016-0.019
			c-0.007-0.004-0.015-0.004-0.022,0l-0.509,0.192l-0.016,0.007c-0.034-0.003-0.064-0.025-0.077-0.056l-0.119-0.224v-0.011
			c-0.008-0.023,0-0.047,0.019-0.062l0.513-0.321c0.022-0.013,0.048-0.02,0.074-0.019L73.157,100.883z"/>
	</g>
	<g id="XMLID_309_">
		<path id="XMLID_1642_" d="M76.327,104.965c-0.27-0.204-0.475-0.482-0.592-0.8l-0.852-2.242c-0.126-0.251-0.132-0.544-0.018-0.8
			c0.14-0.216,0.391-0.333,0.646-0.302c0.32,0.001,0.631,0.109,0.883,0.306c0.272,0.204,0.478,0.482,0.595,0.8l0.852,2.242
			c0.126,0.251,0.132,0.545,0.015,0.8c-0.141,0.217-0.393,0.336-0.65,0.306C76.887,105.275,76.577,105.165,76.327,104.965z
			 M77.433,104.696c0.062-0.166,0.053-0.349-0.026-0.508l-0.871-2.28c-0.072-0.198-0.196-0.373-0.36-0.507
			c-0.147-0.123-0.332-0.191-0.524-0.192c-0.15-0.02-0.296,0.057-0.365,0.192c-0.062,0.165-0.053,0.349,0.026,0.507l0.87,2.286
			c0.072,0.199,0.196,0.374,0.36,0.508c0.143,0.121,0.324,0.189,0.511,0.192c0.153,0.017,0.301-0.058,0.378-0.192L77.433,104.696z"
			/>
	</g>
	<g id="XMLID_308_">
		<path id="XMLID_1638_" d="M79.323,104.965c-0.27-0.205-0.475-0.482-0.592-0.8l-0.851-2.242c-0.124-0.251-0.13-0.544-0.015-0.799
			c0.138-0.216,0.387-0.334,0.641-0.306c0.32,0.001,0.631,0.109,0.883,0.306c0.271,0.204,0.478,0.482,0.595,0.8l0.851,2.242
			c0.126,0.251,0.132,0.545,0.016,0.8c-0.141,0.217-0.393,0.336-0.65,0.306c-0.318,0-0.627-0.108-0.875-0.306L79.323,104.965z
			 M80.429,104.696c0.062-0.166,0.052-0.349-0.026-0.508l-0.875-2.28c-0.072-0.198-0.196-0.374-0.36-0.507
			c-0.147-0.123-0.332-0.191-0.524-0.192c-0.15-0.02-0.296,0.057-0.365,0.192c-0.062,0.165-0.053,0.349,0.026,0.507l0.871,2.286
			c0.072,0.199,0.196,0.374,0.36,0.508c0.143,0.121,0.324,0.189,0.511,0.192c0.153,0.017,0.301-0.058,0.378-0.192L80.429,104.696z"
			/>
	</g>
	<g id="XMLID_307_">
		<path id="XMLID_1209_" d="M80.967,100.883h0.336c0.039-0.001,0.074,0.024,0.085,0.062l1.6,4.203c0.017,0.041,0,0.062-0.038,0.062
			h-0.315c-0.04,0.002-0.076-0.024-0.087-0.062l-1.432-3.744c-0.003-0.008-0.008-0.015-0.016-0.019
			c-0.007-0.004-0.015-0.004-0.022,0l-0.509,0.192l-0.016,0.007c-0.034-0.003-0.064-0.025-0.077-0.056l-0.119-0.224v-0.011
			c-0.008-0.023,0-0.047,0.019-0.062l0.516-0.331c0.022-0.013,0.048-0.02,0.074-0.019L80.967,100.883z"/>
	</g>
	<g id="XMLID_306_">
		<path id="XMLID_1632_" d="M43.563,112.383c-0.27-0.204-0.476-0.482-0.592-0.8l-0.853-2.242c-0.126-0.251-0.132-0.545-0.017-0.8
			c0.138-0.216,0.387-0.334,0.641-0.306c0.32,0.001,0.631,0.109,0.883,0.306c0.272,0.204,0.478,0.482,0.595,0.8l0.853,2.242
			c0.126,0.251,0.132,0.545,0.015,0.8c-0.141,0.218-0.393,0.337-0.65,0.307C44.12,112.689,43.812,112.581,43.563,112.383z
			 M44.669,112.115c0.062-0.166,0.053-0.349-0.026-0.508l-0.87-2.287c-0.072-0.198-0.197-0.373-0.36-0.507
			c-0.147-0.123-0.332-0.191-0.524-0.192c-0.15-0.019-0.296,0.057-0.365,0.192c-0.062,0.165-0.053,0.349,0.026,0.507l0.87,2.287
			c0.072,0.198,0.197,0.374,0.36,0.508c0.143,0.121,0.324,0.189,0.511,0.192c0.152,0.013,0.298-0.064,0.373-0.197L44.669,112.115z"
			/>
	</g>
	<g id="XMLID_305_">
		<path id="XMLID_1628_" d="M46.549,112.383c-0.27-0.204-0.476-0.482-0.592-0.8l-0.851-2.242c-0.126-0.251-0.132-0.544-0.018-0.8
			c0.138-0.216,0.387-0.334,0.641-0.306c0.32,0.001,0.631,0.109,0.883,0.306c0.272,0.204,0.478,0.482,0.595,0.8l0.851,2.242
			c0.126,0.251,0.132,0.545,0.015,0.8c-0.141,0.218-0.393,0.337-0.65,0.307C47.106,112.689,46.798,112.581,46.549,112.383z
			 M47.655,112.115c0.062-0.166,0.053-0.349-0.026-0.508l-0.871-2.287c-0.072-0.198-0.196-0.374-0.36-0.507
			c-0.147-0.123-0.332-0.191-0.524-0.192c-0.15-0.02-0.296,0.057-0.365,0.192c-0.062,0.165-0.053,0.349,0.026,0.507l0.871,2.287
			c0.072,0.199,0.196,0.374,0.36,0.508c0.143,0.121,0.324,0.189,0.511,0.192C47.43,112.324,47.578,112.248,47.655,112.115z"/>
	</g>
	<g id="XMLID_304_">
		<path id="XMLID_1208_" d="M48.199,108.298h0.336c0.039-0.001,0.074,0.024,0.085,0.062l1.6,4.198c0.017,0.041,0,0.062-0.038,0.062
			h-0.315c-0.039,0.001-0.075-0.024-0.086-0.062l-1.426-3.745c-0.003-0.008-0.008-0.015-0.016-0.019
			c-0.007-0.003-0.015-0.003-0.021,0l-0.509,0.192h-0.017c-0.034-0.003-0.063-0.025-0.076-0.056l-0.119-0.224v-0.012
			c-0.007-0.023,0.001-0.047,0.019-0.062l0.515-0.321c0.022-0.014,0.048-0.02,0.074-0.019L48.199,108.298z"/>
	</g>
	<g id="XMLID_303_">
		<path id="XMLID_1207_" d="M49.899,108.298h0.336c0.039-0.002,0.074,0.024,0.085,0.062l1.602,4.198
			c0.016,0.041,0,0.062-0.038,0.062h-0.315c-0.039,0.001-0.074-0.024-0.085-0.062l-1.43-3.739c-0.003-0.008-0.009-0.015-0.017-0.019
			c-0.007-0.003-0.015-0.003-0.021,0l-0.509,0.192h-0.016c-0.034-0.003-0.064-0.025-0.077-0.056l-0.112-0.224v-0.012
			c-0.007-0.023,0.001-0.047,0.02-0.062l0.513-0.321c0.022-0.014,0.048-0.02,0.074-0.019L49.899,108.298z"/>
	</g>
	<g id="XMLID_302_">
		<path id="XMLID_1206_" d="M51.599,108.298h0.336c0.039-0.001,0.074,0.024,0.085,0.062l1.6,4.198c0.017,0.041,0,0.062-0.038,0.062
			h-0.315c-0.039,0.001-0.075-0.024-0.086-0.062l-1.426-3.745c-0.003-0.008-0.008-0.015-0.016-0.019
			c-0.007-0.003-0.015-0.003-0.021,0l-0.509,0.192h-0.017c-0.034-0.003-0.063-0.025-0.076-0.056l-0.119-0.224v-0.012
			c-0.007-0.023,0.001-0.047,0.019-0.062l0.515-0.321c0.022-0.014,0.048-0.02,0.074-0.019L51.599,108.298z"/>
	</g>
	<g id="XMLID_301_">
		<path id="XMLID_1205_" d="M53.299,108.298h0.336c0.039-0.001,0.074,0.024,0.085,0.062l1.6,4.198c0.017,0.041,0,0.062-0.038,0.062
			h-0.315c-0.038-0.001-0.071-0.026-0.082-0.062l-1.426-3.745c-0.003-0.008-0.008-0.015-0.016-0.019
			c-0.007-0.003-0.015-0.003-0.021,0l-0.509,0.192h-0.017c-0.034-0.003-0.063-0.025-0.076-0.056l-0.119-0.224v-0.012
			c-0.007-0.023,0.001-0.047,0.019-0.062l0.515-0.321c0.022-0.014,0.048-0.02,0.074-0.019L53.299,108.298z"/>
	</g>
	<g id="XMLID_300_">
		<path id="XMLID_1616_" d="M56.469,112.383c-0.27-0.204-0.476-0.482-0.592-0.8l-0.852-2.242c-0.126-0.251-0.132-0.545-0.017-0.8
			c0.138-0.216,0.387-0.334,0.641-0.306c0.32,0.001,0.631,0.109,0.883,0.306c0.272,0.204,0.478,0.482,0.595,0.8l0.852,2.242
			c0.126,0.251,0.132,0.545,0.015,0.8c-0.141,0.218-0.393,0.337-0.65,0.307C57.026,112.689,56.718,112.581,56.469,112.383z
			 M57.575,112.109c0.062-0.166,0.053-0.349-0.026-0.508l-0.87-2.287c-0.072-0.198-0.197-0.373-0.36-0.507
			c-0.147-0.123-0.332-0.191-0.524-0.192c-0.15-0.019-0.296,0.057-0.365,0.192c-0.062,0.165-0.053,0.349,0.026,0.507l0.87,2.287
			c0.072,0.198,0.197,0.374,0.36,0.508c0.143,0.121,0.324,0.189,0.511,0.192C57.35,112.317,57.498,112.242,57.575,112.109z"/>
	</g>
	<g id="XMLID_299_">
		<path id="XMLID_1612_" d="M59.46,112.383c-0.27-0.204-0.476-0.482-0.592-0.8l-0.851-2.242c-0.126-0.251-0.132-0.544-0.018-0.8
			c0.138-0.216,0.387-0.334,0.641-0.306c0.32,0.001,0.631,0.109,0.883,0.306c0.272,0.204,0.478,0.482,0.595,0.8l0.851,2.242
			c0.126,0.251,0.132,0.545,0.015,0.8c-0.141,0.218-0.393,0.337-0.65,0.307C60.016,112.689,59.708,112.581,59.46,112.383z
			 M60.565,112.115c0.062-0.166,0.053-0.349-0.026-0.508l-0.871-2.287c-0.072-0.198-0.196-0.374-0.36-0.507
			c-0.147-0.123-0.332-0.191-0.524-0.192c-0.15-0.02-0.296,0.057-0.365,0.192c-0.062,0.165-0.053,0.349,0.026,0.507l0.871,2.287
			c0.072,0.199,0.196,0.374,0.36,0.508c0.143,0.121,0.324,0.189,0.511,0.192C60.34,112.324,60.489,112.248,60.565,112.115z"/>
	</g>
	<g id="XMLID_298_">
		<path id="XMLID_1204_" d="M61.11,108.298h0.336c0.039-0.001,0.074,0.024,0.085,0.062l1.6,4.198c0.017,0.041,0,0.062-0.038,0.062
			h-0.316c-0.039,0.001-0.075-0.024-0.086-0.062l-1.427-3.739c-0.003-0.008-0.008-0.015-0.016-0.019
			c-0.007-0.003-0.015-0.003-0.021,0l-0.509,0.192h-0.017c-0.034-0.003-0.063-0.025-0.076-0.056l-0.119-0.224v-0.012
			c-0.007-0.023,0.001-0.047,0.019-0.062l0.515-0.321c0.022-0.014,0.048-0.02,0.074-0.019L61.11,108.298z"/>
	</g>
	<g id="XMLID_297_">
		<path id="XMLID_1203_" d="M62.809,108.298h0.336c0.039-0.002,0.074,0.024,0.085,0.062l1.602,4.198
			c0.016,0.041,0,0.062-0.038,0.062H64.48c-0.039,0.001-0.074-0.024-0.085-0.062l-1.426-3.745c-0.003-0.008-0.009-0.015-0.017-0.019
			c-0.007-0.003-0.015-0.003-0.021,0l-0.509,0.192h-0.016c-0.034-0.003-0.064-0.025-0.077-0.056l-0.112-0.224v-0.012
			c-0.007-0.023,0.001-0.047,0.02-0.062l0.513-0.321c0.022-0.014,0.048-0.02,0.074-0.019L62.809,108.298z"/>
	</g>
	<g id="XMLID_296_">
		<path id="XMLID_1604_" d="M65.983,112.383c-0.27-0.204-0.476-0.482-0.592-0.8l-0.851-2.242c-0.126-0.251-0.132-0.544-0.018-0.8
			c0.138-0.216,0.387-0.334,0.641-0.306c0.32,0.001,0.631,0.109,0.883,0.306c0.272,0.204,0.478,0.482,0.595,0.8l0.851,2.242
			c0.126,0.251,0.132,0.545,0.015,0.8c-0.141,0.218-0.393,0.337-0.65,0.307C66.54,112.689,66.231,112.581,65.983,112.383z
			 M67.088,112.115c0.062-0.166,0.053-0.349-0.026-0.508l-0.871-2.287c-0.072-0.198-0.196-0.374-0.36-0.507
			c-0.147-0.123-0.332-0.191-0.524-0.192c-0.15-0.02-0.296,0.057-0.365,0.192c-0.062,0.165-0.053,0.349,0.026,0.507l0.871,2.287
			c0.072,0.199,0.196,0.374,0.36,0.508c0.143,0.121,0.324,0.189,0.511,0.192C66.863,112.324,67.012,112.248,67.088,112.115z"/>
	</g>
	<g id="XMLID_295_">
		<path id="XMLID_1600_" d="M46.383,119.799c-0.27-0.204-0.475-0.482-0.592-0.8l-0.852-2.242c-0.126-0.251-0.132-0.544-0.018-0.8
			c0.138-0.216,0.387-0.334,0.641-0.306c0.32,0.001,0.631,0.109,0.883,0.306c0.271,0.204,0.478,0.482,0.595,0.8l0.852,2.242
			c0.126,0.251,0.131,0.545,0.015,0.8c-0.141,0.218-0.393,0.337-0.65,0.307C46.94,120.105,46.632,119.997,46.383,119.799z
			 M47.49,119.531c0.062-0.166,0.053-0.35-0.026-0.509l-0.87-2.286c-0.072-0.198-0.197-0.373-0.361-0.507
			c-0.147-0.123-0.332-0.191-0.524-0.192c-0.15-0.019-0.296,0.057-0.365,0.192c-0.062,0.165-0.053,0.349,0.026,0.507l0.87,2.286
			c0.072,0.199,0.196,0.375,0.36,0.509c0.143,0.121,0.324,0.189,0.511,0.192c0.152,0.015,0.299-0.06,0.376-0.192H47.49z"/>
	</g>
	<g id="XMLID_294_">
		<path id="XMLID_1596_" d="M49.374,119.799c-0.27-0.205-0.475-0.482-0.592-0.8l-0.851-2.242c-0.126-0.251-0.132-0.544-0.018-0.8
			c0.137-0.217,0.386-0.336,0.64-0.306c0.32,0.001,0.631,0.109,0.883,0.306c0.272,0.204,0.479,0.482,0.596,0.8l0.851,2.242
			c0.126,0.251,0.132,0.545,0.015,0.8c-0.141,0.218-0.393,0.337-0.65,0.307C49.931,120.105,49.623,119.997,49.374,119.799z
			 M50.48,119.531c0.062-0.166,0.053-0.35-0.026-0.509l-0.871-2.286c-0.072-0.198-0.196-0.374-0.36-0.507
			c-0.147-0.123-0.333-0.191-0.525-0.192c-0.15-0.019-0.296,0.057-0.365,0.192c-0.062,0.165-0.053,0.349,0.026,0.507l0.871,2.286
			c0.072,0.199,0.196,0.375,0.36,0.509c0.143,0.121,0.324,0.189,0.511,0.192c0.154,0.018,0.303-0.057,0.38-0.192H50.48z"/>
	</g>
	<g id="XMLID_293_">
		<path id="XMLID_1592_" d="M52.365,119.799c-0.27-0.205-0.475-0.482-0.592-0.8l-0.851-2.242c-0.126-0.251-0.132-0.544-0.018-0.8
			c0.137-0.217,0.386-0.336,0.64-0.306c0.32,0.001,0.631,0.109,0.883,0.306c0.272,0.204,0.479,0.482,0.596,0.8l0.851,2.242
			c0.126,0.251,0.132,0.545,0.015,0.8c-0.141,0.218-0.393,0.337-0.65,0.307C52.922,120.105,52.614,119.997,52.365,119.799z
			 M53.47,119.531c0.062-0.166,0.053-0.35-0.026-0.509l-0.871-2.286c-0.072-0.198-0.196-0.374-0.36-0.507
			c-0.147-0.123-0.333-0.191-0.525-0.192c-0.15-0.019-0.296,0.057-0.365,0.192c-0.062,0.165-0.053,0.349,0.026,0.507l0.871,2.286
			c0.072,0.199,0.196,0.375,0.36,0.509c0.143,0.121,0.324,0.189,0.511,0.192c0.153,0.017,0.301-0.058,0.378-0.192H53.47z"/>
	</g>
	<g id="XMLID_292_">
		<path id="XMLID_1202_" d="M54.016,115.716h0.336c0.039-0.002,0.074,0.024,0.085,0.062l1.601,4.201
			c0.016,0.041,0,0.062-0.038,0.062h-0.315c-0.039,0.002-0.075-0.024-0.086-0.062l-1.426-3.744
			c-0.003-0.008-0.008-0.015-0.016-0.019c-0.007-0.004-0.015-0.004-0.021,0l-0.509,0.192l-0.016,0.007
			c-0.034-0.003-0.064-0.024-0.077-0.056l-0.119-0.224v-0.011c-0.007-0.023,0-0.047,0.019-0.062l0.515-0.321
			c0.022-0.013,0.048-0.02,0.074-0.019L54.016,115.716z"/>
	</g>
	<g id="XMLID_291_">
		<path id="XMLID_1201_" d="M55.715,115.716h0.336c0.039-0.002,0.074,0.024,0.085,0.062l1.601,4.201
			c0.016,0.041,0,0.062-0.038,0.062h-0.315c-0.039,0.002-0.075-0.024-0.086-0.062l-1.426-3.744
			c-0.003-0.008-0.008-0.015-0.016-0.019c-0.007-0.004-0.015-0.004-0.021,0l-0.509,0.192l-0.016,0.007
			c-0.034-0.003-0.064-0.024-0.077-0.056l-0.119-0.224v-0.011c-0.007-0.023,0-0.047,0.019-0.062l0.515-0.321
			c0.022-0.013,0.048-0.02,0.074-0.019L55.715,115.716z"/>
	</g>
	<g id="XMLID_290_">
		<path id="XMLID_1200_" d="M57.414,115.716h0.336c0.039-0.001,0.074,0.024,0.085,0.062l1.601,4.201
			c0.016,0.041,0,0.062-0.038,0.062h-0.315c-0.039,0.002-0.075-0.024-0.086-0.062l-1.421-3.744
			c-0.003-0.008-0.008-0.015-0.016-0.019c-0.007-0.004-0.015-0.004-0.021,0l-0.509,0.192l-0.017,0.007
			c-0.034-0.003-0.063-0.025-0.076-0.056l-0.119-0.224v-0.011c-0.007-0.023,0-0.047,0.019-0.062l0.515-0.321
			c0.022-0.013,0.047-0.02,0.073-0.019L57.414,115.716z"/>
	</g>
	<g id="XMLID_289_">
		<path id="XMLID_1199_" d="M59.115,115.716h0.336c0.039-0.002,0.074,0.024,0.085,0.062l1.601,4.201
			c0.016,0.041,0,0.062-0.038,0.062h-0.317c-0.039,0.002-0.075-0.024-0.086-0.062l-1.426-3.744
			c-0.003-0.008-0.008-0.015-0.016-0.019c-0.007-0.004-0.015-0.004-0.021,0l-0.509,0.192l-0.016,0.007
			c-0.034-0.003-0.064-0.024-0.077-0.056l-0.119-0.224v-0.011c-0.007-0.023,0-0.047,0.019-0.062l0.515-0.321
			c0.022-0.013,0.048-0.02,0.074-0.019L59.115,115.716z"/>
	</g>
	<g id="XMLID_288_">
		<path id="XMLID_1198_" d="M60.814,115.716h0.336c0.039-0.002,0.074,0.024,0.085,0.062l1.601,4.201
			c0.016,0.041,0,0.062-0.038,0.062h-0.315c-0.039,0.002-0.075-0.024-0.086-0.062l-1.426-3.744
			c-0.003-0.008-0.008-0.015-0.016-0.019c-0.007-0.004-0.015-0.004-0.021,0l-0.509,0.192l-0.016,0.007
			c-0.034-0.003-0.064-0.024-0.077-0.056l-0.119-0.224v-0.011c-0.007-0.023,0-0.047,0.019-0.062l0.515-0.321
			c0.022-0.013,0.048-0.02,0.074-0.019L60.814,115.716z"/>
	</g>
	<g id="XMLID_287_">
		<path id="XMLID_1578_" d="M63.985,119.799c-0.27-0.204-0.475-0.482-0.592-0.8l-0.852-2.242c-0.126-0.251-0.132-0.544-0.018-0.8
			c0.138-0.216,0.387-0.334,0.641-0.306c0.32,0.001,0.631,0.109,0.883,0.306c0.271,0.204,0.478,0.482,0.595,0.8l0.852,2.242
			c0.126,0.251,0.131,0.545,0.015,0.8c-0.141,0.218-0.393,0.337-0.65,0.307C64.542,120.105,64.234,119.997,63.985,119.799z
			 M65.092,119.531c0.062-0.166,0.053-0.35-0.026-0.509l-0.87-2.286c-0.072-0.198-0.197-0.373-0.361-0.507
			c-0.147-0.123-0.332-0.191-0.524-0.192c-0.15-0.019-0.296,0.057-0.365,0.192c-0.062,0.165-0.053,0.349,0.026,0.507l0.87,2.286
			c0.072,0.199,0.196,0.375,0.36,0.509c0.143,0.121,0.324,0.189,0.511,0.192c0.151,0.014,0.297-0.06,0.373-0.192H65.092z"/>
	</g>
	<g id="XMLID_286_">
		<path id="XMLID_1574_" d="M66.976,119.799c-0.27-0.204-0.475-0.482-0.592-0.8l-0.852-2.242c-0.126-0.251-0.132-0.544-0.018-0.8
			c0.138-0.216,0.387-0.334,0.641-0.306c0.32,0.001,0.631,0.109,0.883,0.306c0.271,0.204,0.478,0.482,0.595,0.8l0.852,2.242
			c0.126,0.251,0.131,0.545,0.015,0.8c-0.141,0.218-0.393,0.337-0.65,0.307C67.533,120.105,67.225,119.997,66.976,119.799z
			 M68.083,119.531c0.062-0.166,0.053-0.35-0.026-0.509l-0.87-2.286c-0.072-0.198-0.197-0.373-0.361-0.507
			c-0.147-0.123-0.332-0.191-0.524-0.192c-0.15-0.019-0.296,0.057-0.365,0.192c-0.062,0.165-0.053,0.349,0.026,0.507l0.87,2.286
			c0.072,0.199,0.196,0.375,0.36,0.509c0.143,0.121,0.324,0.189,0.511,0.192C67.857,119.74,68.005,119.664,68.083,119.531z"/>
	</g>
	<g id="XMLID_285_">
		<path id="XMLID_1197_" d="M68.626,115.716h0.336c0.039-0.001,0.074,0.024,0.085,0.062l1.601,4.201
			c0.016,0.041,0,0.062-0.038,0.062h-0.315c-0.039,0.002-0.075-0.024-0.086-0.062l-1.424-3.743
			c-0.003-0.008-0.008-0.015-0.016-0.019c-0.007-0.004-0.015-0.004-0.021,0l-0.509,0.192l-0.017,0.007
			c-0.034-0.003-0.063-0.025-0.076-0.056l-0.119-0.224v-0.011c-0.007-0.023,0-0.047,0.019-0.062l0.515-0.321
			c0.022-0.013,0.047-0.02,0.073-0.019L68.626,115.716z"/>
	</g>
	<g id="XMLID_284_">
		<path id="XMLID_1568_" d="M71.798,119.799c-0.27-0.204-0.475-0.482-0.592-0.8l-0.852-2.242c-0.126-0.251-0.132-0.544-0.018-0.8
			c0.138-0.216,0.387-0.334,0.641-0.306c0.32,0.001,0.631,0.109,0.883,0.306c0.271,0.204,0.478,0.482,0.595,0.8l0.852,2.242
			c0.126,0.251,0.131,0.545,0.015,0.8c-0.141,0.218-0.393,0.337-0.65,0.307C72.354,120.105,72.046,119.997,71.798,119.799z
			 M72.904,119.531c0.062-0.166,0.053-0.35-0.026-0.509l-0.87-2.286c-0.072-0.198-0.197-0.373-0.361-0.507
			c-0.147-0.123-0.332-0.191-0.524-0.192c-0.15-0.019-0.296,0.057-0.365,0.192c-0.062,0.165-0.053,0.349,0.026,0.507l0.87,2.286
			c0.072,0.199,0.196,0.375,0.36,0.509c0.143,0.121,0.324,0.189,0.511,0.192C72.678,119.74,72.827,119.664,72.904,119.531z"/>
	</g>
	<g id="XMLID_283_">
		<path id="XMLID_1196_" d="M73.447,115.716h0.336c0.039-0.002,0.074,0.024,0.085,0.062l1.601,4.201
			c0.016,0.041,0,0.062-0.038,0.062h-0.315c-0.039,0.002-0.075-0.024-0.086-0.062l-1.426-3.744
			c-0.003-0.008-0.008-0.015-0.016-0.019c-0.007-0.004-0.015-0.004-0.021,0l-0.509,0.192l-0.016,0.007
			c-0.034-0.003-0.064-0.024-0.077-0.056l-0.119-0.224v-0.011c-0.007-0.023,0-0.047,0.019-0.062l0.515-0.321
			c0.022-0.013,0.048-0.02,0.074-0.019L73.447,115.716z"/>
	</g>
	<g id="XMLID_282_">
		<path id="XMLID_1562_" d="M76.618,119.799c-0.27-0.205-0.475-0.482-0.592-0.8l-0.851-2.242c-0.126-0.251-0.132-0.544-0.018-0.8
			c0.137-0.217,0.386-0.336,0.64-0.306c0.32,0.001,0.631,0.109,0.883,0.306c0.272,0.204,0.479,0.482,0.596,0.8l0.851,2.242
			c0.126,0.251,0.132,0.545,0.015,0.8c-0.141,0.218-0.393,0.337-0.65,0.307C77.174,120.105,76.866,119.997,76.618,119.799z
			 M77.723,119.531c0.062-0.166,0.053-0.35-0.026-0.509l-0.871-2.286c-0.072-0.198-0.196-0.374-0.36-0.507
			c-0.147-0.123-0.333-0.191-0.525-0.192c-0.15-0.019-0.296,0.057-0.365,0.192c-0.062,0.165-0.053,0.349,0.026,0.507l0.871,2.286
			c0.072,0.199,0.196,0.375,0.36,0.509c0.143,0.121,0.324,0.189,0.511,0.192c0.153,0.017,0.301-0.058,0.378-0.192H77.723z"/>
	</g>
	<g id="XMLID_281_">
		<path id="XMLID_1195_" d="M78.268,115.716h0.336c0.039-0.002,0.074,0.024,0.085,0.062l1.601,4.201
			c0.016,0.041,0,0.062-0.038,0.062h-0.315c-0.039,0.002-0.075-0.024-0.086-0.062l-1.426-3.744
			c-0.003-0.008-0.008-0.015-0.016-0.019c-0.007-0.004-0.015-0.004-0.021,0l-0.509,0.192l-0.016,0.007
			c-0.034-0.003-0.064-0.024-0.077-0.056l-0.119-0.224v-0.011c-0.007-0.023,0-0.047,0.019-0.062l0.515-0.321
			c0.022-0.013,0.048-0.02,0.074-0.019L78.268,115.716z"/>
	</g>
	<g id="XMLID_280_">
		<path id="XMLID_1556_" d="M81.438,119.799c-0.27-0.205-0.475-0.482-0.592-0.8l-0.851-2.242c-0.126-0.251-0.132-0.544-0.018-0.8
			c0.137-0.217,0.386-0.336,0.64-0.306c0.32,0.001,0.631,0.109,0.883,0.306c0.272,0.204,0.479,0.482,0.596,0.8l0.851,2.242
			c0.126,0.251,0.132,0.545,0.015,0.8c-0.141,0.218-0.393,0.337-0.65,0.307C81.995,120.105,81.687,119.997,81.438,119.799z
			 M82.543,119.531c0.062-0.166,0.053-0.35-0.026-0.509l-0.871-2.286c-0.072-0.198-0.196-0.374-0.36-0.507
			c-0.147-0.123-0.333-0.191-0.525-0.192c-0.15-0.019-0.296,0.057-0.365,0.192c-0.062,0.165-0.052,0.349,0.026,0.507l0.871,2.286
			c0.072,0.199,0.196,0.375,0.36,0.509c0.143,0.121,0.324,0.189,0.511,0.192c0.153,0.017,0.301-0.058,0.378-0.192H82.543z"/>
	</g>
	<g id="XMLID_279_">
		<path id="XMLID_1552_" d="M84.43,119.799c-0.27-0.204-0.475-0.482-0.592-0.8l-0.852-2.242c-0.126-0.251-0.132-0.544-0.018-0.8
			c0.138-0.216,0.387-0.334,0.641-0.306c0.32,0.001,0.631,0.109,0.883,0.306c0.271,0.204,0.478,0.482,0.595,0.8l0.852,2.242
			c0.126,0.251,0.131,0.545,0.015,0.8c-0.141,0.218-0.393,0.337-0.65,0.307C84.987,120.105,84.679,119.997,84.43,119.799z
			 M85.536,119.531c0.062-0.166,0.053-0.35-0.026-0.509l-0.87-2.286c-0.072-0.198-0.197-0.373-0.361-0.507
			c-0.147-0.123-0.332-0.191-0.524-0.192c-0.15-0.019-0.296,0.057-0.365,0.192c-0.062,0.165-0.053,0.349,0.026,0.507l0.87,2.286
			c0.072,0.199,0.196,0.375,0.36,0.509c0.143,0.121,0.324,0.189,0.511,0.192C85.311,119.74,85.459,119.664,85.536,119.531z"/>
	</g>
	<g id="XMLID_278_">
		<path id="XMLID_1194_" d="M86.08,115.716h0.336c0.039-0.002,0.074,0.024,0.085,0.062l1.601,4.201c0.016,0.041,0,0.062-0.038,0.062
			h-0.315c-0.039,0.002-0.075-0.024-0.086-0.062l-1.426-3.744c-0.003-0.008-0.008-0.015-0.016-0.019
			c-0.007-0.004-0.015-0.004-0.021,0l-0.509,0.192l-0.016,0.007c-0.034-0.003-0.064-0.024-0.077-0.056l-0.119-0.224v-0.011
			c-0.007-0.023,0-0.047,0.019-0.062l0.515-0.321c0.022-0.013,0.048-0.02,0.074-0.019L86.08,115.716z"/>
	</g>
	<g id="XMLID_277_">
		<path id="XMLID_1193_" d="M87.778,115.716h0.336c0.039-0.001,0.074,0.024,0.085,0.062l1.601,4.201
			c0.016,0.041,0,0.062-0.038,0.062h-0.315c-0.039,0.002-0.075-0.024-0.086-0.062l-1.426-3.744
			c-0.003-0.008-0.008-0.015-0.016-0.019c-0.007-0.004-0.015-0.004-0.021,0l-0.509,0.192l-0.017,0.007
			c-0.034-0.003-0.063-0.025-0.076-0.056l-0.119-0.224v-0.011c-0.007-0.023,0-0.047,0.019-0.062l0.515-0.321
			c0.022-0.013,0.047-0.02,0.073-0.019L87.778,115.716z"/>
	</g>
	<g id="XMLID_276_">
		<path id="XMLID_1544_" d="M90.951,119.799c-0.27-0.204-0.475-0.482-0.592-0.8l-0.852-2.242c-0.126-0.251-0.132-0.544-0.018-0.8
			c0.138-0.216,0.387-0.334,0.641-0.306c0.32,0.001,0.631,0.109,0.883,0.306c0.271,0.204,0.478,0.482,0.595,0.8l0.852,2.242
			c0.126,0.251,0.131,0.545,0.015,0.8c-0.141,0.218-0.393,0.337-0.65,0.307C91.508,120.105,91.199,119.997,90.951,119.799z
			 M92.057,119.531c0.062-0.166,0.053-0.35-0.026-0.509l-0.87-2.286c-0.072-0.198-0.197-0.373-0.361-0.507
			c-0.147-0.123-0.332-0.191-0.524-0.192c-0.15-0.019-0.296,0.057-0.365,0.192c-0.062,0.165-0.053,0.349,0.026,0.507l0.87,2.286
			c0.072,0.199,0.196,0.375,0.36,0.509c0.143,0.121,0.324,0.189,0.511,0.192C91.832,119.74,91.98,119.664,92.057,119.531z"/>
	</g>
	<g id="XMLID_275_">
		<path id="XMLID_1540_" d="M93.942,119.799c-0.27-0.204-0.475-0.482-0.592-0.8l-0.852-2.242c-0.126-0.251-0.132-0.544-0.018-0.8
			c0.138-0.216,0.387-0.334,0.641-0.306c0.32,0.001,0.631,0.109,0.883,0.306c0.271,0.204,0.478,0.482,0.595,0.8l0.852,2.242
			c0.126,0.251,0.131,0.545,0.015,0.8c-0.141,0.218-0.393,0.337-0.65,0.307C94.498,120.105,94.19,119.997,93.942,119.799z
			 M95.048,119.531c0.062-0.166,0.053-0.35-0.026-0.509l-0.87-2.286c-0.072-0.198-0.197-0.373-0.361-0.507
			c-0.147-0.123-0.332-0.191-0.524-0.192c-0.15-0.019-0.296,0.057-0.365,0.192c-0.062,0.165-0.053,0.349,0.026,0.507l0.87,2.286
			c0.072,0.199,0.196,0.375,0.36,0.509c0.143,0.121,0.324,0.189,0.511,0.192C94.822,119.74,94.971,119.664,95.048,119.531z"/>
	</g>
	<g id="XMLID_274_">
		<path id="XMLID_1192_" d="M95.591,115.716h0.336c0.039-0.001,0.074,0.024,0.085,0.062l1.601,4.201
			c0.016,0.041,0,0.062-0.038,0.062h-0.316c-0.039,0.002-0.075-0.024-0.086-0.062l-1.426-3.744
			c-0.003-0.008-0.008-0.015-0.016-0.019c-0.007-0.004-0.015-0.004-0.021,0l-0.509,0.192l-0.017,0.007
			c-0.034-0.003-0.063-0.025-0.076-0.056l-0.119-0.224v-0.011c-0.007-0.023,0-0.047,0.019-0.062l0.515-0.321
			c0.022-0.013,0.047-0.02,0.073-0.019L95.591,115.716z"/>
	</g>
	<g id="XMLID_273_">
		<path id="XMLID_1191_" d="M97.291,115.716h0.336c0.039-0.002,0.074,0.024,0.085,0.062l1.601,4.201
			c0.016,0.041,0,0.062-0.038,0.062H98.96c-0.039,0.002-0.075-0.024-0.086-0.062l-1.426-3.744c-0.003-0.008-0.008-0.015-0.016-0.019
			c-0.007-0.004-0.015-0.004-0.021,0l-0.509,0.192l-0.016,0.007c-0.034-0.003-0.064-0.024-0.077-0.056l-0.119-0.224v-0.011
			c-0.007-0.023,0-0.047,0.019-0.062l0.515-0.321c0.022-0.013,0.048-0.02,0.074-0.019L97.291,115.716z"/>
	</g>
	<g id="XMLID_272_">
		<path id="XMLID_1532_" d="M100.463,119.799c-0.27-0.205-0.475-0.482-0.592-0.8l-0.851-2.242c-0.126-0.251-0.132-0.544-0.018-0.8
			c0.137-0.217,0.386-0.336,0.64-0.306c0.32,0.001,0.631,0.109,0.883,0.306c0.272,0.204,0.479,0.482,0.596,0.8l0.851,2.242
			c0.126,0.251,0.132,0.545,0.015,0.8c-0.141,0.218-0.393,0.337-0.65,0.307C101.019,120.105,100.711,119.997,100.463,119.799z
			 M101.568,119.531c0.062-0.166,0.053-0.35-0.026-0.509l-0.871-2.286c-0.072-0.198-0.196-0.374-0.36-0.507
			c-0.147-0.123-0.333-0.191-0.525-0.192c-0.15-0.019-0.296,0.057-0.365,0.192c-0.062,0.165-0.053,0.349,0.026,0.507l0.871,2.286
			c0.072,0.199,0.196,0.375,0.36,0.509c0.143,0.121,0.324,0.189,0.511,0.192c0.153,0.017,0.301-0.058,0.378-0.192H101.568z"/>
	</g>
	<g id="XMLID_271_">
		<path id="XMLID_1528_" d="M103.453,119.799c-0.27-0.205-0.475-0.482-0.592-0.8l-0.851-2.242c-0.126-0.251-0.132-0.544-0.018-0.8
			c0.137-0.217,0.386-0.336,0.64-0.306c0.32,0.001,0.631,0.109,0.883,0.306c0.272,0.204,0.479,0.482,0.596,0.8l0.851,2.242
			c0.126,0.251,0.132,0.545,0.015,0.8c-0.141,0.218-0.393,0.337-0.65,0.307C104.01,120.105,103.702,119.997,103.453,119.799z
			 M104.559,119.531c0.062-0.166,0.053-0.35-0.026-0.509l-0.871-2.286c-0.072-0.198-0.196-0.374-0.36-0.507
			c-0.147-0.123-0.333-0.191-0.525-0.192c-0.15-0.019-0.296,0.057-0.365,0.192c-0.062,0.165-0.053,0.349,0.026,0.507l0.871,2.286
			c0.072,0.199,0.196,0.375,0.36,0.509c0.143,0.121,0.324,0.189,0.511,0.192c0.153,0.017,0.301-0.058,0.378-0.192H104.559z"/>
	</g>
	<path id="XMLID_1190_" class="st7" d="M117.489,118.86H86.598l-8.09-21.242h30.891L117.489,118.86z"/>
	<path id="XMLID_1189_" class="st1" d="M119.373,115.535H88.481l-8.09-21.242h30.891L119.373,115.535z"/>
	<path id="XMLID_1188_" class="st1" d="M119.373,115.535H88.481l-8.09-21.242h30.891L119.373,115.535z"/>
	<g id="XMLID_586_">
		<defs>
			<path id="XMLID_653_" d="M119.373,115.815H88.481c-0.116,0-0.22-0.072-0.262-0.181l-8.09-21.242
				c-0.033-0.086-0.021-0.183,0.031-0.258c0.053-0.077,0.139-0.122,0.231-0.122h30.891c0.116,0,0.22,0.072,0.262,0.181l8.091,21.242
				c0.033,0.086,0.022,0.183-0.031,0.258C119.552,115.771,119.465,115.815,119.373,115.815z M88.674,115.255h30.293l-7.878-20.682
				H80.798L88.674,115.255z"/>
		</defs>
		<clipPath id="XMLID_2_">
			<use xlink:href="#XMLID_653_"  style="overflow:visible;"/>
		</clipPath>
		<rect id="XMLID_587_" x="80.798" y="94.573" class="st9" width="21.062" height="20.682"/>
		<rect id="XMLID_588_" x="101.859" y="94.573" class="st9" width="0.847" height="20.682"/>
		<rect id="XMLID_589_" x="102.707" y="94.573" class="st10" width="0.847" height="20.682"/>
		<rect id="XMLID_602_" x="103.554" y="94.573" class="st11" width="0.847" height="20.682"/>
		<rect id="XMLID_611_" x="104.401" y="94.573" class="st12" width="0.847" height="20.682"/>
		<rect id="XMLID_612_" x="105.249" y="94.573" class="st13" width="0.847" height="20.682"/>
		<rect id="XMLID_613_" x="106.096" y="94.573" class="st14" width="0.847" height="20.682"/>
		<rect id="XMLID_614_" x="106.943" y="94.573" class="st15" width="0.847" height="20.682"/>
		<rect id="XMLID_615_" x="107.791" y="94.573" class="st16" width="0.847" height="20.682"/>
		<rect id="XMLID_616_" x="108.638" y="94.573" class="st17" width="0.847" height="20.682"/>
		<rect id="XMLID_617_" x="109.485" y="94.573" class="st18" width="0.847" height="20.682"/>
		<rect id="XMLID_618_" x="110.333" y="94.573" class="st19" width="0.847" height="20.682"/>
		<rect id="XMLID_619_" x="111.18" y="94.573" class="st20" width="0.847" height="20.682"/>
		<rect id="XMLID_620_" x="112.027" y="94.573" class="st21" width="0.847" height="20.682"/>
		<rect id="XMLID_621_" x="112.875" y="94.573" class="st22" width="0.847" height="20.682"/>
		<rect id="XMLID_622_" x="113.722" y="94.573" class="st23" width="0.847" height="20.682"/>
		<rect id="XMLID_623_" x="114.569" y="94.573" class="st24" width="0.847" height="20.682"/>
		<rect id="XMLID_624_" x="115.417" y="94.573" class="st25" width="0.847" height="20.682"/>
		<rect id="XMLID_625_" x="116.264" y="94.573" class="st26" width="0.847" height="20.682"/>
		<rect id="XMLID_626_" x="117.111" y="94.573" class="st27" width="0.847" height="20.682"/>
		<rect id="XMLID_627_" x="117.959" y="94.573" class="st28" width="0.847" height="20.682"/>
		<rect id="XMLID_628_" x="118.806" y="94.573" class="st29" width="0.161" height="20.682"/>
		<rect id="XMLID_629_" x="80.097" y="94.013" class="st9" width="0.014" height="21.803"/>
		<rect id="XMLID_630_" x="80.111" y="94.013" class="st9" width="21.748" height="21.803"/>
		<rect id="XMLID_631_" x="101.859" y="94.013" class="st9" width="0.847" height="21.803"/>
		<rect id="XMLID_632_" x="102.707" y="94.013" class="st10" width="0.847" height="21.803"/>
		<rect id="XMLID_633_" x="103.554" y="94.013" class="st11" width="0.847" height="21.803"/>
		<rect id="XMLID_634_" x="104.401" y="94.013" class="st12" width="0.847" height="21.803"/>
		<rect id="XMLID_635_" x="105.249" y="94.013" class="st13" width="0.847" height="21.803"/>
		<rect id="XMLID_636_" x="106.096" y="94.013" class="st14" width="0.847" height="21.803"/>
		<rect id="XMLID_637_" x="106.943" y="94.013" class="st15" width="0.847" height="21.803"/>
		<rect id="XMLID_638_" x="107.791" y="94.013" class="st16" width="0.847" height="21.803"/>
		<rect id="XMLID_639_" x="108.638" y="94.013" class="st17" width="0.847" height="21.803"/>
		<rect id="XMLID_640_" x="109.485" y="94.013" class="st18" width="0.847" height="21.803"/>
		<rect id="XMLID_641_" x="110.333" y="94.013" class="st19" width="0.847" height="21.803"/>
		<rect id="XMLID_642_" x="111.18" y="94.013" class="st20" width="0.847" height="21.803"/>
		<rect id="XMLID_643_" x="112.027" y="94.013" class="st21" width="0.847" height="21.803"/>
		<rect id="XMLID_644_" x="112.875" y="94.013" class="st22" width="0.847" height="21.803"/>
		<rect id="XMLID_645_" x="113.722" y="94.013" class="st23" width="0.847" height="21.803"/>
		<rect id="XMLID_646_" x="114.569" y="94.013" class="st24" width="0.847" height="21.803"/>
		<rect id="XMLID_647_" x="115.417" y="94.013" class="st25" width="0.847" height="21.803"/>
		<rect id="XMLID_648_" x="116.264" y="94.013" class="st26" width="0.847" height="21.803"/>
		<rect id="XMLID_649_" x="117.111" y="94.013" class="st27" width="0.847" height="21.803"/>
		<rect id="XMLID_650_" x="117.959" y="94.013" class="st28" width="0.847" height="21.803"/>
		<rect id="XMLID_651_" x="118.806" y="94.013" class="st29" width="0.847" height="21.803"/>
		<rect id="XMLID_652_" x="119.653" y="94.013" class="st29" width="0.014" height="21.803"/>
	</g>
	<path id="XMLID_1187_" class="st7" d="M111.282,94.293l-11.401,10.621L80.391,94.293H111.282z"/>
	<g id="XMLID_539_">
		<defs>
			<path id="XMLID_585_" d="M99.882,105.194c-0.046,0-0.092-0.011-0.134-0.034L80.257,94.539c-0.113-0.061-0.169-0.192-0.137-0.315
				c0.032-0.125,0.143-0.211,0.271-0.211h30.891c0.115,0,0.219,0.07,0.261,0.177c0.043,0.107,0.014,0.23-0.07,0.308l-11.399,10.621
				C100.02,105.169,99.951,105.194,99.882,105.194z M81.491,94.573l18.346,9.998l10.733-9.998H81.491z"/>
		</defs>
		<clipPath id="XMLID_3_">
			<use xlink:href="#XMLID_585_"  style="overflow:visible;"/>
		</clipPath>
		<rect id="XMLID_540_" x="81.491" y="94.573" class="st30" width="15.918" height="9.998"/>
		<rect id="XMLID_541_" x="97.409" y="94.573" class="st30" width="0.674" height="9.998"/>
		<rect id="XMLID_542_" x="98.083" y="94.573" class="st31" width="0.674" height="9.998"/>
		<rect id="XMLID_543_" x="98.757" y="94.573" class="st32" width="0.674" height="9.998"/>
		<rect id="XMLID_544_" x="99.431" y="94.573" class="st33" width="0.674" height="9.998"/>
		<rect id="XMLID_545_" x="100.105" y="94.573" class="st34" width="0.674" height="9.998"/>
		<rect id="XMLID_546_" x="100.779" y="94.573" class="st35" width="0.674" height="9.998"/>
		<rect id="XMLID_547_" x="101.453" y="94.573" class="st36" width="0.674" height="9.998"/>
		<rect id="XMLID_548_" x="102.127" y="94.573" class="st37" width="0.674" height="9.998"/>
		<rect id="XMLID_549_" x="102.801" y="94.573" class="st38" width="0.674" height="9.998"/>
		<rect id="XMLID_550_" x="103.475" y="94.573" class="st39" width="0.674" height="9.998"/>
		<rect id="XMLID_551_" x="104.149" y="94.573" class="st40" width="0.674" height="9.998"/>
		<rect id="XMLID_552_" x="104.823" y="94.573" class="st41" width="0.674" height="9.998"/>
		<rect id="XMLID_553_" x="105.497" y="94.573" class="st42" width="0.674" height="9.998"/>
		<rect id="XMLID_554_" x="106.171" y="94.573" class="st43" width="0.674" height="9.998"/>
		<rect id="XMLID_555_" x="106.845" y="94.573" class="st44" width="0.674" height="9.998"/>
		<rect id="XMLID_556_" x="107.519" y="94.573" class="st45" width="0.674" height="9.998"/>
		<rect id="XMLID_557_" x="108.192" y="94.573" class="st46" width="0.674" height="9.998"/>
		<rect id="XMLID_558_" x="108.866" y="94.573" class="st47" width="0.674" height="9.998"/>
		<rect id="XMLID_559_" x="109.54" y="94.573" class="st48" width="0.674" height="9.998"/>
		<rect id="XMLID_560_" x="110.214" y="94.573" class="st49" width="0.356" height="9.998"/>
		<rect id="XMLID_561_" x="80.088" y="94.013" class="st30" width="0.023" height="11.182"/>
		<rect id="XMLID_562_" x="80.111" y="94.013" class="st30" width="17.298" height="11.182"/>
		<rect id="XMLID_563_" x="97.409" y="94.013" class="st30" width="0.674" height="11.182"/>
		<rect id="XMLID_564_" x="98.083" y="94.013" class="st31" width="0.674" height="11.182"/>
		<rect id="XMLID_565_" x="98.757" y="94.013" class="st32" width="0.674" height="11.182"/>
		<rect id="XMLID_566_" x="99.431" y="94.013" class="st33" width="0.674" height="11.182"/>
		<rect id="XMLID_567_" x="100.105" y="94.013" class="st34" width="0.674" height="11.182"/>
		<rect id="XMLID_568_" x="100.779" y="94.013" class="st35" width="0.674" height="11.182"/>
		<rect id="XMLID_569_" x="101.453" y="94.013" class="st36" width="0.674" height="11.182"/>
		<rect id="XMLID_570_" x="102.127" y="94.013" class="st37" width="0.674" height="11.182"/>
		<rect id="XMLID_571_" x="102.801" y="94.013" class="st38" width="0.674" height="11.182"/>
		<rect id="XMLID_572_" x="103.475" y="94.013" class="st39" width="0.674" height="11.182"/>
		<rect id="XMLID_573_" x="104.149" y="94.013" class="st40" width="0.674" height="11.182"/>
		<rect id="XMLID_574_" x="104.823" y="94.013" class="st41" width="0.674" height="11.182"/>
		<rect id="XMLID_575_" x="105.497" y="94.013" class="st42" width="0.674" height="11.182"/>
		<rect id="XMLID_576_" x="106.171" y="94.013" class="st43" width="0.674" height="11.182"/>
		<rect id="XMLID_577_" x="106.845" y="94.013" class="st44" width="0.674" height="11.182"/>
		<rect id="XMLID_578_" x="107.519" y="94.013" class="st45" width="0.674" height="11.182"/>
		<rect id="XMLID_579_" x="108.192" y="94.013" class="st46" width="0.674" height="11.182"/>
		<rect id="XMLID_580_" x="108.866" y="94.013" class="st47" width="0.674" height="11.182"/>
		<rect id="XMLID_581_" x="109.54" y="94.013" class="st48" width="0.674" height="11.182"/>
		<rect id="XMLID_582_" x="110.214" y="94.013" class="st49" width="0.674" height="11.182"/>
		<rect id="XMLID_583_" x="110.888" y="94.013" class="st50" width="0.674" height="11.182"/>
		<rect id="XMLID_584_" x="111.562" y="94.013" class="st50" width="0.023" height="11.182"/>
	</g>
	<path id="XMLID_1186_" class="st7" d="M96.268,102.944l3.614,1.97l2.94-2.74l16.55,13.36H88.481L96.268,102.944z"/>
	<g id="XMLID_492_">
		<defs>
			<path id="XMLID_538_" d="M119.373,115.814H88.481c-0.102,0-0.195-0.055-0.245-0.143c-0.049-0.089-0.047-0.198,0.007-0.285
				l7.787-12.59c0.079-0.127,0.243-0.17,0.373-0.099l3.436,1.873l2.793-2.601c0.101-0.096,0.258-0.101,0.367-0.013l16.551,13.36
				c0.092,0.074,0.128,0.199,0.088,0.311C119.598,115.74,119.493,115.814,119.373,115.814z M88.984,115.254h29.596l-15.744-12.709
				l-2.763,2.573c-0.088,0.084-0.218,0.099-0.325,0.042l-3.381-1.842L88.984,115.254z"/>
		</defs>
		<clipPath id="XMLID_4_">
			<use xlink:href="#XMLID_538_"  style="overflow:visible;"/>
		</clipPath>
		<rect id="XMLID_493_" x="88.984" y="102.545" class="st51" width="16.516" height="12.709"/>
		<rect id="XMLID_494_" x="105.5" y="102.545" class="st51" width="0.674" height="12.709"/>
		<rect id="XMLID_495_" x="106.174" y="102.545" class="st52" width="0.674" height="12.709"/>
		<rect id="XMLID_496_" x="106.848" y="102.545" class="st53" width="0.674" height="12.709"/>
		<rect id="XMLID_497_" x="107.522" y="102.545" class="st54" width="0.674" height="12.709"/>
		<rect id="XMLID_498_" x="108.196" y="102.545" class="st55" width="0.674" height="12.709"/>
		<rect id="XMLID_499_" x="108.87" y="102.545" class="st56" width="0.674" height="12.709"/>
		<rect id="XMLID_500_" x="109.544" y="102.545" class="st57" width="0.674" height="12.709"/>
		<rect id="XMLID_501_" x="110.218" y="102.545" class="st58" width="0.674" height="12.709"/>
		<rect id="XMLID_502_" x="110.892" y="102.545" class="st59" width="0.674" height="12.709"/>
		<rect id="XMLID_503_" x="111.566" y="102.545" class="st60" width="0.674" height="12.709"/>
		<rect id="XMLID_504_" x="112.24" y="102.545" class="st61" width="0.674" height="12.709"/>
		<rect id="XMLID_505_" x="112.914" y="102.545" class="st62" width="0.674" height="12.709"/>
		<rect id="XMLID_506_" x="113.588" y="102.545" class="st63" width="0.674" height="12.709"/>
		<rect id="XMLID_507_" x="114.262" y="102.545" class="st64" width="0.674" height="12.709"/>
		<rect id="XMLID_508_" x="114.936" y="102.545" class="st65" width="0.674" height="12.709"/>
		<rect id="XMLID_509_" x="115.61" y="102.545" class="st66" width="0.674" height="12.709"/>
		<rect id="XMLID_510_" x="116.284" y="102.545" class="st67" width="0.674" height="12.709"/>
		<rect id="XMLID_511_" x="116.958" y="102.545" class="st68" width="0.674" height="12.709"/>
		<rect id="XMLID_512_" x="117.632" y="102.545" class="st69" width="0.674" height="12.709"/>
		<rect id="XMLID_513_" x="118.306" y="102.545" class="st70" width="0.274" height="12.709"/>
		<rect id="XMLID_514_" x="88.187" y="101.869" class="st51" width="0.014" height="13.946"/>
		<rect id="XMLID_515_" x="88.201" y="101.869" class="st51" width="17.299" height="13.946"/>
		<rect id="XMLID_516_" x="105.5" y="101.869" class="st51" width="0.674" height="13.946"/>
		<rect id="XMLID_517_" x="106.174" y="101.869" class="st52" width="0.674" height="13.946"/>
		<rect id="XMLID_518_" x="106.848" y="101.869" class="st53" width="0.674" height="13.946"/>
		<rect id="XMLID_519_" x="107.522" y="101.869" class="st54" width="0.674" height="13.946"/>
		<rect id="XMLID_520_" x="108.196" y="101.869" class="st55" width="0.674" height="13.946"/>
		<rect id="XMLID_521_" x="108.87" y="101.869" class="st56" width="0.674" height="13.946"/>
		<rect id="XMLID_522_" x="109.544" y="101.869" class="st57" width="0.674" height="13.946"/>
		<rect id="XMLID_523_" x="110.218" y="101.869" class="st58" width="0.674" height="13.946"/>
		<rect id="XMLID_524_" x="110.892" y="101.869" class="st59" width="0.674" height="13.946"/>
		<rect id="XMLID_525_" x="111.566" y="101.869" class="st60" width="0.674" height="13.946"/>
		<rect id="XMLID_526_" x="112.24" y="101.869" class="st61" width="0.674" height="13.946"/>
		<rect id="XMLID_527_" x="112.914" y="101.869" class="st62" width="0.674" height="13.946"/>
		<rect id="XMLID_528_" x="113.588" y="101.869" class="st63" width="0.674" height="13.946"/>
		<rect id="XMLID_529_" x="114.262" y="101.869" class="st64" width="0.674" height="13.946"/>
		<rect id="XMLID_530_" x="114.936" y="101.869" class="st65" width="0.674" height="13.946"/>
		<rect id="XMLID_531_" x="115.61" y="101.869" class="st66" width="0.674" height="13.946"/>
		<rect id="XMLID_532_" x="116.284" y="101.869" class="st67" width="0.674" height="13.946"/>
		<rect id="XMLID_533_" x="116.958" y="101.869" class="st68" width="0.674" height="13.946"/>
		<rect id="XMLID_534_" x="117.632" y="101.869" class="st69" width="0.674" height="13.946"/>
		<rect id="XMLID_535_" x="118.306" y="101.869" class="st70" width="0.674" height="13.946"/>
		<rect id="XMLID_536_" x="118.979" y="101.869" class="st71" width="0.674" height="13.946"/>
		<rect id="XMLID_537_" x="119.653" y="101.869" class="st71" width="0.024" height="13.946"/>
	</g>
	<path id="XMLID_1185_" class="st0" d="M40.829,62.706h38.367c1.821,0.133,3.411,1.284,4.106,2.973l11.256,29.554
		c0.623,1.636-0.205,2.973-1.841,2.973H54.35c-1.821-0.133-3.411-1.284-4.106-2.973L38.988,65.678
		C38.365,64.043,39.193,62.706,40.829,62.706z"/>
	<g id="XMLID_256_">
		<path id="XMLID_1184_" class="st1" d="M69.303,71.632c-1.276-3.35-5.099-6.047-8.423-5.884c-2.816,0.139-4.358,2.407-3.561,5.269
			c0.66,2.072,2.024,3.847,3.856,5.018c0.974,0.636,1.896,1.348,2.758,2.13c0.614,0.566,1.436,0.85,2.268,0.785
			c0.773,0,1.439-0.09,1.668-0.793c0.216-0.722,0.566-1.398,1.031-1.991c0.952-1.323,1.107-3.06,0.406-4.531L69.303,71.632z"/>
	</g>
	<g id="XMLID_255_">
		<path id="XMLID_1183_" class="st1" d="M79.147,88.306c-0.016,0.112-0.203,0.364-0.673,0.16l-0.358-0.156l-18.428-8.048
			l-0.358-0.156c-0.305-0.1-0.521-0.373-0.549-0.693c-0.01-1.412-0.885-2.673-2.204-3.177c-1.382-0.604-2.637-0.158-2.802,0.994
			c-0.05,0.81,0.251,1.602,0.826,2.175c-0.676,0.05-1.225,0.568-1.314,1.24c0.01,1.413,0.885,2.675,2.205,3.179
			c1.382,0.604,2.637,0.158,2.802-0.994c0.016-0.112,0.203-0.364,0.673-0.16l0.358,0.156l18.428,8.045l0.358,0.156
			c0.305,0.1,0.521,0.373,0.549,0.693c0.01,1.413,0.885,2.675,2.205,3.179c1.382,0.604,2.637,0.158,2.802-0.994
			c0.05-0.81-0.251-1.602-0.826-2.175c0.676-0.05,1.225-0.568,1.314-1.24c-0.01-1.413-0.885-2.675-2.205-3.179
			C80.566,86.708,79.312,87.153,79.147,88.306z"/>
	</g>
	<g id="XMLID_254_">
		<path id="XMLID_1182_" class="st1" d="M60.378,88.306c0.2,0.222,0.522,0.287,0.793,0.16l0.239-0.156l12.3-8.048l0.239-0.156
			c0.312-0.204,0.121-0.582,0.02-0.693c-1.043-1.152-1.14-2.578-0.217-3.179s2.516-0.158,3.558,0.994
			c0.577,0.572,0.88,1.364,0.831,2.175c0.875,0.137,1.674,0.575,2.259,1.24c1.043,1.152,1.14,2.578,0.217,3.179
			c-0.923,0.601-2.516,0.158-3.558-0.994c-0.199-0.224-0.522-0.289-0.793-0.16l-0.239,0.156l-12.297,8.048l-0.239,0.156
			c-0.312,0.204-0.121,0.582-0.02,0.693c1.043,1.152,1.14,2.578,0.217,3.179s-2.516,0.158-3.558-0.994
			c-0.577-0.572-0.88-1.364-0.831-2.175c-0.875-0.137-1.674-0.575-2.259-1.24c-1.043-1.152-1.14-2.578-0.217-3.179
			C57.745,86.711,59.339,87.153,60.378,88.306z"/>
	</g>
	<g id="XMLID_253_">
		<path id="XMLID_1181_" class="st8" d="M107.403,87.889h-3.721c-0.122-0.009-0.228-0.086-0.275-0.198
			c-0.043-0.112,0.013-0.198,0.123-0.198h3.721c0.122,0.009,0.228,0.086,0.275,0.198c0.037,0.062,0.017,0.143-0.045,0.18
			C107.458,87.885,107.43,87.891,107.403,87.889z"/>
	</g>
	<g id="XMLID_252_">
		<path id="XMLID_1180_" class="st8" d="M110.45,87.889h-1.75c-0.122-0.009-0.228-0.086-0.275-0.198
			c-0.043-0.112,0.013-0.198,0.123-0.198h1.75c0.122,0.009,0.228,0.086,0.275,0.198c0.037,0.063,0.015,0.144-0.048,0.181
			C110.502,87.884,110.476,87.891,110.45,87.889z"/>
	</g>
	<g id="XMLID_251_">
		<path id="XMLID_1179_" class="st8" d="M115.3,87.889h-4.008c-0.122-0.009-0.228-0.086-0.275-0.198
			c-0.043-0.112,0.013-0.198,0.123-0.198h4.008c0.122,0.009,0.228,0.086,0.275,0.198C115.466,87.8,115.411,87.889,115.3,87.889z"/>
	</g>
	<g id="XMLID_250_">
		<path id="XMLID_1178_" class="st8" d="M106.57,89.272h-2.36c-0.122-0.009-0.228-0.086-0.275-0.198
			c-0.041-0.112,0.013-0.198,0.123-0.198h2.361c0.122,0.009,0.228,0.086,0.275,0.198c0.035,0.065,0.011,0.147-0.054,0.182
			C106.618,89.268,106.594,89.273,106.57,89.272z"/>
	</g>
	<g id="XMLID_249_">
		<path id="XMLID_1177_" class="st8" d="M107.93,89.272h-0.448c-0.122-0.009-0.228-0.086-0.275-0.198
			c-0.043-0.112,0.013-0.198,0.123-0.198h0.448c0.122,0.009,0.228,0.086,0.275,0.198C108.094,89.184,108.039,89.272,107.93,89.272z"
			/>
	</g>
	<g id="XMLID_248_">
		<path id="XMLID_1176_" class="st8" d="M111.539,89.272h-3.069c-0.122-0.009-0.228-0.086-0.275-0.198
			c-0.041-0.112,0.013-0.198,0.123-0.198h3.066c0.122,0.009,0.228,0.086,0.275,0.198C111.704,89.184,111.649,89.272,111.539,89.272z
			"/>
	</g>
	<g id="XMLID_247_">
		<path id="XMLID_1175_" class="st8" d="M114.445,89.272h-1.992c-0.122-0.009-0.228-0.086-0.275-0.198
			c-0.041-0.112,0.013-0.198,0.123-0.198h1.998c0.122,0.009,0.228,0.086,0.275,0.198c0.037,0.063,0.016,0.144-0.047,0.181
			C114.502,89.269,114.473,89.275,114.445,89.272z"/>
	</g>
	<g id="XMLID_246_">
		<path id="XMLID_1174_" class="st8" d="M109.305,90.608h-4.587c-0.122-0.009-0.228-0.086-0.275-0.198
			c-0.041-0.112,0.013-0.198,0.123-0.198h4.587c0.122,0.009,0.228,0.086,0.275,0.198c0.037,0.063,0.015,0.144-0.048,0.181
			C109.358,90.604,109.331,90.61,109.305,90.608z"/>
	</g>
	<g id="XMLID_245_">
		<path id="XMLID_1173_" class="st8" d="M110.781,90.608h-0.797c-0.122-0.009-0.228-0.086-0.275-0.198
			c-0.041-0.112,0.013-0.198,0.123-0.198h0.797c0.122,0.009,0.228,0.086,0.275,0.198c0.037,0.063,0.015,0.144-0.048,0.181
			C110.834,90.604,110.808,90.61,110.781,90.608z"/>
	</g>
	<g id="XMLID_244_">
		<path id="XMLID_1172_" class="st8" d="M112.328,90.608h-0.844c-0.122-0.009-0.228-0.086-0.275-0.198
			c-0.041-0.112,0.013-0.198,0.123-0.198h0.844c0.122,0.009,0.228,0.086,0.275,0.198c0.037,0.063,0.015,0.144-0.048,0.181
			C112.381,90.604,112.355,90.61,112.328,90.608z"/>
	</g>
	<g id="XMLID_240_">
		<path id="XMLID_1171_" class="st8" d="M115.798,90.608h-2.555c-0.122-0.009-0.228-0.086-0.275-0.198
			c-0.043-0.112,0.013-0.198,0.123-0.198h2.553c0.122,0.009,0.228,0.086,0.275,0.198c0.037,0.062,0.017,0.143-0.045,0.18
			C115.851,90.604,115.825,90.61,115.798,90.608z"/>
	</g>
	<path id="XMLID_1341_" class="st0" d="M124.34,109.154l-0.814-2.13c-0.491-1.197-1.618-2.012-2.908-2.105
		c-1.161,0-1.747,0.945-1.304,2.105l0.814,2.13c-0.335-0.006-0.611,0.261-0.617,0.596c-0.002,0.11,0.026,0.218,0.081,0.313
		l1.581,4.148c0.213,0.518,0.701,0.871,1.26,0.912h4.148c0.502,0,0.756-0.41,0.56-0.912l-1.581-4.148
		c-0.211-0.508-0.685-0.858-1.233-0.909H124.34z M123.755,113.145c-0.434-0.031-0.813-0.306-0.978-0.708
		c-0.149-0.391,0.047-0.708,0.438-0.708c0.434,0.031,0.813,0.306,0.978,0.708C124.343,112.829,124.146,113.145,123.755,113.145z
		 M123.276,109.151h-2.086l-0.813-2.13c-0.193-0.332-0.081-0.757,0.25-0.951c0.12-0.07,0.257-0.102,0.395-0.093
		c0.639,0.046,1.197,0.451,1.44,1.044L123.276,109.151z"/>
	<path id="XMLID_1170_" d="M14.445,233.061h232.193c0.118,0,0.232-0.047,0.315-0.131c0.084-0.083,0.131-0.196,0.131-0.314
		c0-0.119-0.047-0.232-0.131-0.315c-0.083-0.084-0.197-0.13-0.315-0.13H14.445c-0.118,0-0.232,0.046-0.316,0.13
		c-0.084,0.083-0.131,0.196-0.131,0.315c0,0.118,0.047,0.231,0.131,0.314C14.213,233.014,14.326,233.061,14.445,233.061z"/>
	<path id="XMLID_1337_" d="M206.969,232.994c-0.053,0-0.104-0.001-0.157-0.005c-0.601-0.04-1.151-0.313-1.548-0.767
		c-1.703-1.956-3.459-4.034-5.219-6.173c-11.154-13.572-30.92-40.204-37.999-66.108c-0.032-0.116,0.014-0.239,0.114-0.307
		c0.056-0.036,5.567-3.719,13.003-7.748c3.878-2.103,8.221-4.355,12.82-6.74c6.897-3.578,14.029-7.276,19.755-10.572
		c0.056-0.032,0.118-0.047,0.187-0.033c0.086,0.014,8.732,1.507,15.755,5.666c1.607,0.875,3.081,1.954,4.371,3.204
		c1.541,1.421,2.73,2.956,3.532,4.558c0.003,0.005,0.007,0.012,0.009,0.019l1.55,2.891c0.049,0.093,0.043,0.207-0.018,0.293
		c-0.931,1.33-2.541,1.553-4.096,1.77c-1.153,0.16-2.345,0.326-3.29,0.927c-8.045,5.187-20.027,9.835-35.631,13.83
		c0.716,2.156,5.374,16.235,10.209,31.928l0.847,2.761c0.254,0.829,0.507,1.662,0.76,2.497c1.116,3.675,2.163,7.197,3.129,10.514
		c0.254,0.875,0.487,1.684,0.718,2.488l1.094,3.846c0.003,0.012,0.005,0.024,0.007,0.036c0.864,3.077,1.63,5.905,2.279,8.404
		c0.213,0.832-0.055,1.699-0.702,2.264C208.035,232.799,207.514,232.994,206.969,232.994z M162.641,159.988
		c7.096,25.742,26.74,52.201,37.837,65.701c1.757,2.139,3.509,4.211,5.209,6.164c0.298,0.34,0.712,0.546,1.164,0.577
		c0.449,0.025,0.89-0.117,1.232-0.416c0.485-0.424,0.688-1.076,0.527-1.701c-0.65-2.505-1.419-5.34-2.285-8.428
		c-0.004-0.012-0.007-0.023-0.008-0.035l-1.083-3.805c-0.231-0.807-0.464-1.616-0.702-2.429c-0.981-3.375-2.029-6.896-3.128-10.521
		c-0.268-0.882-0.521-1.713-0.775-2.542l-0.847-2.761c-5.228-16.968-10.249-32.048-10.299-32.198
		c-0.023-0.07-0.018-0.148,0.015-0.213c0.036-0.073,0.104-0.129,0.183-0.149c15.687-3.997,27.711-8.646,35.736-13.818
		c1.07-0.683,2.323-0.857,3.535-1.026c1.442-0.2,2.806-0.391,3.613-1.401l-1.475-2.751c-0.008-0.013-0.013-0.026-0.019-0.04
		c-0.771-1.532-1.915-3.004-3.403-4.377c-1.259-1.22-2.691-2.269-4.262-3.124c-6.54-3.871-14.503-5.407-15.475-5.584
		c-5.722,3.29-12.821,6.971-19.689,10.533c-4.597,2.383-8.938,4.635-12.812,6.735C168.742,156.002,163.618,159.343,162.641,159.988z
		"/>
	<path id="XMLID_1169_" class="st0" d="M218.602,168.508H186.95c-3.648,0-6.605-2.957-6.605-6.605l0,0
		c-0.001-3.648,2.956-6.605,6.604-6.606h0.002h31.651c6.868-0.011,12.881-4.613,14.685-11.24l14.408-51.857
		c0.976-3.515,4.617-5.573,8.132-4.596l0.001,0l0,0c3.515,0.976,5.573,4.617,4.596,8.132l0,0.001l-14.396,51.821
		c-3.385,12.361-14.611,20.936-27.426,20.953V168.508z"/>
	<path id="XMLID_1168_" d="M240.486,141.826l14.396-51.82c0.227-0.822,0.292-1.68,0.191-2.527c-3.302-0.527-6.475,1.506-7.376,4.726
		l-14.409,51.857c-1.806,6.625-7.819,11.224-14.685,11.235H186.95c-3.648,0-6.605,2.957-6.605,6.605l0,0
		c0.01,0.258,0.036,0.515,0.077,0.77c0.325,0.058,0.654,0.091,0.984,0.099h31.65c12.815-0.014,24.041-8.588,27.429-20.947
		L240.486,141.826z"/>
	<path id="XMLID_1167_" class="st2" d="M192.948,166.216c-1.532-0.002-2.772-1.245-2.77-2.776c0-0.291,0.047-0.581,0.137-0.858
		l6.677-20.365c2.319-7.107,8.952-11.913,16.428-11.902h39.347c1.53,0,2.771,1.24,2.771,2.771s-1.24,2.771-2.771,2.771H213.42
		c-5.08-0.008-9.588,3.257-11.164,8.087l-6.677,20.365c-0.374,1.137-1.435,1.905-2.632,1.906L192.948,166.216z"/>
	<path id="XMLID_1166_" d="M252.769,130.315h-39.347c-7.476-0.011-14.109,4.794-16.428,11.902l-0.391,1.192
		c1.276-2.793,3.285-5.189,5.812-6.932c3.339-2.26,7.291-3.442,11.322-3.384h41.802c0-0.002,0-0.004,0-0.007
		C255.539,131.556,254.299,130.316,252.769,130.315L252.769,130.315z"/>
</g>
</svg>
